<svg width="127" height="112" viewBox="0 0 127 112" fill="none" xmlns="http://www.w3.org/2000/svg">
<path d="M112.58 9.15691V1.76172H7.25301V9.15691H1.80435L1.34961 101.778H15.4301V109.627H106.222V105.471H115.077V98.7742H125.065V16.5437H119.385V9.15691H112.58Z" fill="url(#paint0_linear_2110_613)" stroke="#FF595A" stroke-width="0.988412"/>
<rect x="60.7695" width="3.2903" height="3.25564" fill="#FF595A"/>
<rect y="57.0742" width="3.2903" height="3.25564" fill="#FF595A"/>
<rect x="55.0215" y="107.99" width="3.2903" height="3.25564" fill="#FF595A"/>
<rect x="123.594" y="55.8438" width="3.2903" height="3.25564" fill="#FF595A"/>
<path d="M45.4668 32.8781C45.4668 28.4038 45.4668 26.1667 46.3375 24.4577C47.1035 22.9545 48.3256 21.7324 49.8288 20.9664C51.5378 20.0957 53.7749 20.0957 58.2492 20.0957H68.6347C73.109 20.0957 75.3461 20.0957 77.055 20.9664C78.5583 21.7324 79.7805 22.9545 80.5463 24.4577C81.4171 26.1667 81.4171 28.4038 81.4171 32.8781V43.2636C81.4171 47.7379 81.4171 49.975 80.5463 51.684C79.7805 53.1872 78.5583 54.4094 77.055 55.1752C75.3461 56.046 73.109 56.046 68.6347 56.046H58.2492C53.7749 56.046 51.5378 56.046 49.8288 55.1752C48.3256 54.4094 47.1035 53.1872 46.3375 51.684C45.4668 49.975 45.4668 47.7379 45.4668 43.2636V32.8781Z" fill="url(#paint1_linear_2110_613)"/>
<path d="M71.212 28.4707L63.5249 34.4698L55.6621 28.4707V28.4723L55.6716 28.4804V36.8808L63.4363 43.0096L71.212 37.1175V28.4707Z" fill="#EA4335"/>
<path d="M73.2297 27.0117L71.2109 28.471V37.1177L77.5632 32.2407V29.3027C77.5632 29.3027 76.7922 25.1066 73.2297 27.0117Z" fill="#FBBC05"/>
<path d="M71.2109 37.1173V48.3324H76.0796C76.0796 48.3324 77.4651 48.1897 77.5648 46.6105V32.2402L71.2109 37.1173Z" fill="#34A853"/>
<path d="M55.672 48.3427V36.8811L55.6621 36.873L55.672 48.3427Z" fill="#C5221F"/>
<path d="M55.6612 28.4728L53.6535 27.0216C50.091 25.1165 49.3184 29.311 49.3184 29.311V32.2489L55.6612 36.8731V28.4728Z" fill="#C5221F"/>
<path d="M55.6621 28.4727V36.8731L55.672 36.8812V28.4808L55.6621 28.4727Z" fill="#C5221F"/>
<path d="M49.3184 32.25V46.6202C49.4165 48.2011 50.8035 48.3423 50.8035 48.3423H55.6723L55.6612 36.8726L49.3184 32.25Z" fill="#4285F4"/>
<path d="M50.8163 76.6327C48.3167 76.6327 46.6546 74.9071 46.6546 72.2553C46.6546 69.6034 48.4436 67.8778 51.1589 67.8778C53.5697 67.8778 55.2446 69.0959 55.2446 71.0626V71.1641H53.7346V71.0626C53.7346 69.8445 52.8845 69.1847 51.1208 69.1847C49.078 69.1847 48.101 70.1363 48.101 72.2553C48.101 74.3742 49.0653 75.3132 51.0574 75.3132C53.0875 75.3132 53.8869 74.7549 53.8869 73.3211V73.2069H50.7402V72.1664H55.2446V76.5059H54.0011V74.666H53.9123C53.557 75.9095 52.4785 76.6327 50.8163 76.6327ZM57.7701 76.5059H56.3998V70.1998H57.6559V72.103H57.7321C57.897 71.0499 58.5822 70.0729 60.1555 70.0729C61.5893 70.0729 62.3633 70.9484 62.5409 72.1538H62.6171C62.782 71.0752 63.4926 70.0729 65.0913 70.0729C66.7281 70.0729 67.5528 71.1894 67.5528 72.712V76.5059H66.1952V73.08C66.1952 71.8365 65.7003 71.3036 64.4823 71.3036C63.1373 71.3036 62.6551 71.9888 62.6551 73.3845V76.5059H61.2975V73.08C61.2975 71.8365 60.8153 71.3036 59.5973 71.3036C58.2396 71.3036 57.7701 71.9888 57.7701 73.3845V76.5059ZM70.6309 76.6327C69.324 76.6327 68.4992 76.0237 68.4992 74.9833C68.4992 74.0063 69.2859 73.4987 70.5294 73.3592L73.3969 73.0546V72.6867C73.3969 71.6462 72.9401 71.2783 71.7347 71.2783C70.5674 71.2783 69.9964 71.6589 69.9964 72.5852V72.6359H68.6388V72.5852C68.6388 71.1514 69.8315 70.0729 71.8363 70.0729C73.841 70.0729 74.7419 71.1641 74.7419 72.674V76.5059H73.4857V74.9325H73.3969C73.067 75.9983 72.0646 76.6327 70.6309 76.6327ZM69.8696 74.8944C69.8696 75.402 70.2121 75.6431 70.9988 75.6431C72.4326 75.6431 73.3969 75.1101 73.3969 73.8667L70.9227 74.1458C70.2121 74.2346 69.8696 74.3996 69.8696 74.8944ZM77.3355 69.4638H75.9651V68.0047H77.3355V69.4638ZM77.3355 76.5059H75.9651V70.1998H77.3355V76.5059ZM79.9747 76.5059H78.6044V68.0047H79.9747V76.5059Z" fill="url(#paint2_linear_2110_613)"/>
<path d="M16.4142 89.2225C15.1929 89.2225 14.3714 88.4453 14.3714 87.3129C14.3714 86.1656 15.1929 85.3959 16.4142 85.3959C17.6428 85.3959 18.4644 86.1656 18.4644 87.3129C18.4644 88.4453 17.6428 89.2225 16.4142 89.2225ZM16.4142 88.5119C17.3098 88.5119 17.6798 88.09 17.6798 87.3129C17.6798 86.5283 17.3098 86.099 16.4142 86.099C15.526 86.099 15.1559 86.5283 15.1559 87.3129C15.1559 88.09 15.526 88.5119 16.4142 88.5119ZM19.8439 90.4067H19.0445V85.4699H19.7772V86.4913H19.8439C19.9919 85.8103 20.51 85.3959 21.376 85.3959C22.5158 85.3959 23.1598 86.173 23.1598 87.3129C23.1598 88.4527 22.5306 89.2225 21.3834 89.2225C20.5544 89.2225 20.0215 88.7858 19.8735 88.1122H19.8439V90.4067ZM19.8439 87.3721C19.8439 88.127 20.325 88.4971 21.1095 88.4971C21.9015 88.4971 22.3604 88.1936 22.3604 87.3129C22.3604 86.4247 21.8941 86.1286 21.1243 86.1286C20.3028 86.1286 19.8439 86.5135 19.8439 87.3055V87.3721ZM25.5642 89.2225C24.3578 89.2225 23.5658 88.5415 23.5658 87.3129C23.5658 86.1656 24.3504 85.3959 25.5494 85.3959C26.6892 85.3959 27.4664 86.025 27.4664 87.1426C27.4664 87.2758 27.459 87.3795 27.4368 87.4905H24.3133C24.343 88.201 24.6908 88.5785 25.542 88.5785C26.3118 88.5785 26.63 88.3269 26.63 87.8902V87.831H27.4294V87.8976C27.4294 88.6821 26.6596 89.2225 25.5642 89.2225ZM25.5346 86.025C24.7204 86.025 24.3652 86.3877 24.3207 87.0464H26.7114V87.0316C26.7114 86.3507 26.3192 86.025 25.5346 86.025ZM28.8645 89.1484H28.0651V85.4699H28.7979V86.6097H28.8497C28.9607 85.988 29.4492 85.3959 30.3818 85.3959C31.4032 85.3959 31.9065 86.0842 31.9065 86.9354V89.1484H31.1071V87.15C31.1071 86.4617 30.7963 86.1138 30.0339 86.1138C29.2272 86.1138 28.8645 86.5283 28.8645 87.3277V89.1484ZM33.4182 89.1484H32.6188V85.4699H33.3515V86.5801H33.396C33.4922 85.9658 33.8919 85.3959 34.8096 85.3959C35.646 85.3959 36.0975 85.9066 36.2011 86.6097H36.2455C36.3418 85.9806 36.7562 85.3959 37.6888 85.3959C38.6436 85.3959 39.1247 86.0472 39.1247 86.9354V89.1484H38.3328V87.15C38.3328 86.4247 38.0441 86.1138 37.3336 86.1138C36.549 86.1138 36.2677 86.5135 36.2677 87.3277V89.1484H35.4758V87.15C35.4758 86.4247 35.1945 86.1138 34.484 86.1138C33.692 86.1138 33.4182 86.5135 33.4182 87.3277V89.1484ZM40.639 85.0406H39.8396V84.1894H40.639V85.0406ZM40.639 89.1484H39.8396V85.4699H40.639V89.1484ZM42.1786 89.1484H41.3792V85.4699H42.112V86.6097H42.1638C42.2748 85.988 42.7633 85.3959 43.6959 85.3959C44.7173 85.3959 45.2206 86.0842 45.2206 86.9354V89.1484H44.4212V87.15C44.4212 86.4617 44.1104 86.1138 43.348 86.1138C42.5412 86.1138 42.1786 86.5283 42.1786 87.3277V89.1484ZM47.5538 89.2225C46.3918 89.2225 45.7478 88.4453 45.7478 87.3129C45.7478 86.1656 46.3844 85.3959 47.502 85.3959C48.3754 85.3959 48.8713 85.8474 49.0193 86.4691H49.0637V84.1894H49.8631V89.1484H49.1303V88.09H49.0785C48.9231 88.8228 48.3828 89.2225 47.5538 89.2225ZM46.5546 87.3129C46.5546 88.1936 47.0061 88.4897 47.7981 88.4897C48.5826 88.4897 49.0637 88.1196 49.0637 87.3499V87.2907C49.0637 86.5061 48.6048 86.1212 47.7833 86.1212C47.0135 86.1212 46.5546 86.4247 46.5546 87.3129ZM52.3416 89.2225C51.1573 89.2225 50.4838 88.7562 50.4838 87.905V87.8828H51.2831V87.942C51.2831 88.4231 51.5718 88.5785 52.3416 88.5785C53.0595 88.5785 53.2742 88.4305 53.2742 88.1048C53.2742 87.8014 53.0965 87.7051 52.571 87.6311L51.5644 87.4979C50.8687 87.4091 50.4468 87.113 50.4468 86.4987C50.4468 85.8548 51.0315 85.3959 52.1639 85.3959C53.289 85.3959 53.9699 85.8474 53.9699 86.7207V86.7429H53.1779V86.6985C53.1779 86.2618 52.9559 86.0324 52.1417 86.0324C51.4682 86.0324 51.2313 86.1804 51.2313 86.5283C51.2313 86.817 51.3794 86.9206 51.9345 86.9946L52.7857 87.113C53.659 87.224 54.0587 87.5201 54.0587 88.127C54.0587 88.8154 53.3778 89.2225 52.3416 89.2225ZM56.4932 89.2225C55.2794 89.2225 54.4874 88.4453 54.4874 87.3129C54.4874 86.1656 55.2794 85.3959 56.4932 85.3959C57.5961 85.3959 58.4028 86.0176 58.4028 86.9354V87.0094H57.6109V86.965C57.6109 86.3951 57.1964 86.1138 56.4784 86.1138C55.6495 86.1138 55.2794 86.5061 55.2794 87.3129C55.2794 88.1048 55.6495 88.5045 56.4784 88.5045C57.1964 88.5045 57.6109 88.2232 57.6109 87.6533V87.6015H58.4028V87.6829C58.4028 88.6007 57.5961 89.2225 56.4932 89.2225ZM59.7933 89.1484H58.994V84.1894H59.7933V89.1484ZM62.0657 89.2225C61.0295 89.2225 60.5262 88.5341 60.5262 87.6829V85.4699H61.3181V87.4683C61.3181 88.1566 61.6364 88.5045 62.4135 88.5045C63.2277 88.5045 63.6052 88.09 63.6052 87.2907V85.4699H64.3972V89.1484H63.6644V88.0086H63.62C63.5016 88.6303 63.0131 89.2225 62.0657 89.2225ZM65.8561 89.1484H65.1234V84.1894H65.9227V86.4691H65.9672C66.1152 85.8474 66.6037 85.3959 67.4845 85.3959C68.6169 85.3959 69.2386 86.1656 69.2386 87.3129C69.2386 88.4453 68.6095 89.2225 67.4401 89.2225C66.6037 89.2225 66.0634 88.8228 65.9079 88.09H65.8561V89.1484ZM65.9227 87.3499C65.9227 88.1196 66.3964 88.4897 67.1884 88.4897C67.9952 88.4897 68.4393 88.1936 68.4393 87.3129C68.4393 86.4247 67.9878 86.1212 67.2032 86.1212C66.3742 86.1212 65.9227 86.5061 65.9227 87.2907V87.3499ZM72.361 88.845C71.5987 88.845 71.0288 88.3565 71.0288 87.3351C71.0288 86.3581 71.5913 85.8251 72.3758 85.8251C72.9754 85.8251 73.3454 86.1582 73.4565 86.6245H73.5083V85.8918H74.204V87.7644C74.204 88.0974 74.3298 88.238 74.6259 88.238C75.0256 88.238 75.2106 87.9568 75.2106 87.0464C75.2106 85.6253 74.4927 84.937 72.8051 84.937C71.0954 84.937 70.2516 85.6031 70.2516 87.3129C70.2516 88.9782 71.0584 89.6369 72.6275 89.6369C73.1308 89.6369 73.5083 89.5703 73.8783 89.4593L74.0116 89.9996C73.5971 90.155 73.153 90.2513 72.5535 90.2513C70.6957 90.2513 69.5336 89.141 69.5336 87.3129C69.5336 85.4625 70.8215 84.2708 72.8421 84.2708C74.7147 84.2708 75.8916 85.2996 75.8916 86.9872C75.8916 88.127 75.3735 88.845 74.5741 88.845C73.9302 88.845 73.5675 88.5267 73.4787 88.053H73.4417C73.3232 88.4675 72.9976 88.845 72.361 88.845ZM71.7689 87.3351C71.7689 88.0012 72.0428 88.2825 72.6127 88.2825C73.116 88.2825 73.4565 88.0086 73.4565 87.4239V87.2462C73.4565 86.6689 73.116 86.3951 72.6127 86.3951C72.0428 86.3951 71.7689 86.6689 71.7689 87.3351ZM78.0051 88.8154C76.9097 88.8154 76.2583 88.127 76.2583 87.1056C76.2583 86.0842 76.9393 85.3959 78.0569 85.3959C78.8267 85.3959 79.404 85.7437 79.5372 86.3877H79.5816V85.4699H80.3144V88.7191C80.3144 89.9552 79.5446 90.4807 78.3382 90.4807C77.2502 90.4807 76.4952 89.97 76.4952 89.0818H77.2872C77.2872 89.6147 77.598 89.8146 78.3826 89.8146C79.219 89.8146 79.5224 89.5851 79.5224 88.7636V87.8606H79.4706C79.3374 88.4157 78.8415 88.8154 78.0051 88.8154ZM77.0651 87.1056C77.0651 87.8606 77.5092 88.127 78.2642 88.127C79.0783 88.127 79.5224 87.7866 79.5224 87.1352V87.0316C79.5224 86.4099 79.0635 86.0916 78.2864 86.0916C77.5166 86.0916 77.0651 86.3507 77.0651 87.1056ZM81.8534 89.1484H81.054V85.4699H81.7868V86.5801H81.8312C81.9274 85.9658 82.3271 85.3959 83.2449 85.3959C84.0812 85.3959 84.5327 85.9066 84.6364 86.6097H84.6808C84.777 85.9806 85.1915 85.3959 86.1241 85.3959C87.0789 85.3959 87.56 86.0472 87.56 86.9354V89.1484H86.768V87.15C86.768 86.4247 86.4793 86.1138 85.7688 86.1138C84.9842 86.1138 84.703 86.5135 84.703 87.3277V89.1484H83.911V87.15C83.911 86.4247 83.6298 86.1138 82.9192 86.1138C82.1272 86.1138 81.8534 86.5135 81.8534 87.3277V89.1484ZM89.3555 89.2225C88.5931 89.2225 88.112 88.8672 88.112 88.2603C88.112 87.6903 88.5709 87.3943 89.2963 87.3129L90.969 87.1352V86.9206C90.969 86.3137 90.7025 86.099 89.9994 86.099C89.3185 86.099 88.9854 86.3211 88.9854 86.8614V86.891H88.1934V86.8614C88.1934 86.025 88.8892 85.3959 90.0586 85.3959C91.2281 85.3959 91.7536 86.0324 91.7536 86.9132V89.1484H91.0208V88.2306H90.969C90.7766 88.8524 90.1918 89.2225 89.3555 89.2225ZM88.9114 88.2084C88.9114 88.5045 89.1112 88.6451 89.5701 88.6451C90.4065 88.6451 90.969 88.3343 90.969 87.6089L89.5257 87.7718C89.1112 87.8236 88.9114 87.9198 88.9114 88.2084ZM93.2665 85.0406H92.4671V84.1894H93.2665V85.0406ZM93.2665 89.1484H92.4671V85.4699H93.2665V89.1484ZM94.8061 89.1484H94.0067V84.1894H94.8061V89.1484ZM96.4048 89.1484H95.3982V88.0012H96.4048V89.1484ZM98.8569 89.2225C97.6431 89.2225 96.8511 88.4453 96.8511 87.3129C96.8511 86.1656 97.6431 85.3959 98.8569 85.3959C99.9597 85.3959 100.767 86.0176 100.767 86.9354V87.0094H99.9745V86.965C99.9745 86.3951 99.5601 86.1138 98.8421 86.1138C98.0131 86.1138 97.6431 86.5061 97.6431 87.3129C97.6431 88.1048 98.0131 88.5045 98.8421 88.5045C99.5601 88.5045 99.9745 88.2232 99.9745 87.6533V87.6015H100.767V87.6829C100.767 88.6007 99.9597 89.2225 98.8569 89.2225ZM103.238 89.2225C102.016 89.2225 101.195 88.4453 101.195 87.3129C101.195 86.1656 102.016 85.3959 103.238 85.3959C104.466 85.3959 105.288 86.1656 105.288 87.3129C105.288 88.4453 104.466 89.2225 103.238 89.2225ZM103.238 88.5119C104.133 88.5119 104.503 88.09 104.503 87.3129C104.503 86.5283 104.133 86.099 103.238 86.099C102.349 86.099 101.979 86.5283 101.979 87.3129C101.979 88.09 102.349 88.5119 103.238 88.5119ZM106.667 89.1484H105.868V85.4699H106.601V86.5801H106.645C106.741 85.9658 107.141 85.3959 108.059 85.3959C108.895 85.3959 109.347 85.9066 109.45 86.6097H109.495C109.591 85.9806 110.005 85.3959 110.938 85.3959C111.893 85.3959 112.374 86.0472 112.374 86.9354V89.1484H111.582V87.15C111.582 86.4247 111.293 86.1138 110.583 86.1138C109.798 86.1138 109.517 86.5135 109.517 87.3277V89.1484H108.725V87.15C108.725 86.4247 108.444 86.1138 107.733 86.1138C106.941 86.1138 106.667 86.5135 106.667 87.3277V89.1484Z" fill="#D9D9D9"/>
<defs>
<linearGradient id="paint0_linear_2110_613" x1="63.2072" y1="1.76172" x2="63.2072" y2="109.627" gradientUnits="userSpaceOnUse">
<stop stop-color="#D9D9D9" stop-opacity="0"/>
<stop offset="1" stop-color="#FF595A" stop-opacity="0.1"/>
</linearGradient>
<linearGradient id="paint1_linear_2110_613" x1="78.5094" y1="20.0957" x2="35.6862" y2="67.9413" gradientUnits="userSpaceOnUse">
<stop stop-color="white"/>
<stop offset="1" stop-color="#D9D9D9"/>
</linearGradient>
<linearGradient id="paint2_linear_2110_613" x1="21.6758" y1="72.0059" x2="112.96" y2="111.094" gradientUnits="userSpaceOnUse">
<stop stop-color="#FF595A"/>
<stop offset="1" stop-color="white"/>
</linearGradient>
</defs>
</svg>
