<svg width="127" height="112" viewBox="0 0 127 112" fill="none" xmlns="http://www.w3.org/2000/svg">
<path d="M112.58 9.15691V1.76172H7.25301V9.15691H1.80435L1.34961 101.778H15.4301V109.627H106.222V105.471H115.077V98.7742H125.065V16.5437H119.385V9.15691H112.58Z" fill="url(#paint0_linear_2110_583)" stroke="#257EE4" stroke-width="0.988412"/>
<rect x="60.7695" width="3.2903" height="3.25564" fill="#257EE4"/>
<rect y="57.0742" width="3.2903" height="3.25564" fill="#257EE4"/>
<rect x="55.0215" y="107.99" width="3.2903" height="3.25564" fill="#257EE4"/>
<rect x="123.594" y="55.8438" width="3.2903" height="3.25564" fill="#257EE4"/>
<g clip-path="url(#clip0_2110_583)">
<rect x="47.2129" y="22.7891" width="33" height="32" fill="white"/>
<path d="M78.1648 20.5957H48.7188C46.9228 20.5957 45.4668 22.0517 45.4668 23.8477V53.2936C45.4668 55.0897 46.9228 56.5457 48.7188 56.5457H78.1647C79.9608 56.5457 81.4168 55.0897 81.4168 53.2936V23.8477C81.4168 22.0517 79.9608 20.5957 78.1648 20.5957ZM56.5913 51.6373C56.5913 52.16 56.1676 52.5837 55.6449 52.5837H51.6164C51.0937 52.5837 50.67 52.16 50.67 51.6373V34.7501C50.67 34.2274 51.0937 33.8038 51.6164 33.8038H55.6449C56.1676 33.8038 56.5913 34.2274 56.5913 34.7501V51.6373ZM53.6306 32.2119C51.517 32.2119 49.8036 30.4984 49.8036 28.3848C49.8036 26.2712 51.517 24.5577 53.6306 24.5577C55.7443 24.5577 57.4577 26.2712 57.4577 28.3848C57.4577 30.4984 55.7444 32.2119 53.6306 32.2119ZM77.6439 51.7135C77.6439 52.1941 77.2543 52.5837 76.7738 52.5837H72.4509C71.9704 52.5837 71.5808 52.1941 71.5808 51.7135V43.7925C71.5808 42.6108 71.9274 38.6145 68.4928 38.6145C65.8286 38.6145 65.2882 41.3499 65.1797 42.5774V51.7135C65.1797 52.1941 64.7902 52.5837 64.3096 52.5837H60.1287C59.6481 52.5837 59.2585 52.1941 59.2585 51.7135V34.6739C59.2585 34.1934 59.6481 33.8038 60.1287 33.8038H64.3096C64.7901 33.8038 65.1797 34.1934 65.1797 34.6739V36.1472C66.1676 34.6647 67.6357 33.5204 70.7616 33.5204C77.6836 33.5204 77.6439 39.9872 77.6439 43.5405V51.7135Z" fill="#0077B7"/>
</g>
<path d="M43.6864 77.0039H37.0758V68.5027H38.4462V75.7731H43.6864V77.0039ZM45.9427 69.9619H44.5724V68.5027H45.9427V69.9619ZM45.9427 77.0039H44.5724V70.6978H45.9427V77.0039ZM48.582 77.0039H47.2116V70.6978H48.4678V72.6518H48.5566C48.7469 71.586 49.5843 70.5709 51.1831 70.5709C52.9341 70.5709 53.7969 71.7509 53.7969 73.2101V77.0039H52.4265V73.5781C52.4265 72.398 51.8936 71.8017 50.5867 71.8017C49.2037 71.8017 48.582 72.5122 48.582 73.8826V77.0039ZM56.3883 77.0039H55.0179V68.5027H56.3883V73.1974H58.19L60.0806 70.6978H61.6793L59.3066 73.7303L61.6666 77.0039H60.0552L58.19 74.4282H56.3883V77.0039ZM65.5255 77.1308C63.4573 77.1308 62.0996 75.9635 62.0996 73.8572C62.0996 71.8905 63.4446 70.5709 65.5001 70.5709C67.4541 70.5709 68.7864 71.6494 68.7864 73.5654C68.7864 73.7938 68.7737 73.9714 68.7356 74.1617H63.3811C63.4319 75.3798 64.0282 76.0269 65.4874 76.0269C66.807 76.0269 67.3526 75.5955 67.3526 74.8469V74.7454H68.7229V74.8596C68.7229 76.2045 67.4033 77.1308 65.5255 77.1308ZM65.4747 71.6494C64.079 71.6494 63.47 72.2712 63.3938 73.4004H67.4922V73.375C67.4922 72.2077 66.8197 71.6494 65.4747 71.6494ZM72.5915 77.1308C70.5994 77.1308 69.4955 75.7985 69.4955 73.8572C69.4955 71.8905 70.5867 70.5709 72.5027 70.5709C73.9999 70.5709 74.85 71.3449 75.1038 72.4107H75.1799V68.5027H76.5502V77.0039H75.2941V75.1895H75.2053C74.9388 76.4456 74.0126 77.1308 72.5915 77.1308ZM70.8786 73.8572C70.8786 75.3671 71.6525 75.8746 73.0102 75.8746C74.3552 75.8746 75.1799 75.2402 75.1799 73.9206V73.8191C75.1799 72.4742 74.3932 71.8144 72.9848 71.8144C71.6652 71.8144 70.8786 72.3346 70.8786 73.8572ZM79.1876 77.0039H77.8173V68.5027H79.1876V77.0039ZM81.8269 77.0039H80.4566V70.6978H81.7127V72.6518H81.8015C81.9919 71.586 82.8293 70.5709 84.428 70.5709C86.179 70.5709 87.0418 71.7509 87.0418 73.2101V77.0039H85.6715V73.5781C85.6715 72.398 85.1386 71.8017 83.8317 71.8017C82.4486 71.8017 81.8269 72.5122 81.8269 73.8826V77.0039Z" fill="url(#paint1_linear_2110_583)"/>
<path d="M40.3896 88.7099C39.0573 88.7099 38.1755 87.8471 38.1755 86.5212C38.1755 85.1953 39.0573 84.3324 40.3896 84.3324C41.7345 84.3324 42.61 85.1953 42.61 86.5212C42.61 87.8471 41.7345 88.7099 40.3896 88.7099ZM40.3896 88.0501C41.3983 88.0501 41.8868 87.5807 41.8868 86.5212C41.8868 85.4617 41.3983 84.9859 40.3896 84.9859C39.3809 84.9859 38.8987 85.4617 38.8987 86.5212C38.8987 87.5807 39.3809 88.0501 40.3896 88.0501ZM43.8014 89.725H43.1162V85.4934H43.7443V86.3689H43.8014C43.9283 85.7853 44.3724 85.43 45.1146 85.43C46.0916 85.43 46.6436 86.0961 46.6436 87.0731C46.6436 88.0501 46.1043 88.7099 45.121 88.7099C44.4104 88.7099 43.9537 88.3356 43.8268 87.7583H43.8014V89.725ZM43.8014 87.1239C43.8014 87.771 44.2138 88.0882 44.8863 88.0882C45.5651 88.0882 45.9584 87.8281 45.9584 87.0731C45.9584 86.3118 45.5587 86.0581 44.8989 86.0581C44.1947 86.0581 43.8014 86.388 43.8014 87.0668V87.1239ZM48.7046 88.7099C47.6705 88.7099 46.9916 88.1263 46.9916 87.0731C46.9916 86.0898 47.6641 85.43 48.6919 85.43C49.6689 85.43 50.335 85.9692 50.335 86.9272C50.335 87.0414 50.3287 87.1302 50.3096 87.2254H47.6324C47.6578 87.8344 47.9559 88.158 48.6855 88.158C49.3453 88.158 49.6181 87.9423 49.6181 87.568V87.5172H50.3033V87.5743C50.3033 88.2468 49.6435 88.7099 48.7046 88.7099ZM48.6792 85.9692C47.9813 85.9692 47.6768 86.2801 47.6387 86.8447H49.6879V86.8321C49.6879 86.2484 49.3517 85.9692 48.6792 85.9692ZM51.5334 88.6465H50.8482V85.4934H51.4763V86.4704H51.5207C51.6158 85.9375 52.0345 85.43 52.8339 85.43C53.7094 85.43 54.1408 86.02 54.1408 86.7496V88.6465H53.4556V86.9336C53.4556 86.3436 53.1892 86.0454 52.5357 86.0454C51.8442 86.0454 51.5334 86.4006 51.5334 87.0858V88.6465ZM56.5207 88.6465H55.8355V84.3959H56.7681L57.9926 86.8574L58.3796 87.7393H58.4303L58.8046 86.8574L60.0164 84.3959H60.949V88.6465H60.2638V86.039L60.2892 85.4236H60.2384L59.9783 86.039L58.8046 88.3927H57.9799L56.8062 86.039L56.5461 85.4236H56.4953L56.5207 86.039V88.6465ZM62.2701 85.1255H61.585V84.3959H62.2701V85.1255ZM62.2701 88.6465H61.585V85.4934H62.2701V88.6465ZM63.5898 88.6465H62.9046V85.4934H63.5327V86.4704H63.5771C63.6722 85.9375 64.091 85.43 64.8903 85.43C65.7658 85.43 66.1972 86.02 66.1972 86.7496V88.6465H65.512V86.9336C65.512 86.3436 65.2456 86.0454 64.5921 86.0454C63.9006 86.0454 63.5898 86.4006 63.5898 87.0858V88.6465ZM68.1971 88.7099C67.2011 88.7099 66.6491 88.0438 66.6491 87.0731C66.6491 86.0898 67.1947 85.43 68.1527 85.43C68.9013 85.43 69.3264 85.817 69.4533 86.3499H69.4913V84.3959H70.1765V88.6465H69.5484V87.7393H69.504C69.3708 88.3673 68.9077 88.7099 68.1971 88.7099ZM67.3407 87.0731C67.3407 87.8281 67.7276 88.0819 68.4065 88.0819C69.079 88.0819 69.4913 87.7646 69.4913 87.1049V87.0541C69.4913 86.3816 69.098 86.0517 68.3938 86.0517C67.734 86.0517 67.3407 86.3118 67.3407 87.0731ZM72.3009 88.7099C71.2858 88.7099 70.7085 88.3102 70.7085 87.5807V87.5616H71.3937V87.6124C71.3937 88.0248 71.6411 88.158 72.3009 88.158C72.9163 88.158 73.1003 88.0311 73.1003 87.752C73.1003 87.4918 72.948 87.4094 72.4976 87.3459L71.6348 87.2317C71.0384 87.1556 70.6768 86.9018 70.6768 86.3753C70.6768 85.8233 71.178 85.43 72.1486 85.43C73.113 85.43 73.6966 85.817 73.6966 86.5656V86.5846H73.0178V86.5466C73.0178 86.1723 72.8275 85.9756 72.1296 85.9756C71.5523 85.9756 71.3493 86.1025 71.3493 86.4006C71.3493 86.6481 71.4762 86.7369 71.952 86.8003L72.6816 86.9018C73.4302 86.997 73.7727 87.2508 73.7727 87.771C73.7727 88.361 73.1891 88.7099 72.3009 88.7099ZM77.4195 88.7099C76.0999 88.7099 75.2244 87.8471 75.2244 86.5212C75.2244 85.1953 76.0999 84.3324 77.4195 84.3324C78.6186 84.3324 79.456 84.9669 79.456 85.9819V86.0708H78.701V85.9819C78.701 85.3348 78.2887 84.9859 77.4259 84.9859C76.4298 84.9859 75.9477 85.4617 75.9477 86.5212C75.9477 87.5807 76.4298 88.0501 77.4259 88.0501C78.2887 88.0501 78.701 87.7075 78.701 87.0541V86.9716H79.456V87.0541C79.456 88.0755 78.6249 88.7099 77.4195 88.7099ZM80.6459 88.6465H79.9607V84.3959H80.6459V88.6465ZM82.5936 88.7099C81.7054 88.7099 81.274 88.1199 81.274 87.3903V85.4934H81.9529V87.2064C81.9529 87.7964 82.2257 88.0945 82.8918 88.0945C83.5897 88.0945 83.9132 87.7393 83.9132 87.0541V85.4934H84.592V88.6465H83.964V87.6695H83.9259C83.8244 88.2024 83.4057 88.7099 82.5936 88.7099ZM85.8426 88.6465H85.2145V84.3959H85.8997V86.3499H85.9377C86.0646 85.817 86.4833 85.43 87.2383 85.43C88.209 85.43 88.7419 86.0898 88.7419 87.0731C88.7419 88.0438 88.2026 88.7099 87.2002 88.7099C86.4833 88.7099 86.0202 88.3673 85.887 87.7393H85.8426V88.6465ZM85.8997 87.1049C85.8997 87.7646 86.3057 88.0819 86.9845 88.0819C87.676 88.0819 88.0567 87.8281 88.0567 87.0731C88.0567 86.3118 87.6697 86.0517 86.9972 86.0517C86.2867 86.0517 85.8997 86.3816 85.8997 87.0541V87.1049Z" fill="#D7DBDD"/>
<defs>
<linearGradient id="paint0_linear_2110_583" x1="63.2072" y1="1.76172" x2="63.2072" y2="109.627" gradientUnits="userSpaceOnUse">
<stop stop-color="#D9D9D9" stop-opacity="0"/>
<stop offset="1" stop-color="#257EE4" stop-opacity="0.1"/>
</linearGradient>
<linearGradient id="paint1_linear_2110_583" x1="36.4414" y1="72.5039" x2="90.4414" y2="72.5039" gradientUnits="userSpaceOnUse">
<stop stop-color="#0077B7"/>
<stop offset="1" stop-color="#DAFDFF"/>
</linearGradient>
<clipPath id="clip0_2110_583">
<rect width="35.95" height="35.95" fill="white" transform="translate(45.4668 20.5957)"/>
</clipPath>
</defs>
</svg>
