<svg width="127" height="112" viewBox="0 0 127 112" fill="none" xmlns="http://www.w3.org/2000/svg">
<path d="M112.582 9.15691V1.76172H7.25497V9.15691H1.80631L1.35156 101.778H15.4321V109.627H106.224V105.471H115.079V98.7742H125.067V16.5437H119.387V9.15691H112.582Z" fill="url(#paint0_linear_2110_598)" stroke="#8931ED" stroke-width="0.988412"/>
<rect x="60.7715" width="3.2903" height="3.25564" fill="#8931ED"/>
<rect y="57.0742" width="3.2903" height="3.25564" fill="#8931ED"/>
<rect x="55.0234" y="107.99" width="3.2903" height="3.25564" fill="#8931ED"/>
<rect x="123.594" y="55.8438" width="3.2903" height="3.25564" fill="#8931ED"/>
<g clip-path="url(#clip0_2110_598)">
<rect x="44.4102" y="21.0117" width="35.9503" height="35.9503" rx="8.45889" fill="black"/>
<g clip-path="url(#clip1_2110_598)">
<path fill-rule="evenodd" clip-rule="evenodd" d="M60.411 36.7413V35.9165C60.1247 35.8759 59.8361 35.8549 59.5469 35.8535C56.0113 35.8535 53.1348 38.7305 53.1348 42.2662C53.1348 44.435 54.2187 46.355 55.8723 47.5159C54.7651 46.3319 54.1495 44.7711 54.1504 43.1501C54.1504 39.6648 56.9451 36.8227 60.411 36.7413Z" fill="#00F2EA"/>
<path fill-rule="evenodd" clip-rule="evenodd" d="M60.5632 46.0779C62.1407 46.0779 63.4276 44.823 63.4862 43.2591L63.4915 29.298H66.0421C65.9876 29.0065 65.96 28.7106 65.9597 28.4141H62.4763L62.4705 42.3756C62.4124 43.9391 61.125 45.1935 59.548 45.1935C59.0746 45.1937 58.6082 45.0783 58.1895 44.8574C58.4598 45.2346 58.8162 45.5421 59.2289 45.7543C59.6417 45.9666 60.0991 46.0775 60.5632 46.0779ZM70.8065 34.0368V33.2608C69.8692 33.2617 68.952 32.989 68.1673 32.4762C68.8552 33.2683 69.7815 33.8158 70.807 34.0368" fill="#00F2EA"/>
<path fill-rule="evenodd" clip-rule="evenodd" d="M68.1668 32.4761C67.3978 31.5963 66.9743 30.4673 66.9748 29.2988H66.0415C66.1623 29.9447 66.413 30.5593 66.7783 31.1054C67.1436 31.6515 67.616 32.1178 68.1668 32.4761ZM59.5475 39.3373C58.7711 39.3381 58.0268 39.647 57.4778 40.1959C56.9288 40.7449 56.62 41.4892 56.6191 42.2656C56.6197 42.7996 56.7661 43.3234 57.0427 43.7803C57.3193 44.2371 57.7154 44.6097 58.1884 44.8578C57.8283 44.3611 57.6344 43.7634 57.6343 43.15C57.6351 42.3735 57.9438 41.6291 58.4928 41.08C59.0418 40.5309 59.7862 40.2221 60.5626 40.2212C60.8644 40.2212 61.1535 40.2711 61.4267 40.3568V36.8003C61.1404 36.7597 60.8517 36.7387 60.5626 36.7373C60.5118 36.7373 60.4619 36.7402 60.4115 36.7412V39.4729C60.1321 39.3839 59.8407 39.3382 59.5475 39.3373Z" fill="#FF004F"/>
<path fill-rule="evenodd" clip-rule="evenodd" d="M70.8043 34.0376V36.7451C68.9977 36.7451 67.3243 36.1672 65.9575 35.1864V42.266C65.9575 45.8017 63.0815 48.6782 59.5458 48.6782C58.1795 48.6782 56.9124 48.2471 55.8711 47.5158C56.4698 48.1614 57.1954 48.6764 58.0024 49.0286C58.8094 49.3807 59.6805 49.5623 60.561 49.5621C64.0966 49.5621 66.9731 46.6856 66.9731 43.1504V36.0709C68.3851 37.0862 70.0808 37.6315 71.8199 37.6295V34.1451C71.4712 34.1451 71.1322 34.1073 70.8043 34.0371" fill="#FF004F"/>
<path fill-rule="evenodd" clip-rule="evenodd" d="M65.9586 42.2656V35.186C67.3705 36.2014 69.0662 36.7467 70.8054 36.7446V34.0371C69.78 33.816 68.8539 33.2682 68.1662 32.4761C67.6154 32.1178 67.1431 31.6515 66.7777 31.1054C66.4124 30.5593 66.1618 29.9447 66.0409 29.2988H63.4904L63.4851 43.2599C63.4265 44.8234 62.1396 46.0783 60.5621 46.0783C60.0979 46.0778 59.6406 45.9669 59.2278 45.7546C58.8151 45.5424 58.4588 45.235 58.1883 44.8578C57.7153 44.6098 57.319 44.2372 57.0423 43.7803C56.7657 43.3235 56.6191 42.7997 56.6186 42.2656C56.6195 41.4892 56.9283 40.7449 57.4773 40.1959C58.0262 39.647 58.7705 39.3381 59.5469 39.3373C59.8482 39.3373 60.1373 39.3867 60.411 39.4729V36.7412C56.945 36.8226 54.1504 39.6647 54.1504 43.15C54.1504 44.8355 54.8052 46.3699 55.8722 47.5158C56.9479 48.273 58.2315 48.6789 59.5469 48.6777C63.0826 48.6777 65.9586 45.8012 65.9586 42.2656Z" fill="white"/>
</g>
</g>
<path d="M49.1013 77.0059H47.7436V69.7354H44.3939V68.5047H52.4383V69.7354H49.1013V77.0059ZM54.6103 69.9638H53.2399V68.5047H54.6103V69.9638ZM54.6103 77.0059H53.2399V70.6998H54.6103V77.0059ZM57.2495 77.0059H55.8792V68.5047H57.2495V73.1994H59.0513L60.9419 70.6998H62.5406L60.1679 73.7323L62.5279 77.0059H60.9165L59.0513 74.4301H57.2495V77.0059ZM67.3511 77.0059H65.9046C64.5469 77.0059 63.7095 76.4095 63.7095 74.8742V71.8417H62.6437V70.6998H63.7095V69.3167H65.0671V70.6998H67.3511V71.8417H65.0671V74.7981C65.0671 75.5721 65.4224 75.7751 66.2091 75.7751H67.3511V77.0059ZM71.431 77.1327C69.3375 77.1327 67.9291 75.8005 67.9291 73.8592C67.9291 71.8925 69.3375 70.5729 71.431 70.5729C73.5373 70.5729 74.9457 71.8925 74.9457 73.8592C74.9457 75.8005 73.5373 77.1327 71.431 77.1327ZM71.431 75.9147C72.9663 75.9147 73.6008 75.1914 73.6008 73.8592C73.6008 72.5142 72.9663 71.7783 71.431 71.7783C69.9084 71.7783 69.274 72.5142 69.274 73.8592C69.274 75.1914 69.9084 75.9147 71.431 75.9147ZM77.3105 77.0059H75.9402V68.5047H77.3105V73.1994H79.1123L81.0028 70.6998H82.6015L80.2288 73.7323L82.5889 77.0059H80.9774L79.1123 74.4301H77.3105V77.0059Z" fill="url(#paint1_linear_2110_598)"/>
<path d="M39.4443 88.3883C38.7909 88.3883 38.3024 87.9696 38.3024 87.0941C38.3024 86.2567 38.7846 85.7999 39.457 85.7999C39.9709 85.7999 40.2881 86.0854 40.3833 86.4851H40.4277V85.857H41.024V87.4621C41.024 87.7476 41.1319 87.8681 41.3857 87.8681C41.7282 87.8681 41.8869 87.627 41.8869 86.8467C41.8869 85.6286 41.2715 85.0386 39.825 85.0386C38.3595 85.0386 37.6363 85.6096 37.6363 87.0751C37.6363 88.5025 38.3278 89.0672 39.6727 89.0672C40.1041 89.0672 40.4277 89.0101 40.7449 88.9149L40.8591 89.378C40.5038 89.5112 40.1232 89.5937 39.6093 89.5937C38.0169 89.5937 37.0209 88.6421 37.0209 87.0751C37.0209 85.489 38.1248 84.4676 39.8567 84.4676C41.4618 84.4676 42.4705 85.3495 42.4705 86.7959C42.4705 87.7729 42.0264 88.3883 41.3413 88.3883C40.7893 88.3883 40.4784 88.1155 40.4023 87.7095H40.3706C40.2691 88.0648 39.9899 88.3883 39.4443 88.3883ZM38.9368 87.0941C38.9368 87.6651 39.1715 87.9062 39.66 87.9062C40.0915 87.9062 40.3833 87.6714 40.3833 87.1702V87.018C40.3833 86.5231 40.0915 86.2884 39.66 86.2884C39.1715 86.2884 38.9368 86.5231 38.9368 87.0941ZM44.5232 88.7119C43.4764 88.7119 42.7722 88.0457 42.7722 87.0751C42.7722 86.0917 43.4764 85.4319 44.5232 85.4319C45.5763 85.4319 46.2805 86.0917 46.2805 87.0751C46.2805 88.0457 45.5763 88.7119 44.5232 88.7119ZM44.5232 88.1028C45.2908 88.1028 45.6081 87.7412 45.6081 87.0751C45.6081 86.4026 45.2908 86.0346 44.5232 86.0346C43.7619 86.0346 43.4447 86.4026 43.4447 87.0751C43.4447 87.7412 43.7619 88.1028 44.5232 88.1028ZM47.4629 89.7269H46.7778V85.4954H47.4058V86.3709H47.4629C47.5898 85.7872 48.0339 85.4319 48.7762 85.4319C49.7532 85.4319 50.3051 86.0981 50.3051 87.0751C50.3051 88.0521 49.7659 88.7119 48.7825 88.7119C48.072 88.7119 47.6152 88.3376 47.4883 87.7603H47.4629V89.7269ZM47.4629 87.1258C47.4629 87.7729 47.8753 88.0902 48.5478 88.0902C49.2266 88.0902 49.62 87.83 49.62 87.0751C49.62 86.3138 49.2203 86.06 48.5605 86.06C47.8563 86.06 47.4629 86.3899 47.4629 87.0687V87.1258ZM52.3661 88.7119C51.332 88.7119 50.6532 88.1282 50.6532 87.0751C50.6532 86.0917 51.3256 85.4319 52.3534 85.4319C53.3304 85.4319 53.9965 85.9712 53.9965 86.9292C53.9965 87.0434 53.9902 87.1322 53.9712 87.2273H51.2939C51.3193 87.8364 51.6175 88.1599 52.3471 88.1599C53.0068 88.1599 53.2796 87.9442 53.2796 87.5699V87.5192H53.9648V87.5763C53.9648 88.2488 53.305 88.7119 52.3661 88.7119ZM52.3407 85.9712C51.6428 85.9712 51.3383 86.2821 51.3003 86.8467H53.3494V86.834C53.3494 86.2503 53.0132 85.9712 52.3407 85.9712ZM55.1949 88.6484H54.5097V85.4954H55.1378V86.4724H55.1822C55.2774 85.9395 55.6961 85.4319 56.4954 85.4319C57.3709 85.4319 57.8023 86.022 57.8023 86.7515V88.6484H57.1172V86.9355C57.1172 86.3455 56.8507 86.0473 56.1973 86.0473C55.5058 86.0473 55.1949 86.4026 55.1949 87.0878V88.6484ZM59.098 88.6484H58.4129V85.4954H59.0409V86.447H59.079C59.1615 85.9204 59.5041 85.4319 60.2907 85.4319C61.0076 85.4319 61.3946 85.8697 61.4835 86.4724H61.5215C61.604 85.9331 61.9593 85.4319 62.7586 85.4319C63.577 85.4319 63.9894 85.9902 63.9894 86.7515V88.6484H63.3106V86.9355C63.3106 86.3138 63.0631 86.0473 62.4541 86.0473C61.7816 86.0473 61.5405 86.3899 61.5405 87.0878V88.6484H60.8617V86.9355C60.8617 86.3138 60.6206 86.0473 60.0116 86.0473C59.3328 86.0473 59.098 86.3899 59.098 87.0878V88.6484ZM65.2873 85.1274H64.6022V84.3978H65.2873V85.1274ZM65.2873 88.6484H64.6022V85.4954H65.2873V88.6484ZM66.607 88.6484H65.9218V85.4954H66.5499V86.4724H66.5943C66.6894 85.9395 67.1082 85.4319 67.9075 85.4319C68.783 85.4319 69.2144 86.022 69.2144 86.7515V88.6484H68.5292V86.9355C68.5292 86.3455 68.2628 86.0473 67.6093 86.0473C66.9178 86.0473 66.607 86.4026 66.607 87.0878V88.6484ZM71.2143 88.7119C70.2183 88.7119 69.6663 88.0457 69.6663 87.0751C69.6663 86.0917 70.2119 85.4319 71.1699 85.4319C71.9185 85.4319 72.3436 85.8189 72.4705 86.3518H72.5085V84.3978H73.1937V88.6484H72.5656V87.7412H72.5212C72.388 88.3693 71.9249 88.7119 71.2143 88.7119ZM70.3579 87.0751C70.3579 87.83 70.7448 88.0838 71.4237 88.0838C72.0962 88.0838 72.5085 87.7666 72.5085 87.1068V87.0561C72.5085 86.3836 72.1152 86.0537 71.411 86.0537C70.7512 86.0537 70.3579 86.3138 70.3579 87.0751ZM75.3181 88.7119C74.303 88.7119 73.7257 88.3122 73.7257 87.5826V87.5636H74.4109V87.6143C74.4109 88.0267 74.6583 88.1599 75.3181 88.1599C75.9335 88.1599 76.1175 88.0331 76.1175 87.7539C76.1175 87.4938 75.9652 87.4113 75.5148 87.3479L74.652 87.2337C74.0556 87.1576 73.694 86.9038 73.694 86.3772C73.694 85.8253 74.1952 85.4319 75.1658 85.4319C76.1302 85.4319 76.7138 85.8189 76.7138 86.5675V86.5866H76.035V86.5485C76.035 86.1742 75.8447 85.9775 75.1468 85.9775C74.5695 85.9775 74.3665 86.1044 74.3665 86.4026C74.3665 86.65 74.4934 86.7388 74.9692 86.8023L75.6988 86.9038C76.4474 86.999 76.79 87.2527 76.79 87.7729C76.79 88.3629 76.2063 88.7119 75.3181 88.7119ZM78.8767 88.7119C77.8362 88.7119 77.1574 88.0457 77.1574 87.0751C77.1574 86.0917 77.8362 85.4319 78.8767 85.4319C79.822 85.4319 80.5135 85.9649 80.5135 86.7515V86.815H79.8347V86.7769C79.8347 86.2884 79.4794 86.0473 78.864 86.0473C78.1535 86.0473 77.8362 86.3836 77.8362 87.0751C77.8362 87.7539 78.1535 88.0965 78.864 88.0965C79.4794 88.0965 79.8347 87.8554 79.8347 87.3669V87.3225H80.5135V87.3923C80.5135 88.179 79.822 88.7119 78.8767 88.7119ZM81.7053 88.6484H81.0202V84.3978H81.7053V88.6484ZM83.6531 88.7119C82.7649 88.7119 82.3335 88.1219 82.3335 87.3923V85.4954H83.0123V87.2083C83.0123 87.7983 83.2851 88.0965 83.9512 88.0965C84.6491 88.0965 84.9726 87.7412 84.9726 87.0561V85.4954H85.6515V88.6484H85.0234V87.6714H84.9853C84.8838 88.2043 84.4651 88.7119 83.6531 88.7119ZM86.902 88.6484H86.2739V84.3978H86.9591V86.3518H86.9972C87.1241 85.8189 87.5428 85.4319 88.2977 85.4319C89.2684 85.4319 89.8013 86.0917 89.8013 87.0751C89.8013 88.0457 89.262 88.7119 88.2597 88.7119C87.5428 88.7119 87.0797 88.3693 86.9464 87.7412H86.902V88.6484ZM86.9591 87.1068C86.9591 87.7666 87.3651 88.0838 88.044 88.0838C88.7355 88.0838 89.1161 87.83 89.1161 87.0751C89.1161 86.3138 88.7291 86.0537 88.0567 86.0537C87.3461 86.0537 86.9591 86.3836 86.9591 87.0561V87.1068Z" fill="#D7DBDD"/>
<defs>
<linearGradient id="paint0_linear_2110_598" x1="63.2091" y1="1.76172" x2="63.2091" y2="109.627" gradientUnits="userSpaceOnUse">
<stop stop-color="#D9D9D9" stop-opacity="0"/>
<stop offset="1" stop-color="#8931ED" stop-opacity="0.1"/>
</linearGradient>
<linearGradient id="paint1_linear_2110_598" x1="43.9414" y1="72.5059" x2="82.9414" y2="72.5059" gradientUnits="userSpaceOnUse">
<stop stop-color="#FF0050"/>
<stop offset="0.769231" stop-color="white"/>
</linearGradient>
<clipPath id="clip0_2110_598">
<rect width="35.9503" height="35.9503" fill="white" transform="translate(45.4668 20.5957)"/>
</clipPath>
<clipPath id="clip1_2110_598">
<rect width="21.1472" height="21.1472" fill="white" transform="translate(51.8125 28.4141)"/>
</clipPath>
</defs>
</svg>
