<svg width="48" height="38" viewBox="0 0 48 38" fill="none" xmlns="http://www.w3.org/2000/svg">
<path d="M0.00195312 2.50086V34.8166C0.00195312 36.1978 1.12162 37.3174 2.50281 37.3174H45.2674C46.6486 37.3174 47.7683 36.1978 47.7683 34.8166V7.6009C47.7683 6.21972 46.6486 5.10005 45.2674 5.10005H22.8218C21.8496 5.10005 20.969 4.5326 20.4604 3.70397C19.5337 2.19401 17.8625 0 15.9762 0H2.4989C1.11771 0 0.00195312 1.11968 0.00195312 2.50086Z" fill="#FFC531"/>
<path d="M47.7686 8.56465V33.9766C47.7686 35.3578 46.6489 36.4774 45.2677 36.4774H2.50309C1.12191 36.4774 0.00223541 35.3578 0.00223541 33.9766V11.0965C0.00223541 9.71529 1.11821 8.59562 2.49939 8.59562H15.1324C19.3839 8.59562 18.7899 6.06359 21.6971 6.06372C29.6292 6.06409 40.4493 6.0639 45.2719 6.06379C46.6532 6.06375 47.7686 7.18344 47.7686 8.56465Z" fill="url(#paint0_linear_2019_21)"/>
<g clip-path="url(#clip0_2019_21)">
<g filter="url(#filter0_ddiiii_2019_21)">
<path d="M36.0326 32.7705C35.6637 33.0983 35.5182 33.6133 35.7104 34.0711C35.83 34.3468 35.9599 34.6174 36.1054 34.8775L36.2665 35.1584C36.4224 35.4185 36.5939 35.6734 36.7758 35.9179C37.072 36.3133 37.5917 36.4434 38.0594 36.2873L39.5248 35.8035C40.0809 36.2613 40.7201 36.6358 41.406 36.8908L41.723 38.3994C41.8218 38.8832 42.1959 39.2682 42.6844 39.3254C43.0378 39.3723 43.3912 39.3931 43.7498 39.3931C44.1083 39.3931 44.4617 39.3723 44.8099 39.3306C45.2984 39.2734 45.6726 38.8832 45.7713 38.4046L46.0883 36.8908C46.7795 36.6306 47.4135 36.2613 47.9695 35.8035L49.4402 36.2821C49.9079 36.4382 50.4275 36.3081 50.7238 35.9127C50.9056 35.6682 51.0771 35.4133 51.2382 35.1532L51.3941 34.8775C51.5396 34.6174 51.6696 34.3468 51.7891 34.0659C51.9814 33.6133 51.8359 33.0983 51.4669 32.7653L50.3132 31.7353C50.3704 31.3867 50.4016 31.0226 50.4016 30.6532C50.4016 30.2838 50.3704 29.9197 50.3132 29.5659L51.4669 28.5359C51.8359 28.2081 51.9814 27.6931 51.7891 27.2353C51.6696 26.9596 51.5396 26.689 51.3941 26.4237L51.2382 26.1532C51.0823 25.8879 50.9108 25.6382 50.7238 25.3937C50.4275 24.9983 49.9079 24.8682 49.4402 25.0243L47.9747 25.5081C47.4186 25.0503 46.7795 24.6758 46.0935 24.4208L45.7765 22.907C45.6777 22.4232 45.3036 22.0382 44.8151 21.981C44.4669 21.9393 44.1135 21.9185 43.755 21.9185C43.3964 21.9185 43.043 21.9393 42.6948 21.981C42.2063 22.0382 41.8322 22.4284 41.7334 22.907L41.4164 24.4208C40.7253 24.681 40.0913 25.0503 39.5352 25.5081L38.0698 25.0243C37.6021 24.8682 37.0824 24.9983 36.7862 25.3937C36.6043 25.6382 36.4328 25.8879 36.2769 26.1532L36.1158 26.4341C35.9703 26.6942 35.8404 26.9648 35.7208 27.2405C35.5286 27.6931 35.6741 28.2081 36.043 28.5411L37.1967 29.5711C37.1395 29.9249 37.1084 30.289 37.1084 30.6584C37.1084 31.0278 37.1395 31.3919 37.1967 31.7457L36.043 32.7757L36.0326 32.7705ZM41.2553 30.6532C41.2553 29.2746 42.3726 28.1561 43.7498 28.1561C45.1269 28.1561 46.2442 29.2746 46.2442 30.6532C46.2442 32.0318 45.1269 33.1503 43.7498 33.1503C42.3726 33.1503 41.2553 32.0318 41.2553 30.6532ZM25.8367 13.7717C25.5093 13.4024 24.9948 13.2567 24.5375 13.4492C24.2621 13.5688 23.9918 13.6989 23.732 13.8446L23.4514 14.0058C23.1916 14.1619 22.9369 14.3336 22.6927 14.5156C22.2977 14.8122 22.1678 15.3324 22.3237 15.8006L22.807 17.2677C22.3497 17.8243 21.9755 18.4642 21.7209 19.1509L20.2086 19.4682C19.7253 19.5671 19.3408 19.9417 19.2836 20.4307C19.2421 20.7792 19.2213 21.133 19.2213 21.4919C19.2213 21.8509 19.2421 22.2047 19.2836 22.5532C19.3408 23.0422 19.7305 23.4168 20.2086 23.5156L21.7209 23.8382C21.9807 24.5301 22.3497 25.1648 22.807 25.7214L22.3237 27.1885C22.1678 27.6567 22.2977 28.1769 22.6927 28.4734C22.9369 28.6555 23.1916 28.8272 23.4514 28.9885L23.7268 29.1445C23.9867 29.2902 24.2569 29.4203 24.5375 29.5399C24.9896 29.7324 25.5041 29.5867 25.8367 29.2174L26.8656 28.0624C27.219 28.1197 27.5828 28.1509 27.9517 28.1509C28.3207 28.1509 28.6845 28.1197 29.0379 28.0624L30.0668 29.2174C30.3942 29.5867 30.9087 29.7324 31.366 29.5399C31.6414 29.4203 31.9116 29.2902 32.1767 29.1445L32.4469 28.9885C32.7119 28.8324 32.9614 28.6607 33.2056 28.4734C33.6006 28.1769 33.7305 27.6567 33.5746 27.1885L33.0913 25.7214C33.5486 25.1648 33.9228 24.5249 34.1774 23.8382L35.6897 23.526C36.173 23.4272 36.5575 23.0526 36.6147 22.5636C36.6562 22.2151 36.677 21.8613 36.677 21.5023C36.677 21.1434 36.6562 20.7896 36.6147 20.4411C36.5575 19.9521 36.1678 19.5775 35.6897 19.4786L34.1774 19.1613C33.9176 18.4694 33.5486 17.8347 33.0913 17.2781L33.5746 15.811C33.7305 15.3428 33.6006 14.8226 33.2056 14.5261C32.9614 14.344 32.7119 14.1723 32.4469 14.0162L32.1663 13.855C31.9065 13.7093 31.6362 13.5792 31.3608 13.4596C30.9087 13.2671 30.3942 13.4128 30.0616 13.7821L29.0327 14.937C28.6793 14.8798 28.3155 14.8486 27.9466 14.8486C27.5776 14.8486 27.2138 14.8798 26.8604 14.937L25.8315 13.7821L25.8367 13.7717ZM27.9517 19C29.3289 19 30.4462 20.1185 30.4462 21.4971C30.4462 22.8758 29.3289 23.9942 27.9517 23.9942C26.5746 23.9942 25.4573 22.8758 25.4573 21.4971C25.4573 20.1185 26.5746 19 27.9517 19Z" fill="#FFC531"/>
</g>
</g>
<defs>
<filter id="filter0_ddiiii_2019_21" x="18.1022" y="12.2447" width="34.8914" height="28.2679" filterUnits="userSpaceOnUse" color-interpolation-filters="sRGB">
<feFlood flood-opacity="0" result="BackgroundImageFix"/>
<feColorMatrix in="SourceAlpha" type="matrix" values="0 0 0 0 0 0 0 0 0 0 0 0 0 0 0 0 0 0 127 0" result="hardAlpha"/>
<feOffset dx="0.0932936" dy="-0.0932936"/>
<feGaussianBlur stdDeviation="0.0932936"/>
<feColorMatrix type="matrix" values="0 0 0 0 0.878431 0 0 0 0 0.678431 0 0 0 0 0.168627 0 0 0 0.5 0"/>
<feBlend mode="normal" in2="BackgroundImageFix" result="effect1_dropShadow_2019_21"/>
<feColorMatrix in="SourceAlpha" type="matrix" values="0 0 0 0 0 0 0 0 0 0 0 0 0 0 0 0 0 0 127 0" result="hardAlpha"/>
<feOffset dx="-0.0932936" dy="0.0932936"/>
<feGaussianBlur stdDeviation="0.0932936"/>
<feColorMatrix type="matrix" values="0 0 0 0 1 0 0 0 0 0.866667 0 0 0 0 0.215686 0 0 0 0.3 0"/>
<feBlend mode="normal" in2="effect1_dropShadow_2019_21" result="effect2_dropShadow_2019_21"/>
<feBlend mode="normal" in="SourceGraphic" in2="effect2_dropShadow_2019_21" result="shape"/>
<feColorMatrix in="SourceAlpha" type="matrix" values="0 0 0 0 0 0 0 0 0 0 0 0 0 0 0 0 0 0 127 0" result="hardAlpha"/>
<feOffset dx="-1.11952" dy="1.11952"/>
<feGaussianBlur stdDeviation="1.3994"/>
<feComposite in2="hardAlpha" operator="arithmetic" k2="-1" k3="1"/>
<feColorMatrix type="matrix" values="0 0 0 0 0.878431 0 0 0 0 0.678431 0 0 0 0 0.168627 0 0 0 0.9 0"/>
<feBlend mode="normal" in2="shape" result="effect3_innerShadow_2019_21"/>
<feColorMatrix in="SourceAlpha" type="matrix" values="0 0 0 0 0 0 0 0 0 0 0 0 0 0 0 0 0 0 127 0" result="hardAlpha"/>
<feOffset dx="1.11952" dy="-1.11952"/>
<feGaussianBlur stdDeviation="1.11952"/>
<feComposite in2="hardAlpha" operator="arithmetic" k2="-1" k3="1"/>
<feColorMatrix type="matrix" values="0 0 0 0 1 0 0 0 0 0.866667 0 0 0 0 0.215686 0 0 0 0.9 0"/>
<feBlend mode="normal" in2="effect3_innerShadow_2019_21" result="effect4_innerShadow_2019_21"/>
<feColorMatrix in="SourceAlpha" type="matrix" values="0 0 0 0 0 0 0 0 0 0 0 0 0 0 0 0 0 0 127 0" result="hardAlpha"/>
<feOffset dx="-1.11952" dy="-1.11952"/>
<feGaussianBlur stdDeviation="1.11952"/>
<feComposite in2="hardAlpha" operator="arithmetic" k2="-1" k3="1"/>
<feColorMatrix type="matrix" values="0 0 0 0 0.878431 0 0 0 0 0.678431 0 0 0 0 0.168627 0 0 0 0.2 0"/>
<feBlend mode="normal" in2="effect4_innerShadow_2019_21" result="effect5_innerShadow_2019_21"/>
<feColorMatrix in="SourceAlpha" type="matrix" values="0 0 0 0 0 0 0 0 0 0 0 0 0 0 0 0 0 0 127 0" result="hardAlpha"/>
<feOffset dx="1.11952" dy="1.11952"/>
<feGaussianBlur stdDeviation="1.11952"/>
<feComposite in2="hardAlpha" operator="arithmetic" k2="-1" k3="1"/>
<feColorMatrix type="matrix" values="0 0 0 0 0.878431 0 0 0 0 0.678431 0 0 0 0 0.168627 0 0 0 0.2 0"/>
<feBlend mode="normal" in2="effect5_innerShadow_2019_21" result="effect6_innerShadow_2019_21"/>
</filter>
<linearGradient id="paint0_linear_2019_21" x1="47.7686" y1="6.06372" x2="1.04281" y2="37.9999" gradientUnits="userSpaceOnUse">
<stop offset="0.234375" stop-color="#FCF68D"/>
<stop offset="1" stop-color="#FFC531"/>
</linearGradient>
<clipPath id="clip0_2019_21">
<rect x="0.00195312" y="6.06372" width="47.7663" height="30.4137" rx="2.37581" fill="white"/>
</clipPath>
</defs>
</svg>
