<svg width="113" height="89" viewBox="0 0 113 89" fill="none" xmlns="http://www.w3.org/2000/svg">
<path d="M0 5.91623V82.365C0 85.6325 2.64879 88.2812 5.91623 88.2812H107.084C110.351 88.2812 113 85.6325 113 82.365V17.9813C113 14.7139 110.351 12.0651 107.084 12.0651H53.9846C51.6846 12.0651 49.6014 10.7227 48.3983 8.76242C46.2058 5.19035 42.2524 0 37.7899 0H5.90698C2.63954 0 0 2.64879 0 5.91623Z" fill="#5249A9"/>
<path d="M113 20.2621V80.3787C113 83.6461 110.351 86.2949 107.084 86.2949H5.91624C2.64879 86.2949 7.62939e-06 83.6461 7.62939e-06 80.3787V26.2516C7.62939e-06 22.9842 2.64005 20.3354 5.9075 20.3354H35.7932C45.8508 20.3354 44.4457 14.3454 51.3233 14.3457C70.088 14.3466 95.685 14.3461 107.094 14.3459C110.361 14.3458 113 16.9946 113 20.2621Z" fill="url(#paint0_linear_2201_2176)"/>
<g clip-path="url(#clip0_2201_2176)">
<g filter="url(#filter0_ddiiii_2201_2176)">
<path d="M108.717 37.715C108.701 37.6843 108.674 37.6602 108.642 37.6471C104.936 35.9495 101.025 34.7391 97.007 34.0459C96.9705 34.0392 96.9328 34.0441 96.8992 34.0599C96.8657 34.0758 96.838 34.1018 96.8201 34.1343C96.2875 35.0992 95.8041 36.0904 95.3716 37.104C91.0403 36.4476 86.6346 36.4476 82.3034 37.104C81.868 36.0878 81.3768 35.0964 80.832 34.1343C80.8133 34.1025 80.7855 34.0771 80.7521 34.0613C80.7188 34.0456 80.6814 34.0402 80.645 34.0459C76.6265 34.7376 72.7152 35.9482 69.0095 37.6472C68.9778 37.6606 68.951 37.6835 68.9329 37.7128C61.5223 48.7608 59.4923 59.5372 60.4882 70.1802C60.491 70.2063 60.499 70.2315 60.5118 70.2544C60.5246 70.2774 60.5418 70.2975 60.5625 70.3136C64.8777 73.5032 69.7042 75.9379 74.8361 77.5137C74.8722 77.5245 74.9108 77.524 74.9467 77.5123C74.9825 77.5006 75.0139 77.4782 75.0367 77.4481C76.1389 75.9509 77.1155 74.3655 77.9567 72.708C77.9683 72.6852 77.9749 72.6603 77.9761 72.6348C77.9773 72.6093 77.9731 72.5839 77.9637 72.5602C77.9543 72.5364 77.94 72.5149 77.9218 72.4971C77.9035 72.4793 77.8816 72.4656 77.8576 72.4568C76.3175 71.8685 74.8265 71.1593 73.3986 70.3359C73.3727 70.3207 73.3509 70.2994 73.3352 70.2737C73.3195 70.2481 73.3103 70.219 73.3085 70.189C73.3068 70.1591 73.3124 70.1291 73.325 70.1018C73.3375 70.0745 73.3566 70.0507 73.3806 70.0326C73.6802 69.8085 73.98 69.5754 74.2661 69.3399C74.2916 69.319 74.3223 69.3056 74.3549 69.3012C74.3876 69.2968 74.4208 69.3016 74.4508 69.3151C83.8057 73.5772 93.9337 73.5772 103.178 69.3151C103.208 69.3008 103.242 69.2953 103.275 69.2993C103.308 69.3033 103.339 69.3166 103.365 69.3377C103.651 69.5731 103.951 69.8085 104.253 70.0326C104.277 70.0506 104.296 70.0742 104.309 70.1014C104.322 70.1286 104.327 70.1585 104.326 70.1885C104.324 70.2184 104.315 70.2476 104.3 70.2733C104.284 70.299 104.263 70.3205 104.237 70.3359C102.812 71.1663 101.32 71.875 99.7757 72.4546C99.7517 72.4637 99.7299 72.4777 99.7118 72.4958C99.6936 72.5139 99.6795 72.5356 99.6703 72.5595C99.6611 72.5835 99.6571 72.609 99.6585 72.6346C99.6599 72.6602 99.6667 72.6852 99.6785 72.708C100.534 74.3562 101.509 75.9397 102.596 77.4455C102.618 77.4764 102.65 77.4996 102.686 77.5117C102.722 77.5239 102.76 77.5245 102.797 77.5134C107.938 75.943 112.773 73.5081 117.093 70.3136C117.114 70.2983 117.132 70.2787 117.145 70.256C117.158 70.2334 117.165 70.2083 117.168 70.1824C118.36 57.8781 115.172 47.19 108.717 37.715ZM79.3538 63.6997C76.5373 63.6997 74.2166 61.1194 74.2166 57.9506C74.2166 54.7817 76.4923 52.2012 79.3538 52.2012C82.2377 52.2012 84.5359 54.8041 84.4909 57.9504C84.4909 61.1194 82.2151 63.6997 79.3538 63.6997ZM98.3476 63.6997C95.5312 63.6997 93.2105 61.1194 93.2105 57.9506C93.2105 54.7817 95.4862 52.2012 98.3476 52.2012C101.232 52.2012 103.53 54.8041 103.485 57.9504C103.485 61.1194 101.232 63.6997 98.3476 63.6997Z" fill="#5249A9"/>
</g>
</g>
<defs>
<filter id="filter0_ddiiii_2201_2176" x="57.6035" y="31.3945" width="62.459" height="48.7754" filterUnits="userSpaceOnUse" color-interpolation-filters="sRGB">
<feFlood flood-opacity="0" result="BackgroundImageFix"/>
<feColorMatrix in="SourceAlpha" type="matrix" values="0 0 0 0 0 0 0 0 0 0 0 0 0 0 0 0 0 0 127 0" result="hardAlpha"/>
<feOffset dx="0.220703" dy="-0.220703"/>
<feGaussianBlur stdDeviation="0.220703"/>
<feColorMatrix type="matrix" values="0 0 0 0 0.282353 0 0 0 0 0.25098 0 0 0 0 0.584314 0 0 0 0.5 0"/>
<feBlend mode="normal" in2="BackgroundImageFix" result="effect1_dropShadow_2201_2176"/>
<feColorMatrix in="SourceAlpha" type="matrix" values="0 0 0 0 0 0 0 0 0 0 0 0 0 0 0 0 0 0 127 0" result="hardAlpha"/>
<feOffset dx="-0.220703" dy="0.220703"/>
<feGaussianBlur stdDeviation="0.220703"/>
<feColorMatrix type="matrix" values="0 0 0 0 0.360784 0 0 0 0 0.321569 0 0 0 0 0.741176 0 0 0 0.3 0"/>
<feBlend mode="normal" in2="effect1_dropShadow_2201_2176" result="effect2_dropShadow_2201_2176"/>
<feBlend mode="normal" in="SourceGraphic" in2="effect2_dropShadow_2201_2176" result="shape"/>
<feColorMatrix in="SourceAlpha" type="matrix" values="0 0 0 0 0 0 0 0 0 0 0 0 0 0 0 0 0 0 127 0" result="hardAlpha"/>
<feOffset dx="-2.64844" dy="2.64844"/>
<feGaussianBlur stdDeviation="3.31055"/>
<feComposite in2="hardAlpha" operator="arithmetic" k2="-1" k3="1"/>
<feColorMatrix type="matrix" values="0 0 0 0 0.282353 0 0 0 0 0.25098 0 0 0 0 0.584314 0 0 0 0.9 0"/>
<feBlend mode="normal" in2="shape" result="effect3_innerShadow_2201_2176"/>
<feColorMatrix in="SourceAlpha" type="matrix" values="0 0 0 0 0 0 0 0 0 0 0 0 0 0 0 0 0 0 127 0" result="hardAlpha"/>
<feOffset dx="2.64844" dy="-2.64844"/>
<feGaussianBlur stdDeviation="2.64844"/>
<feComposite in2="hardAlpha" operator="arithmetic" k2="-1" k3="1"/>
<feColorMatrix type="matrix" values="0 0 0 0 0.360784 0 0 0 0 0.321569 0 0 0 0 0.741176 0 0 0 0.9 0"/>
<feBlend mode="normal" in2="effect3_innerShadow_2201_2176" result="effect4_innerShadow_2201_2176"/>
<feColorMatrix in="SourceAlpha" type="matrix" values="0 0 0 0 0 0 0 0 0 0 0 0 0 0 0 0 0 0 127 0" result="hardAlpha"/>
<feOffset dx="-2.64844" dy="-2.64844"/>
<feGaussianBlur stdDeviation="2.64844"/>
<feComposite in2="hardAlpha" operator="arithmetic" k2="-1" k3="1"/>
<feColorMatrix type="matrix" values="0 0 0 0 0.282353 0 0 0 0 0.25098 0 0 0 0 0.584314 0 0 0 0.2 0"/>
<feBlend mode="normal" in2="effect4_innerShadow_2201_2176" result="effect5_innerShadow_2201_2176"/>
<feColorMatrix in="SourceAlpha" type="matrix" values="0 0 0 0 0 0 0 0 0 0 0 0 0 0 0 0 0 0 127 0" result="hardAlpha"/>
<feOffset dx="2.64844" dy="2.64844"/>
<feGaussianBlur stdDeviation="2.64844"/>
<feComposite in2="hardAlpha" operator="arithmetic" k2="-1" k3="1"/>
<feColorMatrix type="matrix" values="0 0 0 0 0.282353 0 0 0 0 0.25098 0 0 0 0 0.584314 0 0 0 0.2 0"/>
<feBlend mode="normal" in2="effect5_innerShadow_2201_2176" result="effect6_innerShadow_2201_2176"/>
</filter>
<linearGradient id="paint0_linear_2201_2176" x1="113" y1="14.3457" x2="2.46168" y2="89.8966" gradientUnits="userSpaceOnUse">
<stop offset="0.234375" stop-color="#9B91FF"/>
<stop offset="1" stop-color="#5249A9"/>
</linearGradient>
<clipPath id="clip0_2201_2176">
<rect y="14.3457" width="113" height="71.9492" rx="5.62042" fill="white"/>
</clipPath>
</defs>
</svg>
