<svg width="48" height="38" viewBox="0 0 48 38" fill="none" xmlns="http://www.w3.org/2000/svg">
<path d="M0 2.50086V34.8166C0 36.1978 1.11967 37.3174 2.50085 37.3174H45.2655C46.6466 37.3174 47.7663 36.1978 47.7663 34.8166V7.6009C47.7663 6.21972 46.6467 5.10005 45.2655 5.10005H22.8199C21.8476 5.10005 20.9671 4.5326 20.4585 3.70397C19.5317 2.19401 17.8605 0 15.9742 0H2.49694C1.11576 0 0 1.11968 0 2.50086Z" fill="#60696B"/>
<path d="M47.7676 8.56465V33.9766C47.7676 35.3578 46.6479 36.4774 45.2667 36.4774H2.50211C1.12093 36.4774 0.00125885 35.3578 0.00125885 33.9766V11.0965C0.00125885 9.71529 1.11723 8.59562 2.49842 8.59562H15.1314C19.3829 8.59562 18.7889 6.06359 21.6962 6.06372C29.6282 6.06409 40.4483 6.0639 45.271 6.06379C46.6522 6.06375 47.7676 7.18344 47.7676 8.56465Z" fill="url(#paint0_linear_2019_132)"/>
<g clip-path="url(#clip0_2019_132)">
<g filter="url(#filter0_ddiiii_2019_132)">
<path fill-rule="evenodd" clip-rule="evenodd" d="M31.7674 9.30775C28.6894 9.68406 26.1895 11.8954 25.4932 14.8577C25.3133 15.6233 25.317 15.5535 25.2992 18.549L25.2829 21.3028L24.0679 21.3176C22.9812 21.3307 22.8376 21.338 22.7066 21.3864C22.0875 21.6155 21.6141 22.1355 21.4943 22.7178C21.4386 22.989 21.4504 36.4036 21.5066 36.6258C21.6661 37.2564 22.1924 37.783 22.8226 37.9426C23.0875 38.0098 42.0281 38.0098 42.2931 37.9426C42.9197 37.7839 43.4367 37.2719 43.5947 36.6536C43.6744 36.3416 43.6881 22.9912 43.609 22.6786C43.4863 22.1932 43.113 21.7217 42.6865 21.5132C42.2972 21.323 42.2487 21.3175 40.9697 21.3175H39.8209L39.8103 18.571C39.7988 15.6267 39.8017 15.6874 39.6425 14.9523C38.8727 11.3983 35.3457 8.8703 31.7674 9.30775ZM32.905 12.2071C34.9027 12.384 36.4623 13.7504 36.927 15.7309C36.989 15.9947 36.9905 16.0552 37 18.6589L37.0097 21.3175H32.5577H28.1056L28.1158 18.6589C28.1271 15.7037 28.1149 15.897 28.332 15.2386C28.8808 13.5739 30.4122 12.3641 32.1683 12.2082C32.5427 12.1749 32.5421 12.1749 32.905 12.2071ZM33.0994 25.8599C34.9687 26.3069 35.3772 28.8872 33.7361 29.8823L33.5532 29.9933V31.4614C33.5532 32.9284 33.5531 32.9296 33.4895 32.9973L33.4259 33.0651H32.5548H31.6838L31.6231 32.9879C31.5636 32.9122 31.5624 32.8834 31.5624 31.454V29.9972L31.3648 29.8695C29.2724 28.5167 30.6728 25.2796 33.0994 25.8599Z" fill="#60696B"/>
</g>
</g>
<defs>
<filter id="filter0_ddiiii_2019_132" x="20.3385" y="8.13902" width="24.4431" height="30.9734" filterUnits="userSpaceOnUse" color-interpolation-filters="sRGB">
<feFlood flood-opacity="0" result="BackgroundImageFix"/>
<feColorMatrix in="SourceAlpha" type="matrix" values="0 0 0 0 0 0 0 0 0 0 0 0 0 0 0 0 0 0 127 0" result="hardAlpha"/>
<feOffset dx="0.0932936" dy="-0.0932936"/>
<feGaussianBlur stdDeviation="0.0932936"/>
<feColorMatrix type="matrix" values="0 0 0 0 0.329412 0 0 0 0 0.360784 0 0 0 0 0.368627 0 0 0 0.5 0"/>
<feBlend mode="normal" in2="BackgroundImageFix" result="effect1_dropShadow_2019_132"/>
<feColorMatrix in="SourceAlpha" type="matrix" values="0 0 0 0 0 0 0 0 0 0 0 0 0 0 0 0 0 0 127 0" result="hardAlpha"/>
<feOffset dx="-0.0932936" dy="0.0932936"/>
<feGaussianBlur stdDeviation="0.0932936"/>
<feColorMatrix type="matrix" values="0 0 0 0 0.423529 0 0 0 0 0.462745 0 0 0 0 0.470588 0 0 0 0.3 0"/>
<feBlend mode="normal" in2="effect1_dropShadow_2019_132" result="effect2_dropShadow_2019_132"/>
<feBlend mode="normal" in="SourceGraphic" in2="effect2_dropShadow_2019_132" result="shape"/>
<feColorMatrix in="SourceAlpha" type="matrix" values="0 0 0 0 0 0 0 0 0 0 0 0 0 0 0 0 0 0 127 0" result="hardAlpha"/>
<feOffset dx="-1.11952" dy="1.11952"/>
<feGaussianBlur stdDeviation="1.3994"/>
<feComposite in2="hardAlpha" operator="arithmetic" k2="-1" k3="1"/>
<feColorMatrix type="matrix" values="0 0 0 0 0.329412 0 0 0 0 0.360784 0 0 0 0 0.368627 0 0 0 0.9 0"/>
<feBlend mode="normal" in2="shape" result="effect3_innerShadow_2019_132"/>
<feColorMatrix in="SourceAlpha" type="matrix" values="0 0 0 0 0 0 0 0 0 0 0 0 0 0 0 0 0 0 127 0" result="hardAlpha"/>
<feOffset dx="1.11952" dy="-1.11952"/>
<feGaussianBlur stdDeviation="1.11952"/>
<feComposite in2="hardAlpha" operator="arithmetic" k2="-1" k3="1"/>
<feColorMatrix type="matrix" values="0 0 0 0 0.423529 0 0 0 0 0.462745 0 0 0 0 0.470588 0 0 0 0.9 0"/>
<feBlend mode="normal" in2="effect3_innerShadow_2019_132" result="effect4_innerShadow_2019_132"/>
<feColorMatrix in="SourceAlpha" type="matrix" values="0 0 0 0 0 0 0 0 0 0 0 0 0 0 0 0 0 0 127 0" result="hardAlpha"/>
<feOffset dx="-1.11952" dy="-1.11952"/>
<feGaussianBlur stdDeviation="1.11952"/>
<feComposite in2="hardAlpha" operator="arithmetic" k2="-1" k3="1"/>
<feColorMatrix type="matrix" values="0 0 0 0 0.329412 0 0 0 0 0.360784 0 0 0 0 0.368627 0 0 0 0.2 0"/>
<feBlend mode="normal" in2="effect4_innerShadow_2019_132" result="effect5_innerShadow_2019_132"/>
<feColorMatrix in="SourceAlpha" type="matrix" values="0 0 0 0 0 0 0 0 0 0 0 0 0 0 0 0 0 0 127 0" result="hardAlpha"/>
<feOffset dx="1.11952" dy="1.11952"/>
<feGaussianBlur stdDeviation="1.11952"/>
<feComposite in2="hardAlpha" operator="arithmetic" k2="-1" k3="1"/>
<feColorMatrix type="matrix" values="0 0 0 0 0.329412 0 0 0 0 0.360784 0 0 0 0 0.368627 0 0 0 0.2 0"/>
<feBlend mode="normal" in2="effect5_innerShadow_2019_132" result="effect6_innerShadow_2019_132"/>
</filter>
<linearGradient id="paint0_linear_2019_132" x1="47.7676" y1="6.06372" x2="1.04183" y2="37.9999" gradientUnits="userSpaceOnUse">
<stop offset="0.234375" stop-color="#858E96"/>
<stop offset="1" stop-color="#60696B"/>
</linearGradient>
<clipPath id="clip0_2019_132">
<rect y="6.06372" width="47.7663" height="30.4137" rx="2.37581" fill="white"/>
</clipPath>
</defs>
</svg>
