<svg width="187" height="233" viewBox="0 0 187 233" fill="none" xmlns="http://www.w3.org/2000/svg">
<path d="M102.596 82.8848L70.2178 115.672L103.005 148.05L135.383 115.263L102.596 82.8848Z" fill="#A435E5"/>
<path d="M135.513 115.228L102.861 147.743L135.376 180.394L168.028 147.879L135.513 115.228Z" fill="#8931ED"/>
<path d="M186.189 165.84V193.18L167.209 212.08L166.869 211.74L134.729 179.42L167.339 146.9L186.189 165.84Z" fill="#A435E5"/>
<path d="M186.189 192.5V231.23L166.829 211.78L166.869 211.74L186.189 192.5Z" fill="#C037E2"/>
<path d="M186.189 0V38.73L166.829 19.28L166.869 19.24L186.189 0Z" fill="#C037E2"/>
<path d="M135.147 50.6521L102.416 83.0874L134.851 115.818L167.582 83.3831L135.147 50.6521Z" fill="#8931ED"/>
<path d="M186.189 37.3401V65.0301L167.289 83.7501L134.849 51.01L167.589 18.5701L167.629 18.61L186.189 37.3401Z" fill="#A435E5"/>
<path d="M49.5051 16.2782L16.4595 49.7417L37.0584 70.0834L70.1041 36.6199L49.5051 16.2782Z" fill="#C037E2"/>
<path d="M33.0456 0.0379313L0 33.5015L16.5148 49.81L49.5604 16.3465L33.0456 0.0379313Z" fill="#A435E5"/>
<path d="M37.8301 162.911L17.3486 183.371L50.5865 216.644L71.0679 196.184L37.8301 162.911Z" fill="#C037E2"/>
<path d="M17.4044 183.306L0.983887 199.709L34.2217 232.982L50.6423 216.578L17.4044 183.306Z" fill="#A435E5"/>
</svg>
