<?xml version="1.0" standalone="no"?>
<!DOCTYPE svg PUBLIC "-//W3C//DTD SVG 1.1//EN" "http://www.w3.org/Graphics/SVG/1.1/DTD/svg11.dtd">
<svg xmlns="http://www.w3.org/2000/svg" width="187" height="165" viewBox="0 0 187 165" fill="none">
<path d="M94.3849 139.653C93.8337 139.352 93.6567 138.899 93.6607 138.273C93.6849 135.535 93.6688 132.8 93.6728 130.061C93.6728 129.292 94.1999 128.802 94.8798 128.907C95.2419 128.963 95.4753 129.195 95.6805 129.48C96.469 130.579 97.2777 131.665 98.0543 132.772C98.2836 133.097 98.4003 133.141 98.6497 132.784C99.4222 131.673 100.227 130.587 101.024 129.492C101.402 128.971 101.8 128.798 102.267 128.939C102.786 129.095 103.031 129.484 103.031 130.158C103.031 132.844 103.015 135.531 103.043 138.217C103.051 138.855 102.878 139.328 102.319 139.649C102.114 139.649 101.913 139.649 101.708 139.649C101.152 139.384 100.959 138.955 100.971 138.342C101.003 136.79 100.983 135.234 100.979 133.682C100.979 133.526 101.048 133.353 100.887 133.169C100.38 133.867 99.8849 134.544 99.39 135.226C98.698 136.172 97.9818 136.172 97.2898 135.218C96.7909 134.528 96.292 133.839 95.7126 133.037C95.7126 134.889 95.6885 136.589 95.7247 138.289C95.7368 138.915 95.5557 139.368 94.9884 139.649C94.7913 139.653 94.5861 139.653 94.3849 139.653Z" fill="#3274B9"/>
<path d="M51.3214 139.649C51.2047 139.517 51.0397 139.561 50.8949 139.529C48.1268 138.931 46.3887 136.313 46.7468 133.27C47.0606 130.575 49.3942 128.55 52.1301 128.59C54.6769 128.63 56.938 130.788 57.2357 133.366C57.5979 136.494 55.4775 139.188 52.814 139.577C52.7899 139.581 52.7698 139.621 52.7456 139.645C52.2709 139.649 51.7961 139.649 51.3214 139.649ZM51.953 137.548C52.3473 137.552 52.7295 137.504 53.0917 137.34C54.4073 136.746 55.1033 135.7 55.1717 134.292C55.2401 132.869 54.6568 131.726 53.3733 131.02C52.287 130.423 50.919 130.611 49.9655 131.437C48.8832 132.38 48.4889 133.983 48.9999 135.371C49.4706 136.662 50.6454 137.528 51.953 137.548Z" fill="#3474B9"/>
<path d="M78.2952 139.649C77.736 139.356 77.571 138.891 77.575 138.274C77.5992 135.587 77.5831 132.905 77.5871 130.218C77.5871 129.565 77.7963 129.208 78.267 129.047C78.7619 128.879 79.1482 129.039 79.5545 129.593C80.8782 131.389 82.1939 133.189 83.5176 134.986C83.6141 135.114 83.6705 135.282 83.8998 135.371C83.8998 134.946 83.8998 134.549 83.8998 134.152C83.8998 132.816 83.8958 131.485 83.8998 130.15C83.9038 129.5 84.3223 129.039 84.8936 129.031C85.481 129.023 85.9236 129.5 85.9236 130.17C85.9276 132.941 85.9155 135.711 85.9316 138.478C85.9356 139.044 85.654 139.384 85.2154 139.653C85.0103 139.653 84.8091 139.653 84.6039 139.653C84.274 139.445 84.0245 139.156 83.7952 138.839C82.5238 137.091 81.2484 135.351 79.9689 133.606C79.8764 133.478 79.7718 133.362 79.6109 133.173C79.6109 134.942 79.5907 136.61 79.6229 138.278C79.635 138.899 79.458 139.356 78.9027 139.653C78.7016 139.649 78.5004 139.649 78.2952 139.649Z" fill="#3474B9"/>
<path d="M111.687 139.649C111.127 139.356 110.962 138.891 110.966 138.274C110.991 135.587 110.974 132.905 110.978 130.218C110.978 129.565 111.188 129.208 111.658 129.047C112.153 128.879 112.54 129.039 112.946 129.593C114.27 131.389 115.585 133.189 116.909 134.986C117.005 135.114 117.062 135.282 117.287 135.371C117.287 134.946 117.287 134.549 117.287 134.152C117.287 132.816 117.283 131.485 117.287 130.15C117.291 129.5 117.71 129.039 118.281 129.031C118.868 129.023 119.311 129.5 119.311 130.17C119.315 132.941 119.303 135.711 119.319 138.478C119.323 139.044 119.041 139.384 118.603 139.653C118.398 139.653 118.196 139.653 117.991 139.653C117.661 139.441 117.412 139.156 117.183 138.839C115.911 137.091 114.636 135.351 113.356 133.606C113.264 133.478 113.159 133.362 112.998 133.173C112.998 134.942 112.978 136.61 113.01 138.278C113.022 138.899 112.845 139.356 112.29 139.653C112.093 139.649 111.888 139.649 111.687 139.649Z" fill="#3474B9"/>
<path d="M122.473 139.652C121.91 139.359 121.749 138.894 121.753 138.277C121.777 135.578 121.761 132.876 121.765 130.173C121.765 129.243 122.115 128.89 123.057 128.902C123.986 128.914 124.92 128.822 125.837 129.054C128.336 129.692 129.973 131.861 129.917 134.471C129.86 136.921 128.058 139.043 125.6 139.548C125.503 139.568 125.394 139.552 125.326 139.652C124.377 139.652 123.427 139.652 122.473 139.652ZM123.813 134.235C123.813 135.233 123.817 136.232 123.813 137.226C123.813 137.447 123.813 137.611 124.123 137.615C125.109 137.635 126.01 137.419 126.758 136.749C127.853 135.775 128.175 134.231 127.579 132.908C126.984 131.584 125.563 130.794 124.099 130.927C123.769 130.955 123.817 131.147 123.817 131.344C123.813 132.31 123.813 133.273 123.813 134.235Z" fill="#3474B9"/>
<path d="M135.403 139.645C134.312 139.332 133.262 138.939 132.361 138.226C132.031 137.965 131.826 137.656 131.89 137.227C132.003 136.461 132.812 136.157 133.483 136.642C134.147 137.123 134.847 137.536 135.668 137.668C136.505 137.805 137.298 137.664 137.974 137.135C138.674 136.586 138.609 135.916 137.833 135.475C137.249 135.146 136.606 134.998 135.958 134.874C135.189 134.729 134.437 134.529 133.749 134.148C131.705 133.017 131.629 130.539 133.612 129.296C134.847 128.526 136.179 128.39 137.567 128.811C138.251 129.019 138.871 129.372 139.458 129.777C139.929 130.102 140.042 130.667 139.752 131.112C139.462 131.562 138.907 131.69 138.412 131.397C137.974 131.141 137.563 130.84 137.08 130.667C136.211 130.363 135.37 130.419 134.61 130.952C133.906 131.445 133.95 132.027 134.695 132.448C135.294 132.789 135.966 132.901 136.626 133.041C137.406 133.206 138.167 133.434 138.859 133.847C140.826 135.03 140.911 137.392 139.052 138.747C138.408 139.216 137.664 139.401 136.932 139.637C136.421 139.645 135.91 139.645 135.403 139.645Z" fill="#3474B9"/>
<path d="M69.3423 139.65C68.7791 139.357 68.6181 138.892 68.6221 138.274C68.6463 135.572 68.6302 132.869 68.6342 130.166C68.6342 129.256 68.9842 128.899 69.8855 128.899C71.3621 128.899 72.8346 128.899 74.3112 128.899C75.0395 128.899 75.5223 129.296 75.5384 129.898C75.5504 130.515 75.0596 130.936 74.3072 130.94C73.241 130.944 72.1708 130.956 71.1046 130.932C70.7626 130.924 70.666 131.041 70.6821 131.365C70.7063 131.855 70.7103 132.348 70.6821 132.833C70.662 133.182 70.7988 133.258 71.1207 133.25C71.9857 133.23 72.8507 133.242 73.7158 133.246C74.5164 133.25 74.955 133.611 74.959 134.256C74.963 134.91 74.5164 135.287 73.7319 135.287C72.8507 135.291 71.9696 135.299 71.0885 135.283C70.7827 135.275 70.6701 135.363 70.6861 135.68C70.7103 136.201 70.7063 136.726 70.6861 137.252C70.6741 137.544 70.7827 137.625 71.0684 137.621C72.1024 137.609 73.1364 137.617 74.1704 137.617C74.9509 137.617 75.305 137.809 75.478 138.322C75.651 138.832 75.4901 139.172 74.8504 139.658C73.0076 139.65 71.173 139.65 69.3423 139.65Z" fill="#3473B8"/>
<path d="M60.5883 139.65C60.0411 139.349 59.8601 138.896 59.8641 138.271C59.8882 135.568 59.8721 132.866 59.8761 130.163C59.8761 129.257 60.2342 128.884 61.1315 128.9C62.1816 128.92 63.2357 128.78 64.2777 128.98C65.9837 129.309 67.1384 130.857 66.9895 132.557C66.8447 134.241 65.4043 135.564 63.6783 135.6C63.2558 135.608 62.8293 135.632 62.4069 135.592C61.9804 135.552 61.8999 135.729 61.912 136.109C61.9402 136.835 61.8878 137.565 61.9281 138.287C61.9643 138.916 61.7591 139.365 61.1958 139.646C60.9947 139.65 60.7895 139.65 60.5883 139.65ZM61.9039 132.264C61.912 132.264 61.916 132.264 61.9241 132.264C61.9241 132.601 61.9321 132.938 61.92 133.275C61.912 133.495 61.9965 133.571 62.2137 133.567C62.6724 133.555 63.1271 133.575 63.5857 133.563C64.33 133.543 64.9094 133.014 64.9456 132.324C64.9859 131.635 64.4065 131.013 63.6622 130.945C63.5294 130.933 63.3926 130.929 63.2558 130.941C62.8253 130.973 62.2499 130.748 62.0005 131.045C61.7873 131.294 61.9241 131.843 61.9039 132.264Z" fill="#3473B8"/>
<path d="M107.105 139.65C106.542 139.361 106.377 138.896 106.381 138.278C106.405 135.544 106.389 132.813 106.393 130.078C106.393 129.349 106.799 128.891 107.427 128.9C107.986 128.908 108.433 129.317 108.433 129.89C108.441 132.809 108.437 135.728 108.441 138.647C108.441 139.164 108.099 139.417 107.716 139.65C107.511 139.65 107.31 139.65 107.105 139.65Z" fill="#3473B8"/>
<path d="M24.9333 95.1129C24.9333 93.9982 24.9333 92.8795 24.9333 91.7648C25.0541 89.0502 25.2512 86.3396 25.6374 83.6451C26.3295 78.8534 27.4882 74.1821 29.1499 69.635C31.5921 62.9508 34.9838 56.7918 39.3653 51.1701C44.8129 44.1852 51.3912 38.4994 59.1282 34.1568C66.0404 30.2754 73.4233 27.7172 81.2287 26.3418C84.6365 25.7404 88.0765 25.4276 91.5326 25.2953C92.8885 25.2953 94.2484 25.2953 95.6043 25.2953C98.823 25.4236 102.026 25.7043 105.204 26.2336C110.636 27.1358 115.898 28.6194 120.976 30.7525C129.509 34.3373 136.997 39.4376 143.374 46.1299C148.637 51.6513 152.829 57.9025 155.975 64.8434C158.599 70.6254 160.369 76.6601 161.342 82.9273C161.741 85.4935 162.026 88.0798 162.067 90.6821C162.067 92.5507 162.067 94.4232 162.067 96.2918C162.055 98.1202 161.874 99.9326 161.652 101.741C161.117 106.088 160.192 110.354 158.832 114.52C157.315 119.159 155.332 123.586 152.817 127.776C151.586 129.829 149.486 130.792 147.112 130.403C145.012 130.058 143.225 128.302 142.779 126.092C142.517 124.805 142.722 123.57 143.386 122.431C145.176 119.356 146.693 116.156 147.888 112.808C150.186 106.368 151.32 99.7281 151.26 92.8915C151.175 83.216 148.874 74.0898 144.142 65.6453C137.146 53.155 126.906 44.3456 113.44 39.3254C107.682 37.1802 101.72 36.0254 95.5721 35.8529C81.2327 35.452 68.4021 39.6462 57.2372 48.624C48.0035 56.05 41.6626 65.4929 38.2226 76.8285C36.3799 82.8912 35.6195 89.1063 35.873 95.4417C36.231 104.464 38.5364 112.956 42.8375 120.904C43.2881 121.734 43.8151 122.52 44.0203 123.466C44.5675 126 43.2156 128.626 40.8418 129.613C38.3554 130.643 35.5591 129.813 34.159 127.544C32.2921 124.516 30.7954 121.305 29.4999 117.992C27.5043 112.888 26.2088 107.607 25.4926 102.186C25.1748 99.8364 25.0259 97.4787 24.9333 95.1129Z" fill="#3173B8"/>
<path d="M110.668 80.2496C110.668 82.6354 110.664 85.0172 110.672 87.403C110.672 87.7559 110.64 87.9122 110.202 87.9283C105.647 88.1248 101.728 91.7536 101.213 96.2325C101.157 96.7176 101.165 97.2108 101.161 97.7C101.129 101.942 101.221 106.185 101.101 110.427C101.06 111.903 100.867 113.354 100.372 114.753C99.604 116.931 98.0831 118.262 95.8179 118.727C94.0637 119.088 92.3095 119.048 90.5674 118.627C87.9562 117.997 86.4676 116.277 85.8198 113.735C85.4336 112.215 85.3491 110.664 85.341 109.112C85.3169 105.206 85.3008 101.301 85.337 97.3953C85.3772 92.9445 82.1947 89.1031 78.0305 88.1568C77.4672 88.0285 76.8959 87.9203 76.3246 87.9243C75.8579 87.9243 75.8217 87.7479 75.8257 87.3669C75.8378 83.1727 75.8337 78.9826 75.8337 74.7884C75.8337 74.3313 75.8337 73.8741 75.8337 73.417C75.8337 72.579 75.8338 72.5589 76.6988 72.595C82.8505 72.8597 88.2419 75.0009 92.8286 79.1069C93.1384 79.3835 93.2792 79.3835 93.589 79.1109C97.4836 75.6424 102.026 73.5494 107.192 72.8156C108.198 72.6712 109.212 72.6031 110.23 72.583C110.604 72.575 110.672 72.6993 110.672 73.0401C110.66 75.45 110.668 77.8478 110.668 80.2496Z" fill="#E52D22"/>
<path d="M137.127 106.177C137.127 109.152 137.127 112.128 137.127 115.103C137.127 115.56 137.098 116.013 137.038 116.466C136.809 118.09 135.646 118.96 134.017 118.711C132.178 118.431 130.645 117.509 129.233 116.386C125.346 113.298 122.743 109.377 121.616 104.525C121.387 103.539 121.262 102.532 121.254 101.518C121.246 100.03 121.254 98.5425 121.25 97.0549C121.23 92.8567 117.871 88.867 113.723 88.1212C113.208 88.0289 112.684 87.9488 112.165 87.9287C111.836 87.9167 111.731 87.8325 111.739 87.4997C111.763 86.6897 111.747 85.8757 111.747 85.0658C111.747 81.0921 111.755 77.1225 111.735 73.1488C111.731 72.7037 111.844 72.5794 112.294 72.5955C119.794 72.8721 126.046 75.7912 130.995 81.4089C133.96 84.769 135.823 88.6986 136.688 93.0852C136.97 94.5247 137.123 95.9883 137.123 97.4599C137.127 100.363 137.123 103.27 137.127 106.177Z" fill="#4BAB37"/>
<path d="M49.3779 105.964C49.3779 103.125 49.3698 100.286 49.3779 97.447C49.398 92.3907 50.8826 87.7755 53.7553 83.6374C57.7264 77.9195 63.1781 74.395 70.0219 73.0317C71.4341 72.751 72.8664 72.6307 74.3068 72.5946C74.6367 72.5866 74.7373 72.6748 74.7373 73.0116C74.7253 77.8434 74.7293 82.6791 74.7373 87.5108C74.7373 87.8076 74.677 87.9078 74.3511 87.9198C69.8127 88.0802 66.0589 91.4003 65.3507 95.8631C65.1295 97.2585 65.2421 98.6619 65.2461 100.061C65.2502 102.199 65.0772 104.308 64.3409 106.333C62.647 110.988 59.6657 114.581 55.3285 117.027C54.3508 117.576 53.3047 117.953 52.1741 118.089C50.4883 118.294 49.394 117.399 49.3819 115.699C49.3658 112.455 49.3779 109.208 49.3779 105.964Z" fill="#F6AC28"/>
<path d="M129.274 74.76C124.933 74.768 121.34 71.2154 121.396 66.9129C121.461 62.1895 125.456 59.1862 129.23 59.1741C133.269 59.1581 137.108 62.4421 137.124 66.8969C137.148 71.2434 133.635 74.748 129.274 74.76Z" fill="#4AAC37"/>
<path d="M57.2426 74.7547C52.8893 74.7267 49.3366 71.1901 49.405 66.8716C49.4774 62.2524 53.4163 59.1208 57.3794 59.1729C61.2137 59.221 65.1284 62.3245 65.1405 66.9839C65.1526 71.2743 61.5557 74.7828 57.2426 74.7547Z" fill="#F6AD27"/>
<path d="M93.1306 74.7628C88.7732 74.7308 85.2849 71.2423 85.3373 66.9038C85.3936 62.2725 89.252 59.1168 93.2593 59.173C97.2666 59.2291 101.109 62.6093 101.004 67.2045C100.912 71.3024 97.3229 74.7949 93.1306 74.7628Z" fill="#E52D23"/>
</svg>