<svg width="34" height="32" viewBox="0 0 34 32" fill="none" xmlns="http://www.w3.org/2000/svg">
<rect width="33.2956" height="31.849" rx="5.70975" fill="#BC81FF" fill-opacity="0.15"/>
<mask id="mask0_46_5" style="mask-type:luminance" maskUnits="userSpaceOnUse" x="0" y="0" width="34" height="32">
<path d="M33.2956 0H0V31.849H33.2956V0Z" fill="white"/>
</mask>
<g mask="url(#mask0_46_5)">
<path d="M18.3485 20.929L12.9091 21.3776L9.5166 8.56445L22.3297 11.957L21.5867 17.6906" stroke="#8931ED" stroke-width="1.42744" stroke-linecap="round" stroke-linejoin="round"/>
<path d="M22.0134 17.2649L17.7598 21.5186L19.5261 23.2849L23.7798 19.0312L22.0134 17.2649Z" stroke="#8931ED" stroke-width="1.42744" stroke-linecap="round" stroke-linejoin="round"/>
<path d="M11.2832 10.3311L15.4047 14.4526" stroke="#8931ED" stroke-width="1.42744" stroke-linecap="round" stroke-linejoin="round"/>
<path d="M17.7603 16.8084C18.4106 16.1581 18.4106 15.1036 17.7603 14.4533C17.1099 13.8029 16.0555 13.8029 15.4051 14.4533C14.7548 15.1036 14.7548 16.1581 15.4051 16.8084C16.0555 17.4588 17.1099 17.4588 17.7603 16.8084Z" stroke="#8931ED" stroke-width="1.42744" stroke-linecap="round" stroke-linejoin="round"/>
</g>
</svg>
