<svg width="82" height="34" viewBox="0 0 82 34" fill="none" xmlns="http://www.w3.org/2000/svg">
<rect x="1.15519" y="1.25089" width="69.5994" height="20.4733" fill="url(#paint0_linear_52_624)"/>
<rect x="1.15519" y="1.25089" width="69.5994" height="20.4733" stroke="#257EE4" stroke-width="0.501776" stroke-dasharray="1 1"/>
<path d="M23.2871 14.9873H19.6271V6.9473H23.2871C25.7831 6.9473 27.3551 8.4833 27.3551 10.9673C27.3551 13.4513 25.7831 14.9873 23.2871 14.9873ZM23.2871 8.1113H20.9111V13.8233H23.2871C25.1471 13.8233 25.9871 13.0313 25.9871 10.9673C25.9871 8.9033 25.1471 8.1113 23.2871 8.1113ZM30.3367 15.1073C29.1007 15.1073 28.3207 14.5313 28.3207 13.5473C28.3207 12.6233 29.0647 12.1433 30.2407 12.0113L32.9527 11.7233V11.3753C32.9527 10.3913 32.5207 10.0433 31.3807 10.0433C30.2767 10.0433 29.7367 10.4033 29.7367 11.2793V11.3273H28.4527V11.2793C28.4527 9.9233 29.5807 8.9033 31.4767 8.9033C33.3727 8.9033 34.2247 9.9353 34.2247 11.3633V14.9873H33.0367V13.4993H32.9527C32.6407 14.5073 31.6927 15.1073 30.3367 15.1073ZM29.6167 13.4633C29.6167 13.9433 29.9407 14.1713 30.6847 14.1713C32.0407 14.1713 32.9527 13.6673 32.9527 12.4913L30.6127 12.7553C29.9407 12.8393 29.6167 12.9953 29.6167 13.4633ZM36.6056 17.0273H35.7536V15.8513H36.9176C37.4456 15.8513 37.6616 15.7073 37.8416 15.2993L37.9856 14.9873L35.0456 9.0233H36.4976L38.0216 12.1913L38.6096 13.6193H38.7056L39.2696 12.1793L40.6736 9.0233H42.1016L38.9936 15.6353C38.5016 16.7033 37.8296 17.0273 36.6056 17.0273ZM51.8542 14.9873H45.1222V14.1353C45.1222 12.6473 45.7102 11.9033 47.3662 11.3393L49.2862 10.6793C50.2462 10.3313 50.5822 10.0073 50.5822 9.2993C50.5822 8.4473 50.0302 8.0153 48.5902 8.0153C46.9822 8.0153 46.3822 8.5793 46.3822 9.6353V9.7793H45.1102V9.6593C45.1102 8.1713 46.1302 6.8273 48.6382 6.8273C50.9182 6.8273 51.8782 7.9073 51.8782 9.3233C51.8782 10.6433 51.0262 11.3393 49.6102 11.7713L47.9182 12.2873C46.8382 12.6593 46.4662 13.0433 46.4662 13.9553L48.4102 13.8233H51.8542V14.9873Z" fill="#257EE4"/>
<rect x="70.3535" width="1.80639" height="1.80639" fill="#257EE4"/>
<rect x="70.3535" y="21" width="1.80639" height="1.80639" fill="#257EE4"/>
<rect y="20.9648" width="1.80639" height="1.80639" fill="#257EE4"/>
<rect y="0.0976562" width="1.80639" height="1.80639" fill="#257EE4"/>
<path d="M78.4454 30.2881C78.4895 30.4514 78.3261 30.5937 78.1704 30.5277L70.3993 27.2307C70.2133 27.1518 70.2444 26.8792 70.4434 26.8442L74.4504 26.139C74.5245 26.126 74.5852 26.073 74.6083 26.0015L75.8562 22.129C75.9182 21.9367 76.1924 21.9433 76.2451 22.1383L78.4454 30.2881Z" fill="#257EE4"/>
<defs>
<linearGradient id="paint0_linear_52_624" x1="35.9549" y1="1" x2="35.9549" y2="21.9751" gradientUnits="userSpaceOnUse">
<stop stop-color="white" stop-opacity="0"/>
<stop offset="1" stop-color="#257EE4" stop-opacity="0.08"/>
</linearGradient>
</defs>
</svg>
