<svg width="403" height="407" viewBox="0 0 403 407" fill="none" xmlns="http://www.w3.org/2000/svg">
<path d="M191.736 185.509L190.557 188.016L193.443 188L192.236 185.506L191.736 185.509ZM191.247 2.50652L192.427 0.000100983L189.54 0.0157048L190.747 2.50922L191.247 2.50652ZM191.988 185.758L192.238 185.756L191.246 2.25652L190.996 2.25787L190.746 2.25922L191.738 185.759L191.988 185.758Z" fill="#257EE4"/>
<path d="M191.736 185.509L190.557 188.016L193.443 188L192.236 185.506L191.736 185.509ZM191.247 2.50652L192.427 0.000100983L189.54 0.0157048L190.747 2.50922L191.247 2.50652ZM191.988 185.758L192.238 185.756L191.246 2.25652L190.996 2.25787L190.746 2.25922L191.738 185.759L191.988 185.758Z" fill="#257EE4"/>
<rect width="388" height="154" transform="translate(0 9.00781)" fill="url(#paint0_linear_114_2191)"/>
<rect width="388" height="154" transform="translate(0 9.00781)" fill="#0C0F18" fill-opacity="0.2"/>
<path d="M26.9648 18.3916H188V17.0078H193.178V18.3916H362.907V25.8018H374.554V40.7939H390.172V91.0078H393.178V96.1855H390.172V146.083H374.554V161.765H194.5V164.971H189.322V161.765H19.8525L13.7646 149.874L9.92676 144.188H0V40.7939H13.7646V18.3916H21.7871V16.0078H26.9648V18.3916ZM15.002 42.0312H1.2373V142.95H10.584L10.9521 143.495L14.79 149.183L14.832 149.244L14.8662 149.311L20.6094 160.527H189.322V159.794H194.5V160.527H373.316V144.846H388.935V96.1855H388V91.0078H388.935V42.0312H373.316V27.0391H361.67V19.6289H193.178V22.1855H188V19.6289H26.9648V21.1855H21.7871V19.6289H15.002V42.0312ZM13.5293 95.1846H8.35156V90.0068H13.5293V95.1846Z" fill="#257EE4"/>
<path d="M92.1705 63.0367C89.3055 63.0367 87.5055 61.1017 87.5055 57.8617C87.5055 54.6367 89.3055 52.6867 92.1705 52.6867C95.0205 52.6867 96.8205 54.6367 96.8205 57.8617C96.8205 61.1017 95.0205 63.0367 92.1705 63.0367ZM92.1705 62.0167C94.4955 62.0167 95.6955 60.6667 95.6955 57.8617C95.6955 55.0567 94.4955 53.7067 92.1705 53.7067C89.8305 53.7067 88.6305 55.0567 88.6305 57.8617C88.6305 60.6667 89.8305 62.0167 92.1705 62.0167ZM102.587 63.0367C100.292 63.0367 98.6116 61.8517 98.6116 59.8267V59.7217H99.7666V59.8267C99.7666 61.0717 100.502 62.0167 102.587 62.0167C105.107 62.0167 106.037 60.6217 106.037 57.8917V56.9767H105.932C105.572 58.1617 104.207 59.0617 102.212 59.0617C99.7516 59.0617 98.3116 57.8467 98.3116 55.9117C98.3116 53.9467 99.8416 52.6867 102.527 52.6867C105.752 52.6867 107.147 54.1717 107.147 57.8467C107.147 60.9067 105.692 63.0367 102.587 63.0367ZM102.542 58.2517C104.582 58.2517 105.827 57.3967 105.827 55.9567C105.827 54.4867 104.657 53.7067 102.572 53.7067C100.397 53.7067 99.4066 54.4567 99.4066 55.9867C99.4066 57.4717 100.367 58.2517 102.542 58.2517ZM109.889 57.5617H108.569V55.4767H109.889V57.5617ZM109.889 62.8867H108.569V60.8017H109.889V62.8867ZM115.866 63.0367C113.001 63.0367 111.201 61.1017 111.201 57.8617C111.201 54.6367 113.001 52.6867 115.866 52.6867C118.716 52.6867 120.516 54.6367 120.516 57.8617C120.516 61.1017 118.716 63.0367 115.866 63.0367ZM115.866 62.0167C118.191 62.0167 119.391 60.6667 119.391 57.8617C119.391 55.0567 118.191 53.7067 115.866 53.7067C113.526 53.7067 112.326 55.0567 112.326 57.8617C112.326 60.6667 113.526 62.0167 115.866 62.0167ZM126.567 63.0367C123.702 63.0367 121.902 61.1017 121.902 57.8617C121.902 54.6367 123.702 52.6867 126.567 52.6867C129.417 52.6867 131.217 54.6367 131.217 57.8617C131.217 61.1017 129.417 63.0367 126.567 63.0367ZM126.567 62.0167C128.892 62.0167 130.092 60.6667 130.092 57.8617C130.092 55.0567 128.892 53.7067 126.567 53.7067C124.227 53.7067 123.027 55.0567 123.027 57.8617C123.027 60.6667 124.227 62.0167 126.567 62.0167ZM136.608 58.9717H132.528V58.0267H136.608V58.9717ZM140.973 62.8867H139.908V54.8917H137.538V54.0817H138.063C139.173 54.0817 139.713 53.7817 140.103 52.8367H140.973V62.8867ZM150.811 62.8867H142.846V62.1517C142.846 60.2167 143.551 59.2717 145.576 58.5367L147.826 57.7417C149.281 57.2017 149.761 56.7067 149.761 55.6417C149.761 54.3217 148.846 53.6917 146.941 53.6917C144.766 53.6917 143.866 54.5317 143.866 56.0317V56.2117H142.801V56.0767C142.801 54.2917 144.031 52.6867 146.971 52.6867C149.671 52.6867 150.841 54.0217 150.841 55.6417C150.841 57.1867 149.881 58.0567 148.111 58.6567L146.056 59.3467C144.406 59.9317 143.941 60.5917 143.941 62.0017L146.191 61.9117H150.811V62.8867ZM153.471 57.5617H152.151V55.4767H153.471V57.5617ZM153.471 62.8867H152.151V60.8017H153.471V62.8867ZM159.447 63.0367C156.582 63.0367 154.782 61.1017 154.782 57.8617C154.782 54.6367 156.582 52.6867 159.447 52.6867C162.297 52.6867 164.097 54.6367 164.097 57.8617C164.097 61.1017 162.297 63.0367 159.447 63.0367ZM159.447 62.0167C161.772 62.0167 162.972 60.6667 162.972 57.8617C162.972 55.0567 161.772 53.7067 159.447 53.7067C157.107 53.7067 155.907 55.0567 155.907 57.8617C155.907 60.6667 157.107 62.0167 159.447 62.0167ZM170.148 63.0367C167.283 63.0367 165.483 61.1017 165.483 57.8617C165.483 54.6367 167.283 52.6867 170.148 52.6867C172.998 52.6867 174.798 54.6367 174.798 57.8617C174.798 61.1017 172.998 63.0367 170.148 63.0367ZM170.148 62.0167C172.473 62.0167 173.673 60.6667 173.673 57.8617C173.673 55.0567 172.473 53.7067 170.148 53.7067C167.808 53.7067 166.608 55.0567 166.608 57.8617C166.608 60.6667 167.808 62.0167 170.148 62.0167Z" fill="#257EE4"/>
<path d="M210.628 63.1973H205.972V52.4773H210.628C213.844 52.4773 215.892 54.5573 215.892 57.8373C215.892 61.1173 213.844 63.1973 210.628 63.1973ZM210.628 53.5173H207.124V62.1573H210.628C213.348 62.1573 214.692 60.7493 214.692 57.8373C214.692 54.9253 213.348 53.5173 210.628 53.5173ZM221.521 63.3573C218.977 63.3573 217.361 61.7573 217.361 59.2453C217.361 56.8453 218.961 55.1333 221.505 55.1333C223.825 55.1333 225.473 56.4773 225.473 58.8293C225.473 59.1173 225.441 59.3573 225.393 59.5653H218.433C218.497 61.3413 219.409 62.4133 221.505 62.4133C223.361 62.4133 224.225 61.7253 224.225 60.5733V60.4613H225.361V60.5733C225.361 62.2213 223.729 63.3573 221.521 63.3573ZM221.489 56.0773C219.441 56.0773 218.513 57.1333 218.433 58.8613H224.401C224.401 58.7813 224.401 58.7013 224.401 58.6213C224.401 56.9573 223.345 56.0773 221.489 56.0773ZM231.7 63.1973H230.308L226.532 55.2933H227.764L230.964 62.0773H231.06L234.244 55.2933H235.476L231.7 63.1973ZM244.399 63.3573C241.247 63.3573 239.775 61.8533 239.775 59.8053V59.7093H240.927V59.9173C240.927 61.4533 241.887 62.2853 244.399 62.2853C246.543 62.2853 247.519 61.6933 247.519 60.4773C247.519 59.2773 246.799 58.8453 245.231 58.5253L242.959 58.0933C241.215 57.7573 239.823 57.0213 239.823 55.2453C239.823 53.7893 241.071 52.3173 244.143 52.3173C247.167 52.3173 248.511 53.9173 248.511 55.8693V55.9653H247.359V55.7733C247.359 54.2213 246.399 53.3893 244.063 53.3893C241.935 53.3893 240.975 53.9973 240.975 55.1653C240.975 56.3813 241.679 56.7493 243.263 57.0853L245.519 57.5333C247.439 57.9013 248.671 58.7173 248.671 60.3813C248.671 61.9173 247.375 63.3573 244.399 63.3573ZM251.633 65.9173H250.497V55.2933H251.521V57.5173H251.649C252.001 56.0933 253.185 55.1333 255.057 55.1333C257.521 55.1333 258.929 56.8453 258.929 59.2453C258.929 61.6453 257.537 63.3573 255.025 63.3573C253.281 63.3573 252.017 62.3973 251.649 60.8773H251.633V65.9173ZM251.633 59.3893C251.633 61.2613 252.865 62.3173 254.721 62.3173C256.561 62.3173 257.777 61.5333 257.777 59.2453C257.777 56.9573 256.545 56.1893 254.753 56.1893C252.785 56.1893 251.633 57.2933 251.633 59.2453V59.3893ZM261.813 63.1973H260.677V55.2933H261.701V57.4533H261.781C262.021 56.1893 262.917 55.1333 264.565 55.1333C266.389 55.1333 267.189 56.4773 267.189 57.9493V58.7333H266.053V58.1253C266.053 56.7813 265.493 56.1253 264.117 56.1253C262.517 56.1253 261.813 57.1333 261.813 58.9093V63.1973ZM269.994 54.2853H268.858V52.4773H269.994V54.2853ZM269.994 63.1973H268.858V55.2933H269.994V63.1973ZM273.392 63.1973H272.256V55.2933H273.28V57.7733H273.36C273.632 56.4293 274.752 55.1333 276.72 55.1333C278.944 55.1333 280.048 56.7173 280.048 58.5893V63.1973H278.912V58.7493C278.912 57.1173 278.128 56.1733 276.32 56.1733C274.4 56.1733 273.392 57.3413 273.392 59.3733V63.1973ZM287.097 63.1973H285.385C283.817 63.1973 282.809 62.5413 282.809 60.6853V56.2693H281.401V55.2933H282.809V53.4053H283.961V55.2933H287.097V56.2693H283.961V60.7493C283.961 61.8533 284.505 62.1573 285.657 62.1573H287.097V63.1973ZM296.192 63.3573C292.96 63.3573 291.584 61.8053 291.584 59.7893V59.5333H292.768V59.7413C292.768 61.4213 293.584 62.2693 296.16 62.2693C298.56 62.2693 299.52 61.6133 299.52 60.0933C299.52 58.7333 298.576 58.0933 296.944 58.0933H294.048V57.1173H296.704C298.32 57.1173 299.2 56.5253 299.2 55.3093C299.2 54.0293 298.416 53.4053 296.112 53.4053C293.664 53.4053 292.768 54.2533 292.768 55.9333V56.0773H291.584V55.8853C291.584 53.9013 293.008 52.3173 296.192 52.3173C298.816 52.3173 300.336 53.3573 300.336 55.1333C300.336 56.3333 299.632 57.2293 298.288 57.4693V57.5813C299.808 57.8693 300.672 58.7973 300.672 60.2213C300.672 62.2213 298.96 63.3573 296.192 63.3573Z" fill="#EEEEEE"/>
<path d="M90.5655 100.197H89.5005V92.2023H87.1305V91.3923H87.6555C88.7655 91.3923 89.3055 91.0923 89.6955 90.1473H90.5655V100.197ZM96.6232 100.347C93.5932 100.347 92.3032 98.8923 92.3032 97.0023V96.7623H93.4132V96.9573C93.4132 98.5323 94.1782 99.3273 96.5932 99.3273C98.8432 99.3273 99.7432 98.7123 99.7432 97.2873C99.7432 96.0123 98.8582 95.4123 97.3282 95.4123H94.6132V94.4973H97.1032C98.6182 94.4973 99.4432 93.9423 99.4432 92.8023C99.4432 91.6023 98.7082 91.0173 96.5482 91.0173C94.2532 91.0173 93.4132 91.8123 93.4132 93.3873V93.5223H92.3032V93.3423C92.3032 91.4823 93.6382 89.9973 96.6232 89.9973C99.0832 89.9973 100.508 90.9723 100.508 92.6373C100.508 93.7623 99.8482 94.6023 98.5882 94.8273V94.9323C100.013 95.2023 100.823 96.0723 100.823 97.4073C100.823 99.2823 99.2182 100.347 96.6232 100.347ZM103.4 94.8723H102.08V92.7873H103.4V94.8723ZM103.4 100.197H102.08V98.1123H103.4V100.197ZM109.376 100.347C106.511 100.347 104.711 98.4123 104.711 95.1723C104.711 91.9473 106.511 89.9973 109.376 89.9973C112.226 89.9973 114.026 91.9473 114.026 95.1723C114.026 98.4123 112.226 100.347 109.376 100.347ZM109.376 99.3273C111.701 99.3273 112.901 97.9773 112.901 95.1723C112.901 92.3673 111.701 91.0173 109.376 91.0173C107.036 91.0173 105.836 92.3673 105.836 95.1723C105.836 97.9773 107.036 99.3273 109.376 99.3273ZM120.077 100.347C117.212 100.347 115.412 98.4123 115.412 95.1723C115.412 91.9473 117.212 89.9973 120.077 89.9973C122.927 89.9973 124.727 91.9473 124.727 95.1723C124.727 98.4123 122.927 100.347 120.077 100.347ZM120.077 99.3273C122.402 99.3273 123.602 97.9773 123.602 95.1723C123.602 92.3673 122.402 91.0173 120.077 91.0173C117.737 91.0173 116.537 92.3673 116.537 95.1723C116.537 97.9773 117.737 99.3273 120.077 99.3273ZM130.118 96.2823H126.038V95.3373H130.118V96.2823ZM134.484 100.197H133.419V92.2023H131.049V91.3923H131.574C132.684 91.3923 133.224 91.0923 133.614 90.1473H134.484V100.197ZM139.447 100.212H138.262C138.262 95.4423 140.437 92.9823 142.612 91.1973V91.1223H135.847V90.1473H143.827V91.0173C140.857 93.6273 139.447 96.0723 139.447 100.212ZM146.044 94.8723H144.724V92.7873H146.044V94.8723ZM146.044 100.197H144.724V98.1123H146.044V100.197ZM152.02 100.347C149.155 100.347 147.355 98.4123 147.355 95.1723C147.355 91.9473 149.155 89.9973 152.02 89.9973C154.87 89.9973 156.67 91.9473 156.67 95.1723C156.67 98.4123 154.87 100.347 152.02 100.347ZM152.02 99.3273C154.345 99.3273 155.545 97.9773 155.545 95.1723C155.545 92.3673 154.345 91.0173 152.02 91.0173C149.68 91.0173 148.48 92.3673 148.48 95.1723C148.48 97.9773 149.68 99.3273 152.02 99.3273ZM162.721 100.347C159.856 100.347 158.056 98.4123 158.056 95.1723C158.056 91.9473 159.856 89.9973 162.721 89.9973C165.571 89.9973 167.371 91.9473 167.371 95.1723C167.371 98.4123 165.571 100.347 162.721 100.347ZM162.721 99.3273C165.046 99.3273 166.246 97.9773 166.246 95.1723C166.246 92.3673 165.046 91.0173 162.721 91.0173C160.381 91.0173 159.181 92.3673 159.181 95.1723C159.181 97.9773 160.381 99.3273 162.721 99.3273Z" fill="#257EE4"/>
<path d="M210.628 100.508H205.972V89.7878H210.628C213.844 89.7878 215.892 91.8678 215.892 95.1478C215.892 98.4278 213.844 100.508 210.628 100.508ZM210.628 90.8278H207.124V99.4678H210.628C213.348 99.4678 214.692 98.0598 214.692 95.1478C214.692 92.2358 213.348 90.8278 210.628 90.8278ZM221.521 100.668C218.977 100.668 217.361 99.0678 217.361 96.5558C217.361 94.1558 218.961 92.4438 221.505 92.4438C223.825 92.4438 225.473 93.7878 225.473 96.1398C225.473 96.4278 225.441 96.6678 225.393 96.8758H218.433C218.497 98.6518 219.409 99.7238 221.505 99.7238C223.361 99.7238 224.225 99.0358 224.225 97.8838V97.7718H225.361V97.8838C225.361 99.5318 223.729 100.668 221.521 100.668ZM221.489 93.3878C219.441 93.3878 218.513 94.4438 218.433 96.1718H224.401C224.401 96.0918 224.401 96.0118 224.401 95.9318C224.401 94.2678 223.345 93.3878 221.489 93.3878ZM231.7 100.508H230.308L226.532 92.6038H227.764L230.964 99.3878H231.06L234.244 92.6038H235.476L231.7 100.508ZM244.399 100.668C241.247 100.668 239.775 99.1638 239.775 97.1158V97.0198H240.927V97.2278C240.927 98.7638 241.887 99.5958 244.399 99.5958C246.543 99.5958 247.519 99.0038 247.519 97.7878C247.519 96.5878 246.799 96.1558 245.231 95.8358L242.959 95.4038C241.215 95.0678 239.823 94.3318 239.823 92.5558C239.823 91.0998 241.071 89.6278 244.143 89.6278C247.167 89.6278 248.511 91.2278 248.511 93.1798V93.2758H247.359V93.0838C247.359 91.5318 246.399 90.6998 244.063 90.6998C241.935 90.6998 240.975 91.3078 240.975 92.4758C240.975 93.6918 241.679 94.0598 243.263 94.3958L245.519 94.8438C247.439 95.2118 248.671 96.0278 248.671 97.6918C248.671 99.2278 247.375 100.668 244.399 100.668ZM251.633 103.228H250.497V92.6038H251.521V94.8278H251.649C252.001 93.4038 253.185 92.4438 255.057 92.4438C257.521 92.4438 258.929 94.1558 258.929 96.5558C258.929 98.9558 257.537 100.668 255.025 100.668C253.281 100.668 252.017 99.7078 251.649 98.1878H251.633V103.228ZM251.633 96.6998C251.633 98.5718 252.865 99.6278 254.721 99.6278C256.561 99.6278 257.777 98.8438 257.777 96.5558C257.777 94.2678 256.545 93.4998 254.753 93.4998C252.785 93.4998 251.633 94.6038 251.633 96.5558V96.6998ZM261.813 100.508H260.677V92.6038H261.701V94.7638H261.781C262.021 93.4998 262.917 92.4438 264.565 92.4438C266.389 92.4438 267.189 93.7878 267.189 95.2598V96.0438H266.053V95.4358C266.053 94.0918 265.493 93.4358 264.117 93.4358C262.517 93.4358 261.813 94.4438 261.813 96.2198V100.508ZM269.994 91.5958H268.858V89.7878H269.994V91.5958ZM269.994 100.508H268.858V92.6038H269.994V100.508ZM273.392 100.508H272.256V92.6038H273.28V95.0838H273.36C273.632 93.7398 274.752 92.4438 276.72 92.4438C278.944 92.4438 280.048 94.0278 280.048 95.8998V100.508H278.912V96.0598C278.912 94.4278 278.128 93.4838 276.32 93.4838C274.4 93.4838 273.392 94.6518 273.392 96.6838V100.508ZM287.097 100.508H285.385C283.817 100.508 282.809 99.8518 282.809 97.9958V93.5798H281.401V92.6038H282.809V90.7158H283.961V92.6038H287.097V93.5798H283.961V98.0598C283.961 99.1638 284.505 99.4678 285.657 99.4678H287.097V100.508ZM299.44 100.508H298.288V98.2358H291.424V97.4038L298.096 89.7878H299.44V97.1958H301.44V98.2358H299.44V100.508ZM292.992 97.1958H298.288V91.1638H298.208L292.992 97.0998V97.1958Z" fill="#EEEEEE"/>
<path d="M95.6055 137.508H87.6405V136.773C87.6405 134.838 88.3455 133.893 90.3705 133.158L92.6205 132.363C94.0755 131.823 94.5555 131.328 94.5555 130.263C94.5555 128.943 93.6405 128.313 91.7355 128.313C89.5605 128.313 88.6605 129.153 88.6605 130.653V130.833H87.5955V130.698C87.5955 128.913 88.8255 127.308 91.7655 127.308C94.4655 127.308 95.6355 128.643 95.6355 130.263C95.6355 131.808 94.6755 132.678 92.9055 133.278L90.8505 133.968C89.2005 134.553 88.7355 135.213 88.7355 136.623L90.9855 136.533H95.6055V137.508ZM101.685 137.658C98.82 137.658 97.02 135.723 97.02 132.483C97.02 129.258 98.82 127.308 101.685 127.308C104.535 127.308 106.335 129.258 106.335 132.483C106.335 135.723 104.535 137.658 101.685 137.658ZM101.685 136.638C104.01 136.638 105.21 135.288 105.21 132.483C105.21 129.678 104.01 128.328 101.685 128.328C99.345 128.328 98.145 129.678 98.145 132.483C98.145 135.288 99.345 136.638 101.685 136.638ZM108.966 132.183H107.646V130.098H108.966V132.183ZM108.966 137.508H107.646V135.423H108.966V137.508ZM114.943 137.658C112.078 137.658 110.278 135.723 110.278 132.483C110.278 129.258 112.078 127.308 114.943 127.308C117.793 127.308 119.593 129.258 119.593 132.483C119.593 135.723 117.793 137.658 114.943 137.658ZM114.943 136.638C117.268 136.638 118.468 135.288 118.468 132.483C118.468 129.678 117.268 128.328 114.943 128.328C112.603 128.328 111.403 129.678 111.403 132.483C111.403 135.288 112.603 136.638 114.943 136.638ZM125.644 137.658C122.779 137.658 120.979 135.723 120.979 132.483C120.979 129.258 122.779 127.308 125.644 127.308C128.494 127.308 130.294 129.258 130.294 132.483C130.294 135.723 128.494 137.658 125.644 137.658ZM125.644 136.638C127.969 136.638 129.169 135.288 129.169 132.483C129.169 129.678 127.969 128.328 125.644 128.328C123.304 128.328 122.104 129.678 122.104 132.483C122.104 135.288 123.304 136.638 125.644 136.638ZM135.685 133.593H131.605V132.648H135.685V133.593ZM145.09 137.508H137.125V136.773C137.125 134.838 137.83 133.893 139.855 133.158L142.105 132.363C143.56 131.823 144.04 131.328 144.04 130.263C144.04 128.943 143.125 128.313 141.22 128.313C139.045 128.313 138.145 129.153 138.145 130.653V130.833H137.08V130.698C137.08 128.913 138.31 127.308 141.25 127.308C143.95 127.308 145.12 128.643 145.12 130.263C145.12 131.808 144.16 132.678 142.39 133.278L140.335 133.968C138.685 134.553 138.22 135.213 138.22 136.623L140.47 136.533H145.09V137.508ZM149.565 137.508H148.5V129.513H146.13V128.703H146.655C147.765 128.703 148.305 128.403 148.695 127.458H149.565V137.508ZM152.548 132.183H151.228V130.098H152.548V132.183ZM152.548 137.508H151.228V135.423H152.548V137.508ZM158.179 137.658C155.149 137.658 153.859 136.203 153.859 134.313V134.073H154.969V134.268C154.969 135.843 155.734 136.638 158.149 136.638C160.399 136.638 161.299 136.023 161.299 134.598C161.299 133.323 160.414 132.723 158.884 132.723H156.169V131.808H158.659C160.174 131.808 160.999 131.253 160.999 130.113C160.999 128.913 160.264 128.328 158.104 128.328C155.809 128.328 154.969 129.123 154.969 130.698V130.833H153.859V130.653C153.859 128.793 155.194 127.308 158.179 127.308C160.639 127.308 162.064 128.283 162.064 129.948C162.064 131.073 161.404 131.913 160.144 132.138V132.243C161.569 132.513 162.379 133.383 162.379 134.718C162.379 136.593 160.774 137.658 158.179 137.658ZM168.376 137.658C165.511 137.658 163.711 135.723 163.711 132.483C163.711 129.258 165.511 127.308 168.376 127.308C171.226 127.308 173.026 129.258 173.026 132.483C173.026 135.723 171.226 137.658 168.376 137.658ZM168.376 136.638C170.701 136.638 171.901 135.288 171.901 132.483C171.901 129.678 170.701 128.328 168.376 128.328C166.036 128.328 164.836 129.678 164.836 132.483C164.836 135.288 166.036 136.638 168.376 136.638Z" fill="#257EE4"/>
<path d="M210.74 136.978C207.684 136.978 205.54 134.802 205.54 131.458C205.54 128.114 207.764 125.938 210.964 125.938C213.748 125.938 215.828 127.458 215.828 129.842V129.986H214.596V129.842C214.596 128.066 213.316 127.042 210.948 127.042C208.244 127.042 206.74 128.546 206.74 131.458C206.74 134.37 208.228 135.874 210.9 135.874C213.444 135.874 214.692 134.914 214.692 132.834V132.434H210.436V131.538H215.844V136.818H214.82V134.482H214.74C214.196 136.21 212.644 136.978 210.74 136.978ZM220.094 136.978C218.542 136.978 217.486 136.242 217.486 134.962C217.486 133.666 218.558 133.106 220.03 132.946L223.79 132.53V131.922C223.79 130.386 223.118 129.778 221.39 129.778C219.694 129.778 218.798 130.386 218.798 131.778V131.842H217.662V131.778C217.662 130.114 219.038 128.754 221.47 128.754C223.87 128.754 224.894 130.13 224.894 131.874V136.818H223.87V134.69H223.79C223.326 136.146 221.934 136.978 220.094 136.978ZM218.622 134.882C218.622 135.682 219.15 136.098 220.35 136.098C222.27 136.098 223.79 135.25 223.79 133.346V133.282L220.382 133.666C219.198 133.778 218.622 134.066 218.622 134.882ZM228.249 136.818H227.113V128.914H228.137V131.298H228.201C228.425 129.97 229.337 128.754 231.305 128.754C233.065 128.754 234.057 129.842 234.313 131.378H234.393C234.617 130.018 235.561 128.754 237.545 128.754C239.609 128.754 240.681 130.21 240.681 132.21V136.818H239.545V132.37C239.545 130.61 238.793 129.794 237.129 129.794C235.225 129.794 234.457 130.898 234.457 132.994V136.818H233.321V132.37C233.321 130.61 232.585 129.794 230.921 129.794C229.001 129.794 228.249 130.898 228.249 132.994V136.818ZM246.647 136.978C244.103 136.978 242.487 135.378 242.487 132.866C242.487 130.466 244.087 128.754 246.631 128.754C248.951 128.754 250.599 130.098 250.599 132.45C250.599 132.738 250.567 132.978 250.519 133.186H243.559C243.623 134.962 244.535 136.034 246.631 136.034C248.487 136.034 249.351 135.346 249.351 134.194V134.082H250.487V134.194C250.487 135.842 248.855 136.978 246.647 136.978ZM246.615 129.698C244.567 129.698 243.639 130.754 243.559 132.482H249.527C249.527 132.402 249.527 132.322 249.527 132.242C249.527 130.578 248.471 129.698 246.615 129.698ZM260.435 136.818H255.779V126.098H260.435C263.651 126.098 265.699 128.178 265.699 131.458C265.699 134.738 263.651 136.818 260.435 136.818ZM260.435 127.138H256.931V135.778H260.435C263.155 135.778 264.499 134.37 264.499 131.458C264.499 128.546 263.155 127.138 260.435 127.138ZM271.328 136.978C268.784 136.978 267.168 135.378 267.168 132.866C267.168 130.466 268.768 128.754 271.312 128.754C273.632 128.754 275.28 130.098 275.28 132.45C275.28 132.738 275.248 132.978 275.2 133.186H268.24C268.304 134.962 269.216 136.034 271.312 136.034C273.168 136.034 274.032 135.346 274.032 134.194V134.082H275.168V134.194C275.168 135.842 273.536 136.978 271.328 136.978ZM271.296 129.698C269.248 129.698 268.32 130.754 268.24 132.482H274.208C274.208 132.402 274.208 132.322 274.208 132.242C274.208 130.578 273.152 129.698 271.296 129.698ZM281.507 136.818H280.115L276.339 128.914H277.571L280.771 135.698H280.867L284.051 128.914H285.283L281.507 136.818ZM294.142 136.818H292.446L289.342 126.098H290.606L292.734 133.49L293.294 135.682H293.39L294.03 133.49L296.526 126.098H298.126L300.878 133.49L301.598 135.682H301.678L302.174 133.49L304.046 126.098H305.294L302.526 136.818H300.83L298.222 129.842L297.374 127.346H297.262L296.51 129.842L294.142 136.818ZM310.754 136.978C308.178 136.978 306.466 135.266 306.466 132.866C306.466 130.466 308.178 128.754 310.754 128.754C313.346 128.754 315.058 130.466 315.058 132.866C315.058 135.266 313.346 136.978 310.754 136.978ZM310.754 135.954C312.93 135.954 313.938 134.786 313.938 132.866C313.938 130.962 312.93 129.778 310.754 129.778C308.578 129.778 307.586 130.962 307.586 132.866C307.586 134.786 308.578 135.954 310.754 135.954ZM318.058 136.818H316.922V128.914H317.946V131.074H318.026C318.266 129.81 319.162 128.754 320.81 128.754C322.634 128.754 323.434 130.098 323.434 131.57V132.354H322.298V131.746C322.298 130.402 321.738 129.746 320.362 129.746C318.762 129.746 318.058 130.754 318.058 132.53V136.818ZM326.238 136.818H325.102V126.098H326.238V132.226H328.894L331.534 128.914H332.878L329.822 132.69L332.862 136.818H331.534L328.878 133.266H326.238V136.818ZM337.801 136.978C335.369 136.978 333.961 136.002 333.961 134.178V134.146H335.097V134.242C335.097 135.57 335.881 136.034 337.817 136.034C339.593 136.034 340.201 135.618 340.201 134.706C340.201 133.874 339.705 133.602 338.393 133.394L336.281 133.09C334.841 132.898 333.929 132.338 333.929 131.026C333.929 129.634 335.257 128.754 337.433 128.754C339.705 128.754 341.177 129.714 341.177 131.57V131.602H340.041V131.522C340.041 130.338 339.417 129.698 337.401 129.698C335.737 129.698 335.049 130.098 335.049 131.042C335.049 131.858 335.465 132.146 336.777 132.338L338.713 132.61C340.409 132.85 341.321 133.426 341.321 134.706C341.321 136.194 339.849 136.978 337.801 136.978ZM344.301 136.818H343.165V126.098H344.301V131.33H344.381C344.637 130.002 345.661 128.754 347.677 128.754C349.885 128.754 350.989 130.226 350.989 132.226V136.818H349.853V132.37C349.853 130.562 349.005 129.794 347.229 129.794C345.117 129.794 344.301 131.138 344.301 133.106V136.818ZM357.092 136.978C354.516 136.978 352.804 135.266 352.804 132.866C352.804 130.466 354.516 128.754 357.092 128.754C359.684 128.754 361.396 130.466 361.396 132.866C361.396 135.266 359.684 136.978 357.092 136.978ZM357.092 135.954C359.268 135.954 360.276 134.786 360.276 132.866C360.276 130.962 359.268 129.778 357.092 129.778C354.916 129.778 353.924 130.962 353.924 132.866C353.924 134.786 354.916 135.954 357.092 135.954ZM364.396 139.538H363.26V128.914H364.284V131.138H364.412C364.764 129.714 365.948 128.754 367.82 128.754C370.284 128.754 371.692 130.466 371.692 132.866C371.692 135.266 370.3 136.978 367.788 136.978C366.044 136.978 364.78 136.018 364.412 134.498H364.396V139.538ZM364.396 133.01C364.396 134.882 365.628 135.938 367.484 135.938C369.324 135.938 370.54 135.154 370.54 132.866C370.54 130.578 369.308 129.81 367.516 129.81C365.548 129.81 364.396 130.914 364.396 132.866V133.01Z" fill="#EEEEEE"/>
<rect x="187.5" y="48.0078" width="6" height="6" fill="#257EE4"/>
<rect x="187.5" y="86.0078" width="6" height="6" fill="#257EE4"/>
<rect x="187.5" y="123.008" width="6" height="6" fill="#257EE4"/>
<rect x="213.883" y="179.031" width="2.2792" height="2.2792" transform="rotate(90 213.883 179.031)" fill="#F93D3E" stroke="#F93D3E" stroke-width="0.0465142"/>
<rect x="211.558" y="179.031" width="2.2792" height="2.2792" transform="rotate(90 211.558 179.031)" fill="#F93D3E" stroke="#F93D3E" stroke-width="0.0465142"/>
<rect x="209.232" y="179.031" width="2.2792" height="2.2792" transform="rotate(90 209.232 179.031)" fill="#F93D3E" stroke="#F93D3E" stroke-width="0.0465142"/>
<rect x="206.906" y="179.031" width="2.2792" height="2.2792" transform="rotate(90 206.906 179.031)" fill="#F93D3E" stroke="#F93D3E" stroke-width="0.0465142"/>
<rect x="204.581" y="179.031" width="2.2792" height="2.2792" transform="rotate(90 204.581 179.031)" fill="#F93D3E" stroke="#F93D3E" stroke-width="0.0465142"/>
<rect x="202.255" y="179.031" width="2.2792" height="2.2792" transform="rotate(90 202.255 179.031)" fill="#F93D3E" stroke="#F93D3E" stroke-width="0.0465142"/>
<rect x="199.929" y="179.031" width="2.2792" height="2.2792" transform="rotate(90 199.929 179.031)" fill="#F93D3E" stroke="#F93D3E" stroke-width="0.0465142"/>
<rect x="197.604" y="179.031" width="2.2792" height="2.2792" transform="rotate(90 197.604 179.031)" fill="#F93D3E" stroke="#F93D3E" stroke-width="0.0465142"/>
<rect x="216.21" y="181.357" width="2.2792" height="2.2792" transform="rotate(90 216.21 181.357)" fill="#F93D3E" stroke="#F93D3E" stroke-width="0.0465142"/>
<rect x="213.884" y="181.357" width="2.2792" height="2.2792" transform="rotate(90 213.884 181.357)" fill="#F93D3E" stroke="#F93D3E" stroke-width="0.0465142"/>
<rect x="211.558" y="181.357" width="2.2792" height="2.2792" transform="rotate(90 211.558 181.357)" fill="#F93D3E" stroke="#F93D3E" stroke-width="0.0465142"/>
<rect x="209.233" y="181.357" width="2.2792" height="2.2792" transform="rotate(90 209.233 181.357)" fill="#F93D3E" stroke="#F93D3E" stroke-width="0.0465142"/>
<rect x="206.907" y="181.357" width="2.2792" height="2.2792" transform="rotate(90 206.907 181.357)" fill="#F93D3E" stroke="#F93D3E" stroke-width="0.0465142"/>
<rect x="204.581" y="181.357" width="2.2792" height="2.2792" transform="rotate(90 204.581 181.357)" fill="#F93D3E" stroke="#F93D3E" stroke-width="0.0465142"/>
<rect x="202.256" y="181.357" width="2.2792" height="2.2792" transform="rotate(90 202.256 181.357)" fill="#F93D3E" stroke="#F93D3E" stroke-width="0.0465142"/>
<rect x="199.93" y="181.357" width="2.2792" height="2.2792" transform="rotate(90 199.93 181.357)" fill="#F93D3E" stroke="#F93D3E" stroke-width="0.0465142"/>
<rect x="197.604" y="181.357" width="2.2792" height="2.2792" transform="rotate(90 197.604 181.357)" fill="#F93D3E" stroke="#F93D3E" stroke-width="0.0465142"/>
<rect x="195.278" y="181.357" width="2.2792" height="2.2792" transform="rotate(90 195.278 181.357)" fill="#F93D3E" stroke="#F93D3E" stroke-width="0.0465142"/>
<rect x="216.21" y="183.683" width="2.2792" height="2.2792" transform="rotate(90 216.21 183.683)" fill="#F93D3E" stroke="#F93D3E" stroke-width="0.0465142"/>
<rect x="213.884" y="183.683" width="2.2792" height="2.2792" transform="rotate(90 213.884 183.683)" fill="#F93D3E" stroke="#F93D3E" stroke-width="0.0465142"/>
<rect x="211.558" y="183.683" width="2.2792" height="2.2792" transform="rotate(90 211.558 183.683)" fill="#F93D3E" stroke="#F93D3E" stroke-width="0.0465142"/>
<rect x="209.233" y="183.683" width="2.2792" height="2.2792" transform="rotate(90 209.233 183.683)" fill="#F93D3E" stroke="#F93D3E" stroke-width="0.0465142"/>
<rect x="206.907" y="183.683" width="2.2792" height="2.2792" transform="rotate(90 206.907 183.683)" fill="#F93D3E" stroke="#F93D3E" stroke-width="0.0465142"/>
<rect x="204.581" y="183.683" width="2.2792" height="2.2792" transform="rotate(90 204.581 183.683)" fill="#F93D3E" stroke="#F93D3E" stroke-width="0.0465142"/>
<rect x="202.256" y="183.683" width="2.2792" height="2.2792" transform="rotate(90 202.256 183.683)" fill="#F93D3E" stroke="#F93D3E" stroke-width="0.0465142"/>
<rect x="199.93" y="183.683" width="2.2792" height="2.2792" transform="rotate(90 199.93 183.683)" stroke="#F93D3E" stroke-width="0.0465142"/>
<rect x="197.604" y="183.683" width="2.2792" height="2.2792" transform="rotate(90 197.604 183.683)" fill="#F93D3E" stroke="#F93D3E" stroke-width="0.0465142"/>
<rect x="195.278" y="183.683" width="2.2792" height="2.2792" transform="rotate(90 195.278 183.683)" fill="#F93D3E" stroke="#F93D3E" stroke-width="0.0465142"/>
<rect x="216.21" y="186.008" width="2.2792" height="2.2792" transform="rotate(90 216.21 186.008)" fill="#F93D3E" stroke="#F93D3E" stroke-width="0.0465142"/>
<rect x="213.884" y="186.008" width="2.2792" height="2.2792" transform="rotate(90 213.884 186.008)" fill="#F93D3E" stroke="#F93D3E" stroke-width="0.0465142"/>
<rect x="211.558" y="186.008" width="2.2792" height="2.2792" transform="rotate(90 211.558 186.008)" fill="#F93D3E" stroke="#F93D3E" stroke-width="0.0465142"/>
<rect x="209.233" y="186.008" width="2.2792" height="2.2792" transform="rotate(90 209.233 186.008)" fill="#F93D3E" stroke="#F93D3E" stroke-width="0.0465142"/>
<rect x="206.907" y="186.008" width="2.2792" height="2.2792" transform="rotate(90 206.907 186.008)" fill="#F93D3E" stroke="#F93D3E" stroke-width="0.0465142"/>
<rect x="204.581" y="186.008" width="2.2792" height="2.2792" transform="rotate(90 204.581 186.008)" fill="#F93D3E" stroke="#F93D3E" stroke-width="0.0465142"/>
<rect x="202.256" y="186.008" width="2.2792" height="2.2792" transform="rotate(90 202.256 186.008)" fill="#F93D3E" stroke="#F93D3E" stroke-width="0.0465142"/>
<rect x="199.93" y="186.008" width="2.2792" height="2.2792" transform="rotate(90 199.93 186.008)" fill="#F93D3E" stroke="#F93D3E" stroke-width="0.0465142"/>
<rect x="197.604" y="186.008" width="2.2792" height="2.2792" transform="rotate(90 197.604 186.008)" fill="#F93D3E" stroke="#F93D3E" stroke-width="0.0465142"/>
<rect x="195.278" y="186.008" width="2.2792" height="2.2792" transform="rotate(90 195.278 186.008)" fill="#F93D3E" stroke="#F93D3E" stroke-width="0.0465142"/>
<rect x="216.21" y="188.334" width="2.2792" height="2.2792" transform="rotate(90 216.21 188.334)" fill="#F93D3E" stroke="#F93D3E" stroke-width="0.0465142"/>
<rect x="213.884" y="188.334" width="2.2792" height="2.2792" transform="rotate(90 213.884 188.334)" fill="#F93D3E" stroke="#F93D3E" stroke-width="0.0465142"/>
<rect x="211.558" y="188.334" width="2.2792" height="2.2792" transform="rotate(90 211.558 188.334)" fill="#F93D3E" stroke="#F93D3E" stroke-width="0.0465142"/>
<rect x="209.233" y="188.334" width="2.2792" height="2.2792" transform="rotate(90 209.233 188.334)" fill="#F93D3E" stroke="#F93D3E" stroke-width="0.0465142"/>
<rect x="206.907" y="188.334" width="2.2792" height="2.2792" transform="rotate(90 206.907 188.334)" fill="#F93D3E" stroke="#F93D3E" stroke-width="0.0465142"/>
<rect x="204.581" y="188.334" width="2.2792" height="2.2792" transform="rotate(90 204.581 188.334)" fill="#F93D3E" stroke="#F93D3E" stroke-width="0.0465142"/>
<rect x="202.256" y="188.334" width="2.2792" height="2.2792" transform="rotate(90 202.256 188.334)" fill="#F93D3E" stroke="#F93D3E" stroke-width="0.0465142"/>
<rect x="199.93" y="188.334" width="2.2792" height="2.2792" transform="rotate(90 199.93 188.334)" fill="#F93D3E" stroke="#F93D3E" stroke-width="0.0465142"/>
<rect x="197.604" y="188.334" width="2.2792" height="2.2792" transform="rotate(90 197.604 188.334)" fill="#F93D3E" stroke="#F93D3E" stroke-width="0.0465142"/>
<rect x="195.278" y="188.334" width="2.2792" height="2.2792" transform="rotate(90 195.278 188.334)" fill="#F93D3E" stroke="#F93D3E" stroke-width="0.0465142"/>
<rect x="204.581" y="190.66" width="2.2792" height="2.2792" transform="rotate(90 204.581 190.66)" fill="#F93D3E" stroke="#F93D3E" stroke-width="0.0465142"/>
<rect x="202.256" y="190.66" width="2.2792" height="2.2792" transform="rotate(90 202.256 190.66)" fill="#F93D3E" stroke="#F93D3E" stroke-width="0.0465142"/>
<rect x="199.93" y="190.66" width="2.2792" height="2.2792" transform="rotate(90 199.93 190.66)" fill="#F93D3E" stroke="#F93D3E" stroke-width="0.0465142"/>
<rect x="197.604" y="190.66" width="2.2792" height="2.2792" transform="rotate(90 197.604 190.66)" fill="#F93D3E" stroke="#F93D3E" stroke-width="0.0465142"/>
<rect x="195.278" y="190.66" width="2.2792" height="2.2792" transform="rotate(90 195.278 190.66)" fill="#F93D3E" stroke="#F93D3E" stroke-width="0.0465142"/>
<rect x="211.558" y="192.986" width="2.2792" height="2.2792" transform="rotate(90 211.558 192.986)" fill="#F93D3E" stroke="#F93D3E" stroke-width="0.0465142"/>
<rect x="209.233" y="192.986" width="2.2792" height="2.2792" transform="rotate(90 209.233 192.986)" fill="#F93D3E" stroke="#F93D3E" stroke-width="0.0465142"/>
<rect x="206.907" y="192.986" width="2.2792" height="2.2792" transform="rotate(90 206.907 192.986)" fill="#F93D3E" stroke="#F93D3E" stroke-width="0.0465142"/>
<rect x="204.581" y="192.986" width="2.2792" height="2.2792" transform="rotate(90 204.581 192.986)" fill="#F93D3E" stroke="#F93D3E" stroke-width="0.0465142"/>
<rect x="202.256" y="192.986" width="2.2792" height="2.2792" transform="rotate(90 202.256 192.986)" fill="#F93D3E" stroke="#F93D3E" stroke-width="0.0465142"/>
<rect x="199.93" y="192.986" width="2.2792" height="2.2792" transform="rotate(90 199.93 192.986)" fill="#F93D3E" stroke="#F93D3E" stroke-width="0.0465142"/>
<rect x="197.604" y="192.986" width="2.2792" height="2.2792" transform="rotate(90 197.604 192.986)" fill="#F93D3E" stroke="#F93D3E" stroke-width="0.0465142"/>
<rect x="195.278" y="192.986" width="2.2792" height="2.2792" transform="rotate(90 195.278 192.986)" fill="#F93D3E" stroke="#F93D3E" stroke-width="0.0465142"/>
<rect x="202.257" y="195.31" width="2.2792" height="2.2792" transform="rotate(90 202.257 195.31)" fill="#F93D3E" stroke="#F93D3E" stroke-width="0.0465142"/>
<rect x="199.931" y="195.31" width="2.2792" height="2.2792" transform="rotate(90 199.931 195.31)" fill="#F93D3E" stroke="#F93D3E" stroke-width="0.0465142"/>
<rect x="197.605" y="195.31" width="2.2792" height="2.2792" transform="rotate(90 197.605 195.31)" fill="#F93D3E" stroke="#F93D3E" stroke-width="0.0465142"/>
<rect x="195.279" y="195.31" width="2.2792" height="2.2792" transform="rotate(90 195.279 195.31)" fill="#F93D3E" stroke="#F93D3E" stroke-width="0.0465142"/>
<rect x="192.953" y="195.31" width="2.2792" height="2.2792" transform="rotate(90 192.953 195.31)" fill="#F93D3E" stroke="#F93D3E" stroke-width="0.0465142"/>
<rect x="202.257" y="197.637" width="2.2792" height="2.2792" transform="rotate(90 202.257 197.637)" fill="#F93D3E" stroke="#F93D3E" stroke-width="0.0465142"/>
<rect x="199.931" y="197.637" width="2.2792" height="2.2792" transform="rotate(90 199.931 197.637)" fill="#F93D3E" stroke="#F93D3E" stroke-width="0.0465142"/>
<rect x="197.605" y="197.637" width="2.2792" height="2.2792" transform="rotate(90 197.605 197.637)" fill="#F93D3E" stroke="#F93D3E" stroke-width="0.0465142"/>
<rect x="195.279" y="197.637" width="2.2792" height="2.2792" transform="rotate(90 195.279 197.637)" fill="#F93D3E" stroke="#F93D3E" stroke-width="0.0465142"/>
<rect x="192.953" y="197.637" width="2.2792" height="2.2792" transform="rotate(90 192.953 197.637)" fill="#F93D3E" stroke="#F93D3E" stroke-width="0.0465142"/>
<rect x="190.628" y="197.637" width="2.2792" height="2.2792" transform="rotate(90 190.628 197.637)" fill="#F93D3E" stroke="#F93D3E" stroke-width="0.0465142"/>
<rect x="206.908" y="199.961" width="2.2792" height="2.2792" transform="rotate(90 206.908 199.961)" fill="#F93D3E" stroke="#F93D3E" stroke-width="0.0465142"/>
<rect x="204.583" y="199.961" width="2.2792" height="2.2792" transform="rotate(90 204.583 199.961)" fill="#F93D3E" stroke="#F93D3E" stroke-width="0.0465142"/>
<rect x="202.257" y="199.961" width="2.2792" height="2.2792" transform="rotate(90 202.257 199.961)" fill="#F93D3E" stroke="#F93D3E" stroke-width="0.0465142"/>
<rect x="199.931" y="199.961" width="2.2792" height="2.2792" transform="rotate(90 199.931 199.961)" fill="#F93D3E" stroke="#F93D3E" stroke-width="0.0465142"/>
<rect x="197.606" y="199.961" width="2.2792" height="2.2792" transform="rotate(90 197.606 199.961)" fill="#F93D3E" stroke="#F93D3E" stroke-width="0.0465142"/>
<rect x="195.28" y="199.961" width="2.2792" height="2.2792" transform="rotate(90 195.28 199.961)" fill="#F93D3E" stroke="#F93D3E" stroke-width="0.0465142"/>
<rect x="192.954" y="199.961" width="2.2792" height="2.2792" transform="rotate(90 192.954 199.961)" fill="#F93D3E" stroke="#F93D3E" stroke-width="0.0465142"/>
<rect x="190.629" y="199.961" width="2.2792" height="2.2792" transform="rotate(90 190.629 199.961)" fill="#F93D3E" stroke="#F93D3E" stroke-width="0.0465142"/>
<rect x="188.303" y="199.961" width="2.2792" height="2.2792" transform="rotate(90 188.303 199.961)" fill="#F93D3E" stroke="#F93D3E" stroke-width="0.0465142"/>
<rect x="185.977" y="199.961" width="2.2792" height="2.2792" transform="rotate(90 185.977 199.961)" fill="#F93D3E" stroke="#F93D3E" stroke-width="0.0465142"/>
<rect x="206.908" y="202.287" width="2.2792" height="2.2792" transform="rotate(90 206.908 202.287)" fill="#F93D3E" stroke="#F93D3E" stroke-width="0.0465142"/>
<rect x="202.257" y="202.287" width="2.2792" height="2.2792" transform="rotate(90 202.257 202.287)" fill="#F93D3E" stroke="#F93D3E" stroke-width="0.0465142"/>
<rect x="199.931" y="202.287" width="2.2792" height="2.2792" transform="rotate(90 199.931 202.287)" fill="#F93D3E" stroke="#F93D3E" stroke-width="0.0465142"/>
<rect x="197.606" y="202.287" width="2.2792" height="2.2792" transform="rotate(90 197.606 202.287)" fill="#F93D3E" stroke="#F93D3E" stroke-width="0.0465142"/>
<rect x="195.28" y="202.287" width="2.2792" height="2.2792" transform="rotate(90 195.28 202.287)" fill="#F93D3E" stroke="#F93D3E" stroke-width="0.0465142"/>
<rect x="192.954" y="202.287" width="2.2792" height="2.2792" transform="rotate(90 192.954 202.287)" fill="#F93D3E" stroke="#F93D3E" stroke-width="0.0465142"/>
<rect x="190.629" y="202.287" width="2.2792" height="2.2792" transform="rotate(90 190.629 202.287)" fill="#F93D3E" stroke="#F93D3E" stroke-width="0.0465142"/>
<rect x="188.303" y="202.287" width="2.2792" height="2.2792" transform="rotate(90 188.303 202.287)" fill="#F93D3E" stroke="#F93D3E" stroke-width="0.0465142"/>
<rect x="185.977" y="202.287" width="2.2792" height="2.2792" transform="rotate(90 185.977 202.287)" fill="#F93D3E" stroke="#F93D3E" stroke-width="0.0465142"/>
<rect x="183.651" y="202.287" width="2.2792" height="2.2792" transform="rotate(90 183.651 202.287)" fill="#F93D3E" stroke="#F93D3E" stroke-width="0.0465142"/>
<rect x="202.258" y="204.613" width="2.2792" height="2.2792" transform="rotate(90 202.258 204.613)" fill="#F93D3E" stroke="#F93D3E" stroke-width="0.0465142"/>
<rect x="199.932" y="204.613" width="2.2792" height="2.2792" transform="rotate(90 199.932 204.613)" fill="#F93D3E" stroke="#F93D3E" stroke-width="0.0465142"/>
<rect x="197.607" y="204.613" width="2.2792" height="2.2792" transform="rotate(90 197.607 204.613)" fill="#F93D3E" stroke="#F93D3E" stroke-width="0.0465142"/>
<rect x="195.281" y="204.613" width="2.2792" height="2.2792" transform="rotate(90 195.281 204.613)" fill="#F93D3E" stroke="#F93D3E" stroke-width="0.0465142"/>
<rect x="192.955" y="204.613" width="2.2792" height="2.2792" transform="rotate(90 192.955 204.613)" fill="#F93D3E" stroke="#F93D3E" stroke-width="0.0465142"/>
<rect x="190.63" y="204.613" width="2.2792" height="2.2792" transform="rotate(90 190.63 204.613)" fill="#F93D3E" stroke="#F93D3E" stroke-width="0.0465142"/>
<rect x="188.304" y="204.613" width="2.2792" height="2.2792" transform="rotate(90 188.304 204.613)" fill="#F93D3E" stroke="#F93D3E" stroke-width="0.0465142"/>
<rect x="185.978" y="204.613" width="2.2792" height="2.2792" transform="rotate(90 185.978 204.613)" fill="#F93D3E" stroke="#F93D3E" stroke-width="0.0465142"/>
<rect x="183.653" y="204.613" width="2.2792" height="2.2792" transform="rotate(90 183.653 204.613)" fill="#F93D3E" stroke="#F93D3E" stroke-width="0.0465142"/>
<rect x="181.326" y="204.613" width="2.2792" height="2.2792" transform="rotate(90 181.326 204.613)" fill="#F93D3E" stroke="#F93D3E" stroke-width="0.0465142"/>
<rect x="179.001" y="204.613" width="2.2792" height="2.2792" transform="rotate(90 179.001 204.613)" fill="#F93D3E" stroke="#F93D3E" stroke-width="0.0465142"/>
<rect x="176.675" y="204.613" width="2.2792" height="2.2792" transform="rotate(90 176.675 204.613)" fill="#F93D3E" stroke="#F93D3E" stroke-width="0.0465142"/>
<rect x="174.349" y="204.613" width="2.2792" height="2.2792" transform="rotate(90 174.349 204.613)" fill="#F93D3E" stroke="#F93D3E" stroke-width="0.0465142"/>
<rect x="202.283" y="206.941" width="2.2792" height="2.2792" transform="rotate(90 202.283 206.941)" fill="#F93D3E" stroke="#F93D3E" stroke-width="0.0465142"/>
<rect x="199.958" y="206.941" width="2.2792" height="2.2792" transform="rotate(90 199.958 206.941)" fill="#F93D3E" stroke="#F93D3E" stroke-width="0.0465142"/>
<rect x="197.632" y="206.941" width="2.2792" height="2.2792" transform="rotate(90 197.632 206.941)" fill="#F93D3E" stroke="#F93D3E" stroke-width="0.0465142"/>
<rect x="195.306" y="206.941" width="2.2792" height="2.2792" transform="rotate(90 195.306 206.941)" fill="#F93D3E" stroke="#F93D3E" stroke-width="0.0465142"/>
<rect x="192.981" y="206.941" width="2.2792" height="2.2792" transform="rotate(90 192.981 206.941)" fill="#F93D3E" stroke="#F93D3E" stroke-width="0.0465142"/>
<rect x="190.655" y="206.941" width="2.2792" height="2.2792" transform="rotate(90 190.655 206.941)" fill="#F93D3E" stroke="#F93D3E" stroke-width="0.0465142"/>
<rect x="188.329" y="206.941" width="2.2792" height="2.2792" transform="rotate(90 188.329 206.941)" fill="#F93D3E" stroke="#F93D3E" stroke-width="0.0465142"/>
<rect x="186.004" y="206.941" width="2.2792" height="2.2792" transform="rotate(90 186.004 206.941)" fill="#F93D3E" stroke="#F93D3E" stroke-width="0.0465142"/>
<rect x="183.678" y="206.941" width="2.2792" height="2.2792" transform="rotate(90 183.678 206.941)" fill="#F93D3E" stroke="#F93D3E" stroke-width="0.0465142"/>
<rect x="181.352" y="206.941" width="2.2792" height="2.2792" transform="rotate(90 181.352 206.941)" fill="#F93D3E" stroke="#F93D3E" stroke-width="0.0465142"/>
<rect x="179.026" y="206.941" width="2.2792" height="2.2792" transform="rotate(90 179.026 206.941)" fill="#F93D3E" stroke="#F93D3E" stroke-width="0.0465142"/>
<rect x="176.7" y="206.941" width="2.2792" height="2.2792" transform="rotate(90 176.7 206.941)" fill="#F93D3E" stroke="#F93D3E" stroke-width="0.0465142"/>
<rect x="174.375" y="206.941" width="2.2792" height="2.2792" transform="rotate(90 174.375 206.941)" fill="#F93D3E" stroke="#F93D3E" stroke-width="0.0465142"/>
<rect x="199.958" y="209.267" width="2.2792" height="2.2792" transform="rotate(90 199.958 209.267)" fill="#F93D3E" stroke="#F93D3E" stroke-width="0.0465142"/>
<rect x="197.632" y="209.267" width="2.2792" height="2.2792" transform="rotate(90 197.632 209.267)" fill="#F93D3E" stroke="#F93D3E" stroke-width="0.0465142"/>
<rect x="195.306" y="209.267" width="2.2792" height="2.2792" transform="rotate(90 195.306 209.267)" fill="#F93D3E" stroke="#F93D3E" stroke-width="0.0465142"/>
<rect x="192.981" y="209.267" width="2.2792" height="2.2792" transform="rotate(90 192.981 209.267)" fill="#F93D3E" stroke="#F93D3E" stroke-width="0.0465142"/>
<rect x="190.655" y="209.267" width="2.2792" height="2.2792" transform="rotate(90 190.655 209.267)" fill="#F93D3E" stroke="#F93D3E" stroke-width="0.0465142"/>
<rect x="188.329" y="209.267" width="2.2792" height="2.2792" transform="rotate(90 188.329 209.267)" fill="#F93D3E" stroke="#F93D3E" stroke-width="0.0465142"/>
<rect x="186.004" y="209.267" width="2.2792" height="2.2792" transform="rotate(90 186.004 209.267)" fill="#F93D3E" stroke="#F93D3E" stroke-width="0.0465142"/>
<rect x="183.678" y="209.267" width="2.2792" height="2.2792" transform="rotate(90 183.678 209.267)" fill="#F93D3E" stroke="#F93D3E" stroke-width="0.0465142"/>
<rect x="181.352" y="209.267" width="2.2792" height="2.2792" transform="rotate(90 181.352 209.267)" fill="#F93D3E" stroke="#F93D3E" stroke-width="0.0465142"/>
<rect x="179.026" y="209.267" width="2.2792" height="2.2792" transform="rotate(90 179.026 209.267)" fill="#F93D3E" stroke="#F93D3E" stroke-width="0.0465142"/>
<rect x="176.7" y="209.267" width="2.2792" height="2.2792" transform="rotate(90 176.7 209.267)" fill="#F93D3E" stroke="#F93D3E" stroke-width="0.0465142"/>
<rect x="199.958" y="211.594" width="2.2792" height="2.2792" transform="rotate(90 199.958 211.594)" fill="#F93D3E" stroke="#F93D3E" stroke-width="0.0465142"/>
<rect x="197.632" y="211.594" width="2.2792" height="2.2792" transform="rotate(90 197.632 211.594)" fill="#F93D3E" stroke="#F93D3E" stroke-width="0.0465142"/>
<rect x="195.306" y="211.594" width="2.2792" height="2.2792" transform="rotate(90 195.306 211.594)" fill="#F93D3E" stroke="#F93D3E" stroke-width="0.0465142"/>
<rect x="192.981" y="211.594" width="2.2792" height="2.2792" transform="rotate(90 192.981 211.594)" fill="#F93D3E" stroke="#F93D3E" stroke-width="0.0465142"/>
<rect x="190.655" y="211.594" width="2.2792" height="2.2792" transform="rotate(90 190.655 211.594)" fill="#F93D3E" stroke="#F93D3E" stroke-width="0.0465142"/>
<rect x="188.329" y="211.594" width="2.2792" height="2.2792" transform="rotate(90 188.329 211.594)" fill="#F93D3E" stroke="#F93D3E" stroke-width="0.0465142"/>
<rect x="186.004" y="211.594" width="2.2792" height="2.2792" transform="rotate(90 186.004 211.594)" fill="#F93D3E" stroke="#F93D3E" stroke-width="0.0465142"/>
<rect x="183.678" y="211.594" width="2.2792" height="2.2792" transform="rotate(90 183.678 211.594)" fill="#F93D3E" stroke="#F93D3E" stroke-width="0.0465142"/>
<rect x="181.352" y="211.594" width="2.2792" height="2.2792" transform="rotate(90 181.352 211.594)" fill="#F93D3E" stroke="#F93D3E" stroke-width="0.0465142"/>
<rect x="179.026" y="211.594" width="2.2792" height="2.2792" transform="rotate(90 179.026 211.594)" fill="#F93D3E" stroke="#F93D3E" stroke-width="0.0465142"/>
<rect x="197.632" y="213.918" width="2.2792" height="2.2792" transform="rotate(90 197.632 213.918)" fill="#F93D3E" stroke="#F93D3E" stroke-width="0.0465142"/>
<rect x="195.306" y="213.918" width="2.2792" height="2.2792" transform="rotate(90 195.306 213.918)" fill="#F93D3E" stroke="#F93D3E" stroke-width="0.0465142"/>
<rect x="192.981" y="213.918" width="2.2792" height="2.2792" transform="rotate(90 192.981 213.918)" fill="#F93D3E" stroke="#F93D3E" stroke-width="0.0465142"/>
<rect x="190.655" y="213.918" width="2.2792" height="2.2792" transform="rotate(90 190.655 213.918)" fill="#F93D3E" stroke="#F93D3E" stroke-width="0.0465142"/>
<rect x="188.329" y="213.918" width="2.2792" height="2.2792" transform="rotate(90 188.329 213.918)" fill="#F93D3E" stroke="#F93D3E" stroke-width="0.0465142"/>
<rect x="186.004" y="213.918" width="2.2792" height="2.2792" transform="rotate(90 186.004 213.918)" fill="#F93D3E" stroke="#F93D3E" stroke-width="0.0465142"/>
<rect x="183.678" y="213.918" width="2.2792" height="2.2792" transform="rotate(90 183.678 213.918)" fill="#F93D3E" stroke="#F93D3E" stroke-width="0.0465142"/>
<rect x="181.352" y="213.918" width="2.2792" height="2.2792" transform="rotate(90 181.352 213.918)" fill="#F93D3E" stroke="#F93D3E" stroke-width="0.0465142"/>
<rect x="195.306" y="216.244" width="2.2792" height="2.2792" transform="rotate(90 195.306 216.244)" fill="#F93D3E" stroke="#F93D3E" stroke-width="0.0465142"/>
<rect x="192.981" y="216.244" width="2.2792" height="2.2792" transform="rotate(90 192.981 216.244)" fill="#F93D3E" stroke="#F93D3E" stroke-width="0.0465142"/>
<rect x="188.329" y="216.244" width="2.2792" height="2.2792" transform="rotate(90 188.329 216.244)" fill="#F93D3E" stroke="#F93D3E" stroke-width="0.0465142"/>
<rect x="186.004" y="216.244" width="2.2792" height="2.2792" transform="rotate(90 186.004 216.244)" fill="#F93D3E" stroke="#F93D3E" stroke-width="0.0465142"/>
<rect x="183.678" y="216.244" width="2.2792" height="2.2792" transform="rotate(90 183.678 216.244)" fill="#F93D3E" stroke="#F93D3E" stroke-width="0.0465142"/>
<rect x="195.306" y="218.57" width="2.2792" height="2.2792" transform="rotate(90 195.306 218.57)" fill="#F93D3E" stroke="#F93D3E" stroke-width="0.0465142"/>
<rect x="186.004" y="218.57" width="2.2792" height="2.2792" transform="rotate(90 186.004 218.57)" fill="#F93D3E" stroke="#F93D3E" stroke-width="0.0465142"/>
<rect x="183.678" y="218.57" width="2.2792" height="2.2792" transform="rotate(90 183.678 218.57)" fill="#F93D3E" stroke="#F93D3E" stroke-width="0.0465142"/>
<rect x="195.306" y="220.896" width="2.2792" height="2.2792" transform="rotate(90 195.306 220.896)" fill="#F93D3E" stroke="#F93D3E" stroke-width="0.0465142"/>
<rect x="183.678" y="220.896" width="2.2792" height="2.2792" transform="rotate(90 183.678 220.896)" fill="#F93D3E" stroke="#F93D3E" stroke-width="0.0465142"/>
<rect x="197.632" y="223.221" width="2.2792" height="2.2792" transform="rotate(90 197.632 223.221)" fill="#F93D3E" stroke="#F93D3E" stroke-width="0.0465142"/>
<rect x="195.306" y="223.221" width="2.2792" height="2.2792" transform="rotate(90 195.306 223.221)" fill="#F93D3E" stroke="#F93D3E" stroke-width="0.0465142"/>
<rect x="186.004" y="223.221" width="2.2792" height="2.2792" transform="rotate(90 186.004 223.221)" fill="#F93D3E" stroke="#F93D3E" stroke-width="0.0465142"/>
<rect x="183.678" y="223.221" width="2.2792" height="2.2792" transform="rotate(90 183.678 223.221)" fill="#F93D3E" stroke="#F93D3E" stroke-width="0.0465142"/>
<rect x="174.35" y="195.295" width="2.2792" height="2.2792" transform="rotate(90 174.35 195.295)" fill="#F93D3E" stroke="#F93D3E" stroke-width="0.0465142"/>
<rect x="174.35" y="197.621" width="2.2792" height="2.2792" transform="rotate(90 174.35 197.621)" fill="#F93D3E" stroke="#F93D3E" stroke-width="0.0465142"/>
<rect x="174.35" y="199.947" width="2.2792" height="2.2792" transform="rotate(90 174.35 199.947)" fill="#F93D3E" stroke="#F93D3E" stroke-width="0.0465142"/>
<rect x="176.676" y="199.947" width="2.2792" height="2.2792" transform="rotate(90 176.676 199.947)" fill="#F93D3E" stroke="#F93D3E" stroke-width="0.0465142"/>
<rect x="174.35" y="202.271" width="2.2792" height="2.2792" transform="rotate(90 174.35 202.271)" fill="#F93D3E" stroke="#F93D3E" stroke-width="0.0465142"/>
<rect x="176.676" y="202.271" width="2.2792" height="2.2792" transform="rotate(90 176.676 202.271)" fill="#F93D3E" stroke="#F93D3E" stroke-width="0.0465142"/>
<rect x="179.002" y="202.271" width="2.2792" height="2.2792" transform="rotate(90 179.002 202.271)" fill="#F93D3E" stroke="#F93D3E" stroke-width="0.0465142"/>
<rect x="218.484" y="220.89" width="2.2792" height="2.2792" transform="rotate(90 218.484 220.89)" fill="#257EE4" stroke="#0C0F18" stroke-width="0.0465142"/>
<rect x="216.157" y="220.89" width="2.2792" height="2.2792" transform="rotate(90 216.157 220.89)" fill="#257EE4" stroke="#0C0F18" stroke-width="0.0465142"/>
<rect x="211.508" y="220.89" width="2.2792" height="2.2792" transform="rotate(90 211.508 220.89)" fill="#257EE4" stroke="#0C0F18" stroke-width="0.0465142"/>
<rect x="209.178" y="220.89" width="2.2792" height="2.2792" transform="rotate(90 209.178 220.89)" fill="#257EE4" stroke="#0C0F18" stroke-width="0.0465142"/>
<rect x="206.852" y="220.89" width="2.2792" height="2.2792" transform="rotate(90 206.852 220.89)" fill="#257EE4" stroke="#0C0F18" stroke-width="0.0465142"/>
<rect x="217.35" y="213.939" width="2.2792" height="2.2792" transform="rotate(90 217.35 213.939)" fill="#8931ED" stroke="#0C0F18" stroke-width="0.0465142"/>
<rect x="215.024" y="213.939" width="2.2792" height="2.2792" transform="rotate(90 215.024 213.939)" fill="#8931ED" stroke="#0C0F18" stroke-width="0.0465142"/>
<rect x="212.697" y="213.939" width="2.2792" height="2.2792" transform="rotate(90 212.697 213.939)" fill="#8931ED" stroke="#0C0F18" stroke-width="0.0465142"/>
<rect x="174.258" y="218.666" width="2.2792" height="2.2792" transform="rotate(90 174.258 218.666)" fill="#64FFC8" stroke="#0C0F18" stroke-width="0.0465142"/>
<rect x="171.931" y="218.666" width="2.2792" height="2.2792" transform="rotate(90 171.931 218.666)" fill="#64FFC8" stroke="#0C0F18" stroke-width="0.0465142"/>
<rect x="167.281" y="218.666" width="2.2792" height="2.2792" transform="rotate(90 167.281 218.666)" fill="#64FFC8" stroke="#0C0F18" stroke-width="0.0465142"/>
<path d="M190.766 404.508L189.572 407.008L192.459 407.008L191.266 404.508L190.766 404.508ZM191.266 200.508L192.459 198.008L189.572 198.008L190.766 200.508L191.266 200.508ZM191.016 404.758L191.266 404.758L191.266 200.258L191.016 200.258L190.766 200.258L190.766 404.758L191.016 404.758Z" fill="#257EE4"/>
<rect width="386" height="154" transform="translate(0 222.008)" fill="url(#paint1_linear_114_2191)"/>
<rect width="386" height="154" transform="translate(0 222.008)" fill="#0C0F18" fill-opacity="0.2"/>
<path d="M389.613 379.008H384.299V373.693H389.613V379.008ZM27.0527 224.52H197.275V222.115H202.59V224.52H364.927V232.327H376.573V248.124H392.191V359.067H376.573V375.591H194.314V377.322H189V375.591H21.8721L15.7842 363.062L11.9463 357.07H2.01953V248.124H15.7842V224.52H21.7383V222.008H27.0527V224.52ZM17.0215 249.362H3.25684V355.832H12.623L12.9883 356.402L16.8262 362.395L16.8652 362.456L16.8975 362.521L22.6475 374.354H189V372.008H194.314V374.354H375.336V357.83H390.954V249.362H375.336V233.564H363.689V225.757H202.59V227.43H197.275V225.757H27.0527V227.322H21.7383V225.757H17.0215V249.362ZM403 306.832H397.686V301.518H403V306.832ZM13.6172 305.365H8.30273V300.051H13.6172V305.365Z" fill="#257EE4"/>
<path d="M93.19 269.037C90.325 269.037 88.525 267.102 88.525 263.862C88.525 260.637 90.325 258.687 93.19 258.687C96.04 258.687 97.84 260.637 97.84 263.862C97.84 267.102 96.04 269.037 93.19 269.037ZM93.19 268.017C95.515 268.017 96.715 266.667 96.715 263.862C96.715 261.057 95.515 259.707 93.19 259.707C90.85 259.707 89.65 261.057 89.65 263.862C89.65 266.667 90.85 268.017 93.19 268.017ZM103.606 269.037C101.311 269.037 99.6311 267.852 99.6311 265.827V265.722H100.786V265.827C100.786 267.072 101.521 268.017 103.606 268.017C106.126 268.017 107.056 266.622 107.056 263.892V262.977H106.951C106.591 264.162 105.226 265.062 103.231 265.062C100.771 265.062 99.3311 263.847 99.3311 261.912C99.3311 259.947 100.861 258.687 103.546 258.687C106.771 258.687 108.166 260.172 108.166 263.847C108.166 266.907 106.711 269.037 103.606 269.037ZM103.561 264.252C105.601 264.252 106.846 263.397 106.846 261.957C106.846 260.487 105.676 259.707 103.591 259.707C101.416 259.707 100.426 260.457 100.426 261.987C100.426 263.472 101.386 264.252 103.561 264.252ZM110.909 263.562H109.589V261.477H110.909V263.562ZM110.909 268.887H109.589V266.802H110.909V268.887ZM116.885 269.037C114.02 269.037 112.22 267.102 112.22 263.862C112.22 260.637 114.02 258.687 116.885 258.687C119.735 258.687 121.535 260.637 121.535 263.862C121.535 267.102 119.735 269.037 116.885 269.037ZM116.885 268.017C119.21 268.017 120.41 266.667 120.41 263.862C120.41 261.057 119.21 259.707 116.885 259.707C114.545 259.707 113.345 261.057 113.345 263.862C113.345 266.667 114.545 268.017 116.885 268.017ZM127.586 269.037C124.721 269.037 122.921 267.102 122.921 263.862C122.921 260.637 124.721 258.687 127.586 258.687C130.436 258.687 132.236 260.637 132.236 263.862C132.236 267.102 130.436 269.037 127.586 269.037ZM127.586 268.017C129.911 268.017 131.111 266.667 131.111 263.862C131.111 261.057 129.911 259.707 127.586 259.707C125.246 259.707 124.046 261.057 124.046 263.862C124.046 266.667 125.246 268.017 127.586 268.017ZM137.627 264.972H133.547V264.027H137.627V264.972ZM141.993 268.887H140.928V260.892H138.558V260.082H139.083C140.193 260.082 140.733 259.782 141.123 258.837H141.993V268.887ZM151.831 268.887H143.866V268.152C143.866 266.217 144.571 265.272 146.596 264.537L148.846 263.742C150.301 263.202 150.781 262.707 150.781 261.642C150.781 260.322 149.866 259.692 147.961 259.692C145.786 259.692 144.886 260.532 144.886 262.032V262.212H143.821V262.077C143.821 260.292 145.051 258.687 147.991 258.687C150.691 258.687 151.861 260.022 151.861 261.642C151.861 263.187 150.901 264.057 149.131 264.657L147.076 265.347C145.426 265.932 144.961 266.592 144.961 268.002L147.211 267.912H151.831V268.887ZM154.49 263.562H153.17V261.477H154.49V263.562ZM154.49 268.887H153.17V266.802H154.49V268.887ZM160.467 269.037C157.602 269.037 155.802 267.102 155.802 263.862C155.802 260.637 157.602 258.687 160.467 258.687C163.317 258.687 165.117 260.637 165.117 263.862C165.117 267.102 163.317 269.037 160.467 269.037ZM160.467 268.017C162.792 268.017 163.992 266.667 163.992 263.862C163.992 261.057 162.792 259.707 160.467 259.707C158.127 259.707 156.927 261.057 156.927 263.862C156.927 266.667 158.127 268.017 160.467 268.017ZM171.168 269.037C168.303 269.037 166.503 267.102 166.503 263.862C166.503 260.637 168.303 258.687 171.168 258.687C174.018 258.687 175.818 260.637 175.818 263.862C175.818 267.102 174.018 269.037 171.168 269.037ZM171.168 268.017C173.493 268.017 174.693 266.667 174.693 263.862C174.693 261.057 173.493 259.707 171.168 259.707C168.828 259.707 167.628 261.057 167.628 263.862C167.628 266.667 168.828 268.017 171.168 268.017Z" fill="#257EE4"/>
<path d="M211.648 269.197H206.992V258.477H211.648C214.864 258.477 216.912 260.557 216.912 263.837C216.912 267.117 214.864 269.197 211.648 269.197ZM211.648 259.517H208.144V268.157H211.648C214.368 268.157 215.712 266.749 215.712 263.837C215.712 260.925 214.368 259.517 211.648 259.517ZM222.541 269.357C219.997 269.357 218.381 267.757 218.381 265.245C218.381 262.845 219.981 261.133 222.525 261.133C224.845 261.133 226.493 262.477 226.493 264.829C226.493 265.117 226.461 265.357 226.413 265.565H219.453C219.517 267.341 220.429 268.413 222.525 268.413C224.381 268.413 225.245 267.725 225.245 266.573V266.461H226.381V266.573C226.381 268.221 224.749 269.357 222.541 269.357ZM222.509 262.077C220.461 262.077 219.533 263.133 219.453 264.861H225.421C225.421 264.781 225.421 264.701 225.421 264.621C225.421 262.957 224.365 262.077 222.509 262.077ZM232.72 269.197H231.328L227.552 261.293H228.784L231.984 268.077H232.08L235.264 261.293H236.496L232.72 269.197ZM245.419 269.357C242.267 269.357 240.795 267.853 240.795 265.805V265.709H241.947V265.917C241.947 267.453 242.907 268.285 245.419 268.285C247.563 268.285 248.539 267.693 248.539 266.477C248.539 265.277 247.819 264.845 246.251 264.525L243.979 264.093C242.235 263.757 240.843 263.021 240.843 261.245C240.843 259.789 242.091 258.317 245.163 258.317C248.187 258.317 249.531 259.917 249.531 261.869V261.965H248.379V261.773C248.379 260.221 247.419 259.389 245.083 259.389C242.955 259.389 241.995 259.997 241.995 261.165C241.995 262.381 242.699 262.749 244.283 263.085L246.539 263.533C248.459 263.901 249.691 264.717 249.691 266.381C249.691 267.917 248.395 269.357 245.419 269.357ZM252.653 271.917H251.517V261.293H252.541V263.517H252.669C253.021 262.093 254.205 261.133 256.077 261.133C258.541 261.133 259.949 262.845 259.949 265.245C259.949 267.645 258.557 269.357 256.045 269.357C254.301 269.357 253.037 268.397 252.669 266.877H252.653V271.917ZM252.653 265.389C252.653 267.261 253.885 268.317 255.741 268.317C257.581 268.317 258.797 267.533 258.797 265.245C258.797 262.957 257.565 262.189 255.773 262.189C253.805 262.189 252.653 263.293 252.653 265.245V265.389ZM262.833 269.197H261.697V261.293H262.721V263.453H262.801C263.041 262.189 263.937 261.133 265.585 261.133C267.409 261.133 268.209 262.477 268.209 263.949V264.733H267.073V264.125C267.073 262.781 266.513 262.125 265.137 262.125C263.537 262.125 262.833 263.133 262.833 264.909V269.197ZM271.013 260.285H269.877V258.477H271.013V260.285ZM271.013 269.197H269.877V261.293H271.013V269.197ZM274.412 269.197H273.276V261.293H274.3V263.773H274.38C274.652 262.429 275.772 261.133 277.74 261.133C279.964 261.133 281.068 262.717 281.068 264.589V269.197H279.932V264.749C279.932 263.117 279.148 262.173 277.34 262.173C275.42 262.173 274.412 263.341 274.412 265.373V269.197ZM288.117 269.197H286.405C284.837 269.197 283.829 268.541 283.829 266.685V262.269H282.421V261.293H283.829V259.405H284.981V261.293H288.117V262.269H284.981V266.749C284.981 267.853 285.525 268.157 286.677 268.157H288.117V269.197ZM297.244 269.357C294.3 269.357 292.636 268.045 292.636 266.061V265.837H293.804V266.061C293.804 267.597 295.02 268.317 297.26 268.317C299.26 268.317 300.396 267.629 300.396 265.853C300.396 264.109 299.292 263.437 297.276 263.437C295.66 263.437 294.668 263.773 293.884 264.301L293.836 264.285V264.301L292.78 264.141L293.324 258.477H301.132V259.517H294.316L293.9 263.613L293.98 263.629C294.668 263.053 296.012 262.493 297.612 262.493C299.964 262.493 301.596 263.661 301.596 265.853C301.596 268.013 299.932 269.357 297.244 269.357Z" fill="#EEEEEE"/>
<path d="M91.585 306.197H90.52V298.202H88.15V297.392H88.675C89.785 297.392 90.325 297.092 90.715 296.147H91.585V306.197ZM97.6428 306.347C94.6128 306.347 93.3228 304.892 93.3228 303.002V302.762H94.4328V302.957C94.4328 304.532 95.1978 305.327 97.6128 305.327C99.8628 305.327 100.763 304.712 100.763 303.287C100.763 302.012 99.8778 301.412 98.3478 301.412H95.6328V300.497H98.1228C99.6378 300.497 100.463 299.942 100.463 298.802C100.463 297.602 99.7278 297.017 97.5678 297.017C95.2728 297.017 94.4328 297.812 94.4328 299.387V299.522H93.3228V299.342C93.3228 297.482 94.6578 295.997 97.6428 295.997C100.103 295.997 101.528 296.972 101.528 298.637C101.528 299.762 100.868 300.602 99.6078 300.827V300.932C101.033 301.202 101.843 302.072 101.843 303.407C101.843 305.282 100.238 306.347 97.6428 306.347ZM104.419 300.872H103.099V298.787H104.419V300.872ZM104.419 306.197H103.099V304.112H104.419V306.197ZM110.396 306.347C107.531 306.347 105.731 304.412 105.731 301.172C105.731 297.947 107.531 295.997 110.396 295.997C113.246 295.997 115.046 297.947 115.046 301.172C115.046 304.412 113.246 306.347 110.396 306.347ZM110.396 305.327C112.721 305.327 113.921 303.977 113.921 301.172C113.921 298.367 112.721 297.017 110.396 297.017C108.056 297.017 106.856 298.367 106.856 301.172C106.856 303.977 108.056 305.327 110.396 305.327ZM121.097 306.347C118.232 306.347 116.432 304.412 116.432 301.172C116.432 297.947 118.232 295.997 121.097 295.997C123.947 295.997 125.747 297.947 125.747 301.172C125.747 304.412 123.947 306.347 121.097 306.347ZM121.097 305.327C123.422 305.327 124.622 303.977 124.622 301.172C124.622 298.367 123.422 297.017 121.097 297.017C118.757 297.017 117.557 298.367 117.557 301.172C117.557 303.977 118.757 305.327 121.097 305.327ZM131.138 302.282H127.058V301.337H131.138V302.282ZM135.503 306.197H134.438V298.202H132.068V297.392H132.593C133.703 297.392 134.243 297.092 134.633 296.147H135.503V306.197ZM140.466 306.212H139.281C139.281 301.442 141.456 298.982 143.631 297.197V297.122H136.866V296.147H144.846V297.017C141.876 299.627 140.466 302.072 140.466 306.212ZM147.063 300.872H145.743V298.787H147.063V300.872ZM147.063 306.197H145.743V304.112H147.063V306.197ZM153.04 306.347C150.175 306.347 148.375 304.412 148.375 301.172C148.375 297.947 150.175 295.997 153.04 295.997C155.89 295.997 157.69 297.947 157.69 301.172C157.69 304.412 155.89 306.347 153.04 306.347ZM153.04 305.327C155.365 305.327 156.565 303.977 156.565 301.172C156.565 298.367 155.365 297.017 153.04 297.017C150.7 297.017 149.5 298.367 149.5 301.172C149.5 303.977 150.7 305.327 153.04 305.327ZM163.741 306.347C160.876 306.347 159.076 304.412 159.076 301.172C159.076 297.947 160.876 295.997 163.741 295.997C166.591 295.997 168.391 297.947 168.391 301.172C168.391 304.412 166.591 306.347 163.741 306.347ZM163.741 305.327C166.066 305.327 167.266 303.977 167.266 301.172C167.266 298.367 166.066 297.017 163.741 297.017C161.401 297.017 160.201 298.367 160.201 301.172C160.201 303.977 161.401 305.327 163.741 305.327Z" fill="#257EE4"/>
<path d="M208.096 306.508H206.96V295.788H214.992V296.828H208.096V300.924H214.752V301.948H208.096V306.508ZM217.995 297.596H216.859V295.788H217.995V297.596ZM217.995 306.508H216.859V298.604H217.995V306.508ZM221.394 306.508H220.258V298.604H221.282V301.084H221.362C221.634 299.74 222.754 298.444 224.722 298.444C226.946 298.444 228.05 300.028 228.05 301.9V306.508H226.914V302.06C226.914 300.428 226.13 299.484 224.322 299.484C222.402 299.484 221.394 300.652 221.394 302.684V306.508ZM232.442 306.668C230.89 306.668 229.834 305.932 229.834 304.652C229.834 303.356 230.906 302.796 232.378 302.636L236.138 302.22V301.612C236.138 300.076 235.466 299.468 233.738 299.468C232.042 299.468 231.146 300.076 231.146 301.468V301.532H230.01V301.468C230.01 299.804 231.386 298.444 233.818 298.444C236.218 298.444 237.242 299.82 237.242 301.564V306.508H236.218V304.38H236.138C235.674 305.836 234.282 306.668 232.442 306.668ZM230.97 304.572C230.97 305.372 231.498 305.788 232.698 305.788C234.618 305.788 236.138 304.94 236.138 303.036V302.972L232.73 303.356C231.546 303.468 230.97 303.756 230.97 304.572ZM240.598 306.508H239.462V295.788H240.598V306.508ZM250.918 306.508H249.782V296.828H245.366V295.788H255.318V296.828H250.918V306.508ZM260.559 306.668C258.015 306.668 256.399 305.068 256.399 302.556C256.399 300.156 257.999 298.444 260.543 298.444C262.863 298.444 264.511 299.788 264.511 302.14C264.511 302.428 264.479 302.668 264.431 302.876H257.471C257.535 304.652 258.447 305.724 260.543 305.724C262.399 305.724 263.263 305.036 263.263 303.884V303.772H264.399V303.884C264.399 305.532 262.767 306.668 260.559 306.668ZM260.527 299.388C258.479 299.388 257.551 300.444 257.471 302.172H263.439C263.439 302.092 263.439 302.012 263.439 301.932C263.439 300.268 262.383 299.388 260.527 299.388ZM269.842 306.668C267.41 306.668 266.002 305.692 266.002 303.868V303.836H267.138V303.932C267.138 305.26 267.922 305.724 269.858 305.724C271.634 305.724 272.242 305.308 272.242 304.396C272.242 303.564 271.746 303.292 270.434 303.084L268.322 302.78C266.882 302.588 265.97 302.028 265.97 300.716C265.97 299.324 267.298 298.444 269.474 298.444C271.746 298.444 273.218 299.404 273.218 301.26V301.292H272.082V301.212C272.082 300.028 271.458 299.388 269.442 299.388C267.778 299.388 267.09 299.788 267.09 300.732C267.09 301.548 267.506 301.836 268.818 302.028L270.754 302.3C272.45 302.54 273.362 303.116 273.362 304.396C273.362 305.884 271.89 306.668 269.842 306.668ZM280.054 306.508H278.342C276.774 306.508 275.766 305.852 275.766 303.996V299.58H274.358V298.604H275.766V296.716H276.918V298.604H280.054V299.58H276.918V304.06C276.918 305.164 277.462 305.468 278.614 305.468H280.054V306.508ZM282.788 297.596H281.652V295.788H282.788V297.596ZM282.788 306.508H281.652V298.604H282.788V306.508ZM286.187 306.508H285.051V298.604H286.075V301.084H286.155C286.427 299.74 287.547 298.444 289.515 298.444C291.739 298.444 292.843 300.028 292.843 301.9V306.508H291.707V302.06C291.707 300.428 290.923 299.484 289.115 299.484C287.195 299.484 286.187 300.652 286.187 302.684V306.508ZM298.435 305.868C296.083 305.868 294.643 304.316 294.643 302.156C294.643 299.996 296.131 298.444 298.563 298.444C300.227 298.444 301.539 299.228 301.859 300.636H301.939V298.604H302.963V305.756C302.963 308.364 301.315 309.388 298.931 309.388C296.787 309.388 295.155 308.316 295.155 306.476H296.291C296.291 307.868 297.219 308.412 298.979 308.412C301.027 308.412 301.827 307.788 301.827 305.82V303.756H301.747C301.427 304.972 300.259 305.868 298.435 305.868ZM295.779 302.156C295.779 304.172 297.027 304.86 298.739 304.86C300.691 304.86 301.827 303.884 301.827 302.204V301.932C301.827 300.38 300.643 299.452 298.819 299.452C297.043 299.452 295.779 300.14 295.779 302.156Z" fill="#EEEEEE"/>
<path d="M129.692 343.508H121.727V342.773C121.727 340.838 122.432 339.893 124.457 339.158L126.707 338.363C128.162 337.823 128.642 337.328 128.642 336.263C128.642 334.943 127.727 334.313 125.822 334.313C123.647 334.313 122.747 335.153 122.747 336.653V336.833H121.682V336.698C121.682 334.913 122.912 333.308 125.852 333.308C128.552 333.308 129.722 334.643 129.722 336.263C129.722 337.808 128.762 338.678 126.992 339.278L124.937 339.968C123.287 340.553 122.822 341.213 122.822 342.623L125.072 342.533H129.692V343.508ZM135.426 343.658C132.396 343.658 131.106 342.203 131.106 340.313V340.073H132.216V340.268C132.216 341.843 132.981 342.638 135.396 342.638C137.646 342.638 138.546 342.023 138.546 340.598C138.546 339.323 137.661 338.723 136.131 338.723H133.416V337.808H135.906C137.421 337.808 138.246 337.253 138.246 336.113C138.246 334.913 137.511 334.328 135.351 334.328C133.056 334.328 132.216 335.123 132.216 336.698V336.833H131.106V336.653C131.106 334.793 132.441 333.308 135.426 333.308C137.886 333.308 139.311 334.283 139.311 335.948C139.311 337.073 138.651 337.913 137.391 338.138V338.243C138.816 338.513 139.626 339.383 139.626 340.718C139.626 342.593 138.021 343.658 135.426 343.658ZM142.203 338.183H140.883V336.098H142.203V338.183ZM142.203 343.508H140.883V341.423H142.203V343.508ZM147.864 343.658C145.104 343.658 143.544 342.428 143.544 340.568V340.358H144.639V340.568C144.639 342.008 145.779 342.683 147.879 342.683C149.754 342.683 150.819 342.038 150.819 340.373C150.819 338.738 149.784 338.108 147.894 338.108C146.379 338.108 145.449 338.423 144.714 338.918L144.669 338.903V338.918L143.679 338.768L144.189 333.458H151.509V334.433H145.119L144.729 338.273L144.804 338.288C145.449 337.748 146.709 337.223 148.209 337.223C150.414 337.223 151.944 338.318 151.944 340.373C151.944 342.398 150.384 343.658 147.864 343.658ZM157.731 343.658C155.436 343.658 153.756 342.473 153.756 340.448V340.343H154.911V340.448C154.911 341.693 155.646 342.638 157.731 342.638C160.251 342.638 161.181 341.243 161.181 338.513V337.598H161.076C160.716 338.783 159.351 339.683 157.356 339.683C154.896 339.683 153.456 338.468 153.456 336.533C153.456 334.568 154.986 333.308 157.671 333.308C160.896 333.308 162.291 334.793 162.291 338.468C162.291 341.528 160.836 343.658 157.731 343.658ZM157.686 338.873C159.726 338.873 160.971 338.018 160.971 336.578C160.971 335.108 159.801 334.328 157.716 334.328C155.541 334.328 154.551 335.078 154.551 336.608C154.551 338.093 155.511 338.873 157.686 338.873Z" fill="#F93D3E"/>
<path d="M208.096 342.818H206.96V332.098H214.992V333.138H208.096V337.234H214.752V338.258H208.096V342.818ZM217.995 333.906H216.859V332.098H217.995V333.906ZM217.995 342.818H216.859V334.914H217.995V342.818ZM221.394 342.818H220.258V334.914H221.282V337.394H221.362C221.634 336.05 222.754 334.754 224.722 334.754C226.946 334.754 228.05 336.338 228.05 338.21V342.818H226.914V338.37C226.914 336.738 226.13 335.794 224.322 335.794C222.402 335.794 221.394 336.962 221.394 338.994V342.818ZM232.442 342.978C230.89 342.978 229.834 342.242 229.834 340.962C229.834 339.666 230.906 339.106 232.378 338.946L236.138 338.53V337.922C236.138 336.386 235.466 335.778 233.738 335.778C232.042 335.778 231.146 336.386 231.146 337.778V337.842H230.01V337.778C230.01 336.114 231.386 334.754 233.818 334.754C236.218 334.754 237.242 336.13 237.242 337.874V342.818H236.218V340.69H236.138C235.674 342.146 234.282 342.978 232.442 342.978ZM230.97 340.882C230.97 341.682 231.498 342.098 232.698 342.098C234.618 342.098 236.138 341.25 236.138 339.346V339.282L232.73 339.666C231.546 339.778 230.97 340.066 230.97 340.882ZM240.598 342.818H239.462V332.098H240.598V342.818ZM250.838 342.818H246.182V332.098H250.838C254.054 332.098 256.102 334.178 256.102 337.458C256.102 340.738 254.054 342.818 250.838 342.818ZM250.838 333.138H247.334V341.778H250.838C253.558 341.778 254.902 340.37 254.902 337.458C254.902 334.546 253.558 333.138 250.838 333.138ZM261.731 342.978C259.187 342.978 257.571 341.378 257.571 338.866C257.571 336.466 259.171 334.754 261.715 334.754C264.035 334.754 265.683 336.098 265.683 338.45C265.683 338.738 265.651 338.978 265.603 339.186H258.643C258.707 340.962 259.619 342.034 261.715 342.034C263.571 342.034 264.435 341.346 264.435 340.194V340.082H265.571V340.194C265.571 341.842 263.939 342.978 261.731 342.978ZM261.699 335.698C259.651 335.698 258.723 336.754 258.643 338.482H264.611C264.611 338.402 264.611 338.322 264.611 338.242C264.611 336.578 263.555 335.698 261.699 335.698ZM269.734 342.978C268.182 342.978 267.126 342.242 267.126 340.962C267.126 339.666 268.198 339.106 269.67 338.946L273.43 338.53V337.922C273.43 336.386 272.758 335.778 271.03 335.778C269.334 335.778 268.438 336.386 268.438 337.778V337.842H267.302V337.778C267.302 336.114 268.678 334.754 271.11 334.754C273.51 334.754 274.534 336.13 274.534 337.874V342.818H273.51V340.69H273.43C272.966 342.146 271.574 342.978 269.734 342.978ZM268.262 340.882C268.262 341.682 268.79 342.098 269.99 342.098C271.91 342.098 273.43 341.25 273.43 339.346V339.282L270.022 339.666C268.838 339.778 268.262 340.066 268.262 340.882ZM280.161 342.978C277.633 342.978 276.225 341.266 276.225 338.866C276.225 336.466 277.633 334.754 280.065 334.754C281.937 334.754 283.105 335.762 283.457 337.122H283.537V332.098H284.673V342.818H283.633V340.482H283.569C283.185 342.066 281.905 342.978 280.161 342.978ZM277.377 338.866C277.377 341.154 278.593 341.938 280.449 341.938C282.305 341.938 283.537 340.866 283.537 338.994V338.85C283.537 336.898 282.369 335.81 280.417 335.81C278.609 335.81 277.377 336.578 277.377 338.866ZM288.069 342.818H286.933V332.098H288.069V342.818ZM291.468 333.906H290.332V332.098H291.468V333.906ZM291.468 342.818H290.332V334.914H291.468V342.818ZM294.867 342.818H293.731V334.914H294.755V337.394H294.835C295.107 336.05 296.227 334.754 298.195 334.754C300.419 334.754 301.523 336.338 301.523 338.21V342.818H300.387V338.37C300.387 336.738 299.603 335.794 297.795 335.794C295.875 335.794 294.867 336.962 294.867 338.994V342.818ZM307.483 342.978C304.939 342.978 303.323 341.378 303.323 338.866C303.323 336.466 304.923 334.754 307.467 334.754C309.787 334.754 311.435 336.098 311.435 338.45C311.435 338.738 311.403 338.978 311.355 339.186H304.395C304.459 340.962 305.371 342.034 307.467 342.034C309.323 342.034 310.187 341.346 310.187 340.194V340.082H311.323V340.194C311.323 341.842 309.691 342.978 307.483 342.978ZM307.451 335.698C305.403 335.698 304.475 336.754 304.395 338.482H310.363C310.363 338.402 310.363 338.322 310.363 338.242C310.363 336.578 309.307 335.698 307.451 335.698Z" fill="#EEEEEE"/>
<path d="M188 261.008H193.315V266.323H188V261.008Z" fill="#257EE4"/>
<path d="M188 261.008H193.315V266.323H188V261.008Z" fill="#257EE4"/>
<path d="M188 299.008H193.315V304.323H188V299.008Z" fill="#257EE4"/>
<path d="M188 299.008H193.315V304.323H188V299.008Z" fill="#257EE4"/>
<path d="M188 338.008H193.315V343.323H188V338.008Z" fill="#F93D3E"/>
<path d="M188 338.008H193.315V343.323H188V338.008Z" fill="#F93D3E"/>
<path d="M207.5 348.758L205 347.564V350.451L207.5 349.258V348.758ZM308.5 349.258L311 350.451V347.564L308.5 348.758V349.258ZM207.25 349.008V349.258H308.75V349.008V348.758H207.25V349.008Z" fill="#FF595A"/>
<rect x="279.067" y="358.259" width="81.4982" height="18.4982" fill="url(#paint2_linear_114_2191)"/>
<rect x="279.067" y="358.259" width="81.4982" height="18.4982" stroke="#FF595A" stroke-width="0.501776" stroke-dasharray="1 1"/>
<path d="M290.348 371.008H283.916V362.968H290.348V364.132H285.212V366.388H290.168V367.54H285.212V369.844H290.348V371.008ZM292.917 371.008H291.621V365.044H292.809V366.892H292.893C293.073 365.884 293.865 364.924 295.377 364.924C297.033 364.924 297.849 366.04 297.849 367.42V371.008H296.553V367.768C296.553 366.652 296.049 366.088 294.813 366.088C293.505 366.088 292.917 366.76 292.917 368.056V371.008ZM301.896 371.128C300.012 371.128 298.968 369.868 298.968 368.032C298.968 366.172 300 364.924 301.812 364.924C303.228 364.924 304.032 365.656 304.272 366.664H304.344V362.968H305.64V371.008H304.452V369.292H304.368C304.116 370.48 303.24 371.128 301.896 371.128ZM300.276 368.032C300.276 369.46 301.008 369.94 302.292 369.94C303.564 369.94 304.344 369.34 304.344 368.092V367.996C304.344 366.724 303.6 366.1 302.268 366.1C301.02 366.1 300.276 366.592 300.276 368.032ZM310.713 371.008H309.417V362.968H313.353C315.141 362.968 316.365 363.988 316.365 365.776C316.365 367.552 315.141 368.584 313.353 368.584H310.713V371.008ZM313.233 364.132H310.713V367.42H313.233C314.445 367.42 315.069 366.964 315.069 365.776C315.069 364.588 314.445 364.132 313.233 364.132ZM318.7 371.008H317.404V362.968H318.7V366.868H318.772C318.976 365.86 319.708 364.924 321.232 364.924C322.876 364.924 323.68 366.004 323.68 367.456V371.008H322.396V367.768C322.396 366.568 321.856 366.088 320.62 366.088C319.204 366.088 318.7 366.856 318.7 368.116V371.008ZM326.861 371.128C325.625 371.128 324.845 370.552 324.845 369.568C324.845 368.644 325.589 368.164 326.765 368.032L329.477 367.744V367.396C329.477 366.412 329.045 366.064 327.905 366.064C326.801 366.064 326.261 366.424 326.261 367.3V367.348H324.977V367.3C324.977 365.944 326.105 364.924 328.001 364.924C329.897 364.924 330.749 365.956 330.749 367.384V371.008H329.561V369.52H329.477C329.165 370.528 328.217 371.128 326.861 371.128ZM326.141 369.484C326.141 369.964 326.465 370.192 327.209 370.192C328.565 370.192 329.477 369.688 329.477 368.512L327.137 368.776C326.465 368.86 326.141 369.016 326.141 369.484ZM334.99 371.128C333.07 371.128 331.978 370.372 331.978 368.992V368.956H333.274V369.052C333.274 369.832 333.742 370.084 334.99 370.084C336.154 370.084 336.502 369.844 336.502 369.316C336.502 368.824 336.214 368.668 335.362 368.548L333.73 368.332C332.602 368.188 331.918 367.708 331.918 366.712C331.918 365.668 332.866 364.924 334.702 364.924C336.526 364.924 337.63 365.656 337.63 367.072V367.108H336.346V367.036C336.346 366.328 335.986 365.956 334.666 365.956C333.574 365.956 333.19 366.196 333.19 366.76C333.19 367.228 333.43 367.396 334.33 367.516L335.71 367.708C337.126 367.888 337.774 368.368 337.774 369.352C337.774 370.468 336.67 371.128 334.99 371.128ZM341.973 371.128C340.017 371.128 338.733 370.024 338.733 368.032C338.733 366.172 340.005 364.924 341.949 364.924C343.797 364.924 345.057 365.944 345.057 367.756C345.057 367.972 345.045 368.14 345.009 368.32H339.945C339.993 369.472 340.557 370.084 341.937 370.084C343.185 370.084 343.701 369.676 343.701 368.968V368.872H344.997V368.98C344.997 370.252 343.749 371.128 341.973 371.128ZM341.925 365.944C340.605 365.944 340.029 366.532 339.957 367.6H343.833V367.576C343.833 366.472 343.197 365.944 341.925 365.944ZM355.147 371.008H348.415V370.156C348.415 368.668 349.003 367.924 350.659 367.36L352.579 366.7C353.539 366.352 353.875 366.028 353.875 365.32C353.875 364.468 353.323 364.036 351.883 364.036C350.275 364.036 349.675 364.6 349.675 365.656V365.8H348.403V365.68C348.403 364.192 349.423 362.848 351.931 362.848C354.211 362.848 355.171 363.928 355.171 365.344C355.171 366.664 354.319 367.36 352.903 367.792L351.211 368.308C350.131 368.68 349.759 369.064 349.759 369.976L351.703 369.844H355.147V371.008Z" fill="white"/>
<path d="M359.816 357.008H361.622V358.814H359.816V357.008Z" fill="#FF595A"/>
<path d="M360.009 376H361.816V377.806H360.009V376Z" fill="#FF595A"/>
<rect x="277.912" y="375.973" width="1.80639" height="1.80639" fill="#FF595A"/>
<rect x="277.912" y="357.105" width="1.80639" height="1.80639" fill="#FF595A"/>
<path d="M272.891 351.592C272.857 351.427 273.028 351.294 273.18 351.369L279.47 354.47C279.651 354.559 279.605 354.829 279.404 354.853L276.088 355.244C276.013 355.253 275.95 355.302 275.923 355.373L274.72 358.487C274.647 358.676 274.374 358.653 274.332 358.456L272.891 351.592Z" fill="#FF595A"/>
<defs>
<linearGradient id="paint0_linear_114_2191" x1="194" y1="0" x2="194" y2="154" gradientUnits="userSpaceOnUse">
<stop stop-color="white" stop-opacity="0"/>
<stop offset="1" stop-color="#257EE4" stop-opacity="0.08"/>
</linearGradient>
<linearGradient id="paint1_linear_114_2191" x1="193" y1="0" x2="193" y2="154" gradientUnits="userSpaceOnUse">
<stop stop-color="white" stop-opacity="0"/>
<stop offset="1" stop-color="#257EE4" stop-opacity="0.08"/>
</linearGradient>
<linearGradient id="paint2_linear_114_2191" x1="319.816" y1="358.008" x2="319.816" y2="377.008" gradientUnits="userSpaceOnUse">
<stop stop-color="white" stop-opacity="0"/>
<stop offset="1" stop-color="#F93D3E" stop-opacity="0.08"/>
</linearGradient>
</defs>
</svg>
