<svg width="82" height="33" viewBox="0 0 82 33" fill="none" xmlns="http://www.w3.org/2000/svg">
<rect x="10.6708" y="1.25089" width="69.5994" height="19.5603" fill="url(#paint0_linear_2048_3212)"/>
<rect x="10.6708" y="1.25089" width="69.5994" height="19.5603" stroke="#8931ED" stroke-width="0.501776" stroke-dasharray="1 1"/>
<path d="M34.8027 14.5312H31.1427V6.49125H34.8027C37.2987 6.49125 38.8707 8.02725 38.8707 10.5112C38.8707 12.9952 37.2987 14.5312 34.8027 14.5312ZM34.8027 7.65525H32.4267V13.3672H34.8027C36.6627 13.3672 37.5027 12.5752 37.5027 10.5112C37.5027 8.44725 36.6627 7.65525 34.8027 7.65525ZM41.8523 14.6513C40.6163 14.6513 39.8363 14.0752 39.8363 13.0912C39.8363 12.1672 40.5803 11.6872 41.7563 11.5552L44.4683 11.2672V10.9192C44.4683 9.93525 44.0363 9.58725 42.8963 9.58725C41.7923 9.58725 41.2523 9.94725 41.2523 10.8232V10.8712H39.9683V10.8232C39.9683 9.46725 41.0963 8.44725 42.9923 8.44725C44.8883 8.44725 45.7403 9.47925 45.7403 10.9072V14.5312H44.5523V13.0432H44.4683C44.1563 14.0512 43.2083 14.6513 41.8523 14.6513ZM41.1323 13.0072C41.1323 13.4872 41.4563 13.7152 42.2003 13.7152C43.5563 13.7152 44.4683 13.2112 44.4683 12.0352L42.1283 12.2992C41.4563 12.3832 41.1323 12.5392 41.1323 13.0072ZM48.1212 16.5713H47.2692V15.3953H48.4332C48.9612 15.3953 49.1772 15.2513 49.3572 14.8433L49.5012 14.5312L46.5612 8.56725H48.0132L49.5372 11.7352L50.1252 13.1632H50.2212L50.7852 11.7232L52.1892 8.56725H53.6172L50.5092 15.1793C50.0172 16.2473 49.3452 16.5713 48.1212 16.5713ZM59.6138 14.5312H58.3178V8.41125H56.3498V7.48725H56.7338C57.6218 7.48725 58.1258 7.25925 58.4738 6.49125H59.6138V14.5312Z" fill="#8931ED"/>
<rect x="79.8691" width="1.80639" height="1.80639" fill="#8931ED"/>
<rect x="79.8691" y="20" width="1.80639" height="1.80639" fill="#8931ED"/>
<rect x="9.51562" y="19.9648" width="1.80639" height="1.80639" fill="#8931ED"/>
<rect x="9.51562" y="0.0976562" width="1.80639" height="1.80639" fill="#8931ED"/>
<path d="M2.79045 28.8435C2.67485 28.8635 2.58696 28.7417 2.6425 28.6383L6.53834 21.387C6.60477 21.264 6.79054 21.303 6.80219 21.4424L7.12804 25.3902C7.13613 25.4881 7.1982 25.5742 7.28856 25.6127L10.9316 27.1682C11.0603 27.2233 11.0385 27.4119 10.9008 27.4361L2.79045 28.8435Z" fill="#8931ED" stroke="#8931ED" stroke-width="0.124308"/>
<defs>
<linearGradient id="paint0_linear_2048_3212" x1="45.4705" y1="1" x2="45.4705" y2="21.0621" gradientUnits="userSpaceOnUse">
<stop stop-color="white" stop-opacity="0"/>
<stop offset="1" stop-color="#9951EC" stop-opacity="0.08"/>
</linearGradient>
</defs>
</svg>
