<svg width="82" height="33" viewBox="0 0 82 33" fill="none" xmlns="http://www.w3.org/2000/svg">
<rect x="1.15519" y="1.25089" width="69.5994" height="19.5603" fill="url(#paint0_linear_2048_3220)"/>
<rect x="1.15519" y="1.25089" width="69.5994" height="19.5603" stroke="#8931ED" stroke-width="0.501776" stroke-dasharray="1 1"/>
<path d="M23.2871 14.5312H19.6271V6.49125H23.2871C25.7831 6.49125 27.3551 8.02725 27.3551 10.5112C27.3551 12.9952 25.7831 14.5312 23.2871 14.5312ZM23.2871 7.65525H20.9111V13.3672H23.2871C25.1471 13.3672 25.9871 12.5752 25.9871 10.5112C25.9871 8.44725 25.1471 7.65525 23.2871 7.65525ZM30.3367 14.6513C29.1007 14.6513 28.3207 14.0752 28.3207 13.0912C28.3207 12.1672 29.0647 11.6872 30.2407 11.5552L32.9527 11.2672V10.9192C32.9527 9.93525 32.5207 9.58725 31.3807 9.58725C30.2767 9.58725 29.7367 9.94725 29.7367 10.8232V10.8712H28.4527V10.8232C28.4527 9.46725 29.5807 8.44725 31.4767 8.44725C33.3727 8.44725 34.2247 9.47925 34.2247 10.9072V14.5312H33.0367V13.0432H32.9527C32.6407 14.0512 31.6927 14.6513 30.3367 14.6513ZM29.6167 13.0072C29.6167 13.4872 29.9407 13.7152 30.6847 13.7152C32.0407 13.7152 32.9527 13.2112 32.9527 12.0352L30.6127 12.2992C29.9407 12.3832 29.6167 12.5392 29.6167 13.0072ZM36.6056 16.5713H35.7536V15.3953H36.9176C37.4456 15.3953 37.6616 15.2513 37.8416 14.8433L37.9856 14.5312L35.0456 8.56725H36.4976L38.0216 11.7352L38.6096 13.1632H38.7056L39.2696 11.7232L40.6736 8.56725H42.1016L38.9936 15.1793C38.5016 16.2473 37.8296 16.5713 36.6056 16.5713ZM51.8542 14.5312H45.1222V13.6792C45.1222 12.1912 45.7102 11.4473 47.3662 10.8832L49.2862 10.2232C50.2462 9.87525 50.5822 9.55125 50.5822 8.84325C50.5822 7.99125 50.0302 7.55925 48.5902 7.55925C46.9822 7.55925 46.3822 8.12325 46.3822 9.17925V9.32325H45.1102V9.20325C45.1102 7.71525 46.1302 6.37125 48.6382 6.37125C50.9182 6.37125 51.8782 7.45125 51.8782 8.86725C51.8782 10.1872 51.0262 10.8832 49.6102 11.3152L47.9182 11.8312C46.8382 12.2032 46.4662 12.5872 46.4662 13.4992L48.4102 13.3672H51.8542V14.5312Z" fill="#8931ED"/>
<rect x="70.3535" width="1.80639" height="1.80639" fill="#8931ED"/>
<rect x="70.3535" y="20" width="1.80639" height="1.80639" fill="#8931ED"/>
<rect y="19.9648" width="1.80639" height="1.80639" fill="#8931ED"/>
<rect y="0.0976562" width="1.80639" height="1.80639" fill="#8931ED"/>
<path d="M78.4446 28.9527C78.4752 29.0659 78.3619 29.1646 78.2539 29.1188L70.676 25.9042C70.5474 25.8494 70.5692 25.6608 70.7069 25.6364L74.6082 24.95C74.7049 24.9329 74.785 24.8632 74.8151 24.7697L76.03 20.9994C76.073 20.8662 76.2628 20.8706 76.2995 21.0055L78.4446 28.9527Z" fill="#8931ED" stroke="#8931ED" stroke-width="0.124308"/>
<defs>
<linearGradient id="paint0_linear_2048_3220" x1="35.9549" y1="1" x2="35.9549" y2="21.0621" gradientUnits="userSpaceOnUse">
<stop stop-color="white" stop-opacity="0"/>
<stop offset="1" stop-color="#9951EC" stop-opacity="0.08"/>
</linearGradient>
</defs>
</svg>
