<svg width="378" height="260" viewBox="0 0 378 260" fill="none" xmlns="http://www.w3.org/2000/svg">
<path d="M190.75 257.253L189.557 259.753L192.443 259.753L191.25 257.253L190.75 257.253ZM191.25 2.50137L192.443 0.00137329L189.557 0.00137329L190.75 2.50137L191.25 2.50137ZM191 257.503L191.25 257.503L191.25 2.25137L191 2.25137L190.75 2.25137L190.75 257.503L191 257.503Z" fill="#8931ED"/>
<rect width="378" height="213" transform="translate(0 13.001)" fill="url(#paint0_linear_49_163)"/>
<rect width="378" height="213" transform="translate(0 13.001)" fill="#0C0F18" fill-opacity="0.2"/>
<path d="M22 21.4268H188.686V19.4443H194.686V21.4268H345.293V32.0693H356.184V53.6016H370.786V127.001H373V133.001H370.786V204.824H356.184V226.001H361V232.001H355V227.347H194.686V229.882H188.686V227.347H24.5332L18.8408 210.27L15.252 202.102H5.9707V131.001H4V125.001H5.9707V53.6016H18.8408V24.001H16V18.001H22V21.4268ZM22 24.001H20.0781V54.8389H7.20801V125.001H10V131.001H7.20801V200.864H16.0596L16.3848 201.604L19.9736 209.771L19.9971 209.824L20.0146 209.878L25.4248 226.109H188.686V223.882H194.686V226.109H354.945V203.587H369.548V133.001H367V127.001H369.548V54.8389H354.945V33.3066H344.056V22.6641H194.686V25.4443H188.686V22.6641H22V24.001Z" fill="#8931ED"/>
<path d="M89.19 48.9859C86.325 48.9859 84.525 47.0509 84.525 43.8109C84.525 40.5859 86.325 38.6359 89.19 38.6359C92.04 38.6359 93.84 40.5859 93.84 43.8109C93.84 47.0509 92.04 48.9859 89.19 48.9859ZM89.19 47.9659C91.515 47.9659 92.715 46.6159 92.715 43.8109C92.715 41.0059 91.515 39.6559 89.19 39.6559C86.85 39.6559 85.65 41.0059 85.65 43.8109C85.65 46.6159 86.85 47.9659 89.19 47.9659ZM99.6061 48.9859C97.3111 48.9859 95.6311 47.8009 95.6311 45.7759V45.6709H96.7861V45.7759C96.7861 47.0209 97.5211 47.9659 99.6061 47.9659C102.126 47.9659 103.056 46.5709 103.056 43.8409V42.9259H102.951C102.591 44.1109 101.226 45.0109 99.2311 45.0109C96.7711 45.0109 95.3311 43.7959 95.3311 41.8609C95.3311 39.8959 96.8611 38.6359 99.5461 38.6359C102.771 38.6359 104.166 40.1209 104.166 43.7959C104.166 46.8559 102.711 48.9859 99.6061 48.9859ZM99.5611 44.2009C101.601 44.2009 102.846 43.3459 102.846 41.9059C102.846 40.4359 101.676 39.6559 99.5911 39.6559C97.4161 39.6559 96.4261 40.4059 96.4261 41.9359C96.4261 43.4209 97.3861 44.2009 99.5611 44.2009ZM106.909 43.5109H105.589V41.4259H106.909V43.5109ZM106.909 48.8359H105.589V46.7509H106.909V48.8359ZM112.885 48.9859C110.02 48.9859 108.22 47.0509 108.22 43.8109C108.22 40.5859 110.02 38.6359 112.885 38.6359C115.735 38.6359 117.535 40.5859 117.535 43.8109C117.535 47.0509 115.735 48.9859 112.885 48.9859ZM112.885 47.9659C115.21 47.9659 116.41 46.6159 116.41 43.8109C116.41 41.0059 115.21 39.6559 112.885 39.6559C110.545 39.6559 109.345 41.0059 109.345 43.8109C109.345 46.6159 110.545 47.9659 112.885 47.9659ZM123.586 48.9859C120.721 48.9859 118.921 47.0509 118.921 43.8109C118.921 40.5859 120.721 38.6359 123.586 38.6359C126.436 38.6359 128.236 40.5859 128.236 43.8109C128.236 47.0509 126.436 48.9859 123.586 48.9859ZM123.586 47.9659C125.911 47.9659 127.111 46.6159 127.111 43.8109C127.111 41.0059 125.911 39.6559 123.586 39.6559C121.246 39.6559 120.046 41.0059 120.046 43.8109C120.046 46.6159 121.246 47.9659 123.586 47.9659ZM133.627 44.9209H129.547V43.9759H133.627V44.9209ZM139.598 48.9859C136.733 48.9859 134.933 47.0509 134.933 43.8109C134.933 40.5859 136.733 38.6359 139.598 38.6359C142.448 38.6359 144.248 40.5859 144.248 43.8109C144.248 47.0509 142.448 48.9859 139.598 48.9859ZM139.598 47.9659C141.923 47.9659 143.123 46.6159 143.123 43.8109C143.123 41.0059 141.923 39.6559 139.598 39.6559C137.258 39.6559 136.058 41.0059 136.058 43.8109C136.058 46.6159 137.258 47.9659 139.598 47.9659ZM150.014 48.9859C147.719 48.9859 146.039 47.8009 146.039 45.7759V45.6709H147.194V45.7759C147.194 47.0209 147.929 47.9659 150.014 47.9659C152.534 47.9659 153.464 46.5709 153.464 43.8409V42.9259H153.359C152.999 44.1109 151.634 45.0109 149.639 45.0109C147.179 45.0109 145.739 43.7959 145.739 41.8609C145.739 39.8959 147.269 38.6359 149.954 38.6359C153.179 38.6359 154.574 40.1209 154.574 43.7959C154.574 46.8559 153.119 48.9859 150.014 48.9859ZM149.969 44.2009C152.009 44.2009 153.254 43.3459 153.254 41.9059C153.254 40.4359 152.084 39.6559 149.999 39.6559C147.824 39.6559 146.834 40.4059 146.834 41.9359C146.834 43.4209 147.794 44.2009 149.969 44.2009ZM157.316 43.5109H155.996V41.4259H157.316V43.5109ZM157.316 48.8359H155.996V46.7509H157.316V48.8359ZM162.948 48.9859C159.918 48.9859 158.628 47.5309 158.628 45.6409V45.4009H159.738V45.5959C159.738 47.1709 160.503 47.9659 162.918 47.9659C165.168 47.9659 166.068 47.3509 166.068 45.9259C166.068 44.6509 165.183 44.0509 163.653 44.0509H160.938V43.1359H163.428C164.943 43.1359 165.768 42.5809 165.768 41.4409C165.768 40.2409 165.033 39.6559 162.873 39.6559C160.578 39.6559 159.738 40.4509 159.738 42.0259V42.1609H158.628V41.9809C158.628 40.1209 159.963 38.6359 162.948 38.6359C165.408 38.6359 166.833 39.6109 166.833 41.2759C166.833 42.4009 166.173 43.2409 164.913 43.4659V43.5709C166.338 43.8409 167.148 44.7109 167.148 46.0459C167.148 47.9209 165.543 48.9859 162.948 48.9859ZM173.144 48.9859C170.279 48.9859 168.479 47.0509 168.479 43.8109C168.479 40.5859 170.279 38.6359 173.144 38.6359C175.994 38.6359 177.794 40.5859 177.794 43.8109C177.794 47.0509 175.994 48.9859 173.144 48.9859ZM173.144 47.9659C175.469 47.9659 176.669 46.6159 176.669 43.8109C176.669 41.0059 175.469 39.6559 173.144 39.6559C170.804 39.6559 169.604 41.0059 169.604 43.8109C169.604 46.6159 170.804 47.9659 173.144 47.9659Z" fill="#8931ED"/>
<path d="M207.968 48.4676C204.784 48.4676 202.56 46.2916 202.56 42.9476C202.56 39.6036 204.784 37.4276 207.968 37.4276C211.184 37.4276 213.408 39.6036 213.408 42.9476C213.408 46.2916 211.184 48.4676 207.968 48.4676ZM207.968 47.3636C210.688 47.3636 212.208 45.8596 212.208 42.9476C212.208 40.0356 210.688 38.5316 207.968 38.5316C205.264 38.5316 203.76 40.0356 203.76 42.9476C203.76 45.8596 205.264 47.3636 207.968 47.3636ZM216.417 51.0276H215.281V40.4036H216.305V42.6276H216.433C216.785 41.2036 217.969 40.2436 219.841 40.2436C222.305 40.2436 223.713 41.9556 223.713 44.3556C223.713 46.7556 222.321 48.4676 219.809 48.4676C218.065 48.4676 216.801 47.5076 216.433 45.9876H216.417V51.0276ZM216.417 44.4996C216.417 46.3716 217.649 47.4276 219.505 47.4276C221.345 47.4276 222.561 46.6436 222.561 44.3556C222.561 42.0676 221.329 41.2996 219.537 41.2996C217.569 41.2996 216.417 42.4036 216.417 44.3556V44.4996ZM229.221 48.4676C226.677 48.4676 225.061 46.8676 225.061 44.3556C225.061 41.9556 226.661 40.2436 229.205 40.2436C231.525 40.2436 233.173 41.5876 233.173 43.9396C233.173 44.2276 233.141 44.4676 233.093 44.6756H226.133C226.197 46.4516 227.109 47.5236 229.205 47.5236C231.061 47.5236 231.925 46.8356 231.925 45.6836V45.5716H233.061V45.6836C233.061 47.3316 231.429 48.4676 229.221 48.4676ZM229.189 41.1876C227.141 41.1876 226.213 42.2436 226.133 43.9716H232.101C232.101 43.8916 232.101 43.8116 232.101 43.7316C232.101 42.0676 231.045 41.1876 229.189 41.1876ZM236.168 48.3076H235.032V40.4036H236.056V42.8836H236.136C236.408 41.5396 237.528 40.2436 239.496 40.2436C241.72 40.2436 242.824 41.8276 242.824 43.6996V48.3076H241.688V43.8596C241.688 42.2276 240.904 41.2836 239.096 41.2836C237.176 41.2836 236.168 42.4516 236.168 44.4836V48.3076ZM246.16 39.3956H245.024V37.5876H246.16V39.3956ZM246.16 48.3076H245.024V40.4036H246.16V48.3076ZM249.559 48.3076H248.423V40.4036H249.447V42.8836H249.527C249.799 41.5396 250.919 40.2436 252.887 40.2436C255.111 40.2436 256.215 41.8276 256.215 43.6996V48.3076H255.079V43.8596C255.079 42.2276 254.295 41.2836 252.487 41.2836C250.567 41.2836 249.559 42.4516 249.559 44.4836V48.3076ZM261.808 47.6676C259.456 47.6676 258.016 46.1156 258.016 43.9556C258.016 41.7956 259.504 40.2436 261.936 40.2436C263.6 40.2436 264.912 41.0276 265.232 42.4356H265.312V40.4036H266.336V47.5556C266.336 50.1636 264.688 51.1876 262.304 51.1876C260.16 51.1876 258.528 50.1156 258.528 48.2756H259.664C259.664 49.6676 260.592 50.2116 262.352 50.2116C264.4 50.2116 265.2 49.5876 265.2 47.6196V45.5556H265.12C264.8 46.7716 263.632 47.6676 261.808 47.6676ZM259.152 43.9556C259.152 45.9716 260.4 46.6596 262.112 46.6596C264.064 46.6596 265.2 45.6836 265.2 44.0036V43.7316C265.2 42.1796 264.016 41.2516 262.192 41.2516C260.416 41.2516 259.152 41.9396 259.152 43.9556ZM275.437 48.4676C272.765 48.4676 271.149 47.4116 271.149 45.4116C271.149 43.9396 272.013 42.9636 273.517 42.6916V42.5796C272.173 42.3396 271.469 41.4116 271.469 40.2436C271.469 38.4676 272.845 37.5236 275.149 37.5236H277.629V38.5796H275.037C273.293 38.5796 272.605 39.1236 272.605 40.4036C272.605 41.6836 273.533 42.2276 275.133 42.2276H278.941V40.4036H280.061V42.2276H281.885V43.2036H280.061V44.6916C280.061 47.0596 278.493 48.4676 275.437 48.4676ZM275.469 47.4276C277.981 47.4276 278.941 46.6436 278.941 44.7396V43.2036H274.861C273.245 43.2036 272.285 43.8596 272.285 45.3156C272.285 46.7716 273.181 47.4276 275.469 47.4276ZM292.003 48.3076H286.211V37.5876H291.843C293.763 37.5876 295.027 38.5476 295.027 40.2436C295.027 41.4756 294.339 42.4036 292.867 42.6276V42.7236C294.515 42.9956 295.363 43.9716 295.363 45.3476C295.363 47.2036 294.051 48.3076 292.003 48.3076ZM287.347 38.6276V42.2596H291.651C293.107 42.2596 293.891 41.6836 293.891 40.4516C293.891 39.2036 293.203 38.6276 291.747 38.6276H287.347ZM287.347 43.2356V47.2676H291.907C293.427 47.2676 294.211 46.6436 294.211 45.2356C294.211 43.8596 293.395 43.2356 291.907 43.2356H287.347ZM298.218 48.3076H297.082V40.4036H298.106V42.5636H298.186C298.426 41.2996 299.322 40.2436 300.97 40.2436C302.794 40.2436 303.594 41.5876 303.594 43.0596V43.8436H302.458V43.2356C302.458 41.8916 301.898 41.2356 300.522 41.2356C298.922 41.2356 298.218 42.2436 298.218 44.0196V48.3076ZM306.398 39.3956H305.262V37.5876H306.398V39.3956ZM306.398 48.3076H305.262V40.4036H306.398V48.3076ZM312.421 48.4676C309.877 48.4676 308.261 46.8676 308.261 44.3556C308.261 41.9556 309.861 40.2436 312.405 40.2436C314.725 40.2436 316.373 41.5876 316.373 43.9396C316.373 44.2276 316.341 44.4676 316.293 44.6756H309.333C309.397 46.4516 310.309 47.5236 312.405 47.5236C314.261 47.5236 315.125 46.8356 315.125 45.6836V45.5716H316.261V45.6836C316.261 47.3316 314.629 48.4676 312.421 48.4676ZM312.389 41.1876C310.341 41.1876 309.413 42.2436 309.333 43.9716H315.301C315.301 43.8916 315.301 43.8116 315.301 43.7316C315.301 42.0676 314.245 41.1876 312.389 41.1876ZM319.928 48.3076H318.792V41.3796H317.528V40.4036H318.808C318.936 38.5316 320.2 37.5876 322.248 37.5876H323.112V38.4836H322.088C320.648 38.4836 319.864 38.9636 319.928 40.4036H323.112V41.3796H319.928V48.3076Z" fill="#EEEEEE"/>
<path d="M89.19 86.8248C86.325 86.8248 84.525 84.8898 84.525 81.6498C84.525 78.4248 86.325 76.4748 89.19 76.4748C92.04 76.4748 93.84 78.4248 93.84 81.6498C93.84 84.8898 92.04 86.8248 89.19 86.8248ZM89.19 85.8048C91.515 85.8048 92.715 84.4548 92.715 81.6498C92.715 78.8448 91.515 77.4948 89.19 77.4948C86.85 77.4948 85.65 78.8448 85.65 81.6498C85.65 84.4548 86.85 85.8048 89.19 85.8048ZM99.6061 86.8248C97.3111 86.8248 95.6311 85.6398 95.6311 83.6148V83.5098H96.7861V83.6148C96.7861 84.8598 97.5211 85.8048 99.6061 85.8048C102.126 85.8048 103.056 84.4098 103.056 81.6798V80.7648H102.951C102.591 81.9498 101.226 82.8498 99.2311 82.8498C96.7711 82.8498 95.3311 81.6348 95.3311 79.6998C95.3311 77.7348 96.8611 76.4748 99.5461 76.4748C102.771 76.4748 104.166 77.9598 104.166 81.6348C104.166 84.6948 102.711 86.8248 99.6061 86.8248ZM99.5611 82.0398C101.601 82.0398 102.846 81.1848 102.846 79.7448C102.846 78.2748 101.676 77.4948 99.5911 77.4948C97.4161 77.4948 96.4261 78.2448 96.4261 79.7748C96.4261 81.2598 97.3861 82.0398 99.5611 82.0398ZM106.909 81.3498H105.589V79.2648H106.909V81.3498ZM106.909 86.6748H105.589V84.5898H106.909V86.6748ZM112.54 86.8248C109.51 86.8248 108.22 85.3698 108.22 83.4798V83.2398H109.33V83.4348C109.33 85.0098 110.095 85.8048 112.51 85.8048C114.76 85.8048 115.66 85.1898 115.66 83.7648C115.66 82.4898 114.775 81.8898 113.245 81.8898H110.53V80.9748H113.02C114.535 80.9748 115.36 80.4198 115.36 79.2798C115.36 78.0798 114.625 77.4948 112.465 77.4948C110.17 77.4948 109.33 78.2898 109.33 79.8648V79.9998H108.22V79.8198C108.22 77.9598 109.555 76.4748 112.54 76.4748C115 76.4748 116.425 77.4498 116.425 79.1148C116.425 80.2398 115.765 81.0798 114.505 81.3048V81.4098C115.93 81.6798 116.74 82.5498 116.74 83.8848C116.74 85.7598 115.135 86.8248 112.54 86.8248ZM122.737 86.8248C119.872 86.8248 118.072 84.8898 118.072 81.6498C118.072 78.4248 119.872 76.4748 122.737 76.4748C125.587 76.4748 127.387 78.4248 127.387 81.6498C127.387 84.8898 125.587 86.8248 122.737 86.8248ZM122.737 85.8048C125.062 85.8048 126.262 84.4548 126.262 81.6498C126.262 78.8448 125.062 77.4948 122.737 77.4948C120.397 77.4948 119.197 78.8448 119.197 81.6498C119.197 84.4548 120.397 85.8048 122.737 85.8048ZM132.778 82.7598H128.698V81.8148H132.778V82.7598ZM137.143 86.6748H136.078V78.6798H133.708V77.8698H134.233C135.343 77.8698 135.883 77.5698 136.273 76.6248H137.143V86.6748ZM143.546 86.8248C140.681 86.8248 138.881 84.8898 138.881 81.6498C138.881 78.4248 140.681 76.4748 143.546 76.4748C146.396 76.4748 148.196 78.4248 148.196 81.6498C148.196 84.8898 146.396 86.8248 143.546 86.8248ZM143.546 85.8048C145.871 85.8048 147.071 84.4548 147.071 81.6498C147.071 78.8448 145.871 77.4948 143.546 77.4948C141.206 77.4948 140.006 78.8448 140.006 81.6498C140.006 84.4548 141.206 85.8048 143.546 85.8048ZM150.827 81.3498H149.507V79.2648H150.827V81.3498ZM150.827 86.6748H149.507V84.5898H150.827V86.6748ZM156.804 86.8248C153.939 86.8248 152.139 84.8898 152.139 81.6498C152.139 78.4248 153.939 76.4748 156.804 76.4748C159.654 76.4748 161.454 78.4248 161.454 81.6498C161.454 84.8898 159.654 86.8248 156.804 86.8248ZM156.804 85.8048C159.129 85.8048 160.329 84.4548 160.329 81.6498C160.329 78.8448 159.129 77.4948 156.804 77.4948C154.464 77.4948 153.264 78.8448 153.264 81.6498C153.264 84.4548 154.464 85.8048 156.804 85.8048ZM167.505 86.8248C164.64 86.8248 162.84 84.8898 162.84 81.6498C162.84 78.4248 164.64 76.4748 167.505 76.4748C170.355 76.4748 172.155 78.4248 172.155 81.6498C172.155 84.8898 170.355 86.8248 167.505 86.8248ZM167.505 85.8048C169.83 85.8048 171.03 84.4548 171.03 81.6498C171.03 78.8448 169.83 77.4948 167.505 77.4948C165.165 77.4948 163.965 78.8448 163.965 81.6498C163.965 84.4548 165.165 85.8048 167.505 85.8048Z" fill="#8931ED"/>
<path d="M207.728 86.1465H206.592V76.4665H202.176V75.4265H212.128V76.4665H207.728V86.1465ZM217.369 86.3065C214.825 86.3065 213.209 84.7065 213.209 82.1945C213.209 79.7945 214.809 78.0825 217.353 78.0825C219.673 78.0825 221.321 79.4265 221.321 81.7785C221.321 82.0665 221.289 82.3065 221.241 82.5145H214.281C214.345 84.2905 215.257 85.3625 217.353 85.3625C219.209 85.3625 220.073 84.6745 220.073 83.5225V83.4105H221.209V83.5225C221.209 85.1705 219.577 86.3065 217.369 86.3065ZM217.337 79.0265C215.289 79.0265 214.361 80.0825 214.281 81.8105H220.249C220.249 81.7305 220.249 81.6505 220.249 81.5705C220.249 79.9065 219.193 79.0265 217.337 79.0265ZM225.372 86.3065C223.82 86.3065 222.764 85.5705 222.764 84.2905C222.764 82.9945 223.836 82.4345 225.308 82.2745L229.068 81.8585V81.2505C229.068 79.7145 228.396 79.1065 226.668 79.1065C224.972 79.1065 224.076 79.7145 224.076 81.1065V81.1705H222.94V81.1065C222.94 79.4425 224.316 78.0825 226.748 78.0825C229.148 78.0825 230.172 79.4585 230.172 81.2025V86.1465H229.148V84.0185H229.068C228.604 85.4745 227.212 86.3065 225.372 86.3065ZM223.9 84.2105C223.9 85.0105 224.428 85.4265 225.628 85.4265C227.548 85.4265 229.068 84.5785 229.068 82.6745V82.6105L225.66 82.9945C224.476 83.1065 223.9 83.3945 223.9 84.2105ZM233.527 86.1465H232.391V78.2425H233.415V80.6265H233.479C233.703 79.2985 234.615 78.0825 236.583 78.0825C238.343 78.0825 239.335 79.1705 239.591 80.7065H239.671C239.895 79.3465 240.839 78.0825 242.823 78.0825C244.887 78.0825 245.959 79.5385 245.959 81.5385V86.1465H244.823V81.6985C244.823 79.9385 244.071 79.1225 242.407 79.1225C240.503 79.1225 239.735 80.2265 239.735 82.3225V86.1465H238.599V81.6985C238.599 79.9385 237.863 79.1225 236.199 79.1225C234.279 79.1225 233.527 80.2265 233.527 82.3225V86.1465ZM251.822 86.1465H250.574L255.422 75.4265H257.006L261.87 86.1465H260.59L259.15 82.9945H253.262L251.822 86.1465ZM255.566 77.9065L253.726 81.9705H258.686L256.83 77.9065L256.238 76.5145H256.142L255.566 77.9065ZM264.395 86.1465H263.259V75.4265H264.395V86.1465ZM267.794 77.2345H266.658V75.4265H267.794V77.2345ZM267.794 86.1465H266.658V78.2425H267.794V86.1465ZM273.449 85.5065C271.097 85.5065 269.657 83.9545 269.657 81.7945C269.657 79.6345 271.145 78.0825 273.577 78.0825C275.241 78.0825 276.553 78.8665 276.873 80.2745H276.953V78.2425H277.977V85.3945C277.977 88.0025 276.329 89.0265 273.945 89.0265C271.801 89.0265 270.169 87.9545 270.169 86.1145H271.305C271.305 87.5065 272.233 88.0505 273.993 88.0505C276.041 88.0505 276.841 87.4265 276.841 85.4585V83.3945H276.761C276.441 84.6105 275.273 85.5065 273.449 85.5065ZM270.793 81.7945C270.793 83.8105 272.041 84.4985 273.753 84.4985C275.705 84.4985 276.841 83.5225 276.841 81.8425V81.5705C276.841 80.0185 275.657 79.0905 273.833 79.0905C272.057 79.0905 270.793 79.7785 270.793 81.7945ZM281.389 86.1465H280.253V78.2425H281.277V80.7225H281.357C281.629 79.3785 282.749 78.0825 284.717 78.0825C286.941 78.0825 288.045 79.6665 288.045 81.5385V86.1465H286.909V81.6985C286.909 80.0665 286.125 79.1225 284.317 79.1225C282.397 79.1225 281.389 80.2905 281.389 82.3225V86.1465ZM291.382 86.1465H290.246V78.2425H291.27V80.6265H291.334C291.558 79.2985 292.47 78.0825 294.438 78.0825C296.198 78.0825 297.19 79.1705 297.446 80.7065H297.526C297.75 79.3465 298.694 78.0825 300.678 78.0825C302.742 78.0825 303.814 79.5385 303.814 81.5385V86.1465H302.678V81.6985C302.678 79.9385 301.926 79.1225 300.262 79.1225C298.358 79.1225 297.59 80.2265 297.59 82.3225V86.1465H296.454V81.6985C296.454 79.9385 295.718 79.1225 294.054 79.1225C292.134 79.1225 291.382 80.2265 291.382 82.3225V86.1465ZM309.78 86.3065C307.236 86.3065 305.62 84.7065 305.62 82.1945C305.62 79.7945 307.22 78.0825 309.764 78.0825C312.084 78.0825 313.732 79.4265 313.732 81.7785C313.732 82.0665 313.7 82.3065 313.652 82.5145H306.692C306.756 84.2905 307.668 85.3625 309.764 85.3625C311.62 85.3625 312.484 84.6745 312.484 83.5225V83.4105H313.62V83.5225C313.62 85.1705 311.988 86.3065 309.78 86.3065ZM309.748 79.0265C307.7 79.0265 306.772 80.0825 306.692 81.8105H312.66C312.66 81.7305 312.66 81.6505 312.66 81.5705C312.66 79.9065 311.604 79.0265 309.748 79.0265ZM316.726 86.1465H315.59V78.2425H316.614V80.7225H316.694C316.966 79.3785 318.086 78.0825 320.054 78.0825C322.278 78.0825 323.382 79.6665 323.382 81.5385V86.1465H322.246V81.6985C322.246 80.0665 321.462 79.1225 319.654 79.1225C317.734 79.1225 316.726 80.2905 316.726 82.3225V86.1465ZM330.431 86.1465H328.719C327.151 86.1465 326.143 85.4905 326.143 83.6345V79.2185H324.735V78.2425H326.143V76.3545H327.295V78.2425H330.431V79.2185H327.295V83.6985C327.295 84.8025 327.839 85.1065 328.991 85.1065H330.431V86.1465Z" fill="#EEEEEE"/>
<path d="M87.585 124.352H86.52V116.357H84.15V115.547H84.675C85.785 115.547 86.325 115.247 86.715 114.302H87.585V124.352ZM93.9878 124.502C91.1228 124.502 89.3228 122.567 89.3228 119.327C89.3228 116.102 91.1228 114.152 93.9878 114.152C96.8378 114.152 98.6378 116.102 98.6378 119.327C98.6378 122.567 96.8378 124.502 93.9878 124.502ZM93.9878 123.482C96.3128 123.482 97.5128 122.132 97.5128 119.327C97.5128 116.522 96.3128 115.172 93.9878 115.172C91.6478 115.172 90.4478 116.522 90.4478 119.327C90.4478 122.132 91.6478 123.482 93.9878 123.482ZM101.269 119.027H99.9489V116.942H101.269V119.027ZM101.269 124.352H99.9489V122.267H101.269V124.352ZM107.245 124.502C104.38 124.502 102.58 122.567 102.58 119.327C102.58 116.102 104.38 114.152 107.245 114.152C110.095 114.152 111.895 116.102 111.895 119.327C111.895 122.567 110.095 124.502 107.245 124.502ZM107.245 123.482C109.57 123.482 110.77 122.132 110.77 119.327C110.77 116.522 109.57 115.172 107.245 115.172C104.905 115.172 103.705 116.522 103.705 119.327C103.705 122.132 104.905 123.482 107.245 123.482ZM117.947 124.502C115.082 124.502 113.282 122.567 113.282 119.327C113.282 116.102 115.082 114.152 117.947 114.152C120.797 114.152 122.597 116.102 122.597 119.327C122.597 122.567 120.797 124.502 117.947 124.502ZM117.947 123.482C120.272 123.482 121.472 122.132 121.472 119.327C121.472 116.522 120.272 115.172 117.947 115.172C115.607 115.172 114.407 116.522 114.407 119.327C114.407 122.132 115.607 123.482 117.947 123.482ZM127.988 120.437H123.908V119.492H127.988V120.437ZM132.353 124.352H131.288V116.357H128.918V115.547H129.443C130.553 115.547 131.093 115.247 131.483 114.302H132.353V124.352ZM141.456 124.352H140.376V122.222H133.941V121.442L140.196 114.302H141.456V121.247H143.331V122.222H141.456V124.352ZM135.411 121.247H140.376V115.592H140.301L135.411 121.157V121.247ZM145.803 119.027H144.483V116.942H145.803V119.027ZM145.803 124.352H144.483V122.267H145.803V124.352ZM151.779 124.502C148.914 124.502 147.114 122.567 147.114 119.327C147.114 116.102 148.914 114.152 151.779 114.152C154.629 114.152 156.429 116.102 156.429 119.327C156.429 122.567 154.629 124.502 151.779 124.502ZM151.779 123.482C154.104 123.482 155.304 122.132 155.304 119.327C155.304 116.522 154.104 115.172 151.779 115.172C149.439 115.172 148.239 116.522 148.239 119.327C148.239 122.132 149.439 123.482 151.779 123.482ZM162.48 124.502C159.615 124.502 157.815 122.567 157.815 119.327C157.815 116.102 159.615 114.152 162.48 114.152C165.33 114.152 167.13 116.102 167.13 119.327C167.13 122.567 165.33 124.502 162.48 124.502ZM162.48 123.482C164.805 123.482 166.005 122.132 166.005 119.327C166.005 116.522 164.805 115.172 162.48 115.172C160.14 115.172 158.94 116.522 158.94 119.327C158.94 122.132 160.14 123.482 162.48 123.482Z" fill="#8931ED"/>
<path d="M207.648 123.823H202.992V113.103H207.648C210.864 113.103 212.912 115.183 212.912 118.463C212.912 121.743 210.864 123.823 207.648 123.823ZM207.648 114.143H204.144V122.783H207.648C210.368 122.783 211.712 121.375 211.712 118.463C211.712 115.551 210.368 114.143 207.648 114.143ZM218.541 123.983C215.997 123.983 214.381 122.383 214.381 119.871C214.381 117.471 215.981 115.759 218.525 115.759C220.845 115.759 222.493 117.103 222.493 119.455C222.493 119.743 222.461 119.983 222.413 120.191H215.453C215.517 121.967 216.429 123.039 218.525 123.039C220.381 123.039 221.245 122.351 221.245 121.199V121.087H222.381V121.199C222.381 122.847 220.749 123.983 218.541 123.983ZM218.509 116.703C216.461 116.703 215.533 117.759 215.453 119.487H221.421C221.421 119.407 221.421 119.327 221.421 119.247C221.421 117.583 220.365 116.703 218.509 116.703ZM227.824 123.983C225.392 123.983 223.984 123.007 223.984 121.183V121.151H225.12V121.247C225.12 122.575 225.904 123.039 227.84 123.039C229.616 123.039 230.224 122.623 230.224 121.711C230.224 120.879 229.728 120.607 228.416 120.399L226.304 120.095C224.864 119.903 223.952 119.343 223.952 118.031C223.952 116.639 225.28 115.759 227.456 115.759C229.728 115.759 231.2 116.719 231.2 118.575V118.607H230.064V118.527C230.064 117.343 229.44 116.703 227.424 116.703C225.76 116.703 225.072 117.103 225.072 118.047C225.072 118.863 225.488 119.151 226.8 119.343L228.736 119.615C230.432 119.855 231.344 120.431 231.344 121.711C231.344 123.199 229.872 123.983 227.824 123.983ZM234.324 114.911H233.188V113.103H234.324V114.911ZM234.324 123.823H233.188V115.919H234.324V123.823ZM239.979 123.183C237.627 123.183 236.187 121.631 236.187 119.471C236.187 117.311 237.675 115.759 240.107 115.759C241.771 115.759 243.083 116.543 243.403 117.951H243.483V115.919H244.507V123.071C244.507 125.679 242.859 126.703 240.475 126.703C238.331 126.703 236.699 125.631 236.699 123.791H237.835C237.835 125.183 238.763 125.727 240.523 125.727C242.571 125.727 243.371 125.103 243.371 123.135V121.071H243.291C242.971 122.287 241.803 123.183 239.979 123.183ZM237.323 119.471C237.323 121.487 238.571 122.175 240.283 122.175C242.235 122.175 243.371 121.199 243.371 119.519V119.247C243.371 117.695 242.187 116.767 240.363 116.767C238.587 116.767 237.323 117.455 237.323 119.471ZM247.918 123.823H246.782V115.919H247.806V118.399H247.886C248.158 117.055 249.278 115.759 251.246 115.759C253.47 115.759 254.574 117.343 254.574 119.215V123.823H253.438V119.375C253.438 117.743 252.654 116.799 250.846 116.799C248.926 116.799 247.918 117.967 247.918 119.999V123.823ZM264.225 123.983C261.073 123.983 259.601 122.479 259.601 120.431V120.335H260.753V120.543C260.753 122.079 261.713 122.911 264.225 122.911C266.369 122.911 267.345 122.319 267.345 121.103C267.345 119.903 266.625 119.471 265.057 119.151L262.785 118.719C261.041 118.383 259.649 117.647 259.649 115.871C259.649 114.415 260.897 112.943 263.969 112.943C266.993 112.943 268.337 114.543 268.337 116.495V116.591H267.185V116.399C267.185 114.847 266.225 114.015 263.889 114.015C261.761 114.015 260.801 114.623 260.801 115.791C260.801 117.007 261.505 117.375 263.089 117.711L265.345 118.159C267.265 118.527 268.497 119.343 268.497 121.007C268.497 122.543 267.201 123.983 264.225 123.983ZM271.459 126.543H270.323V115.919H271.347V118.143H271.475C271.827 116.719 273.011 115.759 274.883 115.759C277.347 115.759 278.755 117.471 278.755 119.871C278.755 122.271 277.363 123.983 274.851 123.983C273.107 123.983 271.843 123.023 271.475 121.503H271.459V126.543ZM271.459 120.015C271.459 121.887 272.691 122.943 274.547 122.943C276.387 122.943 277.603 122.159 277.603 119.871C277.603 117.583 276.371 116.815 274.579 116.815C272.611 116.815 271.459 117.919 271.459 119.871V120.015ZM281.639 123.823H280.503V115.919H281.527V118.079H281.607C281.847 116.815 282.743 115.759 284.391 115.759C286.215 115.759 287.015 117.103 287.015 118.575V119.359H285.879V118.751C285.879 117.407 285.319 116.751 283.943 116.751C282.343 116.751 281.639 117.759 281.639 119.535V123.823ZM289.819 114.911H288.683V113.103H289.819V114.911ZM289.819 123.823H288.683V115.919H289.819V123.823ZM293.218 123.823H292.082V115.919H293.106V118.399H293.186C293.458 117.055 294.578 115.759 296.546 115.759C298.77 115.759 299.874 117.343 299.874 119.215V123.823H298.738V119.375C298.738 117.743 297.954 116.799 296.146 116.799C294.226 116.799 293.218 117.967 293.218 119.999V123.823ZM306.923 123.823H305.211C303.643 123.823 302.635 123.167 302.635 121.311V116.895H301.227V115.919H302.635V114.031H303.787V115.919H306.923V116.895H303.787V121.375C303.787 122.479 304.331 122.783 305.483 122.783H306.923V123.823ZM314.674 123.823H313.538V115.295H311.01V114.431H311.57C312.754 114.431 313.33 114.111 313.746 113.103H314.674V123.823Z" fill="#EEEEEE"/>
<path d="M87.585 162.029H86.52V154.034H84.15V153.224H84.675C85.785 153.224 86.325 152.924 86.715 151.979H87.585V162.029ZM96.6878 162.029H95.6078V159.899H89.1728V159.119L95.4278 151.979H96.6878V158.924H98.5628V159.899H96.6878V162.029ZM90.6428 158.924H95.6078V153.269H95.5328L90.6428 158.834V158.924ZM101.034 156.704H99.7145V154.619H101.034V156.704ZM101.034 162.029H99.7145V159.944H101.034V162.029ZM106.666 162.179C103.636 162.179 102.346 160.724 102.346 158.834V158.594H103.456V158.789C103.456 160.364 104.221 161.159 106.636 161.159C108.886 161.159 109.786 160.544 109.786 159.119C109.786 157.844 108.901 157.244 107.371 157.244H104.656V156.329H107.146C108.661 156.329 109.486 155.774 109.486 154.634C109.486 153.434 108.751 152.849 106.591 152.849C104.296 152.849 103.456 153.644 103.456 155.219V155.354H102.346V155.174C102.346 153.314 103.681 151.829 106.666 151.829C109.126 151.829 110.551 152.804 110.551 154.469C110.551 155.594 109.891 156.434 108.631 156.659V156.764C110.056 157.034 110.866 157.904 110.866 159.239C110.866 161.114 109.261 162.179 106.666 162.179ZM116.863 162.179C113.998 162.179 112.198 160.244 112.198 157.004C112.198 153.779 113.998 151.829 116.863 151.829C119.713 151.829 121.513 153.779 121.513 157.004C121.513 160.244 119.713 162.179 116.863 162.179ZM116.863 161.159C119.188 161.159 120.388 159.809 120.388 157.004C120.388 154.199 119.188 152.849 116.863 152.849C114.523 152.849 113.323 154.199 113.323 157.004C113.323 159.809 114.523 161.159 116.863 161.159ZM126.904 158.114H122.824V157.169H126.904V158.114ZM131.269 162.029H130.204V154.034H127.834V153.224H128.359C129.469 153.224 130.009 152.924 130.399 151.979H131.269V162.029ZM137.387 162.179C135.092 162.179 133.412 160.994 133.412 158.969V158.864H134.567V158.969C134.567 160.214 135.302 161.159 137.387 161.159C139.907 161.159 140.837 159.764 140.837 157.034V156.119H140.732C140.372 157.304 139.007 158.204 137.012 158.204C134.552 158.204 133.112 156.989 133.112 155.054C133.112 153.089 134.642 151.829 137.327 151.829C140.552 151.829 141.947 153.314 141.947 156.989C141.947 160.049 140.492 162.179 137.387 162.179ZM137.342 157.394C139.382 157.394 140.627 156.539 140.627 155.099C140.627 153.629 139.457 152.849 137.372 152.849C135.197 152.849 134.207 153.599 134.207 155.129C134.207 156.614 135.167 157.394 137.342 157.394ZM144.689 156.704H143.369V154.619H144.689V156.704ZM144.689 162.029H143.369V159.944H144.689V162.029ZM150.666 162.179C147.801 162.179 146.001 160.244 146.001 157.004C146.001 153.779 147.801 151.829 150.666 151.829C153.516 151.829 155.316 153.779 155.316 157.004C155.316 160.244 153.516 162.179 150.666 162.179ZM150.666 161.159C152.991 161.159 154.191 159.809 154.191 157.004C154.191 154.199 152.991 152.849 150.666 152.849C148.326 152.849 147.126 154.199 147.126 157.004C147.126 159.809 148.326 161.159 150.666 161.159ZM161.367 162.179C158.502 162.179 156.702 160.244 156.702 157.004C156.702 153.779 158.502 151.829 161.367 151.829C164.217 151.829 166.017 153.779 166.017 157.004C166.017 160.244 164.217 162.179 161.367 162.179ZM161.367 161.159C163.692 161.159 164.892 159.809 164.892 157.004C164.892 154.199 163.692 152.849 161.367 152.849C159.027 152.849 157.827 154.199 157.827 157.004C157.827 159.809 159.027 161.159 161.367 161.159Z" fill="#8931ED"/>
<path d="M207.648 161.501H202.992V150.781H207.648C210.864 150.781 212.912 152.861 212.912 156.141C212.912 159.421 210.864 161.501 207.648 161.501ZM207.648 151.821H204.144V160.461H207.648C210.368 160.461 211.712 159.053 211.712 156.141C211.712 153.229 210.368 151.821 207.648 151.821ZM218.541 161.661C215.997 161.661 214.381 160.061 214.381 157.549C214.381 155.149 215.981 153.437 218.525 153.437C220.845 153.437 222.493 154.781 222.493 157.133C222.493 157.421 222.461 157.661 222.413 157.869H215.453C215.517 159.645 216.429 160.717 218.525 160.717C220.381 160.717 221.245 160.029 221.245 158.877V158.765H222.381V158.877C222.381 160.525 220.749 161.661 218.541 161.661ZM218.509 154.381C216.461 154.381 215.533 155.437 215.453 157.165H221.421C221.421 157.085 221.421 157.005 221.421 156.925C221.421 155.261 220.365 154.381 218.509 154.381ZM227.824 161.661C225.392 161.661 223.984 160.685 223.984 158.861V158.829H225.12V158.925C225.12 160.253 225.904 160.717 227.84 160.717C229.616 160.717 230.224 160.301 230.224 159.389C230.224 158.557 229.728 158.285 228.416 158.077L226.304 157.773C224.864 157.581 223.952 157.021 223.952 155.709C223.952 154.317 225.28 153.437 227.456 153.437C229.728 153.437 231.2 154.397 231.2 156.253V156.285H230.064V156.205C230.064 155.021 229.44 154.381 227.424 154.381C225.76 154.381 225.072 154.781 225.072 155.725C225.072 156.541 225.488 156.829 226.8 157.021L228.736 157.293C230.432 157.533 231.344 158.109 231.344 159.389C231.344 160.877 229.872 161.661 227.824 161.661ZM234.324 152.589H233.188V150.781H234.324V152.589ZM234.324 161.501H233.188V153.597H234.324V161.501ZM239.979 160.861C237.627 160.861 236.187 159.309 236.187 157.149C236.187 154.989 237.675 153.437 240.107 153.437C241.771 153.437 243.083 154.221 243.403 155.629H243.483V153.597H244.507V160.749C244.507 163.357 242.859 164.381 240.475 164.381C238.331 164.381 236.699 163.309 236.699 161.469H237.835C237.835 162.861 238.763 163.405 240.523 163.405C242.571 163.405 243.371 162.781 243.371 160.813V158.749H243.291C242.971 159.965 241.803 160.861 239.979 160.861ZM237.323 157.149C237.323 159.165 238.571 159.853 240.283 159.853C242.235 159.853 243.371 158.877 243.371 157.197V156.925C243.371 155.373 242.187 154.445 240.363 154.445C238.587 154.445 237.323 155.133 237.323 157.149ZM247.918 161.501H246.782V153.597H247.806V156.077H247.886C248.158 154.733 249.278 153.437 251.246 153.437C253.47 153.437 254.574 155.021 254.574 156.893V161.501H253.438V157.053C253.438 155.421 252.654 154.477 250.846 154.477C248.926 154.477 247.918 155.645 247.918 157.677V161.501ZM264.225 161.661C261.073 161.661 259.601 160.157 259.601 158.109V158.013H260.753V158.221C260.753 159.757 261.713 160.589 264.225 160.589C266.369 160.589 267.345 159.997 267.345 158.781C267.345 157.581 266.625 157.149 265.057 156.829L262.785 156.397C261.041 156.061 259.649 155.325 259.649 153.549C259.649 152.093 260.897 150.621 263.969 150.621C266.993 150.621 268.337 152.221 268.337 154.173V154.269H267.185V154.077C267.185 152.525 266.225 151.693 263.889 151.693C261.761 151.693 260.801 152.301 260.801 153.469C260.801 154.685 261.505 155.053 263.089 155.389L265.345 155.837C267.265 156.205 268.497 157.021 268.497 158.685C268.497 160.221 267.201 161.661 264.225 161.661ZM271.459 164.221H270.323V153.597H271.347V155.821H271.475C271.827 154.397 273.011 153.437 274.883 153.437C277.347 153.437 278.755 155.149 278.755 157.549C278.755 159.949 277.363 161.661 274.851 161.661C273.107 161.661 271.843 160.701 271.475 159.181H271.459V164.221ZM271.459 157.693C271.459 159.565 272.691 160.621 274.547 160.621C276.387 160.621 277.603 159.837 277.603 157.549C277.603 155.261 276.371 154.493 274.579 154.493C272.611 154.493 271.459 155.597 271.459 157.549V157.693ZM281.639 161.501H280.503V153.597H281.527V155.757H281.607C281.847 154.493 282.743 153.437 284.391 153.437C286.215 153.437 287.015 154.781 287.015 156.253V157.037H285.879V156.429C285.879 155.085 285.319 154.429 283.943 154.429C282.343 154.429 281.639 155.437 281.639 157.213V161.501ZM289.819 152.589H288.683V150.781H289.819V152.589ZM289.819 161.501H288.683V153.597H289.819V161.501ZM293.218 161.501H292.082V153.597H293.106V156.077H293.186C293.458 154.733 294.578 153.437 296.546 153.437C298.77 153.437 299.874 155.021 299.874 156.893V161.501H298.738V157.053C298.738 155.421 297.954 154.477 296.146 154.477C294.226 154.477 293.218 155.645 293.218 157.677V161.501ZM306.923 161.501H305.211C303.643 161.501 302.635 160.845 302.635 158.989V154.573H301.227V153.597H302.635V151.709H303.787V153.597H306.923V154.573H303.787V159.053C303.787 160.157 304.331 160.461 305.483 160.461H306.923V161.501ZM320.05 161.501H311.554V160.717C311.554 158.653 312.306 157.645 314.466 156.861L316.866 156.013C318.418 155.437 318.93 154.909 318.93 153.773C318.93 152.365 317.954 151.693 315.922 151.693C313.602 151.693 312.642 152.589 312.642 154.189V154.381H311.506V154.237C311.506 152.333 312.818 150.621 315.954 150.621C318.834 150.621 320.082 152.045 320.082 153.773C320.082 155.421 319.058 156.349 317.17 156.989L314.978 157.725C313.218 158.349 312.722 159.053 312.722 160.557L315.122 160.461H320.05V161.501Z" fill="#EEEEEE"/>
<path d="M87.585 199.706H86.52V191.711H84.15V190.901H84.675C85.785 190.901 86.325 190.601 86.715 189.656H87.585V199.706ZM93.7028 199.856C91.4078 199.856 89.7278 198.671 89.7278 196.646V196.541H90.8828V196.646C90.8828 197.891 91.6178 198.836 93.7028 198.836C96.2228 198.836 97.1528 197.441 97.1528 194.711V193.796H97.0478C96.6878 194.981 95.3228 195.881 93.3278 195.881C90.8678 195.881 89.4278 194.666 89.4278 192.731C89.4278 190.766 90.9578 189.506 93.6428 189.506C96.8678 189.506 98.2628 190.991 98.2628 194.666C98.2628 197.726 96.8078 199.856 93.7028 199.856ZM93.6578 195.071C95.6978 195.071 96.9428 194.216 96.9428 192.776C96.9428 191.306 95.7728 190.526 93.6878 190.526C91.5128 190.526 90.5228 191.276 90.5228 192.806C90.5228 194.291 91.4828 195.071 93.6578 195.071ZM101.005 194.381H99.6852V192.296H101.005V194.381ZM101.005 199.706H99.6852V197.621H101.005V199.706ZM106.982 199.856C104.117 199.856 102.317 197.921 102.317 194.681C102.317 191.456 104.117 189.506 106.982 189.506C109.832 189.506 111.632 191.456 111.632 194.681C111.632 197.921 109.832 199.856 106.982 199.856ZM106.982 198.836C109.307 198.836 110.507 197.486 110.507 194.681C110.507 191.876 109.307 190.526 106.982 190.526C104.642 190.526 103.442 191.876 103.442 194.681C103.442 197.486 104.642 198.836 106.982 198.836ZM117.683 199.856C114.818 199.856 113.018 197.921 113.018 194.681C113.018 191.456 114.818 189.506 117.683 189.506C120.533 189.506 122.333 191.456 122.333 194.681C122.333 197.921 120.533 199.856 117.683 199.856ZM117.683 198.836C120.008 198.836 121.208 197.486 121.208 194.681C121.208 191.876 120.008 190.526 117.683 190.526C115.343 190.526 114.143 191.876 114.143 194.681C114.143 197.486 115.343 198.836 117.683 198.836ZM127.724 195.791H123.644V194.846H127.724V195.791ZM137.129 199.706H129.164V198.971C129.164 197.036 129.869 196.091 131.894 195.356L134.144 194.561C135.599 194.021 136.079 193.526 136.079 192.461C136.079 191.141 135.164 190.511 133.259 190.511C131.084 190.511 130.184 191.351 130.184 192.851V193.031H129.119V192.896C129.119 191.111 130.349 189.506 133.289 189.506C135.989 189.506 137.159 190.841 137.159 192.461C137.159 194.006 136.199 194.876 134.429 195.476L132.374 196.166C130.724 196.751 130.259 197.411 130.259 198.821L132.509 198.731H137.129V199.706ZM143.209 199.856C140.344 199.856 138.544 197.921 138.544 194.681C138.544 191.456 140.344 189.506 143.209 189.506C146.059 189.506 147.859 191.456 147.859 194.681C147.859 197.921 146.059 199.856 143.209 199.856ZM143.209 198.836C145.534 198.836 146.734 197.486 146.734 194.681C146.734 191.876 145.534 190.526 143.209 190.526C140.869 190.526 139.669 191.876 139.669 194.681C139.669 197.486 140.869 198.836 143.209 198.836ZM150.49 194.381H149.17V192.296H150.49V194.381ZM150.49 199.706H149.17V197.621H150.49V199.706ZM156.122 199.856C153.092 199.856 151.802 198.401 151.802 196.511V196.271H152.912V196.466C152.912 198.041 153.677 198.836 156.092 198.836C158.342 198.836 159.242 198.221 159.242 196.796C159.242 195.521 158.357 194.921 156.827 194.921H154.112V194.006H156.602C158.117 194.006 158.942 193.451 158.942 192.311C158.942 191.111 158.207 190.526 156.047 190.526C153.752 190.526 152.912 191.321 152.912 192.896V193.031H151.802V192.851C151.802 190.991 153.137 189.506 156.122 189.506C158.582 189.506 160.007 190.481 160.007 192.146C160.007 193.271 159.347 194.111 158.087 194.336V194.441C159.512 194.711 160.322 195.581 160.322 196.916C160.322 198.791 158.717 199.856 156.122 199.856ZM166.318 199.856C163.453 199.856 161.653 197.921 161.653 194.681C161.653 191.456 163.453 189.506 166.318 189.506C169.168 189.506 170.968 191.456 170.968 194.681C170.968 197.921 169.168 199.856 166.318 199.856ZM166.318 198.836C168.643 198.836 169.843 197.486 169.843 194.681C169.843 191.876 168.643 190.526 166.318 190.526C163.978 190.526 162.778 191.876 162.778 194.681C162.778 197.486 163.978 198.836 166.318 198.836Z" fill="#8931ED"/>
<path d="M207.056 199.178H205.36L202.256 188.458H203.52L205.648 195.85L206.208 198.042H206.304L206.944 195.85L209.44 188.458H211.04L213.792 195.85L214.512 198.042H214.592L215.088 195.85L216.96 188.458H218.208L215.44 199.178H213.744L211.136 192.202L210.288 189.706H210.176L209.424 192.202L207.056 199.178ZM223.668 199.338C221.092 199.338 219.38 197.626 219.38 195.226C219.38 192.826 221.092 191.114 223.668 191.114C226.26 191.114 227.972 192.826 227.972 195.226C227.972 197.626 226.26 199.338 223.668 199.338ZM223.668 198.314C225.844 198.314 226.852 197.146 226.852 195.226C226.852 193.322 225.844 192.138 223.668 192.138C221.492 192.138 220.5 193.322 220.5 195.226C220.5 197.146 221.492 198.314 223.668 198.314ZM230.972 199.178H229.836V191.274H230.86V193.434H230.94C231.18 192.17 232.076 191.114 233.724 191.114C235.548 191.114 236.348 192.458 236.348 193.93V194.714H235.212V194.106C235.212 192.762 234.652 192.106 233.276 192.106C231.676 192.106 230.972 193.114 230.972 194.89V199.178ZM239.152 199.178H238.016V188.458H239.152V194.586H241.808L244.448 191.274H245.792L242.736 195.05L245.776 199.178H244.448L241.792 195.626H239.152V199.178ZM250.715 199.338C248.283 199.338 246.875 198.362 246.875 196.538V196.506H248.011V196.602C248.011 197.93 248.795 198.394 250.731 198.394C252.507 198.394 253.115 197.978 253.115 197.066C253.115 196.234 252.619 195.962 251.307 195.754L249.195 195.45C247.755 195.258 246.843 194.698 246.843 193.386C246.843 191.994 248.171 191.114 250.347 191.114C252.619 191.114 254.091 192.074 254.091 193.93V193.962H252.955V193.882C252.955 192.698 252.331 192.058 250.315 192.058C248.651 192.058 247.963 192.458 247.963 193.402C247.963 194.218 248.379 194.506 249.691 194.698L251.627 194.97C253.323 195.21 254.235 195.786 254.235 197.066C254.235 198.554 252.763 199.338 250.715 199.338ZM257.215 199.178H256.079V188.458H257.215V193.69H257.295C257.551 192.362 258.575 191.114 260.591 191.114C262.799 191.114 263.903 192.586 263.903 194.586V199.178H262.767V194.73C262.767 192.922 261.919 192.154 260.143 192.154C258.031 192.154 257.215 193.498 257.215 195.466V199.178ZM270.006 199.338C267.43 199.338 265.718 197.626 265.718 195.226C265.718 192.826 267.43 191.114 270.006 191.114C272.598 191.114 274.311 192.826 274.311 195.226C274.311 197.626 272.598 199.338 270.006 199.338ZM270.006 198.314C272.182 198.314 273.191 197.146 273.191 195.226C273.191 193.322 272.182 192.138 270.006 192.138C267.83 192.138 266.838 193.322 266.838 195.226C266.838 197.146 267.83 198.314 270.006 198.314ZM277.31 201.898H276.174V191.274H277.198V193.498H277.326C277.678 192.074 278.862 191.114 280.734 191.114C283.198 191.114 284.606 192.826 284.606 195.226C284.606 197.626 283.214 199.338 280.702 199.338C278.958 199.338 277.694 198.378 277.326 196.858H277.31V201.898ZM277.31 195.37C277.31 197.242 278.542 198.298 280.398 198.298C282.238 198.298 283.454 197.514 283.454 195.226C283.454 192.938 282.222 192.17 280.43 192.17C278.462 192.17 277.31 193.274 277.31 195.226V195.37ZM292.508 199.178H291.372V190.65H288.844V189.786H289.404C290.588 189.786 291.164 189.466 291.58 188.458H292.508V199.178Z" fill="#EEEEEE"/>
<path d="M190.75 257.252L189.557 259.752L192.443 259.752L191.25 257.252L190.75 257.252ZM191.25 2.5004L192.443 0.000396728L189.557 0.000396729L190.75 2.5004L191.25 2.5004ZM191 257.502L191.25 257.502L191.25 2.2504L191 2.2504L190.75 2.2504L190.75 257.502L191 257.502Z" fill="#8931ED"/>
<rect x="188" y="195" width="6" height="6" fill="#8931ED"/>
<rect x="188" y="157" width="6" height="6" fill="#8931ED"/>
<rect x="188" y="120" width="6" height="6" fill="#8931ED"/>
<rect x="188" y="82" width="6" height="6" fill="#8931ED"/>
<rect x="188" y="44" width="6" height="6" fill="#8931ED"/>
<defs>
<linearGradient id="paint0_linear_49_163" x1="189" y1="0" x2="189" y2="213" gradientUnits="userSpaceOnUse">
<stop stop-color="white" stop-opacity="0"/>
<stop offset="1" stop-color="#8931ED" stop-opacity="0.08"/>
</linearGradient>
</defs>
</svg>
