<svg width="381" height="188" viewBox="0 0 381 188" fill="none" xmlns="http://www.w3.org/2000/svg">
<path d="M187.75 180.5L186.557 183L189.443 183L188.25 180.5L187.75 180.5ZM188.25 2.5L189.443 0L186.557 0L187.75 2.5L188.25 2.5ZM188 180.75L188.25 180.75L188.25 2.25L188 2.25L187.75 2.25L187.75 180.75L188 180.75Z" fill="#8931ED"/>
<rect x="185" y="55" width="6" height="6" fill="#8931ED"/>
<rect x="185" y="93" width="6" height="6" fill="#8931ED"/>
<rect x="185" y="129" width="6" height="6" fill="#FF595A"/>
<rect width="378" height="129" transform="translate(0 30)" fill="url(#paint0_linear_51_198)"/>
<rect width="378" height="129" transform="translate(0 30)" fill="#0C0F18" fill-opacity="0.2"/>
<path d="M89.19 63.0289C86.325 63.0289 84.525 61.0939 84.525 57.8539C84.525 54.6289 86.325 52.6789 89.19 52.6789C92.04 52.6789 93.84 54.6289 93.84 57.8539C93.84 61.0939 92.04 63.0289 89.19 63.0289ZM89.19 62.0089C91.515 62.0089 92.715 60.6589 92.715 57.8539C92.715 55.0489 91.515 53.6989 89.19 53.6989C86.85 53.6989 85.65 55.0489 85.65 57.8539C85.65 60.6589 86.85 62.0089 89.19 62.0089ZM99.6061 63.0289C97.3111 63.0289 95.6311 61.8439 95.6311 59.8189V59.7139H96.7861V59.8189C96.7861 61.0639 97.5211 62.0089 99.6061 62.0089C102.126 62.0089 103.056 60.6139 103.056 57.8839V56.9689H102.951C102.591 58.1539 101.226 59.0539 99.2311 59.0539C96.7711 59.0539 95.3311 57.8389 95.3311 55.9039C95.3311 53.9389 96.8611 52.6789 99.5461 52.6789C102.771 52.6789 104.166 54.1639 104.166 57.8389C104.166 60.8989 102.711 63.0289 99.6061 63.0289ZM99.5611 58.2439C101.601 58.2439 102.846 57.3889 102.846 55.9489C102.846 54.4789 101.676 53.6989 99.5911 53.6989C97.4161 53.6989 96.4261 54.4489 96.4261 55.9789C96.4261 57.4639 97.3861 58.2439 99.5611 58.2439ZM106.909 57.5539H105.589V55.4689H106.909V57.5539ZM106.909 62.8789H105.589V60.7939H106.909V62.8789ZM112.885 63.0289C110.02 63.0289 108.22 61.0939 108.22 57.8539C108.22 54.6289 110.02 52.6789 112.885 52.6789C115.735 52.6789 117.535 54.6289 117.535 57.8539C117.535 61.0939 115.735 63.0289 112.885 63.0289ZM112.885 62.0089C115.21 62.0089 116.41 60.6589 116.41 57.8539C116.41 55.0489 115.21 53.6989 112.885 53.6989C110.545 53.6989 109.345 55.0489 109.345 57.8539C109.345 60.6589 110.545 62.0089 112.885 62.0089ZM123.586 63.0289C120.721 63.0289 118.921 61.0939 118.921 57.8539C118.921 54.6289 120.721 52.6789 123.586 52.6789C126.436 52.6789 128.236 54.6289 128.236 57.8539C128.236 61.0939 126.436 63.0289 123.586 63.0289ZM123.586 62.0089C125.911 62.0089 127.111 60.6589 127.111 57.8539C127.111 55.0489 125.911 53.6989 123.586 53.6989C121.246 53.6989 120.046 55.0489 120.046 57.8539C120.046 60.6589 121.246 62.0089 123.586 62.0089ZM133.627 58.9639H129.547V58.0189H133.627V58.9639ZM137.993 62.8789H136.928V54.8839H134.558V54.0739H135.083C136.193 54.0739 136.733 53.7739 137.123 52.8289H137.993V62.8789ZM144.081 63.0289C141.321 63.0289 139.761 61.7989 139.761 59.9389V59.7289H140.856V59.9389C140.856 61.3789 141.996 62.0539 144.096 62.0539C145.971 62.0539 147.036 61.4089 147.036 59.7439C147.036 58.1089 146.001 57.4789 144.111 57.4789C142.596 57.4789 141.666 57.7939 140.931 58.2889L140.886 58.2739V58.2889L139.896 58.1389L140.406 52.8289H147.726V53.8039H141.336L140.946 57.6439L141.021 57.6589C141.666 57.1189 142.926 56.5939 144.426 56.5939C146.631 56.5939 148.161 57.6889 148.161 59.7439C148.161 61.7689 146.601 63.0289 144.081 63.0289ZM150.812 57.5539H149.492V55.4689H150.812V57.5539ZM150.812 62.8789H149.492V60.7939H150.812V62.8789ZM156.789 63.0289C153.924 63.0289 152.124 61.0939 152.124 57.8539C152.124 54.6289 153.924 52.6789 156.789 52.6789C159.639 52.6789 161.439 54.6289 161.439 57.8539C161.439 61.0939 159.639 63.0289 156.789 63.0289ZM156.789 62.0089C159.114 62.0089 160.314 60.6589 160.314 57.8539C160.314 55.0489 159.114 53.6989 156.789 53.6989C154.449 53.6989 153.249 55.0489 153.249 57.8539C153.249 60.6589 154.449 62.0089 156.789 62.0089ZM167.49 63.0289C164.625 63.0289 162.825 61.0939 162.825 57.8539C162.825 54.6289 164.625 52.6789 167.49 52.6789C170.34 52.6789 172.14 54.6289 172.14 57.8539C172.14 61.0939 170.34 63.0289 167.49 63.0289ZM167.49 62.0089C169.815 62.0089 171.015 60.6589 171.015 57.8539C171.015 55.0489 169.815 53.6989 167.49 53.6989C165.15 53.6989 163.95 55.0489 163.95 57.8539C163.95 60.6589 165.15 62.0089 167.49 62.0089Z" fill="#8931ED"/>
<path d="M207.648 63.1895H202.992V52.4695H207.648C210.864 52.4695 212.912 54.5495 212.912 57.8295C212.912 61.1095 210.864 63.1895 207.648 63.1895ZM207.648 53.5095H204.144V62.1495H207.648C210.368 62.1495 211.712 60.7415 211.712 57.8295C211.712 54.9175 210.368 53.5095 207.648 53.5095ZM218.541 63.3495C215.997 63.3495 214.381 61.7495 214.381 59.2375C214.381 56.8375 215.981 55.1255 218.525 55.1255C220.845 55.1255 222.493 56.4695 222.493 58.8215C222.493 59.1095 222.461 59.3495 222.413 59.5575H215.453C215.517 61.3335 216.429 62.4055 218.525 62.4055C220.381 62.4055 221.245 61.7175 221.245 60.5655V60.4535H222.381V60.5655C222.381 62.2135 220.749 63.3495 218.541 63.3495ZM218.509 56.0695C216.461 56.0695 215.533 57.1255 215.453 58.8535H221.421C221.421 58.7735 221.421 58.6935 221.421 58.6135C221.421 56.9495 220.365 56.0695 218.509 56.0695ZM227.824 63.3495C225.392 63.3495 223.984 62.3735 223.984 60.5495V60.5175H225.12V60.6135C225.12 61.9415 225.904 62.4055 227.84 62.4055C229.616 62.4055 230.224 61.9895 230.224 61.0775C230.224 60.2455 229.728 59.9735 228.416 59.7655L226.304 59.4615C224.864 59.2695 223.952 58.7095 223.952 57.3975C223.952 56.0055 225.28 55.1255 227.456 55.1255C229.728 55.1255 231.2 56.0855 231.2 57.9415V57.9735H230.064V57.8935C230.064 56.7095 229.44 56.0695 227.424 56.0695C225.76 56.0695 225.072 56.4695 225.072 57.4135C225.072 58.2295 225.488 58.5175 226.8 58.7095L228.736 58.9815C230.432 59.2215 231.344 59.7975 231.344 61.0775C231.344 62.5655 229.872 63.3495 227.824 63.3495ZM234.324 54.2775H233.188V52.4695H234.324V54.2775ZM234.324 63.1895H233.188V55.2855H234.324V63.1895ZM239.979 62.5495C237.627 62.5495 236.187 60.9975 236.187 58.8375C236.187 56.6775 237.675 55.1255 240.107 55.1255C241.771 55.1255 243.083 55.9095 243.403 57.3175H243.483V55.2855H244.507V62.4375C244.507 65.0455 242.859 66.0695 240.475 66.0695C238.331 66.0695 236.699 64.9975 236.699 63.1575H237.835C237.835 64.5495 238.763 65.0935 240.523 65.0935C242.571 65.0935 243.371 64.4695 243.371 62.5015V60.4375H243.291C242.971 61.6535 241.803 62.5495 239.979 62.5495ZM237.323 58.8375C237.323 60.8535 238.571 61.5415 240.283 61.5415C242.235 61.5415 243.371 60.5655 243.371 58.8855V58.6135C243.371 57.0615 242.187 56.1335 240.363 56.1335C238.587 56.1335 237.323 56.8215 237.323 58.8375ZM247.918 63.1895H246.782V55.2855H247.806V57.7655H247.886C248.158 56.4215 249.278 55.1255 251.246 55.1255C253.47 55.1255 254.574 56.7095 254.574 58.5815V63.1895H253.438V58.7415C253.438 57.1095 252.654 56.1655 250.846 56.1655C248.926 56.1655 247.918 57.3335 247.918 59.3655V63.1895ZM261.201 63.1895H260.065V52.4695H265.313C267.553 52.4695 269.073 53.6055 269.073 55.5735C269.073 57.3815 267.745 58.5015 265.761 58.5495V58.6295C266.465 58.8215 266.865 59.2855 267.233 59.9095L269.249 63.1895H267.937L266.033 60.0855C265.489 59.1895 264.929 58.8055 263.505 58.8055H261.201V63.1895ZM261.201 53.5095V57.8935H265.297C266.993 57.8935 267.889 57.2215 267.889 55.7015C267.889 54.1815 266.993 53.5095 265.297 53.5095H261.201ZM274.677 63.3495C272.133 63.3495 270.517 61.7495 270.517 59.2375C270.517 56.8375 272.117 55.1255 274.661 55.1255C276.981 55.1255 278.629 56.4695 278.629 58.8215C278.629 59.1095 278.597 59.3495 278.549 59.5575H271.589C271.653 61.3335 272.565 62.4055 274.661 62.4055C276.517 62.4055 277.381 61.7175 277.381 60.5655V60.4535H278.517V60.5655C278.517 62.2135 276.885 63.3495 274.677 63.3495ZM274.645 56.0695C272.597 56.0695 271.669 57.1255 271.589 58.8535H277.557C277.557 58.7735 277.557 58.6935 277.557 58.6135C277.557 56.9495 276.501 56.0695 274.645 56.0695ZM282.183 63.1895H281.047V56.2615H279.783V55.2855H281.063C281.191 53.4135 282.455 52.4695 284.503 52.4695H285.367V53.3655H284.343C282.903 53.3655 282.119 53.8455 282.183 55.2855H285.367V56.2615H282.183V63.1895ZM287.607 54.2775H286.471V52.4695H287.607V54.2775ZM287.607 63.1895H286.471V55.2855H287.607V63.1895ZM291.022 63.1895H289.886V55.2855H290.91V57.7655H290.99C291.262 56.4215 292.382 55.1255 294.35 55.1255C296.574 55.1255 297.678 56.7095 297.678 58.5815V63.1895H296.542V58.7415C296.542 57.1095 295.758 56.1655 293.95 56.1655C292.03 56.1655 291.022 57.3335 291.022 59.3655V63.1895ZM303.639 63.3495C301.095 63.3495 299.479 61.7495 299.479 59.2375C299.479 56.8375 301.079 55.1255 303.623 55.1255C305.943 55.1255 307.591 56.4695 307.591 58.8215C307.591 59.1095 307.559 59.3495 307.511 59.5575H300.551C300.615 61.3335 301.527 62.4055 303.623 62.4055C305.479 62.4055 306.343 61.7175 306.343 60.5655V60.4535H307.479V60.5655C307.479 62.2135 305.847 63.3495 303.639 63.3495ZM303.607 56.0695C301.559 56.0695 300.631 57.1255 300.551 58.8535H306.519C306.519 58.7735 306.519 58.6935 306.519 58.6135C306.519 56.9495 305.463 56.0695 303.607 56.0695ZM310.586 63.1895H309.45V55.2855H310.474V57.6695H310.538C310.762 56.3415 311.674 55.1255 313.642 55.1255C315.402 55.1255 316.394 56.2135 316.65 57.7495H316.73C316.954 56.3895 317.898 55.1255 319.882 55.1255C321.946 55.1255 323.018 56.5815 323.018 58.5815V63.1895H321.882V58.7415C321.882 56.9815 321.13 56.1655 319.466 56.1655C317.562 56.1655 316.794 57.2695 316.794 59.3655V63.1895H315.658V58.7415C315.658 56.9815 314.922 56.1655 313.258 56.1655C311.338 56.1655 310.586 57.2695 310.586 59.3655V63.1895ZM328.983 63.3495C326.439 63.3495 324.823 61.7495 324.823 59.2375C324.823 56.8375 326.423 55.1255 328.967 55.1255C331.287 55.1255 332.935 56.4695 332.935 58.8215C332.935 59.1095 332.903 59.3495 332.855 59.5575H325.895C325.959 61.3335 326.871 62.4055 328.967 62.4055C330.823 62.4055 331.687 61.7175 331.687 60.5655V60.4535H332.823V60.5655C332.823 62.2135 331.191 63.3495 328.983 63.3495ZM328.951 56.0695C326.903 56.0695 325.975 57.1255 325.895 58.8535H331.863C331.863 58.7735 331.863 58.6935 331.863 58.6135C331.863 56.9495 330.807 56.0695 328.951 56.0695ZM335.93 63.1895H334.794V55.2855H335.818V57.7655H335.898C336.17 56.4215 337.29 55.1255 339.258 55.1255C341.482 55.1255 342.586 56.7095 342.586 58.5815V63.1895H341.45V58.7415C341.45 57.1095 340.666 56.1655 338.858 56.1655C336.938 56.1655 335.93 57.3335 335.93 59.3655V63.1895ZM349.635 63.1895H347.923C346.355 63.1895 345.347 62.5335 345.347 60.6775V56.2615H343.939V55.2855H345.347V53.3975H346.499V55.2855H349.635V56.2615H346.499V60.7415C346.499 61.8455 347.043 62.1495 348.195 62.1495H349.635V63.1895Z" fill="#EEEEEE"/>
<path d="M87.585 100.189H86.52V92.1945H84.15V91.3845H84.675C85.785 91.3845 86.325 91.0845 86.715 90.1395H87.585V100.189ZM93.6728 100.339C90.9128 100.339 89.3528 99.1095 89.3528 97.2495V97.0395H90.4478V97.2495C90.4478 98.6895 91.5878 99.3645 93.6878 99.3645C95.5628 99.3645 96.6278 98.7195 96.6278 97.0545C96.6278 95.4195 95.5928 94.7895 93.7028 94.7895C92.1878 94.7895 91.2578 95.1045 90.5228 95.5995L90.4778 95.5845V95.5995L89.4878 95.4495L89.9978 90.1395H97.3178V91.1145H90.9278L90.5378 94.9545L90.6128 94.9695C91.2578 94.4295 92.5178 93.9045 94.0178 93.9045C96.2228 93.9045 97.7528 94.9995 97.7528 97.0545C97.7528 99.0795 96.1928 100.339 93.6728 100.339ZM100.405 94.8645H99.0846V92.7795H100.405V94.8645ZM100.405 100.189H99.0846V98.1045H100.405V100.189ZM106.381 100.339C103.516 100.339 101.716 98.4045 101.716 95.1645C101.716 91.9395 103.516 89.9895 106.381 89.9895C109.231 89.9895 111.031 91.9395 111.031 95.1645C111.031 98.4045 109.231 100.339 106.381 100.339ZM106.381 99.3195C108.706 99.3195 109.906 97.9695 109.906 95.1645C109.906 92.3595 108.706 91.0095 106.381 91.0095C104.041 91.0095 102.841 92.3595 102.841 95.1645C102.841 97.9695 104.041 99.3195 106.381 99.3195ZM117.082 100.339C114.217 100.339 112.417 98.4045 112.417 95.1645C112.417 91.9395 114.217 89.9895 117.082 89.9895C119.932 89.9895 121.732 91.9395 121.732 95.1645C121.732 98.4045 119.932 100.339 117.082 100.339ZM117.082 99.3195C119.407 99.3195 120.607 97.9695 120.607 95.1645C120.607 92.3595 119.407 91.0095 117.082 91.0095C114.742 91.0095 113.542 92.3595 113.542 95.1645C113.542 97.9695 114.742 99.3195 117.082 99.3195ZM127.123 96.2745H123.043V95.3295H127.123V96.2745ZM131.489 100.189H130.424V92.1945H128.054V91.3845H128.579C129.689 91.3845 130.229 91.0845 130.619 90.1395H131.489V100.189ZM137.532 100.339C134.787 100.339 133.092 99.3795 133.092 97.4595C133.092 96.2145 133.962 95.2545 135.612 94.9245V94.8195C134.157 94.6245 133.362 93.7395 133.362 92.5995C133.362 91.0545 134.787 89.9895 137.532 89.9895C140.292 89.9895 141.702 91.0545 141.702 92.5995C141.702 93.7395 140.907 94.6245 139.452 94.8195V94.9245C141.132 95.2545 141.972 96.2145 141.972 97.4595C141.972 99.3795 140.262 100.339 137.532 100.339ZM137.532 94.5645C139.662 94.5645 140.637 93.9795 140.637 92.7945C140.637 91.6845 139.887 91.0095 137.532 91.0095C135.192 91.0095 134.427 91.6845 134.427 92.7945C134.427 93.9795 135.402 94.5645 137.532 94.5645ZM137.532 99.3195C139.917 99.3195 140.892 98.7195 140.892 97.2945C140.892 95.9895 139.887 95.3295 137.532 95.3295C135.177 95.3295 134.172 95.9895 134.172 97.2945C134.172 98.7195 135.132 99.3195 137.532 99.3195ZM144.455 94.8645H143.135V92.7795H144.455V94.8645ZM144.455 100.189H143.135V98.1045H144.455V100.189ZM150.431 100.339C147.566 100.339 145.766 98.4045 145.766 95.1645C145.766 91.9395 147.566 89.9895 150.431 89.9895C153.281 89.9895 155.081 91.9395 155.081 95.1645C155.081 98.4045 153.281 100.339 150.431 100.339ZM150.431 99.3195C152.756 99.3195 153.956 97.9695 153.956 95.1645C153.956 92.3595 152.756 91.0095 150.431 91.0095C148.091 91.0095 146.891 92.3595 146.891 95.1645C146.891 97.9695 148.091 99.3195 150.431 99.3195ZM161.133 100.339C158.268 100.339 156.468 98.4045 156.468 95.1645C156.468 91.9395 158.268 89.9895 161.133 89.9895C163.983 89.9895 165.783 91.9395 165.783 95.1645C165.783 98.4045 163.983 100.339 161.133 100.339ZM161.133 99.3195C163.458 99.3195 164.658 97.9695 164.658 95.1645C164.658 92.3595 163.458 91.0095 161.133 91.0095C158.793 91.0095 157.593 92.3595 157.593 95.1645C157.593 97.9695 158.793 99.3195 161.133 99.3195Z" fill="#8931ED"/>
<path d="M204.096 100.5H202.96V89.78H210.992V90.82H204.096V94.916H210.752V95.94H204.096V100.5ZM213.995 91.588H212.859V89.78H213.995V91.588ZM213.995 100.5H212.859V92.596H213.995V100.5ZM217.394 100.5H216.258V92.596H217.282V95.076H217.362C217.634 93.732 218.754 92.436 220.722 92.436C222.946 92.436 224.05 94.02 224.05 95.892V100.5H222.914V96.052C222.914 94.42 222.13 93.476 220.322 93.476C218.402 93.476 217.394 94.644 217.394 96.676V100.5ZM228.442 100.66C226.89 100.66 225.834 99.924 225.834 98.644C225.834 97.348 226.906 96.788 228.378 96.628L232.138 96.212V95.604C232.138 94.068 231.466 93.46 229.738 93.46C228.042 93.46 227.146 94.068 227.146 95.46V95.524H226.01V95.46C226.01 93.796 227.386 92.436 229.818 92.436C232.218 92.436 233.242 93.812 233.242 95.556V100.5H232.218V98.372H232.138C231.674 99.828 230.282 100.66 228.442 100.66ZM226.97 98.564C226.97 99.364 227.498 99.78 228.698 99.78C230.618 99.78 232.138 98.932 232.138 97.028V96.964L228.73 97.348C227.546 97.46 226.97 97.748 226.97 98.564ZM236.598 100.5H235.462V89.78H236.598V100.5ZM242.518 100.5H241.27L246.118 89.78H247.702L252.566 100.5H251.286L249.846 97.348H243.958L242.518 100.5ZM246.262 92.26L244.422 96.324H249.382L247.526 92.26L246.934 90.868H246.838L246.262 92.26ZM257.363 100.66C254.835 100.66 253.427 98.948 253.427 96.548C253.427 94.148 254.835 92.436 257.267 92.436C259.139 92.436 260.307 93.444 260.659 94.804H260.739V89.78H261.875V100.5H260.835V98.164H260.771C260.387 99.748 259.107 100.66 257.363 100.66ZM254.579 96.548C254.579 98.836 255.795 99.62 257.651 99.62C259.507 99.62 260.739 98.548 260.739 96.676V96.532C260.739 94.58 259.571 93.492 257.619 93.492C255.811 93.492 254.579 94.26 254.579 96.548ZM265.287 91.588H264.151V89.78H265.287V91.588ZM262.839 103.22H262.231V102.292H262.903C263.703 102.292 264.151 101.972 264.151 101.108V92.596H265.287V100.868C265.287 102.596 264.231 103.22 262.839 103.22ZM270.877 100.66C268.621 100.66 267.517 99.092 267.517 97.22V92.596H268.653V97.044C268.653 98.692 269.453 99.636 271.277 99.636C273.213 99.636 274.221 98.468 274.221 96.436V92.596H275.358V100.5H274.333V98.036H274.253C273.981 99.38 272.845 100.66 270.877 100.66ZM281.093 100.66C278.661 100.66 277.253 99.684 277.253 97.86V97.828H278.389V97.924C278.389 99.252 279.173 99.716 281.109 99.716C282.885 99.716 283.493 99.3 283.493 98.388C283.493 97.556 282.997 97.284 281.685 97.076L279.573 96.772C278.133 96.58 277.221 96.02 277.221 94.708C277.221 93.316 278.549 92.436 280.725 92.436C282.997 92.436 284.469 93.396 284.469 95.252V95.284H283.333V95.204C283.333 94.02 282.709 93.38 280.693 93.38C279.029 93.38 278.341 93.78 278.341 94.724C278.341 95.54 278.757 95.828 280.069 96.02L282.005 96.292C283.701 96.532 284.613 97.108 284.613 98.388C284.613 99.876 283.141 100.66 281.093 100.66ZM291.305 100.5H289.593C288.025 100.5 287.017 99.844 287.017 97.988V93.572H285.609V92.596H287.017V90.708H288.169V92.596H291.305V93.572H288.169V98.052C288.169 99.156 288.713 99.46 289.865 99.46H291.305V100.5ZM294.039 100.5H292.903V92.596H293.927V94.98H293.991C294.215 93.652 295.127 92.436 297.095 92.436C298.855 92.436 299.847 93.524 300.103 95.06H300.183C300.407 93.7 301.351 92.436 303.335 92.436C305.399 92.436 306.471 93.892 306.471 95.892V100.5H305.335V96.052C305.335 94.292 304.583 93.476 302.919 93.476C301.015 93.476 300.247 94.58 300.247 96.676V100.5H299.111V96.052C299.111 94.292 298.375 93.476 296.711 93.476C294.791 93.476 294.039 94.58 294.039 96.676V100.5ZM312.437 100.66C309.893 100.66 308.277 99.06 308.277 96.548C308.277 94.148 309.877 92.436 312.421 92.436C314.741 92.436 316.389 93.78 316.389 96.132C316.389 96.42 316.357 96.66 316.309 96.868H309.349C309.413 98.644 310.325 99.716 312.421 99.716C314.277 99.716 315.141 99.028 315.141 97.876V97.764H316.277V97.876C316.277 99.524 314.645 100.66 312.437 100.66ZM312.405 93.38C310.357 93.38 309.429 94.436 309.349 96.164H315.317C315.317 96.084 315.317 96.004 315.317 95.924C315.317 94.26 314.261 93.38 312.405 93.38ZM319.383 100.5H318.247V92.596H319.271V95.076H319.351C319.623 93.732 320.743 92.436 322.711 92.436C324.935 92.436 326.039 94.02 326.039 95.892V100.5H324.903V96.052C324.903 94.42 324.119 93.476 322.311 93.476C320.391 93.476 319.383 94.644 319.383 96.676V100.5ZM333.088 100.5H331.376C329.808 100.5 328.8 99.844 328.8 97.988V93.572H327.392V92.596H328.8V90.708H329.952V92.596H333.088V93.572H329.952V98.052C329.952 99.156 330.496 99.46 331.648 99.46H333.088V100.5ZM338.158 100.66C335.726 100.66 334.318 99.684 334.318 97.86V97.828H335.454V97.924C335.454 99.252 336.238 99.716 338.174 99.716C339.95 99.716 340.558 99.3 340.558 98.388C340.558 97.556 340.062 97.284 338.75 97.076L336.638 96.772C335.198 96.58 334.286 96.02 334.286 94.708C334.286 93.316 335.614 92.436 337.79 92.436C340.062 92.436 341.534 93.396 341.534 95.252V95.284H340.398V95.204C340.398 94.02 339.774 93.38 337.758 93.38C336.094 93.38 335.406 93.78 335.406 94.724C335.406 95.54 335.822 95.828 337.134 96.02L339.07 96.292C340.766 96.532 341.678 97.108 341.678 98.388C341.678 99.876 340.206 100.66 338.158 100.66Z" fill="#EEEEEE"/>
<path d="M124.703 136.811H116.738V136.076C116.738 134.141 117.443 133.196 119.468 132.461L121.718 131.666C123.173 131.126 123.653 130.631 123.653 129.566C123.653 128.246 122.738 127.616 120.833 127.616C118.658 127.616 117.758 128.456 117.758 129.956V130.136H116.693V130.001C116.693 128.216 117.923 126.611 120.863 126.611C123.563 126.611 124.733 127.946 124.733 129.566C124.733 131.111 123.773 131.981 122.003 132.581L119.948 133.271C118.298 133.856 117.833 134.516 117.833 135.926L120.083 135.836H124.703V136.811ZM130.782 136.961C127.917 136.961 126.117 135.026 126.117 131.786C126.117 128.561 127.917 126.611 130.782 126.611C133.632 126.611 135.432 128.561 135.432 131.786C135.432 135.026 133.632 136.961 130.782 136.961ZM130.782 135.941C133.107 135.941 134.307 134.591 134.307 131.786C134.307 128.981 133.107 127.631 130.782 127.631C128.442 127.631 127.242 128.981 127.242 131.786C127.242 134.591 128.442 135.941 130.782 135.941ZM138.063 131.486H136.743V129.401H138.063V131.486ZM138.063 136.811H136.743V134.726H138.063V136.811ZM144.04 136.961C141.175 136.961 139.375 135.026 139.375 131.786C139.375 128.561 141.175 126.611 144.04 126.611C146.89 126.611 148.69 128.561 148.69 131.786C148.69 135.026 146.89 136.961 144.04 136.961ZM144.04 135.941C146.365 135.941 147.565 134.591 147.565 131.786C147.565 128.981 146.365 127.631 144.04 127.631C141.7 127.631 140.5 128.981 140.5 131.786C140.5 134.591 141.7 135.941 144.04 135.941ZM154.741 136.961C151.876 136.961 150.076 135.026 150.076 131.786C150.076 128.561 151.876 126.611 154.741 126.611C157.591 126.611 159.391 128.561 159.391 131.786C159.391 135.026 157.591 136.961 154.741 136.961ZM154.741 135.941C157.066 135.941 158.266 134.591 158.266 131.786C158.266 128.981 157.066 127.631 154.741 127.631C152.401 127.631 151.201 128.981 151.201 131.786C151.201 134.591 152.401 135.941 154.741 135.941Z" fill="#E05052"/>
<path d="M207.12 136.971C203.968 136.971 202.496 135.467 202.496 133.419V133.323H203.648V133.531C203.648 135.067 204.608 135.899 207.12 135.899C209.264 135.899 210.24 135.307 210.24 134.091C210.24 132.891 209.52 132.459 207.952 132.139L205.68 131.707C203.936 131.371 202.544 130.635 202.544 128.859C202.544 127.403 203.792 125.931 206.864 125.931C209.888 125.931 211.232 127.531 211.232 129.483V129.579H210.08V129.387C210.08 127.835 209.12 127.003 206.784 127.003C204.656 127.003 203.696 127.611 203.696 128.779C203.696 129.995 204.4 130.363 205.984 130.699L208.24 131.147C210.16 131.515 211.392 132.331 211.392 133.995C211.392 135.531 210.096 136.971 207.12 136.971ZM216.53 136.971C214.274 136.971 213.17 135.403 213.17 133.531V128.907H214.306V133.355C214.306 135.003 215.106 135.947 216.93 135.947C218.866 135.947 219.874 134.779 219.874 132.747V128.907H221.01V136.811H219.986V134.347H219.906C219.634 135.691 218.498 136.971 216.53 136.971ZM224.297 136.811H223.273V126.091H224.409V131.115H224.489C224.825 129.755 225.961 128.747 227.865 128.747C230.345 128.747 231.705 130.459 231.705 132.859C231.705 135.259 230.345 136.971 227.769 136.971C226.009 136.971 224.745 136.059 224.377 134.475H224.297V136.811ZM224.409 132.987C224.409 134.859 225.593 135.931 227.497 135.931C229.385 135.931 230.553 135.147 230.553 132.859C230.553 130.571 229.353 129.803 227.529 129.803C225.529 129.803 224.409 130.891 224.409 132.843V132.987ZM234.589 136.811H233.453V128.907H234.477V131.291H234.541C234.765 129.963 235.678 128.747 237.646 128.747C239.405 128.747 240.398 129.835 240.654 131.371H240.734C240.958 130.011 241.901 128.747 243.885 128.747C245.95 128.747 247.022 130.203 247.022 132.203V136.811H245.885V132.363C245.885 130.603 245.134 129.787 243.47 129.787C241.566 129.787 240.798 130.891 240.798 132.987V136.811H239.661V132.363C239.661 130.603 238.925 129.787 237.261 129.787C235.341 129.787 234.589 130.891 234.589 132.987V136.811ZM250.363 127.899H249.227V126.091H250.363V127.899ZM250.363 136.811H249.227V128.907H250.363V136.811ZM256.098 136.971C253.666 136.971 252.258 135.995 252.258 134.171V134.139H253.394V134.235C253.394 135.563 254.178 136.027 256.114 136.027C257.89 136.027 258.498 135.611 258.498 134.699C258.498 133.867 258.002 133.595 256.69 133.387L254.578 133.083C253.138 132.891 252.226 132.331 252.226 131.019C252.226 129.627 253.554 128.747 255.73 128.747C258.002 128.747 259.474 129.707 259.474 131.563V131.595H258.338V131.515C258.338 130.331 257.714 129.691 255.698 129.691C254.034 129.691 253.346 130.091 253.346 131.035C253.346 131.851 253.762 132.139 255.074 132.331L257.01 132.603C258.706 132.843 259.618 133.419 259.618 134.699C259.618 136.187 258.146 136.971 256.098 136.971ZM264.935 136.971C262.503 136.971 261.095 135.995 261.095 134.171V134.139H262.231V134.235C262.231 135.563 263.015 136.027 264.951 136.027C266.727 136.027 267.335 135.611 267.335 134.699C267.335 133.867 266.839 133.595 265.527 133.387L263.415 133.083C261.975 132.891 261.063 132.331 261.063 131.019C261.063 129.627 262.391 128.747 264.567 128.747C266.839 128.747 268.311 129.707 268.311 131.563V131.595H267.175V131.515C267.175 130.331 266.551 129.691 264.535 129.691C262.871 129.691 262.183 130.091 262.183 131.035C262.183 131.851 262.599 132.139 263.911 132.331L265.847 132.603C267.543 132.843 268.455 133.419 268.455 134.699C268.455 136.187 266.983 136.971 264.935 136.971ZM271.435 127.899H270.299V126.091H271.435V127.899ZM271.435 136.811H270.299V128.907H271.435V136.811ZM277.57 136.971C274.994 136.971 273.282 135.259 273.282 132.859C273.282 130.459 274.994 128.747 277.57 128.747C280.162 128.747 281.874 130.459 281.874 132.859C281.874 135.259 280.162 136.971 277.57 136.971ZM277.57 135.947C279.746 135.947 280.754 134.779 280.754 132.859C280.754 130.955 279.746 129.771 277.57 129.771C275.394 129.771 274.402 130.955 274.402 132.859C274.402 134.779 275.394 135.947 277.57 135.947ZM284.873 136.811H283.737V128.907H284.761V131.387H284.841C285.113 130.043 286.233 128.747 288.201 128.747C290.425 128.747 291.529 130.331 291.529 132.203V136.811H290.393V132.363C290.393 130.731 289.609 129.787 287.801 129.787C285.881 129.787 284.873 130.955 284.873 132.987V136.811ZM301.708 136.811H297.052V126.091H301.708C304.924 126.091 306.972 128.171 306.972 131.451C306.972 134.731 304.924 136.811 301.708 136.811ZM301.708 127.131H298.204V135.771H301.708C304.428 135.771 305.772 134.363 305.772 131.451C305.772 128.539 304.428 127.131 301.708 127.131ZM312.6 136.971C310.056 136.971 308.44 135.371 308.44 132.859C308.44 130.459 310.04 128.747 312.584 128.747C314.904 128.747 316.552 130.091 316.552 132.443C316.552 132.731 316.52 132.971 316.472 133.179H309.512C309.576 134.955 310.488 136.027 312.584 136.027C314.44 136.027 315.304 135.339 315.304 134.187V134.075H316.44V134.187C316.44 135.835 314.808 136.971 312.6 136.971ZM312.568 129.691C310.52 129.691 309.592 130.747 309.512 132.475H315.48C315.48 132.395 315.48 132.315 315.48 132.235C315.48 130.571 314.424 129.691 312.568 129.691ZM320.603 136.971C319.051 136.971 317.995 136.235 317.995 134.955C317.995 133.659 319.067 133.099 320.539 132.939L324.299 132.523V131.915C324.299 130.379 323.627 129.771 321.899 129.771C320.203 129.771 319.307 130.379 319.307 131.771V131.835H318.171V131.771C318.171 130.107 319.547 128.747 321.979 128.747C324.379 128.747 325.403 130.123 325.403 131.867V136.811H324.379V134.683H324.299C323.835 136.139 322.443 136.971 320.603 136.971ZM319.131 134.875C319.131 135.675 319.659 136.091 320.859 136.091C322.779 136.091 324.299 135.243 324.299 133.339V133.275L320.891 133.659C319.707 133.771 319.131 134.059 319.131 134.875ZM331.03 136.971C328.502 136.971 327.094 135.259 327.094 132.859C327.094 130.459 328.502 128.747 330.934 128.747C332.806 128.747 333.974 129.755 334.326 131.115H334.406V126.091H335.542V136.811H334.502V134.475H334.438C334.054 136.059 332.774 136.971 331.03 136.971ZM328.246 132.859C328.246 135.147 329.462 135.931 331.318 135.931C333.174 135.931 334.406 134.859 334.406 132.987V132.843C334.406 130.891 333.238 129.803 331.286 129.803C329.478 129.803 328.246 130.571 328.246 132.859ZM338.938 136.811H337.802V126.091H338.938V136.811ZM342.337 127.899H341.201V126.091H342.337V127.899ZM342.337 136.811H341.201V128.907H342.337V136.811ZM345.736 136.811H344.6V128.907H345.624V131.387H345.704C345.976 130.043 347.096 128.747 349.064 128.747C351.288 128.747 352.392 130.331 352.392 132.203V136.811H351.256V132.363C351.256 130.731 350.472 129.787 348.664 129.787C346.744 129.787 345.736 130.955 345.736 132.987V136.811ZM358.353 136.971C355.809 136.971 354.193 135.371 354.193 132.859C354.193 130.459 355.793 128.747 358.337 128.747C360.657 128.747 362.305 130.091 362.305 132.443C362.305 132.731 362.273 132.971 362.225 133.179H355.265C355.329 134.955 356.241 136.027 358.337 136.027C360.193 136.027 361.057 135.339 361.057 134.187V134.075H362.193V134.187C362.193 135.835 360.561 136.971 358.353 136.971ZM358.321 129.691C356.273 129.691 355.345 130.747 355.265 132.475H361.233C361.233 132.395 361.233 132.315 361.233 132.235C361.233 130.571 360.177 129.691 358.321 129.691Z" fill="#EEEEEE"/>
<path d="M17.9346 28.209H185.459V26.418H190.354V28.209H352.393V35.0723H363.637V48.957H378.714V95.7754H380.999V100.671H378.714V146.475H363.637V159.104H367.96V163.999H363.064V160.999H189.854V163.146H184.959V160.999H21.2012L15.3232 149.986L11.6182 144.719H2.03516V99.3818H0V94.4863H2.03516V48.957H15.3232V30.8955H13.0391V26H17.9346V28.209ZM17.9346 30.8955H16.5615V50.1953H3.27246V94.4863H4.89551V99.3818H3.27246V143.481H12.2607L12.6299 144.007L16.3359 149.273L16.3799 149.336L16.415 149.403L21.9434 159.761H184.959V158.25H189.854V159.761H362.399V145.237H377.477V100.671H376.104V95.7754H377.477V50.1953H362.399V36.3096H351.155V29.4463H190.354V31.3135H185.459V29.4463H17.9346V30.8955Z" fill="#8931ED"/>
<path d="M204.5 140.75L202 139.557V142.443L204.5 141.25V140.75ZM363.5 141.25L366 142.443V139.557L363.5 140.75V141.25ZM204.25 141V141.25H363.75V141V140.75H204.25V141Z" fill="#FF595A"/>
<rect x="296.25" y="168.251" width="81.4982" height="18.4982" fill="url(#paint1_linear_51_198)"/>
<rect x="296.25" y="168.251" width="81.4982" height="18.4982" stroke="#FF595A" stroke-width="0.501776" stroke-dasharray="1 1"/>
<path d="M309.531 181H303.099V172.96H309.531V174.124H304.395V176.38H309.351V177.532H304.395V179.836H309.531V181ZM312.1 181H310.804V175.036H311.992V176.884H312.076C312.256 175.876 313.048 174.916 314.56 174.916C316.216 174.916 317.032 176.032 317.032 177.412V181H315.736V177.76C315.736 176.644 315.232 176.08 313.996 176.08C312.688 176.08 312.1 176.752 312.1 178.048V181ZM321.079 181.12C319.195 181.12 318.151 179.86 318.151 178.024C318.151 176.164 319.183 174.916 320.995 174.916C322.411 174.916 323.215 175.648 323.455 176.656H323.527V172.96H324.823V181H323.635V179.284H323.551C323.299 180.472 322.423 181.12 321.079 181.12ZM319.459 178.024C319.459 179.452 320.191 179.932 321.475 179.932C322.747 179.932 323.527 179.332 323.527 178.084V177.988C323.527 176.716 322.783 176.092 321.451 176.092C320.203 176.092 319.459 176.584 319.459 178.024ZM329.896 181H328.6V172.96H332.536C334.324 172.96 335.548 173.98 335.548 175.768C335.548 177.544 334.324 178.576 332.536 178.576H329.896V181ZM332.416 174.124H329.896V177.412H332.416C333.628 177.412 334.252 176.956 334.252 175.768C334.252 174.58 333.628 174.124 332.416 174.124ZM337.883 181H336.587V172.96H337.883V176.86H337.955C338.159 175.852 338.891 174.916 340.415 174.916C342.059 174.916 342.863 175.996 342.863 177.448V181H341.579V177.76C341.579 176.56 341.039 176.08 339.803 176.08C338.387 176.08 337.883 176.848 337.883 178.108V181ZM346.044 181.12C344.808 181.12 344.028 180.544 344.028 179.56C344.028 178.636 344.772 178.156 345.948 178.024L348.66 177.736V177.388C348.66 176.404 348.228 176.056 347.088 176.056C345.984 176.056 345.444 176.416 345.444 177.292V177.34H344.16V177.292C344.16 175.936 345.288 174.916 347.184 174.916C349.08 174.916 349.932 175.948 349.932 177.376V181H348.744V179.512H348.66C348.348 180.52 347.4 181.12 346.044 181.12ZM345.324 179.476C345.324 179.956 345.648 180.184 346.392 180.184C347.748 180.184 348.66 179.68 348.66 178.504L346.32 178.768C345.648 178.852 345.324 179.008 345.324 179.476ZM354.173 181.12C352.253 181.12 351.161 180.364 351.161 178.984V178.948H352.457V179.044C352.457 179.824 352.925 180.076 354.173 180.076C355.337 180.076 355.685 179.836 355.685 179.308C355.685 178.816 355.397 178.66 354.545 178.54L352.913 178.324C351.785 178.18 351.101 177.7 351.101 176.704C351.101 175.66 352.049 174.916 353.885 174.916C355.709 174.916 356.813 175.648 356.813 177.064V177.1H355.529V177.028C355.529 176.32 355.169 175.948 353.849 175.948C352.757 175.948 352.373 176.188 352.373 176.752C352.373 177.22 352.613 177.388 353.513 177.508L354.893 177.7C356.309 177.88 356.957 178.36 356.957 179.344C356.957 180.46 355.853 181.12 354.173 181.12ZM361.156 181.12C359.2 181.12 357.916 180.016 357.916 178.024C357.916 176.164 359.188 174.916 361.132 174.916C362.98 174.916 364.24 175.936 364.24 177.748C364.24 177.964 364.228 178.132 364.192 178.312H359.128C359.176 179.464 359.74 180.076 361.12 180.076C362.368 180.076 362.884 179.668 362.884 178.96V178.864H364.18V178.972C364.18 180.244 362.932 181.12 361.156 181.12ZM361.108 175.936C359.788 175.936 359.212 176.524 359.14 177.592H363.016V177.568C363.016 176.464 362.38 175.936 361.108 175.936ZM370.574 181H369.278V174.88H367.31V173.956H367.694C368.582 173.956 369.086 173.728 369.434 172.96H370.574V181Z" fill="white"/>
<path d="M376.854 167.193H378.661V169H376.854V167.193Z" fill="#FF595A"/>
<path d="M376.854 186H378.661V187.806H376.854V186Z" fill="#FF595A"/>
<rect x="295.095" y="185.965" width="1.80639" height="1.80639" fill="#FF595A"/>
<rect x="295.095" y="167.098" width="1.80639" height="1.80639" fill="#FF595A"/>
<path d="M290.079 161.585C290.044 161.419 290.215 161.286 290.367 161.361L296.657 164.462C296.839 164.551 296.792 164.822 296.591 164.845L293.276 165.236C293.201 165.245 293.137 165.295 293.11 165.365L291.908 168.479C291.835 168.668 291.561 168.646 291.52 168.448L290.079 161.585Z" fill="#FF595A"/>
<defs>
<linearGradient id="paint0_linear_51_198" x1="189" y1="0" x2="189" y2="129" gradientUnits="userSpaceOnUse">
<stop stop-color="white" stop-opacity="0"/>
<stop offset="1" stop-color="#8931ED" stop-opacity="0.08"/>
</linearGradient>
<linearGradient id="paint1_linear_51_198" x1="336.999" y1="168" x2="336.999" y2="187" gradientUnits="userSpaceOnUse">
<stop stop-color="white" stop-opacity="0"/>
<stop offset="1" stop-color="#F93D3E" stop-opacity="0.08"/>
</linearGradient>
</defs>
</svg>
