<svg width="378" height="254" viewBox="0 0 378 254" fill="none" xmlns="http://www.w3.org/2000/svg">
<rect x="189" y="44" width="6" height="6" fill="#257EE4"/>
<rect x="189" y="81" width="6" height="6" fill="#257EE4"/>
<rect x="189" y="119" width="6" height="6" fill="#257EE4"/>
<rect x="189" y="156" width="6" height="6" fill="#257EE4"/>
<rect width="378" height="214" transform="translate(0 11)" fill="url(#paint0_linear_54_664)"/>
<rect width="378" height="214" transform="translate(0 11)" fill="#0C0F18" fill-opacity="0.2"/>
<path d="M22 19.4258H188.686V17.4434H194.686V19.4258H345.293V30.0684H356.184V51.6006H370.786V125H373V131H370.786V202.823H356.184V224H361V230H355V225.346H194.686V227.881H188.686V225.346H24.5332L18.8408 208.269L15.252 200.101H5.9707V129H4V123H5.9707V51.6006H18.8408V22H16V16H22V19.4258ZM22 22H20.0781V52.8379H7.20801V123H10V129H7.20801V198.863H16.0596L16.3848 199.603L19.9736 207.771L19.9971 207.823L20.0146 207.877L25.4248 224.108H188.686V221.881H194.686V224.108H354.945V201.586H369.548V131H367V125H369.548V52.8379H354.945V31.3057H344.056V20.6631H194.686V23.4434H188.686V20.6631H22V22Z" fill="#257EE4"/>
<path d="M89.19 48.0133C86.325 48.0133 84.525 46.0783 84.525 42.8383C84.525 39.6133 86.325 37.6633 89.19 37.6633C92.04 37.6633 93.84 39.6133 93.84 42.8383C93.84 46.0783 92.04 48.0133 89.19 48.0133ZM89.19 46.9933C91.515 46.9933 92.715 45.6433 92.715 42.8383C92.715 40.0333 91.515 38.6833 89.19 38.6833C86.85 38.6833 85.65 40.0333 85.65 42.8383C85.65 45.6433 86.85 46.9933 89.19 46.9933ZM99.6061 48.0133C97.3111 48.0133 95.6311 46.8283 95.6311 44.8033V44.6983H96.7861V44.8033C96.7861 46.0483 97.5211 46.9933 99.6061 46.9933C102.126 46.9933 103.056 45.5983 103.056 42.8683V41.9533H102.951C102.591 43.1383 101.226 44.0383 99.2311 44.0383C96.7711 44.0383 95.3311 42.8233 95.3311 40.8883C95.3311 38.9233 96.8611 37.6633 99.5461 37.6633C102.771 37.6633 104.166 39.1483 104.166 42.8233C104.166 45.8833 102.711 48.0133 99.6061 48.0133ZM99.5611 43.2283C101.601 43.2283 102.846 42.3733 102.846 40.9333C102.846 39.4633 101.676 38.6833 99.5911 38.6833C97.4161 38.6833 96.4261 39.4333 96.4261 40.9633C96.4261 42.4483 97.3861 43.2283 99.5611 43.2283ZM106.909 42.5383H105.589V40.4533H106.909V42.5383ZM106.909 47.8633H105.589V45.7783H106.909V47.8633ZM112.885 48.0133C110.02 48.0133 108.22 46.0783 108.22 42.8383C108.22 39.6133 110.02 37.6633 112.885 37.6633C115.735 37.6633 117.535 39.6133 117.535 42.8383C117.535 46.0783 115.735 48.0133 112.885 48.0133ZM112.885 46.9933C115.21 46.9933 116.41 45.6433 116.41 42.8383C116.41 40.0333 115.21 38.6833 112.885 38.6833C110.545 38.6833 109.345 40.0333 109.345 42.8383C109.345 45.6433 110.545 46.9933 112.885 46.9933ZM123.586 48.0133C120.721 48.0133 118.921 46.0783 118.921 42.8383C118.921 39.6133 120.721 37.6633 123.586 37.6633C126.436 37.6633 128.236 39.6133 128.236 42.8383C128.236 46.0783 126.436 48.0133 123.586 48.0133ZM123.586 46.9933C125.911 46.9933 127.111 45.6433 127.111 42.8383C127.111 40.0333 125.911 38.6833 123.586 38.6833C121.246 38.6833 120.046 40.0333 120.046 42.8383C120.046 45.6433 121.246 46.9933 123.586 46.9933ZM133.627 43.9483H129.547V43.0033H133.627V43.9483ZM139.598 48.0133C136.733 48.0133 134.933 46.0783 134.933 42.8383C134.933 39.6133 136.733 37.6633 139.598 37.6633C142.448 37.6633 144.248 39.6133 144.248 42.8383C144.248 46.0783 142.448 48.0133 139.598 48.0133ZM139.598 46.9933C141.923 46.9933 143.123 45.6433 143.123 42.8383C143.123 40.0333 141.923 38.6833 139.598 38.6833C137.258 38.6833 136.058 40.0333 136.058 42.8383C136.058 45.6433 137.258 46.9933 139.598 46.9933ZM150.014 48.0133C147.719 48.0133 146.039 46.8283 146.039 44.8033V44.6983H147.194V44.8033C147.194 46.0483 147.929 46.9933 150.014 46.9933C152.534 46.9933 153.464 45.5983 153.464 42.8683V41.9533H153.359C152.999 43.1383 151.634 44.0383 149.639 44.0383C147.179 44.0383 145.739 42.8233 145.739 40.8883C145.739 38.9233 147.269 37.6633 149.954 37.6633C153.179 37.6633 154.574 39.1483 154.574 42.8233C154.574 45.8833 153.119 48.0133 150.014 48.0133ZM149.969 43.2283C152.009 43.2283 153.254 42.3733 153.254 40.9333C153.254 39.4633 152.084 38.6833 149.999 38.6833C147.824 38.6833 146.834 39.4333 146.834 40.9633C146.834 42.4483 147.794 43.2283 149.969 43.2283ZM157.316 42.5383H155.996V40.4533H157.316V42.5383ZM157.316 47.8633H155.996V45.7783H157.316V47.8633ZM162.948 48.0133C159.918 48.0133 158.628 46.5583 158.628 44.6683V44.4283H159.738V44.6233C159.738 46.1983 160.503 46.9933 162.918 46.9933C165.168 46.9933 166.068 46.3783 166.068 44.9533C166.068 43.6783 165.183 43.0783 163.653 43.0783H160.938V42.1633H163.428C164.943 42.1633 165.768 41.6083 165.768 40.4683C165.768 39.2683 165.033 38.6833 162.873 38.6833C160.578 38.6833 159.738 39.4783 159.738 41.0533V41.1883H158.628V41.0083C158.628 39.1483 159.963 37.6633 162.948 37.6633C165.408 37.6633 166.833 38.6383 166.833 40.3033C166.833 41.4283 166.173 42.2683 164.913 42.4933V42.5983C166.338 42.8683 167.148 43.7383 167.148 45.0733C167.148 46.9483 165.543 48.0133 162.948 48.0133ZM173.144 48.0133C170.279 48.0133 168.479 46.0783 168.479 42.8383C168.479 39.6133 170.279 37.6633 173.144 37.6633C175.994 37.6633 177.794 39.6133 177.794 42.8383C177.794 46.0783 175.994 48.0133 173.144 48.0133ZM173.144 46.9933C175.469 46.9933 176.669 45.6433 176.669 42.8383C176.669 40.0333 175.469 38.6833 173.144 38.6833C170.804 38.6833 169.604 40.0333 169.604 42.8383C169.604 45.6433 170.804 46.9933 173.144 46.9933Z" fill="#257EE4"/>
<path d="M207.648 48.1738H202.992V37.4538H207.648C210.864 37.4538 212.912 39.5338 212.912 42.8138C212.912 46.0938 210.864 48.1738 207.648 48.1738ZM207.648 38.4938H204.144V47.1338H207.648C210.368 47.1338 211.712 45.7258 211.712 42.8138C211.712 39.9018 210.368 38.4938 207.648 38.4938ZM218.541 48.3338C215.997 48.3338 214.381 46.7338 214.381 44.2218C214.381 41.8218 215.981 40.1098 218.525 40.1098C220.845 40.1098 222.493 41.4538 222.493 43.8058C222.493 44.0938 222.461 44.3338 222.413 44.5418H215.453C215.517 46.3178 216.429 47.3898 218.525 47.3898C220.381 47.3898 221.245 46.7018 221.245 45.5498V45.4378H222.381V45.5498C222.381 47.1978 220.749 48.3338 218.541 48.3338ZM218.509 41.0538C216.461 41.0538 215.533 42.1098 215.453 43.8378H221.421C221.421 43.7578 221.421 43.6778 221.421 43.5978C221.421 41.9338 220.365 41.0538 218.509 41.0538ZM228.72 48.1738H227.328L223.552 40.2698H224.784L227.984 47.0538H228.08L231.264 40.2698H232.496L228.72 48.1738ZM238.395 48.1738H237.259V37.4538H242.187C244.507 37.4538 246.139 38.7818 246.139 41.0698C246.139 43.3738 244.507 44.7018 242.187 44.7018H238.395V48.1738ZM242.091 38.4938H238.395V43.6618H242.091C243.979 43.6618 244.987 42.8938 244.987 41.0698C244.987 39.2778 243.979 38.4938 242.091 38.4938ZM248.856 48.1738H247.72V37.4538H248.856V42.6858H248.936C249.192 41.3578 250.216 40.1098 252.232 40.1098C254.44 40.1098 255.544 41.5818 255.544 43.5818V48.1738H254.408V43.7258C254.408 41.9178 253.56 41.1498 251.784 41.1498C249.672 41.1498 248.856 42.4938 248.856 44.4618V48.1738ZM259.967 48.3338C258.415 48.3338 257.359 47.5978 257.359 46.3178C257.359 45.0218 258.431 44.4618 259.903 44.3018L263.663 43.8858V43.2778C263.663 41.7418 262.991 41.1338 261.263 41.1338C259.567 41.1338 258.671 41.7418 258.671 43.1338V43.1978H257.535V43.1338C257.535 41.4698 258.911 40.1098 261.343 40.1098C263.743 40.1098 264.767 41.4858 264.767 43.2298V48.1738H263.743V46.0458H263.663C263.199 47.5018 261.807 48.3338 259.967 48.3338ZM258.495 46.2378C258.495 47.0378 259.023 47.4538 260.223 47.4538C262.143 47.4538 263.663 46.6058 263.663 44.7018V44.6378L260.255 45.0218C259.071 45.1338 258.495 45.4218 258.495 46.2378ZM270.458 48.3338C268.026 48.3338 266.618 47.3578 266.618 45.5338V45.5018H267.754V45.5978C267.754 46.9258 268.538 47.3898 270.474 47.3898C272.25 47.3898 272.858 46.9738 272.858 46.0618C272.858 45.2298 272.362 44.9578 271.05 44.7498L268.938 44.4458C267.498 44.2538 266.586 43.6938 266.586 42.3818C266.586 40.9898 267.914 40.1098 270.09 40.1098C272.362 40.1098 273.834 41.0698 273.834 42.9258V42.9578H272.698V42.8778C272.698 41.6938 272.074 41.0538 270.058 41.0538C268.394 41.0538 267.706 41.4538 267.706 42.3978C267.706 43.2138 268.122 43.5018 269.434 43.6938L271.37 43.9658C273.066 44.2058 273.978 44.7818 273.978 46.0618C273.978 47.5498 272.506 48.3338 270.458 48.3338ZM279.583 48.3338C277.039 48.3338 275.423 46.7338 275.423 44.2218C275.423 41.8218 277.023 40.1098 279.567 40.1098C281.887 40.1098 283.535 41.4538 283.535 43.8058C283.535 44.0938 283.503 44.3338 283.455 44.5418H276.495C276.559 46.3178 277.471 47.3898 279.567 47.3898C281.423 47.3898 282.287 46.7018 282.287 45.5498V45.4378H283.423V45.5498C283.423 47.1978 281.791 48.3338 279.583 48.3338ZM279.551 41.0538C277.503 41.0538 276.575 42.1098 276.495 43.8378H282.463C282.463 43.7578 282.463 43.6778 282.463 43.5978C282.463 41.9338 281.407 41.0538 279.551 41.0538ZM296.619 48.1738H288.683V37.4538H289.819V47.1338H296.619V48.1738ZM300.446 48.3338C298.894 48.3338 297.838 47.5978 297.838 46.3178C297.838 45.0218 298.91 44.4618 300.382 44.3018L304.142 43.8858V43.2778C304.142 41.7418 303.47 41.1338 301.742 41.1338C300.046 41.1338 299.15 41.7418 299.15 43.1338V43.1978H298.014V43.1338C298.014 41.4698 299.39 40.1098 301.822 40.1098C304.222 40.1098 305.246 41.4858 305.246 43.2298V48.1738H304.222V46.0458H304.142C303.678 47.5018 302.286 48.3338 300.446 48.3338ZM298.974 46.2378C298.974 47.0378 299.502 47.4538 300.702 47.4538C302.622 47.4538 304.142 46.6058 304.142 44.7018V44.6378L300.734 45.0218C299.55 45.1338 298.974 45.4218 298.974 46.2378ZM310.777 48.3338C308.521 48.3338 307.417 46.7658 307.417 44.8938V40.2698H308.553V44.7178C308.553 46.3658 309.353 47.3098 311.177 47.3098C313.113 47.3098 314.121 46.1418 314.121 44.1098V40.2698H315.257V48.1738H314.233V45.7098H314.153C313.881 47.0538 312.745 48.3338 310.777 48.3338ZM318.656 48.1738H317.52V40.2698H318.544V42.7498H318.624C318.896 41.4058 320.016 40.1098 321.984 40.1098C324.208 40.1098 325.312 41.6938 325.312 43.5658V48.1738H324.176V43.7258C324.176 42.0938 323.392 41.1498 321.584 41.1498C319.664 41.1498 318.656 42.3178 318.656 44.3498V48.1738ZM331.289 48.3338C328.761 48.3338 327.113 46.6218 327.113 44.2218C327.113 41.8218 328.761 40.1098 331.289 40.1098C333.497 40.1098 335.225 41.4218 335.225 43.3258V43.4538H334.105V43.3578C334.105 41.9498 333.081 41.1498 331.273 41.1498C329.161 41.1498 328.249 42.2858 328.249 44.2218C328.249 46.1578 329.161 47.2938 331.273 47.2938C333.081 47.2938 334.105 46.4938 334.105 45.0858V44.9898H335.225V45.1178C335.225 47.0218 333.497 48.3338 331.289 48.3338ZM338.235 48.1738H337.099V37.4538H338.235V42.6858H338.315C338.571 41.3578 339.595 40.1098 341.611 40.1098C343.819 40.1098 344.923 41.5818 344.923 43.5818V48.1738H343.787V43.7258C343.787 41.9178 342.939 41.1498 341.163 41.1498C339.051 41.1498 338.235 42.4938 338.235 44.4618V48.1738Z" fill="#EEEEEE"/>
<path d="M89.19 85.3238C86.325 85.3238 84.525 83.3888 84.525 80.1488C84.525 76.9238 86.325 74.9738 89.19 74.9738C92.04 74.9738 93.84 76.9238 93.84 80.1488C93.84 83.3888 92.04 85.3238 89.19 85.3238ZM89.19 84.3038C91.515 84.3038 92.715 82.9538 92.715 80.1488C92.715 77.3438 91.515 75.9938 89.19 75.9938C86.85 75.9938 85.65 77.3438 85.65 80.1488C85.65 82.9538 86.85 84.3038 89.19 84.3038ZM99.6061 85.3238C97.3111 85.3238 95.6311 84.1388 95.6311 82.1138V82.0088H96.7861V82.1138C96.7861 83.3588 97.5211 84.3038 99.6061 84.3038C102.126 84.3038 103.056 82.9088 103.056 80.1788V79.2638H102.951C102.591 80.4488 101.226 81.3488 99.2311 81.3488C96.7711 81.3488 95.3311 80.1338 95.3311 78.1988C95.3311 76.2338 96.8611 74.9738 99.5461 74.9738C102.771 74.9738 104.166 76.4588 104.166 80.1338C104.166 83.1938 102.711 85.3238 99.6061 85.3238ZM99.5611 80.5388C101.601 80.5388 102.846 79.6838 102.846 78.2438C102.846 76.7738 101.676 75.9938 99.5911 75.9938C97.4161 75.9938 96.4261 76.7438 96.4261 78.2738C96.4261 79.7588 97.3861 80.5388 99.5611 80.5388ZM106.909 79.8488H105.589V77.7638H106.909V79.8488ZM106.909 85.1738H105.589V83.0888H106.909V85.1738ZM112.54 85.3238C109.51 85.3238 108.22 83.8688 108.22 81.9788V81.7388H109.33V81.9338C109.33 83.5088 110.095 84.3038 112.51 84.3038C114.76 84.3038 115.66 83.6888 115.66 82.2638C115.66 80.9888 114.775 80.3888 113.245 80.3888H110.53V79.4738H113.02C114.535 79.4738 115.36 78.9188 115.36 77.7788C115.36 76.5788 114.625 75.9938 112.465 75.9938C110.17 75.9938 109.33 76.7888 109.33 78.3638V78.4988H108.22V78.3188C108.22 76.4588 109.555 74.9738 112.54 74.9738C115 74.9738 116.425 75.9488 116.425 77.6138C116.425 78.7388 115.765 79.5788 114.505 79.8038V79.9088C115.93 80.1788 116.74 81.0488 116.74 82.3838C116.74 84.2588 115.135 85.3238 112.54 85.3238ZM122.737 85.3238C119.872 85.3238 118.072 83.3888 118.072 80.1488C118.072 76.9238 119.872 74.9738 122.737 74.9738C125.587 74.9738 127.387 76.9238 127.387 80.1488C127.387 83.3888 125.587 85.3238 122.737 85.3238ZM122.737 84.3038C125.062 84.3038 126.262 82.9538 126.262 80.1488C126.262 77.3438 125.062 75.9938 122.737 75.9938C120.397 75.9938 119.197 77.3438 119.197 80.1488C119.197 82.9538 120.397 84.3038 122.737 84.3038ZM132.778 81.2588H128.698V80.3138H132.778V81.2588ZM137.143 85.1738H136.078V77.1788H133.708V76.3688H134.233C135.343 76.3688 135.883 76.0688 136.273 75.1238H137.143V85.1738ZM143.546 85.3238C140.681 85.3238 138.881 83.3888 138.881 80.1488C138.881 76.9238 140.681 74.9738 143.546 74.9738C146.396 74.9738 148.196 76.9238 148.196 80.1488C148.196 83.3888 146.396 85.3238 143.546 85.3238ZM143.546 84.3038C145.871 84.3038 147.071 82.9538 147.071 80.1488C147.071 77.3438 145.871 75.9938 143.546 75.9938C141.206 75.9938 140.006 77.3438 140.006 80.1488C140.006 82.9538 141.206 84.3038 143.546 84.3038ZM150.827 79.8488H149.507V77.7638H150.827V79.8488ZM150.827 85.1738H149.507V83.0888H150.827V85.1738ZM156.459 85.3238C153.429 85.3238 152.139 83.8688 152.139 81.9788V81.7388H153.249V81.9338C153.249 83.5088 154.014 84.3038 156.429 84.3038C158.679 84.3038 159.579 83.6888 159.579 82.2638C159.579 80.9888 158.694 80.3888 157.164 80.3888H154.449V79.4738H156.939C158.454 79.4738 159.279 78.9188 159.279 77.7788C159.279 76.5788 158.544 75.9938 156.384 75.9938C154.089 75.9938 153.249 76.7888 153.249 78.3638V78.4988H152.139V78.3188C152.139 76.4588 153.474 74.9738 156.459 74.9738C158.919 74.9738 160.344 75.9488 160.344 77.6138C160.344 78.7388 159.684 79.5788 158.424 79.8038V79.9088C159.849 80.1788 160.659 81.0488 160.659 82.3838C160.659 84.2588 159.054 85.3238 156.459 85.3238ZM166.655 85.3238C163.79 85.3238 161.99 83.3888 161.99 80.1488C161.99 76.9238 163.79 74.9738 166.655 74.9738C169.505 74.9738 171.305 76.9238 171.305 80.1488C171.305 83.3888 169.505 85.3238 166.655 85.3238ZM166.655 84.3038C168.98 84.3038 170.18 82.9538 170.18 80.1488C170.18 77.3438 168.98 75.9938 166.655 75.9938C164.315 75.9938 163.115 77.3438 163.115 80.1488C163.115 82.9538 164.315 84.3038 166.655 84.3038Z" fill="#257EE4"/>
<path d="M207.728 85.4844H206.592V75.8044H202.176V74.7644H212.128V75.8044H207.728V85.4844ZM217.369 85.6444C214.825 85.6444 213.209 84.0444 213.209 81.5324C213.209 79.1324 214.809 77.4204 217.353 77.4204C219.673 77.4204 221.321 78.7644 221.321 81.1164C221.321 81.4044 221.289 81.6444 221.241 81.8524H214.281C214.345 83.6284 215.257 84.7004 217.353 84.7004C219.209 84.7004 220.073 84.0124 220.073 82.8604V82.7484H221.209V82.8604C221.209 84.5084 219.577 85.6444 217.369 85.6444ZM217.337 78.3644C215.289 78.3644 214.361 79.4204 214.281 81.1484H220.249C220.249 81.0684 220.249 80.9884 220.249 80.9084C220.249 79.2444 219.193 78.3644 217.337 78.3644ZM226.956 85.6444C224.428 85.6444 222.78 83.9324 222.78 81.5324C222.78 79.1324 224.428 77.4204 226.956 77.4204C229.164 77.4204 230.892 78.7324 230.892 80.6364V80.7644H229.772V80.6684C229.772 79.2604 228.748 78.4604 226.94 78.4604C224.828 78.4604 223.916 79.5964 223.916 81.5324C223.916 83.4684 224.828 84.6044 226.94 84.6044C228.748 84.6044 229.772 83.8044 229.772 82.3964V82.3004H230.892V82.4284C230.892 84.3324 229.164 85.6444 226.956 85.6444ZM233.902 85.4844H232.766V74.7644H233.902V79.9964H233.982C234.238 78.6684 235.262 77.4204 237.278 77.4204C239.486 77.4204 240.59 78.8924 240.59 80.8924V85.4844H239.454V81.0364C239.454 79.2284 238.606 78.4604 236.83 78.4604C234.718 78.4604 233.902 79.8044 233.902 81.7724V85.4844ZM243.957 85.4844H242.821V77.5804H243.845V80.0604H243.925C244.197 78.7164 245.317 77.4204 247.285 77.4204C249.509 77.4204 250.613 79.0044 250.613 80.8764V85.4844H249.477V81.0364C249.477 79.4044 248.693 78.4604 246.885 78.4604C244.965 78.4604 243.957 79.6284 243.957 81.6604V85.4844ZM253.95 76.5724H252.814V74.7644H253.95V76.5724ZM253.95 85.4844H252.814V77.5804H253.95V85.4844ZM259.989 85.6444C257.461 85.6444 255.813 83.9324 255.813 81.5324C255.813 79.1324 257.461 77.4204 259.989 77.4204C262.197 77.4204 263.925 78.7324 263.925 80.6364V80.7644H262.805V80.6684C262.805 79.2604 261.781 78.4604 259.973 78.4604C257.861 78.4604 256.949 79.5964 256.949 81.5324C256.949 83.4684 257.861 84.6044 259.973 84.6044C261.781 84.6044 262.805 83.8044 262.805 82.3964V82.3004H263.925V82.4284C263.925 84.3324 262.197 85.6444 259.989 85.6444ZM267.991 85.6444C266.439 85.6444 265.383 84.9084 265.383 83.6284C265.383 82.3324 266.455 81.7724 267.927 81.6124L271.687 81.1964V80.5884C271.687 79.0524 271.015 78.4444 269.287 78.4444C267.591 78.4444 266.695 79.0524 266.695 80.4444V80.5084H265.559V80.4444C265.559 78.7804 266.935 77.4204 269.367 77.4204C271.767 77.4204 272.791 78.7964 272.791 80.5404V85.4844H271.767V83.3564H271.687C271.223 84.8124 269.831 85.6444 267.991 85.6444ZM266.519 83.5484C266.519 84.3484 267.047 84.7644 268.247 84.7644C270.167 84.7644 271.687 83.9164 271.687 82.0124V81.9484L268.279 82.3324C267.095 82.4444 266.519 82.7324 266.519 83.5484ZM276.146 85.4844H275.01V74.7644H276.146V85.4844ZM285.859 85.6444C282.707 85.6444 281.235 84.1404 281.235 82.0924V81.9964H282.387V82.2044C282.387 83.7404 283.347 84.5724 285.859 84.5724C288.003 84.5724 288.979 83.9804 288.979 82.7644C288.979 81.5644 288.259 81.1324 286.691 80.8124L284.419 80.3804C282.675 80.0444 281.283 79.3084 281.283 77.5324C281.283 76.0764 282.531 74.6044 285.603 74.6044C288.627 74.6044 289.971 76.2044 289.971 78.1564V78.2524H288.819V78.0604C288.819 76.5084 287.859 75.6764 285.523 75.6764C283.395 75.6764 282.435 76.2844 282.435 77.4524C282.435 78.6684 283.139 79.0364 284.723 79.3724L286.979 79.8204C288.899 80.1884 290.131 81.0044 290.131 82.6684C290.131 84.2044 288.835 85.6444 285.859 85.6444ZM295.717 85.6444C293.173 85.6444 291.557 84.0444 291.557 81.5324C291.557 79.1324 293.157 77.4204 295.701 77.4204C298.021 77.4204 299.669 78.7644 299.669 81.1164C299.669 81.4044 299.637 81.6444 299.589 81.8524H292.629C292.693 83.6284 293.605 84.7004 295.701 84.7004C297.557 84.7004 298.421 84.0124 298.421 82.8604V82.7484H299.557V82.8604C299.557 84.5084 297.925 85.6444 295.717 85.6444ZM295.685 78.3644C293.637 78.3644 292.709 79.4204 292.629 81.1484H298.597C298.597 81.0684 298.597 80.9884 298.597 80.9084C298.597 79.2444 297.541 78.3644 295.685 78.3644ZM306.376 85.4844H304.664C303.096 85.4844 302.088 84.8284 302.088 82.9724V78.5564H300.68V77.5804H302.088V75.6924H303.24V77.5804H306.376V78.5564H303.24V83.0364C303.24 84.1404 303.784 84.4444 304.936 84.4444H306.376V85.4844ZM311.285 85.6444C309.029 85.6444 307.925 84.0764 307.925 82.2044V77.5804H309.061V82.0284C309.061 83.6764 309.861 84.6204 311.685 84.6204C313.621 84.6204 314.629 83.4524 314.629 81.4204V77.5804H315.765V85.4844H314.741V83.0204H314.661C314.389 84.3644 313.253 85.6444 311.285 85.6444ZM319.165 88.2044H318.029V77.5804H319.053V79.8044H319.181C319.533 78.3804 320.717 77.4204 322.589 77.4204C325.053 77.4204 326.461 79.1324 326.461 81.5324C326.461 83.9324 325.069 85.6444 322.557 85.6444C320.813 85.6444 319.549 84.6844 319.181 83.1644H319.165V88.2044ZM319.165 81.6764C319.165 83.5484 320.397 84.6044 322.253 84.6044C324.093 84.6044 325.309 83.8204 325.309 81.5324C325.309 79.2444 324.077 78.4764 322.285 78.4764C320.317 78.4764 319.165 79.5804 319.165 81.5324V81.6764Z" fill="#EEEEEE"/>
<path d="M87.585 122.323H86.52V114.328H84.15V113.518H84.675C85.785 113.518 86.325 113.218 86.715 112.273H87.585V122.323ZM93.9878 122.473C91.1228 122.473 89.3228 120.538 89.3228 117.298C89.3228 114.073 91.1228 112.123 93.9878 112.123C96.8378 112.123 98.6378 114.073 98.6378 117.298C98.6378 120.538 96.8378 122.473 93.9878 122.473ZM93.9878 121.453C96.3128 121.453 97.5128 120.103 97.5128 117.298C97.5128 114.493 96.3128 113.143 93.9878 113.143C91.6478 113.143 90.4478 114.493 90.4478 117.298C90.4478 120.103 91.6478 121.453 93.9878 121.453ZM101.269 116.998H99.9489V114.913H101.269V116.998ZM101.269 122.323H99.9489V120.238H101.269V122.323ZM106.9 122.473C103.87 122.473 102.58 121.018 102.58 119.128V118.888H103.69V119.083C103.69 120.658 104.455 121.453 106.87 121.453C109.12 121.453 110.02 120.838 110.02 119.413C110.02 118.138 109.135 117.538 107.605 117.538H104.89V116.623H107.38C108.895 116.623 109.72 116.068 109.72 114.928C109.72 113.728 108.985 113.143 106.825 113.143C104.53 113.143 103.69 113.938 103.69 115.513V115.648H102.58V115.468C102.58 113.608 103.915 112.123 106.9 112.123C109.36 112.123 110.785 113.098 110.785 114.763C110.785 115.888 110.125 116.728 108.865 116.953V117.058C110.29 117.328 111.1 118.198 111.1 119.533C111.1 121.408 109.495 122.473 106.9 122.473ZM117.097 122.473C114.232 122.473 112.432 120.538 112.432 117.298C112.432 114.073 114.232 112.123 117.097 112.123C119.947 112.123 121.747 114.073 121.747 117.298C121.747 120.538 119.947 122.473 117.097 122.473ZM117.097 121.453C119.422 121.453 120.622 120.103 120.622 117.298C120.622 114.493 119.422 113.143 117.097 113.143C114.757 113.143 113.557 114.493 113.557 117.298C113.557 120.103 114.757 121.453 117.097 121.453ZM127.138 118.408H123.058V117.463H127.138V118.408ZM131.503 122.323H130.438V114.328H128.068V113.518H128.593C129.703 113.518 130.243 113.218 130.633 112.273H131.503V122.323ZM137.561 122.473C134.531 122.473 133.241 121.018 133.241 119.128V118.888H134.351V119.083C134.351 120.658 135.116 121.453 137.531 121.453C139.781 121.453 140.681 120.838 140.681 119.413C140.681 118.138 139.796 117.538 138.266 117.538H135.551V116.623H138.041C139.556 116.623 140.381 116.068 140.381 114.928C140.381 113.728 139.646 113.143 137.486 113.143C135.191 113.143 134.351 113.938 134.351 115.513V115.648H133.241V115.468C133.241 113.608 134.576 112.123 137.561 112.123C140.021 112.123 141.446 113.098 141.446 114.763C141.446 115.888 140.786 116.728 139.526 116.953V117.058C140.951 117.328 141.761 118.198 141.761 119.533C141.761 121.408 140.156 122.473 137.561 122.473ZM144.338 116.998H143.018V114.913H144.338V116.998ZM144.338 122.323H143.018V120.238H144.338V122.323ZM150.314 122.473C147.449 122.473 145.649 120.538 145.649 117.298C145.649 114.073 147.449 112.123 150.314 112.123C153.164 112.123 154.964 114.073 154.964 117.298C154.964 120.538 153.164 122.473 150.314 122.473ZM150.314 121.453C152.639 121.453 153.839 120.103 153.839 117.298C153.839 114.493 152.639 113.143 150.314 113.143C147.974 113.143 146.774 114.493 146.774 117.298C146.774 120.103 147.974 121.453 150.314 121.453ZM161.015 122.473C158.15 122.473 156.35 120.538 156.35 117.298C156.35 114.073 158.15 112.123 161.015 112.123C163.865 112.123 165.665 114.073 165.665 117.298C165.665 120.538 163.865 122.473 161.015 122.473ZM161.015 121.453C163.34 121.453 164.54 120.103 164.54 117.298C164.54 114.493 163.34 113.143 161.015 113.143C158.675 113.143 157.475 114.493 157.475 117.298C157.475 120.103 158.675 121.453 161.015 121.453Z" fill="#257EE4"/>
<path d="M207.648 121.795H202.992V111.075H207.648C210.864 111.075 212.912 113.155 212.912 116.435C212.912 119.715 210.864 121.795 207.648 121.795ZM207.648 112.115H204.144V120.755H207.648C210.368 120.755 211.712 119.347 211.712 116.435C211.712 113.523 210.368 112.115 207.648 112.115ZM218.541 121.955C215.997 121.955 214.381 120.355 214.381 117.843C214.381 115.443 215.981 113.731 218.525 113.731C220.845 113.731 222.493 115.075 222.493 117.427C222.493 117.715 222.461 117.955 222.413 118.163H215.453C215.517 119.939 216.429 121.011 218.525 121.011C220.381 121.011 221.245 120.323 221.245 119.171V119.059H222.381V119.171C222.381 120.819 220.749 121.955 218.541 121.955ZM218.509 114.675C216.461 114.675 215.533 115.731 215.453 117.459H221.421C221.421 117.379 221.421 117.299 221.421 117.219C221.421 115.555 220.365 114.675 218.509 114.675ZM228.72 121.795H227.328L223.552 113.891H224.784L227.984 120.675H228.08L231.264 113.891H232.496L228.72 121.795ZM241.419 121.955C238.267 121.955 236.795 120.451 236.795 118.403V118.307H237.947V118.515C237.947 120.051 238.907 120.883 241.419 120.883C243.563 120.883 244.539 120.291 244.539 119.075C244.539 117.875 243.819 117.443 242.251 117.123L239.979 116.691C238.235 116.355 236.843 115.619 236.843 113.843C236.843 112.387 238.091 110.915 241.163 110.915C244.187 110.915 245.531 112.515 245.531 114.467V114.563H244.379V114.371C244.379 112.819 243.419 111.987 241.083 111.987C238.955 111.987 237.995 112.595 237.995 113.763C237.995 114.979 238.699 115.347 240.283 115.683L242.539 116.131C244.459 116.499 245.691 117.315 245.691 118.979C245.691 120.515 244.395 121.955 241.419 121.955ZM248.653 124.515H247.517V113.891H248.541V116.115H248.669C249.021 114.691 250.205 113.731 252.077 113.731C254.541 113.731 255.949 115.443 255.949 117.843C255.949 120.243 254.557 121.955 252.045 121.955C250.301 121.955 249.037 120.995 248.669 119.475H248.653V124.515ZM248.653 117.987C248.653 119.859 249.885 120.915 251.741 120.915C253.581 120.915 254.797 120.131 254.797 117.843C254.797 115.555 253.565 114.787 251.773 114.787C249.805 114.787 248.653 115.891 248.653 117.843V117.987ZM258.833 121.795H257.697V113.891H258.721V116.051H258.801C259.041 114.787 259.937 113.731 261.585 113.731C263.409 113.731 264.209 115.075 264.209 116.547V117.331H263.073V116.723C263.073 115.379 262.513 114.723 261.137 114.723C259.537 114.723 258.833 115.731 258.833 117.507V121.795ZM267.013 112.883H265.877V111.075H267.013V112.883ZM267.013 121.795H265.877V113.891H267.013V121.795ZM270.412 121.795H269.276V113.891H270.3V116.371H270.38C270.652 115.027 271.772 113.731 273.74 113.731C275.964 113.731 277.068 115.315 277.068 117.187V121.795H275.932V117.347C275.932 115.715 275.148 114.771 273.34 114.771C271.42 114.771 270.412 115.939 270.412 117.971V121.795ZM284.117 121.795H282.405C280.837 121.795 279.829 121.139 279.829 119.283V114.867H278.421V113.891H279.829V112.003H280.981V113.891H284.117V114.867H280.981V119.347C280.981 120.451 281.525 120.755 282.677 120.755H284.117V121.795ZM291.868 121.795H290.732V113.267H288.204V112.403H288.764C289.948 112.403 290.524 112.083 290.94 111.075H291.868V121.795Z" fill="#EEEEEE"/>
<path d="M87.585 160H86.52V152.005H84.15V151.195H84.675C85.785 151.195 86.325 150.895 86.715 149.95H87.585V160ZM96.6878 160H95.6078V157.87H89.1728V157.09L95.4278 149.95H96.6878V156.895H98.5628V157.87H96.6878V160ZM90.6428 156.895H95.6078V151.24H95.5328L90.6428 156.805V156.895ZM101.034 154.675H99.7145V152.59H101.034V154.675ZM101.034 160H99.7145V157.915H101.034V160ZM107.011 160.15C104.146 160.15 102.346 158.215 102.346 154.975C102.346 151.75 104.146 149.8 107.011 149.8C109.861 149.8 111.661 151.75 111.661 154.975C111.661 158.215 109.861 160.15 107.011 160.15ZM107.011 159.13C109.336 159.13 110.536 157.78 110.536 154.975C110.536 152.17 109.336 150.82 107.011 150.82C104.671 150.82 103.471 152.17 103.471 154.975C103.471 157.78 104.671 159.13 107.011 159.13ZM117.712 160.15C114.847 160.15 113.047 158.215 113.047 154.975C113.047 151.75 114.847 149.8 117.712 149.8C120.562 149.8 122.362 151.75 122.362 154.975C122.362 158.215 120.562 160.15 117.712 160.15ZM117.712 159.13C120.037 159.13 121.237 157.78 121.237 154.975C121.237 152.17 120.037 150.82 117.712 150.82C115.372 150.82 114.172 152.17 114.172 154.975C114.172 157.78 115.372 159.13 117.712 159.13ZM127.753 156.085H123.673V155.14H127.753V156.085ZM132.119 160H131.054V152.005H128.684V151.195H129.209C130.319 151.195 130.859 150.895 131.249 149.95H132.119V160ZM138.161 160.15C135.416 160.15 133.721 159.19 133.721 157.27C133.721 156.025 134.591 155.065 136.241 154.735V154.63C134.786 154.435 133.991 153.55 133.991 152.41C133.991 150.865 135.416 149.8 138.161 149.8C140.921 149.8 142.331 150.865 142.331 152.41C142.331 153.55 141.536 154.435 140.081 154.63V154.735C141.761 155.065 142.601 156.025 142.601 157.27C142.601 159.19 140.891 160.15 138.161 160.15ZM138.161 154.375C140.291 154.375 141.266 153.79 141.266 152.605C141.266 151.495 140.516 150.82 138.161 150.82C135.821 150.82 135.056 151.495 135.056 152.605C135.056 153.79 136.031 154.375 138.161 154.375ZM138.161 159.13C140.546 159.13 141.521 158.53 141.521 157.105C141.521 155.8 140.516 155.14 138.161 155.14C135.806 155.14 134.801 155.8 134.801 157.105C134.801 158.53 135.761 159.13 138.161 159.13ZM145.085 154.675H143.765V152.59H145.085V154.675ZM145.085 160H143.765V157.915H145.085V160ZM151.061 160.15C148.196 160.15 146.396 158.215 146.396 154.975C146.396 151.75 148.196 149.8 151.061 149.8C153.911 149.8 155.711 151.75 155.711 154.975C155.711 158.215 153.911 160.15 151.061 160.15ZM151.061 159.13C153.386 159.13 154.586 157.78 154.586 154.975C154.586 152.17 153.386 150.82 151.061 150.82C148.721 150.82 147.521 152.17 147.521 154.975C147.521 157.78 148.721 159.13 151.061 159.13ZM161.762 160.15C158.897 160.15 157.097 158.215 157.097 154.975C157.097 151.75 158.897 149.8 161.762 149.8C164.612 149.8 166.412 151.75 166.412 154.975C166.412 158.215 164.612 160.15 161.762 160.15ZM161.762 159.13C164.087 159.13 165.287 157.78 165.287 154.975C165.287 152.17 164.087 150.82 161.762 150.82C159.422 150.82 158.222 152.17 158.222 154.975C158.222 157.78 159.422 159.13 161.762 159.13Z" fill="#257EE4"/>
<path d="M207.648 159.472H202.992V148.752H207.648C210.864 148.752 212.912 150.832 212.912 154.112C212.912 157.392 210.864 159.472 207.648 159.472ZM207.648 149.792H204.144V158.432H207.648C210.368 158.432 211.712 157.024 211.712 154.112C211.712 151.2 210.368 149.792 207.648 149.792ZM218.541 159.632C215.997 159.632 214.381 158.032 214.381 155.52C214.381 153.12 215.981 151.408 218.525 151.408C220.845 151.408 222.493 152.752 222.493 155.104C222.493 155.392 222.461 155.632 222.413 155.84H215.453C215.517 157.616 216.429 158.688 218.525 158.688C220.381 158.688 221.245 158 221.245 156.848V156.736H222.381V156.848C222.381 158.496 220.749 159.632 218.541 159.632ZM218.509 152.352C216.461 152.352 215.533 153.408 215.453 155.136H221.421C221.421 155.056 221.421 154.976 221.421 154.896C221.421 153.232 220.365 152.352 218.509 152.352ZM228.72 159.472H227.328L223.552 151.568H224.784L227.984 158.352H228.08L231.264 151.568H232.496L228.72 159.472ZM241.419 159.632C238.267 159.632 236.795 158.128 236.795 156.08V155.984H237.947V156.192C237.947 157.728 238.907 158.56 241.419 158.56C243.563 158.56 244.539 157.968 244.539 156.752C244.539 155.552 243.819 155.12 242.251 154.8L239.979 154.368C238.235 154.032 236.843 153.296 236.843 151.52C236.843 150.064 238.091 148.592 241.163 148.592C244.187 148.592 245.531 150.192 245.531 152.144V152.24H244.379V152.048C244.379 150.496 243.419 149.664 241.083 149.664C238.955 149.664 237.995 150.272 237.995 151.44C237.995 152.656 238.699 153.024 240.283 153.36L242.539 153.808C244.459 154.176 245.691 154.992 245.691 156.656C245.691 158.192 244.395 159.632 241.419 159.632ZM248.653 162.192H247.517V151.568H248.541V153.792H248.669C249.021 152.368 250.205 151.408 252.077 151.408C254.541 151.408 255.949 153.12 255.949 155.52C255.949 157.92 254.557 159.632 252.045 159.632C250.301 159.632 249.037 158.672 248.669 157.152H248.653V162.192ZM248.653 155.664C248.653 157.536 249.885 158.592 251.741 158.592C253.581 158.592 254.797 157.808 254.797 155.52C254.797 153.232 253.565 152.464 251.773 152.464C249.805 152.464 248.653 153.568 248.653 155.52V155.664ZM258.833 159.472H257.697V151.568H258.721V153.728H258.801C259.041 152.464 259.937 151.408 261.585 151.408C263.409 151.408 264.209 152.752 264.209 154.224V155.008H263.073V154.4C263.073 153.056 262.513 152.4 261.137 152.4C259.537 152.4 258.833 153.408 258.833 155.184V159.472ZM267.013 150.56H265.877V148.752H267.013V150.56ZM267.013 159.472H265.877V151.568H267.013V159.472ZM270.412 159.472H269.276V151.568H270.3V154.048H270.38C270.652 152.704 271.772 151.408 273.74 151.408C275.964 151.408 277.068 152.992 277.068 154.864V159.472H275.932V155.024C275.932 153.392 275.148 152.448 273.34 152.448C271.42 152.448 270.412 153.616 270.412 155.648V159.472ZM284.117 159.472H282.405C280.837 159.472 279.829 158.816 279.829 156.96V152.544H278.421V151.568H279.829V149.68H280.981V151.568H284.117V152.544H280.981V157.024C280.981 158.128 281.525 158.432 282.677 158.432H284.117V159.472ZM297.244 159.472H288.748V158.688C288.748 156.624 289.5 155.616 291.66 154.832L294.06 153.984C295.612 153.408 296.124 152.88 296.124 151.744C296.124 150.336 295.148 149.664 293.116 149.664C290.796 149.664 289.836 150.56 289.836 152.16V152.352H288.7V152.208C288.7 150.304 290.012 148.592 293.148 148.592C296.028 148.592 297.276 150.016 297.276 151.744C297.276 153.392 296.252 154.32 294.364 154.96L292.172 155.696C290.412 156.32 289.916 157.024 289.916 158.528L292.316 158.432H297.244V159.472Z" fill="#EEEEEE"/>
<path d="M87.585 197.678H86.52V189.683H84.15V188.873H84.675C85.785 188.873 86.325 188.573 86.715 187.628H87.585V197.678ZM93.7028 197.828C91.4078 197.828 89.7278 196.643 89.7278 194.618V194.513H90.8828V194.618C90.8828 195.863 91.6178 196.808 93.7028 196.808C96.2228 196.808 97.1528 195.413 97.1528 192.683V191.768H97.0478C96.6878 192.953 95.3228 193.853 93.3278 193.853C90.8678 193.853 89.4278 192.638 89.4278 190.703C89.4278 188.738 90.9578 187.478 93.6428 187.478C96.8678 187.478 98.2628 188.963 98.2628 192.638C98.2628 195.698 96.8078 197.828 93.7028 197.828ZM93.6578 193.043C95.6978 193.043 96.9428 192.188 96.9428 190.748C96.9428 189.278 95.7728 188.498 93.6878 188.498C91.5128 188.498 90.5228 189.248 90.5228 190.778C90.5228 192.263 91.4828 193.043 93.6578 193.043ZM101.005 192.353H99.6852V190.268H101.005V192.353ZM101.005 197.678H99.6852V195.593H101.005V197.678ZM106.982 197.828C104.117 197.828 102.317 195.893 102.317 192.653C102.317 189.428 104.117 187.478 106.982 187.478C109.832 187.478 111.632 189.428 111.632 192.653C111.632 195.893 109.832 197.828 106.982 197.828ZM106.982 196.808C109.307 196.808 110.507 195.458 110.507 192.653C110.507 189.848 109.307 188.498 106.982 188.498C104.642 188.498 103.442 189.848 103.442 192.653C103.442 195.458 104.642 196.808 106.982 196.808ZM117.683 197.828C114.818 197.828 113.018 195.893 113.018 192.653C113.018 189.428 114.818 187.478 117.683 187.478C120.533 187.478 122.333 189.428 122.333 192.653C122.333 195.893 120.533 197.828 117.683 197.828ZM117.683 196.808C120.008 196.808 121.208 195.458 121.208 192.653C121.208 189.848 120.008 188.498 117.683 188.498C115.343 188.498 114.143 189.848 114.143 192.653C114.143 195.458 115.343 196.808 117.683 196.808ZM127.724 193.763H123.644V192.818H127.724V193.763ZM137.129 197.678H129.164V196.943C129.164 195.008 129.869 194.063 131.894 193.328L134.144 192.533C135.599 191.993 136.079 191.498 136.079 190.433C136.079 189.113 135.164 188.483 133.259 188.483C131.084 188.483 130.184 189.323 130.184 190.823V191.003H129.119V190.868C129.119 189.083 130.349 187.478 133.289 187.478C135.989 187.478 137.159 188.813 137.159 190.433C137.159 191.978 136.199 192.848 134.429 193.448L132.374 194.138C130.724 194.723 130.259 195.383 130.259 196.793L132.509 196.703H137.129V197.678ZM143.209 197.828C140.344 197.828 138.544 195.893 138.544 192.653C138.544 189.428 140.344 187.478 143.209 187.478C146.059 187.478 147.859 189.428 147.859 192.653C147.859 195.893 146.059 197.828 143.209 197.828ZM143.209 196.808C145.534 196.808 146.734 195.458 146.734 192.653C146.734 189.848 145.534 188.498 143.209 188.498C140.869 188.498 139.669 189.848 139.669 192.653C139.669 195.458 140.869 196.808 143.209 196.808ZM150.49 192.353H149.17V190.268H150.49V192.353ZM150.49 197.678H149.17V195.593H150.49V197.678ZM156.122 197.828C153.092 197.828 151.802 196.373 151.802 194.483V194.243H152.912V194.438C152.912 196.013 153.677 196.808 156.092 196.808C158.342 196.808 159.242 196.193 159.242 194.768C159.242 193.493 158.357 192.893 156.827 192.893H154.112V191.978H156.602C158.117 191.978 158.942 191.423 158.942 190.283C158.942 189.083 158.207 188.498 156.047 188.498C153.752 188.498 152.912 189.293 152.912 190.868V191.003H151.802V190.823C151.802 188.963 153.137 187.478 156.122 187.478C158.582 187.478 160.007 188.453 160.007 190.118C160.007 191.243 159.347 192.083 158.087 192.308V192.413C159.512 192.683 160.322 193.553 160.322 194.888C160.322 196.763 158.717 197.828 156.122 197.828ZM166.318 197.828C163.453 197.828 161.653 195.893 161.653 192.653C161.653 189.428 163.453 187.478 166.318 187.478C169.168 187.478 170.968 189.428 170.968 192.653C170.968 195.893 169.168 197.828 166.318 197.828ZM166.318 196.808C168.643 196.808 169.843 195.458 169.843 192.653C169.843 189.848 168.643 188.498 166.318 188.498C163.978 188.498 162.778 189.848 162.778 192.653C162.778 195.458 163.978 196.808 166.318 196.808Z" fill="#257EE4"/>
<path d="M207.056 197.149H205.36L202.256 186.429H203.52L205.648 193.821L206.208 196.013H206.304L206.944 193.821L209.44 186.429H211.04L213.792 193.821L214.512 196.013H214.592L215.088 193.821L216.96 186.429H218.208L215.44 197.149H213.744L211.136 190.173L210.288 187.677H210.176L209.424 190.173L207.056 197.149ZM223.668 197.309C221.092 197.309 219.38 195.597 219.38 193.197C219.38 190.797 221.092 189.085 223.668 189.085C226.26 189.085 227.972 190.797 227.972 193.197C227.972 195.597 226.26 197.309 223.668 197.309ZM223.668 196.285C225.844 196.285 226.852 195.117 226.852 193.197C226.852 191.293 225.844 190.109 223.668 190.109C221.492 190.109 220.5 191.293 220.5 193.197C220.5 195.117 221.492 196.285 223.668 196.285ZM230.972 197.149H229.836V189.245H230.86V191.405H230.94C231.18 190.141 232.076 189.085 233.724 189.085C235.548 189.085 236.348 190.429 236.348 191.901V192.685H235.212V192.077C235.212 190.733 234.652 190.077 233.276 190.077C231.676 190.077 230.972 191.085 230.972 192.861V197.149ZM239.152 197.149H238.016V186.429H239.152V192.557H241.808L244.448 189.245H245.792L242.736 193.021L245.776 197.149H244.448L241.792 193.597H239.152V197.149ZM250.715 197.309C248.283 197.309 246.875 196.333 246.875 194.509V194.477H248.011V194.573C248.011 195.901 248.795 196.365 250.731 196.365C252.507 196.365 253.115 195.949 253.115 195.037C253.115 194.205 252.619 193.933 251.307 193.725L249.195 193.421C247.755 193.229 246.843 192.669 246.843 191.357C246.843 189.965 248.171 189.085 250.347 189.085C252.619 189.085 254.091 190.045 254.091 191.901V191.933H252.955V191.853C252.955 190.669 252.331 190.029 250.315 190.029C248.651 190.029 247.963 190.429 247.963 191.373C247.963 192.189 248.379 192.477 249.691 192.669L251.627 192.941C253.323 193.181 254.235 193.757 254.235 195.037C254.235 196.525 252.763 197.309 250.715 197.309ZM257.215 197.149H256.079V186.429H257.215V191.661H257.295C257.551 190.333 258.575 189.085 260.591 189.085C262.799 189.085 263.903 190.557 263.903 192.557V197.149H262.767V192.701C262.767 190.893 261.919 190.125 260.143 190.125C258.031 190.125 257.215 191.469 257.215 193.437V197.149ZM270.006 197.309C267.43 197.309 265.718 195.597 265.718 193.197C265.718 190.797 267.43 189.085 270.006 189.085C272.598 189.085 274.311 190.797 274.311 193.197C274.311 195.597 272.598 197.309 270.006 197.309ZM270.006 196.285C272.182 196.285 273.191 195.117 273.191 193.197C273.191 191.293 272.182 190.109 270.006 190.109C267.83 190.109 266.838 191.293 266.838 193.197C266.838 195.117 267.83 196.285 270.006 196.285ZM277.31 199.869H276.174V189.245H277.198V191.469H277.326C277.678 190.045 278.862 189.085 280.734 189.085C283.198 189.085 284.606 190.797 284.606 193.197C284.606 195.597 283.214 197.309 280.702 197.309C278.958 197.309 277.694 196.349 277.326 194.829H277.31V199.869ZM277.31 193.341C277.31 195.213 278.542 196.269 280.398 196.269C282.238 196.269 283.454 195.485 283.454 193.197C283.454 190.909 282.222 190.141 280.43 190.141C278.462 190.141 277.31 191.245 277.31 193.197V193.341ZM292.508 197.149H291.372V188.621H288.844V187.757H289.404C290.588 187.757 291.164 187.437 291.58 186.429H292.508V197.149Z" fill="#EEEEEE"/>
<path d="M191.75 251.5L190.557 254H193.443L192.25 251.5H191.75ZM192.25 2.5L193.443 0H190.557L191.75 2.5H192.25ZM192 251.75H192.25L192.25 2.25H192H191.75L191.75 251.75H192Z" fill="#257EE4"/>
<defs>
<linearGradient id="paint0_linear_54_664" x1="189" y1="0" x2="189" y2="214" gradientUnits="userSpaceOnUse">
<stop stop-color="white" stop-opacity="0"/>
<stop offset="1" stop-color="#257EE4" stop-opacity="0.08"/>
</linearGradient>
</defs>
</svg>
