<svg width="378" height="198" viewBox="0 0 378 198" fill="none" xmlns="http://www.w3.org/2000/svg">
<path d="M204.5 157.75L202 156.557V159.443L204.5 158.25V157.75ZM305.5 158.25L308 159.443V156.557L305.5 157.75V158.25ZM204.25 158V158.25H305.75V158V157.75H204.25V158Z" fill="#FF595A"/>
<rect x="324.829" y="0.0165764" width="1.62449" height="1.62449" transform="rotate(90 324.829 0.0165764)" fill="#F93D3E" stroke="#F93D3E" stroke-width="0.0331528"/>
<rect x="323.172" y="0.0165764" width="1.62449" height="1.62449" transform="rotate(90 323.172 0.0165764)" fill="#F93D3E" stroke="#F93D3E" stroke-width="0.0331528"/>
<rect x="321.514" y="0.0165764" width="1.62449" height="1.62449" transform="rotate(90 321.514 0.0165764)" fill="#F93D3E" stroke="#F93D3E" stroke-width="0.0331528"/>
<rect x="319.856" y="0.0165764" width="1.62449" height="1.62449" transform="rotate(90 319.856 0.0165764)" fill="#F93D3E" stroke="#F93D3E" stroke-width="0.0331528"/>
<rect x="318.198" y="0.0165764" width="1.62449" height="1.62449" transform="rotate(90 318.198 0.0165764)" fill="#F93D3E" stroke="#F93D3E" stroke-width="0.0331528"/>
<rect x="316.541" y="0.0165764" width="1.62449" height="1.62449" transform="rotate(90 316.541 0.0165764)" fill="#F93D3E" stroke="#F93D3E" stroke-width="0.0331528"/>
<rect x="314.883" y="0.0165764" width="1.62449" height="1.62449" transform="rotate(90 314.883 0.0165764)" fill="#F93D3E" stroke="#F93D3E" stroke-width="0.0331528"/>
<rect x="313.226" y="0.0165764" width="1.62449" height="1.62449" transform="rotate(90 313.226 0.0165764)" fill="#F93D3E" stroke="#F93D3E" stroke-width="0.0331528"/>
<rect x="326.486" y="1.6738" width="1.62449" height="1.62449" transform="rotate(90 326.486 1.6738)" fill="#F93D3E" stroke="#F93D3E" stroke-width="0.0331528"/>
<rect x="324.829" y="1.6738" width="1.62449" height="1.62449" transform="rotate(90 324.829 1.6738)" fill="#F93D3E" stroke="#F93D3E" stroke-width="0.0331528"/>
<rect x="323.171" y="1.6738" width="1.62449" height="1.62449" transform="rotate(90 323.171 1.6738)" fill="#F93D3E" stroke="#F93D3E" stroke-width="0.0331528"/>
<rect x="321.514" y="1.6738" width="1.62449" height="1.62449" transform="rotate(90 321.514 1.6738)" fill="#F93D3E" stroke="#F93D3E" stroke-width="0.0331528"/>
<rect x="319.855" y="1.6738" width="1.62449" height="1.62449" transform="rotate(90 319.855 1.6738)" fill="#F93D3E" stroke="#F93D3E" stroke-width="0.0331528"/>
<rect x="318.198" y="1.6738" width="1.62449" height="1.62449" transform="rotate(90 318.198 1.6738)" fill="#F93D3E" stroke="#F93D3E" stroke-width="0.0331528"/>
<rect x="316.54" y="1.6738" width="1.62449" height="1.62449" transform="rotate(90 316.54 1.6738)" fill="#F93D3E" stroke="#F93D3E" stroke-width="0.0331528"/>
<rect x="314.883" y="1.6738" width="1.62449" height="1.62449" transform="rotate(90 314.883 1.6738)" fill="#F93D3E" stroke="#F93D3E" stroke-width="0.0331528"/>
<rect x="313.226" y="1.6738" width="1.62449" height="1.62449" transform="rotate(90 313.226 1.6738)" fill="#F93D3E" stroke="#F93D3E" stroke-width="0.0331528"/>
<rect x="311.567" y="1.6738" width="1.62449" height="1.62449" transform="rotate(90 311.567 1.6738)" fill="#F93D3E" stroke="#F93D3E" stroke-width="0.0331528"/>
<rect x="326.486" y="3.33201" width="1.62449" height="1.62449" transform="rotate(90 326.486 3.33201)" fill="#F93D3E" stroke="#F93D3E" stroke-width="0.0331528"/>
<rect x="324.829" y="3.33201" width="1.62449" height="1.62449" transform="rotate(90 324.829 3.33201)" fill="#F93D3E" stroke="#F93D3E" stroke-width="0.0331528"/>
<rect x="323.171" y="3.33201" width="1.62449" height="1.62449" transform="rotate(90 323.171 3.33201)" fill="#F93D3E" stroke="#F93D3E" stroke-width="0.0331528"/>
<rect x="321.514" y="3.33201" width="1.62449" height="1.62449" transform="rotate(90 321.514 3.33201)" fill="#F93D3E" stroke="#F93D3E" stroke-width="0.0331528"/>
<rect x="319.855" y="3.33201" width="1.62449" height="1.62449" transform="rotate(90 319.855 3.33201)" fill="#F93D3E" stroke="#F93D3E" stroke-width="0.0331528"/>
<rect x="318.198" y="3.33201" width="1.62449" height="1.62449" transform="rotate(90 318.198 3.33201)" fill="#F93D3E" stroke="#F93D3E" stroke-width="0.0331528"/>
<rect x="316.54" y="3.33201" width="1.62449" height="1.62449" transform="rotate(90 316.54 3.33201)" fill="#F93D3E" stroke="#F93D3E" stroke-width="0.0331528"/>
<rect x="314.883" y="3.33201" width="1.62449" height="1.62449" transform="rotate(90 314.883 3.33201)" stroke="#F93D3E" stroke-width="0.0331528"/>
<rect x="313.226" y="3.33201" width="1.62449" height="1.62449" transform="rotate(90 313.226 3.33201)" fill="#F93D3E" stroke="#F93D3E" stroke-width="0.0331528"/>
<rect x="311.567" y="3.33201" width="1.62449" height="1.62449" transform="rotate(90 311.567 3.33201)" fill="#F93D3E" stroke="#F93D3E" stroke-width="0.0331528"/>
<rect x="326.486" y="4.98923" width="1.62449" height="1.62449" transform="rotate(90 326.486 4.98923)" fill="#F93D3E" stroke="#F93D3E" stroke-width="0.0331528"/>
<rect x="324.829" y="4.98923" width="1.62449" height="1.62449" transform="rotate(90 324.829 4.98923)" fill="#F93D3E" stroke="#F93D3E" stroke-width="0.0331528"/>
<rect x="323.171" y="4.98923" width="1.62449" height="1.62449" transform="rotate(90 323.171 4.98923)" fill="#F93D3E" stroke="#F93D3E" stroke-width="0.0331528"/>
<rect x="321.514" y="4.98923" width="1.62449" height="1.62449" transform="rotate(90 321.514 4.98923)" fill="#F93D3E" stroke="#F93D3E" stroke-width="0.0331528"/>
<rect x="319.855" y="4.98923" width="1.62449" height="1.62449" transform="rotate(90 319.855 4.98923)" fill="#F93D3E" stroke="#F93D3E" stroke-width="0.0331528"/>
<rect x="318.198" y="4.98923" width="1.62449" height="1.62449" transform="rotate(90 318.198 4.98923)" fill="#F93D3E" stroke="#F93D3E" stroke-width="0.0331528"/>
<rect x="316.54" y="4.98923" width="1.62449" height="1.62449" transform="rotate(90 316.54 4.98923)" fill="#F93D3E" stroke="#F93D3E" stroke-width="0.0331528"/>
<rect x="314.883" y="4.98923" width="1.62449" height="1.62449" transform="rotate(90 314.883 4.98923)" fill="#F93D3E" stroke="#F93D3E" stroke-width="0.0331528"/>
<rect x="313.226" y="4.98923" width="1.62449" height="1.62449" transform="rotate(90 313.226 4.98923)" fill="#F93D3E" stroke="#F93D3E" stroke-width="0.0331528"/>
<rect x="311.567" y="4.98923" width="1.62449" height="1.62449" transform="rotate(90 311.567 4.98923)" fill="#F93D3E" stroke="#F93D3E" stroke-width="0.0331528"/>
<rect x="326.486" y="6.64744" width="1.62449" height="1.62449" transform="rotate(90 326.486 6.64744)" fill="#F93D3E" stroke="#F93D3E" stroke-width="0.0331528"/>
<rect x="324.829" y="6.64744" width="1.62449" height="1.62449" transform="rotate(90 324.829 6.64744)" fill="#F93D3E" stroke="#F93D3E" stroke-width="0.0331528"/>
<rect x="323.171" y="6.64744" width="1.62449" height="1.62449" transform="rotate(90 323.171 6.64744)" fill="#F93D3E" stroke="#F93D3E" stroke-width="0.0331528"/>
<rect x="321.514" y="6.64744" width="1.62449" height="1.62449" transform="rotate(90 321.514 6.64744)" fill="#F93D3E" stroke="#F93D3E" stroke-width="0.0331528"/>
<rect x="319.855" y="6.64744" width="1.62449" height="1.62449" transform="rotate(90 319.855 6.64744)" fill="#F93D3E" stroke="#F93D3E" stroke-width="0.0331528"/>
<rect x="318.198" y="6.64744" width="1.62449" height="1.62449" transform="rotate(90 318.198 6.64744)" fill="#F93D3E" stroke="#F93D3E" stroke-width="0.0331528"/>
<rect x="316.54" y="6.64744" width="1.62449" height="1.62449" transform="rotate(90 316.54 6.64744)" fill="#F93D3E" stroke="#F93D3E" stroke-width="0.0331528"/>
<rect x="314.883" y="6.64744" width="1.62449" height="1.62449" transform="rotate(90 314.883 6.64744)" fill="#F93D3E" stroke="#F93D3E" stroke-width="0.0331528"/>
<rect x="313.226" y="6.64744" width="1.62449" height="1.62449" transform="rotate(90 313.226 6.64744)" fill="#F93D3E" stroke="#F93D3E" stroke-width="0.0331528"/>
<rect x="311.567" y="6.64744" width="1.62449" height="1.62449" transform="rotate(90 311.567 6.64744)" fill="#F93D3E" stroke="#F93D3E" stroke-width="0.0331528"/>
<rect x="318.198" y="8.30466" width="1.62449" height="1.62449" transform="rotate(90 318.198 8.30466)" fill="#F93D3E" stroke="#F93D3E" stroke-width="0.0331528"/>
<rect x="316.54" y="8.30466" width="1.62449" height="1.62449" transform="rotate(90 316.54 8.30466)" fill="#F93D3E" stroke="#F93D3E" stroke-width="0.0331528"/>
<rect x="314.883" y="8.30466" width="1.62449" height="1.62449" transform="rotate(90 314.883 8.30466)" fill="#F93D3E" stroke="#F93D3E" stroke-width="0.0331528"/>
<rect x="313.226" y="8.30466" width="1.62449" height="1.62449" transform="rotate(90 313.226 8.30466)" fill="#F93D3E" stroke="#F93D3E" stroke-width="0.0331528"/>
<rect x="311.567" y="8.30466" width="1.62449" height="1.62449" transform="rotate(90 311.567 8.30466)" fill="#F93D3E" stroke="#F93D3E" stroke-width="0.0331528"/>
<rect x="323.171" y="9.96287" width="1.62449" height="1.62449" transform="rotate(90 323.171 9.96287)" fill="#F93D3E" stroke="#F93D3E" stroke-width="0.0331528"/>
<rect x="321.514" y="9.96287" width="1.62449" height="1.62449" transform="rotate(90 321.514 9.96287)" fill="#F93D3E" stroke="#F93D3E" stroke-width="0.0331528"/>
<rect x="319.855" y="9.96287" width="1.62449" height="1.62449" transform="rotate(90 319.855 9.96287)" fill="#F93D3E" stroke="#F93D3E" stroke-width="0.0331528"/>
<rect x="318.198" y="9.96287" width="1.62449" height="1.62449" transform="rotate(90 318.198 9.96287)" fill="#F93D3E" stroke="#F93D3E" stroke-width="0.0331528"/>
<rect x="316.54" y="9.96287" width="1.62449" height="1.62449" transform="rotate(90 316.54 9.96287)" fill="#F93D3E" stroke="#F93D3E" stroke-width="0.0331528"/>
<rect x="314.883" y="9.96287" width="1.62449" height="1.62449" transform="rotate(90 314.883 9.96287)" fill="#F93D3E" stroke="#F93D3E" stroke-width="0.0331528"/>
<rect x="313.226" y="9.96287" width="1.62449" height="1.62449" transform="rotate(90 313.226 9.96287)" fill="#F93D3E" stroke="#F93D3E" stroke-width="0.0331528"/>
<rect x="311.567" y="9.96287" width="1.62449" height="1.62449" transform="rotate(90 311.567 9.96287)" fill="#F93D3E" stroke="#F93D3E" stroke-width="0.0331528"/>
<rect x="316.542" y="11.6201" width="1.62449" height="1.62449" transform="rotate(90 316.542 11.6201)" fill="#F93D3E" stroke="#F93D3E" stroke-width="0.0331528"/>
<rect x="314.884" y="11.6201" width="1.62449" height="1.62449" transform="rotate(90 314.884 11.6201)" fill="#F93D3E" stroke="#F93D3E" stroke-width="0.0331528"/>
<rect x="313.227" y="11.6201" width="1.62449" height="1.62449" transform="rotate(90 313.227 11.6201)" fill="#F93D3E" stroke="#F93D3E" stroke-width="0.0331528"/>
<rect x="311.569" y="11.6201" width="1.62449" height="1.62449" transform="rotate(90 311.569 11.6201)" fill="#F93D3E" stroke="#F93D3E" stroke-width="0.0331528"/>
<rect x="309.911" y="11.6201" width="1.62449" height="1.62449" transform="rotate(90 309.911 11.6201)" fill="#F93D3E" stroke="#F93D3E" stroke-width="0.0331528"/>
<rect x="316.542" y="13.2773" width="1.62449" height="1.62449" transform="rotate(90 316.542 13.2773)" fill="#F93D3E" stroke="#F93D3E" stroke-width="0.0331528"/>
<rect x="314.884" y="13.2773" width="1.62449" height="1.62449" transform="rotate(90 314.884 13.2773)" fill="#F93D3E" stroke="#F93D3E" stroke-width="0.0331528"/>
<rect x="313.227" y="13.2773" width="1.62449" height="1.62449" transform="rotate(90 313.227 13.2773)" fill="#F93D3E" stroke="#F93D3E" stroke-width="0.0331528"/>
<rect x="311.569" y="13.2773" width="1.62449" height="1.62449" transform="rotate(90 311.569 13.2773)" fill="#F93D3E" stroke="#F93D3E" stroke-width="0.0331528"/>
<rect x="309.911" y="13.2773" width="1.62449" height="1.62449" transform="rotate(90 309.911 13.2773)" fill="#F93D3E" stroke="#F93D3E" stroke-width="0.0331528"/>
<rect x="308.254" y="13.2773" width="1.62449" height="1.62449" transform="rotate(90 308.254 13.2773)" fill="#F93D3E" stroke="#F93D3E" stroke-width="0.0331528"/>
<rect x="319.857" y="14.9355" width="1.62449" height="1.62449" transform="rotate(90 319.857 14.9355)" fill="#F93D3E" stroke="#F93D3E" stroke-width="0.0331528"/>
<rect x="318.2" y="14.9355" width="1.62449" height="1.62449" transform="rotate(90 318.2 14.9355)" fill="#F93D3E" stroke="#F93D3E" stroke-width="0.0331528"/>
<rect x="316.542" y="14.9355" width="1.62449" height="1.62449" transform="rotate(90 316.542 14.9355)" fill="#F93D3E" stroke="#F93D3E" stroke-width="0.0331528"/>
<rect x="314.885" y="14.9355" width="1.62449" height="1.62449" transform="rotate(90 314.885 14.9355)" fill="#F93D3E" stroke="#F93D3E" stroke-width="0.0331528"/>
<rect x="313.227" y="14.9355" width="1.62449" height="1.62449" transform="rotate(90 313.227 14.9355)" fill="#F93D3E" stroke="#F93D3E" stroke-width="0.0331528"/>
<rect x="311.569" y="14.9355" width="1.62449" height="1.62449" transform="rotate(90 311.569 14.9355)" fill="#F93D3E" stroke="#F93D3E" stroke-width="0.0331528"/>
<rect x="309.911" y="14.9355" width="1.62449" height="1.62449" transform="rotate(90 309.911 14.9355)" fill="#F93D3E" stroke="#F93D3E" stroke-width="0.0331528"/>
<rect x="308.254" y="14.9355" width="1.62449" height="1.62449" transform="rotate(90 308.254 14.9355)" fill="#F93D3E" stroke="#F93D3E" stroke-width="0.0331528"/>
<rect x="306.597" y="14.9355" width="1.62449" height="1.62449" transform="rotate(90 306.597 14.9355)" fill="#F93D3E" stroke="#F93D3E" stroke-width="0.0331528"/>
<rect x="304.939" y="14.9355" width="1.62449" height="1.62449" transform="rotate(90 304.939 14.9355)" fill="#F93D3E" stroke="#F93D3E" stroke-width="0.0331528"/>
<rect x="319.857" y="16.5927" width="1.62449" height="1.62449" transform="rotate(90 319.857 16.5927)" fill="#F93D3E" stroke="#F93D3E" stroke-width="0.0331528"/>
<rect x="316.542" y="16.5927" width="1.62449" height="1.62449" transform="rotate(90 316.542 16.5927)" fill="#F93D3E" stroke="#F93D3E" stroke-width="0.0331528"/>
<rect x="314.885" y="16.5927" width="1.62449" height="1.62449" transform="rotate(90 314.885 16.5927)" fill="#F93D3E" stroke="#F93D3E" stroke-width="0.0331528"/>
<rect x="313.227" y="16.5927" width="1.62449" height="1.62449" transform="rotate(90 313.227 16.5927)" fill="#F93D3E" stroke="#F93D3E" stroke-width="0.0331528"/>
<rect x="311.569" y="16.5927" width="1.62449" height="1.62449" transform="rotate(90 311.569 16.5927)" fill="#F93D3E" stroke="#F93D3E" stroke-width="0.0331528"/>
<rect x="309.911" y="16.5927" width="1.62449" height="1.62449" transform="rotate(90 309.911 16.5927)" fill="#F93D3E" stroke="#F93D3E" stroke-width="0.0331528"/>
<rect x="308.254" y="16.5927" width="1.62449" height="1.62449" transform="rotate(90 308.254 16.5927)" fill="#F93D3E" stroke="#F93D3E" stroke-width="0.0331528"/>
<rect x="306.597" y="16.5927" width="1.62449" height="1.62449" transform="rotate(90 306.597 16.5927)" fill="#F93D3E" stroke="#F93D3E" stroke-width="0.0331528"/>
<rect x="304.939" y="16.5927" width="1.62449" height="1.62449" transform="rotate(90 304.939 16.5927)" fill="#F93D3E" stroke="#F93D3E" stroke-width="0.0331528"/>
<rect x="303.281" y="16.5927" width="1.62449" height="1.62449" transform="rotate(90 303.281 16.5927)" fill="#F93D3E" stroke="#F93D3E" stroke-width="0.0331528"/>
<rect x="316.542" y="18.251" width="1.62449" height="1.62449" transform="rotate(90 316.542 18.251)" fill="#F93D3E" stroke="#F93D3E" stroke-width="0.0331528"/>
<rect x="314.885" y="18.251" width="1.62449" height="1.62449" transform="rotate(90 314.885 18.251)" fill="#F93D3E" stroke="#F93D3E" stroke-width="0.0331528"/>
<rect x="313.227" y="18.251" width="1.62449" height="1.62449" transform="rotate(90 313.227 18.251)" fill="#F93D3E" stroke="#F93D3E" stroke-width="0.0331528"/>
<rect x="311.569" y="18.251" width="1.62449" height="1.62449" transform="rotate(90 311.569 18.251)" fill="#F93D3E" stroke="#F93D3E" stroke-width="0.0331528"/>
<rect x="309.911" y="18.251" width="1.62449" height="1.62449" transform="rotate(90 309.911 18.251)" fill="#F93D3E" stroke="#F93D3E" stroke-width="0.0331528"/>
<rect x="308.254" y="18.251" width="1.62449" height="1.62449" transform="rotate(90 308.254 18.251)" fill="#F93D3E" stroke="#F93D3E" stroke-width="0.0331528"/>
<rect x="306.596" y="18.251" width="1.62449" height="1.62449" transform="rotate(90 306.596 18.251)" fill="#F93D3E" stroke="#F93D3E" stroke-width="0.0331528"/>
<rect x="304.939" y="18.251" width="1.62449" height="1.62449" transform="rotate(90 304.939 18.251)" fill="#F93D3E" stroke="#F93D3E" stroke-width="0.0331528"/>
<rect x="303.281" y="18.251" width="1.62449" height="1.62449" transform="rotate(90 303.281 18.251)" fill="#F93D3E" stroke="#F93D3E" stroke-width="0.0331528"/>
<rect x="301.623" y="18.251" width="1.62449" height="1.62449" transform="rotate(90 301.623 18.251)" fill="#F93D3E" stroke="#F93D3E" stroke-width="0.0331528"/>
<rect x="299.966" y="18.251" width="1.62449" height="1.62449" transform="rotate(90 299.966 18.251)" fill="#F93D3E" stroke="#F93D3E" stroke-width="0.0331528"/>
<rect x="298.308" y="18.251" width="1.62449" height="1.62449" transform="rotate(90 298.308 18.251)" fill="#F93D3E" stroke="#F93D3E" stroke-width="0.0331528"/>
<rect x="296.65" y="18.251" width="1.62449" height="1.62449" transform="rotate(90 296.65 18.251)" fill="#F93D3E" stroke="#F93D3E" stroke-width="0.0331528"/>
<rect x="316.561" y="19.9082" width="1.62449" height="1.62449" transform="rotate(90 316.561 19.9082)" fill="#F93D3E" stroke="#F93D3E" stroke-width="0.0331528"/>
<rect x="314.903" y="19.9082" width="1.62449" height="1.62449" transform="rotate(90 314.903 19.9082)" fill="#F93D3E" stroke="#F93D3E" stroke-width="0.0331528"/>
<rect x="313.245" y="19.9082" width="1.62449" height="1.62449" transform="rotate(90 313.245 19.9082)" fill="#F93D3E" stroke="#F93D3E" stroke-width="0.0331528"/>
<rect x="311.588" y="19.9082" width="1.62449" height="1.62449" transform="rotate(90 311.588 19.9082)" fill="#F93D3E" stroke="#F93D3E" stroke-width="0.0331528"/>
<rect x="309.93" y="19.9082" width="1.62449" height="1.62449" transform="rotate(90 309.93 19.9082)" fill="#F93D3E" stroke="#F93D3E" stroke-width="0.0331528"/>
<rect x="308.272" y="19.9082" width="1.62449" height="1.62449" transform="rotate(90 308.272 19.9082)" fill="#F93D3E" stroke="#F93D3E" stroke-width="0.0331528"/>
<rect x="306.614" y="19.9082" width="1.62449" height="1.62449" transform="rotate(90 306.614 19.9082)" fill="#F93D3E" stroke="#F93D3E" stroke-width="0.0331528"/>
<rect x="304.957" y="19.9082" width="1.62449" height="1.62449" transform="rotate(90 304.957 19.9082)" fill="#F93D3E" stroke="#F93D3E" stroke-width="0.0331528"/>
<rect x="303.3" y="19.9082" width="1.62449" height="1.62449" transform="rotate(90 303.3 19.9082)" fill="#F93D3E" stroke="#F93D3E" stroke-width="0.0331528"/>
<rect x="301.642" y="19.9082" width="1.62449" height="1.62449" transform="rotate(90 301.642 19.9082)" fill="#F93D3E" stroke="#F93D3E" stroke-width="0.0331528"/>
<rect x="299.984" y="19.9082" width="1.62449" height="1.62449" transform="rotate(90 299.984 19.9082)" fill="#F93D3E" stroke="#F93D3E" stroke-width="0.0331528"/>
<rect x="298.326" y="19.9082" width="1.62449" height="1.62449" transform="rotate(90 298.326 19.9082)" fill="#F93D3E" stroke="#F93D3E" stroke-width="0.0331528"/>
<rect x="296.669" y="19.9082" width="1.62449" height="1.62449" transform="rotate(90 296.669 19.9082)" fill="#F93D3E" stroke="#F93D3E" stroke-width="0.0331528"/>
<rect x="314.903" y="21.5654" width="1.62449" height="1.62449" transform="rotate(90 314.903 21.5654)" fill="#F93D3E" stroke="#F93D3E" stroke-width="0.0331528"/>
<rect x="313.245" y="21.5654" width="1.62449" height="1.62449" transform="rotate(90 313.245 21.5654)" fill="#F93D3E" stroke="#F93D3E" stroke-width="0.0331528"/>
<rect x="311.588" y="21.5654" width="1.62449" height="1.62449" transform="rotate(90 311.588 21.5654)" fill="#F93D3E" stroke="#F93D3E" stroke-width="0.0331528"/>
<rect x="309.93" y="21.5654" width="1.62449" height="1.62449" transform="rotate(90 309.93 21.5654)" fill="#F93D3E" stroke="#F93D3E" stroke-width="0.0331528"/>
<rect x="308.272" y="21.5654" width="1.62449" height="1.62449" transform="rotate(90 308.272 21.5654)" fill="#F93D3E" stroke="#F93D3E" stroke-width="0.0331528"/>
<rect x="306.614" y="21.5654" width="1.62449" height="1.62449" transform="rotate(90 306.614 21.5654)" fill="#F93D3E" stroke="#F93D3E" stroke-width="0.0331528"/>
<rect x="304.957" y="21.5654" width="1.62449" height="1.62449" transform="rotate(90 304.957 21.5654)" fill="#F93D3E" stroke="#F93D3E" stroke-width="0.0331528"/>
<rect x="303.3" y="21.5654" width="1.62449" height="1.62449" transform="rotate(90 303.3 21.5654)" fill="#F93D3E" stroke="#F93D3E" stroke-width="0.0331528"/>
<rect x="301.642" y="21.5654" width="1.62449" height="1.62449" transform="rotate(90 301.642 21.5654)" fill="#F93D3E" stroke="#F93D3E" stroke-width="0.0331528"/>
<rect x="299.984" y="21.5654" width="1.62449" height="1.62449" transform="rotate(90 299.984 21.5654)" fill="#F93D3E" stroke="#F93D3E" stroke-width="0.0331528"/>
<rect x="298.326" y="21.5654" width="1.62449" height="1.62449" transform="rotate(90 298.326 21.5654)" fill="#F93D3E" stroke="#F93D3E" stroke-width="0.0331528"/>
<rect x="314.903" y="23.2236" width="1.62449" height="1.62449" transform="rotate(90 314.903 23.2236)" fill="#F93D3E" stroke="#F93D3E" stroke-width="0.0331528"/>
<rect x="313.245" y="23.2236" width="1.62449" height="1.62449" transform="rotate(90 313.245 23.2236)" fill="#F93D3E" stroke="#F93D3E" stroke-width="0.0331528"/>
<rect x="311.588" y="23.2236" width="1.62449" height="1.62449" transform="rotate(90 311.588 23.2236)" fill="#F93D3E" stroke="#F93D3E" stroke-width="0.0331528"/>
<rect x="309.93" y="23.2236" width="1.62449" height="1.62449" transform="rotate(90 309.93 23.2236)" fill="#F93D3E" stroke="#F93D3E" stroke-width="0.0331528"/>
<rect x="308.272" y="23.2236" width="1.62449" height="1.62449" transform="rotate(90 308.272 23.2236)" fill="#F93D3E" stroke="#F93D3E" stroke-width="0.0331528"/>
<rect x="306.614" y="23.2236" width="1.62449" height="1.62449" transform="rotate(90 306.614 23.2236)" fill="#F93D3E" stroke="#F93D3E" stroke-width="0.0331528"/>
<rect x="304.957" y="23.2236" width="1.62449" height="1.62449" transform="rotate(90 304.957 23.2236)" fill="#F93D3E" stroke="#F93D3E" stroke-width="0.0331528"/>
<rect x="303.3" y="23.2236" width="1.62449" height="1.62449" transform="rotate(90 303.3 23.2236)" fill="#F93D3E" stroke="#F93D3E" stroke-width="0.0331528"/>
<rect x="301.642" y="23.2236" width="1.62449" height="1.62449" transform="rotate(90 301.642 23.2236)" fill="#F93D3E" stroke="#F93D3E" stroke-width="0.0331528"/>
<rect x="299.984" y="23.2236" width="1.62449" height="1.62449" transform="rotate(90 299.984 23.2236)" fill="#F93D3E" stroke="#F93D3E" stroke-width="0.0331528"/>
<rect x="313.245" y="24.8808" width="1.62449" height="1.62449" transform="rotate(90 313.245 24.8808)" fill="#F93D3E" stroke="#F93D3E" stroke-width="0.0331528"/>
<rect x="311.588" y="24.8808" width="1.62449" height="1.62449" transform="rotate(90 311.588 24.8808)" fill="#F93D3E" stroke="#F93D3E" stroke-width="0.0331528"/>
<rect x="309.93" y="24.8808" width="1.62449" height="1.62449" transform="rotate(90 309.93 24.8808)" fill="#F93D3E" stroke="#F93D3E" stroke-width="0.0331528"/>
<rect x="308.272" y="24.8808" width="1.62449" height="1.62449" transform="rotate(90 308.272 24.8808)" fill="#F93D3E" stroke="#F93D3E" stroke-width="0.0331528"/>
<rect x="306.614" y="24.8808" width="1.62449" height="1.62449" transform="rotate(90 306.614 24.8808)" fill="#F93D3E" stroke="#F93D3E" stroke-width="0.0331528"/>
<rect x="304.957" y="24.8808" width="1.62449" height="1.62449" transform="rotate(90 304.957 24.8808)" fill="#F93D3E" stroke="#F93D3E" stroke-width="0.0331528"/>
<rect x="303.3" y="24.8808" width="1.62449" height="1.62449" transform="rotate(90 303.3 24.8808)" fill="#F93D3E" stroke="#F93D3E" stroke-width="0.0331528"/>
<rect x="301.642" y="24.8808" width="1.62449" height="1.62449" transform="rotate(90 301.642 24.8808)" fill="#F93D3E" stroke="#F93D3E" stroke-width="0.0331528"/>
<rect x="311.588" y="26.539" width="1.62449" height="1.62449" transform="rotate(90 311.588 26.539)" fill="#F93D3E" stroke="#F93D3E" stroke-width="0.0331528"/>
<rect x="309.93" y="26.539" width="1.62449" height="1.62449" transform="rotate(90 309.93 26.539)" fill="#F93D3E" stroke="#F93D3E" stroke-width="0.0331528"/>
<rect x="306.614" y="26.539" width="1.62449" height="1.62449" transform="rotate(90 306.614 26.539)" fill="#F93D3E" stroke="#F93D3E" stroke-width="0.0331528"/>
<rect x="304.957" y="26.539" width="1.62449" height="1.62449" transform="rotate(90 304.957 26.539)" fill="#F93D3E" stroke="#F93D3E" stroke-width="0.0331528"/>
<rect x="303.3" y="26.539" width="1.62449" height="1.62449" transform="rotate(90 303.3 26.539)" fill="#F93D3E" stroke="#F93D3E" stroke-width="0.0331528"/>
<rect x="311.588" y="28.1963" width="1.62449" height="1.62449" transform="rotate(90 311.588 28.1963)" fill="#F93D3E" stroke="#F93D3E" stroke-width="0.0331528"/>
<rect x="304.957" y="28.1963" width="1.62449" height="1.62449" transform="rotate(90 304.957 28.1963)" fill="#F93D3E" stroke="#F93D3E" stroke-width="0.0331528"/>
<rect x="303.3" y="28.1963" width="1.62449" height="1.62449" transform="rotate(90 303.3 28.1963)" fill="#F93D3E" stroke="#F93D3E" stroke-width="0.0331528"/>
<rect x="311.588" y="29.8545" width="1.62449" height="1.62449" transform="rotate(90 311.588 29.8545)" fill="#F93D3E" stroke="#F93D3E" stroke-width="0.0331528"/>
<rect x="303.3" y="29.8545" width="1.62449" height="1.62449" transform="rotate(90 303.3 29.8545)" fill="#F93D3E" stroke="#F93D3E" stroke-width="0.0331528"/>
<rect x="313.245" y="31.5117" width="1.62449" height="1.62449" transform="rotate(90 313.245 31.5117)" fill="#F93D3E" stroke="#F93D3E" stroke-width="0.0331528"/>
<rect x="311.588" y="31.5117" width="1.62449" height="1.62449" transform="rotate(90 311.588 31.5117)" fill="#F93D3E" stroke="#F93D3E" stroke-width="0.0331528"/>
<rect x="304.957" y="31.5117" width="1.62449" height="1.62449" transform="rotate(90 304.957 31.5117)" fill="#F93D3E" stroke="#F93D3E" stroke-width="0.0331528"/>
<rect x="303.3" y="31.5117" width="1.62449" height="1.62449" transform="rotate(90 303.3 31.5117)" fill="#F93D3E" stroke="#F93D3E" stroke-width="0.0331528"/>
<rect x="296.651" y="11.6084" width="1.62449" height="1.62449" transform="rotate(90 296.651 11.6084)" fill="#F93D3E" stroke="#F93D3E" stroke-width="0.0331528"/>
<rect x="296.651" y="13.2656" width="1.62449" height="1.62449" transform="rotate(90 296.651 13.2656)" fill="#F93D3E" stroke="#F93D3E" stroke-width="0.0331528"/>
<rect x="296.651" y="14.9238" width="1.62449" height="1.62449" transform="rotate(90 296.651 14.9238)" fill="#F93D3E" stroke="#F93D3E" stroke-width="0.0331528"/>
<rect x="298.31" y="14.9238" width="1.62449" height="1.62449" transform="rotate(90 298.31 14.9238)" fill="#F93D3E" stroke="#F93D3E" stroke-width="0.0331528"/>
<rect x="296.651" y="16.581" width="1.62449" height="1.62449" transform="rotate(90 296.651 16.581)" fill="#F93D3E" stroke="#F93D3E" stroke-width="0.0331528"/>
<rect x="298.31" y="16.581" width="1.62449" height="1.62449" transform="rotate(90 298.31 16.581)" fill="#F93D3E" stroke="#F93D3E" stroke-width="0.0331528"/>
<rect x="299.967" y="16.581" width="1.62449" height="1.62449" transform="rotate(90 299.967 16.581)" fill="#F93D3E" stroke="#F93D3E" stroke-width="0.0331528"/>
<rect x="328.108" y="29.8535" width="1.62449" height="1.62449" transform="rotate(90 328.108 29.8535)" fill="#257EE4" stroke="#0C0F18" stroke-width="0.0331528"/>
<rect x="326.45" y="29.8535" width="1.62449" height="1.62449" transform="rotate(90 326.45 29.8535)" fill="#257EE4" stroke="#0C0F18" stroke-width="0.0331528"/>
<rect x="323.136" y="29.8535" width="1.62449" height="1.62449" transform="rotate(90 323.136 29.8535)" fill="#257EE4" stroke="#0C0F18" stroke-width="0.0331528"/>
<rect x="321.478" y="29.8535" width="1.62449" height="1.62449" transform="rotate(90 321.478 29.8535)" fill="#257EE4" stroke="#0C0F18" stroke-width="0.0331528"/>
<rect x="319.819" y="29.8535" width="1.62449" height="1.62449" transform="rotate(90 319.819 29.8535)" fill="#257EE4" stroke="#0C0F18" stroke-width="0.0331528"/>
<rect x="327.301" y="24.8974" width="1.62449" height="1.62449" transform="rotate(90 327.301 24.8974)" fill="#8931ED" stroke="#0C0F18" stroke-width="0.0331528"/>
<rect x="325.643" y="24.8974" width="1.62449" height="1.62449" transform="rotate(90 325.643 24.8974)" fill="#8931ED" stroke="#0C0F18" stroke-width="0.0331528"/>
<rect x="323.984" y="24.8974" width="1.62449" height="1.62449" transform="rotate(90 323.984 24.8974)" fill="#8931ED" stroke="#0C0F18" stroke-width="0.0331528"/>
<rect x="296.587" y="28.2676" width="1.62449" height="1.62449" transform="rotate(90 296.587 28.2676)" fill="#64FFC8" stroke="#0C0F18" stroke-width="0.0331528"/>
<rect x="294.929" y="28.2676" width="1.62449" height="1.62449" transform="rotate(90 294.929 28.2676)" fill="#64FFC8" stroke="#0C0F18" stroke-width="0.0331528"/>
<rect x="291.614" y="28.2676" width="1.62449" height="1.62449" transform="rotate(90 291.614 28.2676)" fill="#64FFC8" stroke="#0C0F18" stroke-width="0.0331528"/>
<rect width="378" height="142" transform="translate(0 31)" fill="url(#paint0_linear_52_614)"/>
<rect width="378" height="142" transform="translate(0 31)" fill="#0C0F18" fill-opacity="0.2"/>
<path d="M17.8662 33.3203H181V31H185.999V33.3203H349.618V40.5312H360.773V55.1211H375.732V104.389H378.001V109.388H375.732V157.585H360.773V171.002H365.134V176.001H360.135V172.846H186.999V175.999H182V172.846H21.0352L15.2031 161.274L11.5273 155.74H2.01953V108.032H0V103.033H2.01953V55.1211H15.2031V35.999H12.8672V31H17.8662V33.3203ZM17.8662 35.999H16.4414V56.3584H3.25684V103.033H4.99902V108.032H3.25684V154.503H12.1904L12.5576 155.056L16.2344 160.59L16.2754 160.651L16.3086 160.718L21.7969 171.608H182V171H186.999V171.608H359.536V156.348H374.495V109.388H373.002V104.389H374.495V56.3584H359.536V41.7686H348.381V34.5576H185.999V35.999H181V34.5576H17.8662V35.999Z" fill="#257EE4"/>
<path d="M89.19 78.19C86.325 78.19 84.525 76.255 84.525 73.015C84.525 69.79 86.325 67.84 89.19 67.84C92.04 67.84 93.84 69.79 93.84 73.015C93.84 76.255 92.04 78.19 89.19 78.19ZM89.19 77.17C91.515 77.17 92.715 75.82 92.715 73.015C92.715 70.21 91.515 68.86 89.19 68.86C86.85 68.86 85.65 70.21 85.65 73.015C85.65 75.82 86.85 77.17 89.19 77.17ZM99.6061 78.19C97.3111 78.19 95.6311 77.005 95.6311 74.98V74.875H96.7861V74.98C96.7861 76.225 97.5211 77.17 99.6061 77.17C102.126 77.17 103.056 75.775 103.056 73.045V72.13H102.951C102.591 73.315 101.226 74.215 99.2311 74.215C96.7711 74.215 95.3311 73 95.3311 71.065C95.3311 69.1 96.8611 67.84 99.5461 67.84C102.771 67.84 104.166 69.325 104.166 73C104.166 76.06 102.711 78.19 99.6061 78.19ZM99.5611 73.405C101.601 73.405 102.846 72.55 102.846 71.11C102.846 69.64 101.676 68.86 99.5911 68.86C97.4161 68.86 96.4261 69.61 96.4261 71.14C96.4261 72.625 97.3861 73.405 99.5611 73.405ZM106.909 72.715H105.589V70.63H106.909V72.715ZM106.909 78.04H105.589V75.955H106.909V78.04ZM112.885 78.19C110.02 78.19 108.22 76.255 108.22 73.015C108.22 69.79 110.02 67.84 112.885 67.84C115.735 67.84 117.535 69.79 117.535 73.015C117.535 76.255 115.735 78.19 112.885 78.19ZM112.885 77.17C115.21 77.17 116.41 75.82 116.41 73.015C116.41 70.21 115.21 68.86 112.885 68.86C110.545 68.86 109.345 70.21 109.345 73.015C109.345 75.82 110.545 77.17 112.885 77.17ZM123.586 78.19C120.721 78.19 118.921 76.255 118.921 73.015C118.921 69.79 120.721 67.84 123.586 67.84C126.436 67.84 128.236 69.79 128.236 73.015C128.236 76.255 126.436 78.19 123.586 78.19ZM123.586 77.17C125.911 77.17 127.111 75.82 127.111 73.015C127.111 70.21 125.911 68.86 123.586 68.86C121.246 68.86 120.046 70.21 120.046 73.015C120.046 75.82 121.246 77.17 123.586 77.17ZM133.627 74.125H129.547V73.18H133.627V74.125ZM137.993 78.04H136.928V70.045H134.558V69.235H135.083C136.193 69.235 136.733 68.935 137.123 67.99H137.993V78.04ZM147.831 78.04H139.866V77.305C139.866 75.37 140.571 74.425 142.596 73.69L144.846 72.895C146.301 72.355 146.781 71.86 146.781 70.795C146.781 69.475 145.866 68.845 143.961 68.845C141.786 68.845 140.886 69.685 140.886 71.185V71.365H139.821V71.23C139.821 69.445 141.051 67.84 143.991 67.84C146.691 67.84 147.861 69.175 147.861 70.795C147.861 72.34 146.901 73.21 145.131 73.81L143.076 74.5C141.426 75.085 140.961 75.745 140.961 77.155L143.211 77.065H147.831V78.04ZM150.49 72.715H149.17V70.63H150.49V72.715ZM150.49 78.04H149.17V75.955H150.49V78.04ZM156.467 78.19C153.602 78.19 151.802 76.255 151.802 73.015C151.802 69.79 153.602 67.84 156.467 67.84C159.317 67.84 161.117 69.79 161.117 73.015C161.117 76.255 159.317 78.19 156.467 78.19ZM156.467 77.17C158.792 77.17 159.992 75.82 159.992 73.015C159.992 70.21 158.792 68.86 156.467 68.86C154.127 68.86 152.927 70.21 152.927 73.015C152.927 75.82 154.127 77.17 156.467 77.17ZM167.168 78.19C164.303 78.19 162.503 76.255 162.503 73.015C162.503 69.79 164.303 67.84 167.168 67.84C170.018 67.84 171.818 69.79 171.818 73.015C171.818 76.255 170.018 78.19 167.168 78.19ZM167.168 77.17C169.493 77.17 170.693 75.82 170.693 73.015C170.693 70.21 169.493 68.86 167.168 68.86C164.828 68.86 163.628 70.21 163.628 73.015C163.628 75.82 164.828 77.17 167.168 77.17Z" fill="#257EE4"/>
<path d="M207.648 78.3506H202.992V67.6306H207.648C210.864 67.6306 212.912 69.7106 212.912 72.9906C212.912 76.2706 210.864 78.3506 207.648 78.3506ZM207.648 68.6706H204.144V77.3106H207.648C210.368 77.3106 211.712 75.9026 211.712 72.9906C211.712 70.0786 210.368 68.6706 207.648 68.6706ZM218.541 78.5106C215.997 78.5106 214.381 76.9106 214.381 74.3986C214.381 71.9986 215.981 70.2866 218.525 70.2866C220.845 70.2866 222.493 71.6306 222.493 73.9826C222.493 74.2706 222.461 74.5106 222.413 74.7186H215.453C215.517 76.4946 216.429 77.5666 218.525 77.5666C220.381 77.5666 221.245 76.8786 221.245 75.7266V75.6146H222.381V75.7266C222.381 77.3746 220.749 78.5106 218.541 78.5106ZM218.509 71.2306C216.461 71.2306 215.533 72.2866 215.453 74.0146H221.421C221.421 73.9346 221.421 73.8546 221.421 73.7746C221.421 72.1106 220.365 71.2306 218.509 71.2306ZM228.72 78.3506H227.328L223.552 70.4466H224.784L227.984 77.2306H228.08L231.264 70.4466H232.496L228.72 78.3506ZM241.419 78.5106C238.267 78.5106 236.795 77.0066 236.795 74.9586V74.8626H237.947V75.0706C237.947 76.6066 238.907 77.4386 241.419 77.4386C243.563 77.4386 244.539 76.8466 244.539 75.6306C244.539 74.4306 243.819 73.9986 242.251 73.6786L239.979 73.2466C238.235 72.9106 236.843 72.1746 236.843 70.3986C236.843 68.9426 238.091 67.4706 241.163 67.4706C244.187 67.4706 245.531 69.0706 245.531 71.0226V71.1186H244.379V70.9266C244.379 69.3746 243.419 68.5426 241.083 68.5426C238.955 68.5426 237.995 69.1506 237.995 70.3186C237.995 71.5346 238.699 71.9026 240.283 72.2386L242.539 72.6866C244.459 73.0546 245.691 73.8706 245.691 75.5346C245.691 77.0706 244.395 78.5106 241.419 78.5106ZM248.653 81.0706H247.517V70.4466H248.541V72.6706H248.669C249.021 71.2466 250.205 70.2866 252.077 70.2866C254.541 70.2866 255.949 71.9986 255.949 74.3986C255.949 76.7986 254.557 78.5106 252.045 78.5106C250.301 78.5106 249.037 77.5506 248.669 76.0306H248.653V81.0706ZM248.653 74.5426C248.653 76.4146 249.885 77.4706 251.741 77.4706C253.581 77.4706 254.797 76.6866 254.797 74.3986C254.797 72.1106 253.565 71.3426 251.773 71.3426C249.805 71.3426 248.653 72.4466 248.653 74.3986V74.5426ZM258.833 78.3506H257.697V70.4466H258.721V72.6066H258.801C259.041 71.3426 259.937 70.2866 261.585 70.2866C263.409 70.2866 264.209 71.6306 264.209 73.1026V73.8866H263.073V73.2786C263.073 71.9346 262.513 71.2786 261.137 71.2786C259.537 71.2786 258.833 72.2866 258.833 74.0626V78.3506ZM267.013 69.4386H265.877V67.6306H267.013V69.4386ZM267.013 78.3506H265.877V70.4466H267.013V78.3506ZM270.412 78.3506H269.276V70.4466H270.3V72.9266H270.38C270.652 71.5826 271.772 70.2866 273.74 70.2866C275.964 70.2866 277.068 71.8706 277.068 73.7426V78.3506H275.932V73.9026C275.932 72.2706 275.148 71.3266 273.34 71.3266C271.42 71.3266 270.412 72.4946 270.412 74.5266V78.3506ZM284.117 78.3506H282.405C280.837 78.3506 279.829 77.6946 279.829 75.8386V71.4226H278.421V70.4466H279.829V68.5586H280.981V70.4466H284.117V71.4226H280.981V75.9026C280.981 77.0066 281.525 77.3106 282.677 77.3106H284.117V78.3506ZM293.212 78.5106C289.98 78.5106 288.604 76.9586 288.604 74.9426V74.6866H289.788V74.8946C289.788 76.5746 290.604 77.4226 293.18 77.4226C295.58 77.4226 296.54 76.7666 296.54 75.2466C296.54 73.8866 295.596 73.2466 293.964 73.2466H291.068V72.2706H293.724C295.34 72.2706 296.22 71.6786 296.22 70.4626C296.22 69.1826 295.436 68.5586 293.132 68.5586C290.684 68.5586 289.788 69.4066 289.788 71.0866V71.2306H288.604V71.0386C288.604 69.0546 290.028 67.4706 293.212 67.4706C295.836 67.4706 297.356 68.5106 297.356 70.2866C297.356 71.4866 296.652 72.3826 295.308 72.6226V72.7346C296.828 73.0226 297.692 73.9506 297.692 75.3746C297.692 77.3746 295.98 78.5106 293.212 78.5106Z" fill="#EEEEEE"/>
<path d="M87.585 115.351H86.52V107.356H84.15V106.546H84.675C85.785 106.546 86.325 106.246 86.715 105.301H87.585V115.351ZM93.6428 115.501C90.6128 115.501 89.3228 114.046 89.3228 112.156V111.916H90.4328V112.111C90.4328 113.686 91.1978 114.481 93.6128 114.481C95.8628 114.481 96.7628 113.866 96.7628 112.441C96.7628 111.166 95.8778 110.566 94.3478 110.566H91.6328V109.651H94.1228C95.6378 109.651 96.4628 109.096 96.4628 107.956C96.4628 106.756 95.7278 106.171 93.5678 106.171C91.2728 106.171 90.4328 106.966 90.4328 108.541V108.676H89.3228V108.496C89.3228 106.636 90.6578 105.151 93.6428 105.151C96.1028 105.151 97.5278 106.126 97.5278 107.791C97.5278 108.916 96.8678 109.756 95.6078 109.981V110.086C97.0328 110.356 97.8428 111.226 97.8428 112.561C97.8428 114.436 96.2378 115.501 93.6428 115.501ZM100.419 110.026H99.0993V107.941H100.419V110.026ZM100.419 115.351H99.0993V113.266H100.419V115.351ZM106.396 115.501C103.531 115.501 101.731 113.566 101.731 110.326C101.731 107.101 103.531 105.151 106.396 105.151C109.246 105.151 111.046 107.101 111.046 110.326C111.046 113.566 109.246 115.501 106.396 115.501ZM106.396 114.481C108.721 114.481 109.921 113.131 109.921 110.326C109.921 107.521 108.721 106.171 106.396 106.171C104.056 106.171 102.856 107.521 102.856 110.326C102.856 113.131 104.056 114.481 106.396 114.481ZM117.097 115.501C114.232 115.501 112.432 113.566 112.432 110.326C112.432 107.101 114.232 105.151 117.097 105.151C119.947 105.151 121.747 107.101 121.747 110.326C121.747 113.566 119.947 115.501 117.097 115.501ZM117.097 114.481C119.422 114.481 120.622 113.131 120.622 110.326C120.622 107.521 119.422 106.171 117.097 106.171C114.757 106.171 113.557 107.521 113.557 110.326C113.557 113.131 114.757 114.481 117.097 114.481ZM127.138 111.436H123.058V110.491H127.138V111.436ZM131.503 115.351H130.438V107.356H128.068V106.546H128.593C129.703 106.546 130.243 106.246 130.633 105.301H131.503V115.351ZM136.466 115.366H135.281C135.281 110.596 137.456 108.136 139.631 106.351V106.276H132.866V105.301H140.846V106.171C137.876 108.781 136.466 111.226 136.466 115.366ZM143.063 110.026H141.743V107.941H143.063V110.026ZM143.063 115.351H141.743V113.266H143.063V115.351ZM149.04 115.501C146.175 115.501 144.375 113.566 144.375 110.326C144.375 107.101 146.175 105.151 149.04 105.151C151.89 105.151 153.69 107.101 153.69 110.326C153.69 113.566 151.89 115.501 149.04 115.501ZM149.04 114.481C151.365 114.481 152.565 113.131 152.565 110.326C152.565 107.521 151.365 106.171 149.04 106.171C146.7 106.171 145.5 107.521 145.5 110.326C145.5 113.131 146.7 114.481 149.04 114.481ZM159.741 115.501C156.876 115.501 155.076 113.566 155.076 110.326C155.076 107.101 156.876 105.151 159.741 105.151C162.591 105.151 164.391 107.101 164.391 110.326C164.391 113.566 162.591 115.501 159.741 115.501ZM159.741 114.481C162.066 114.481 163.266 113.131 163.266 110.326C163.266 107.521 162.066 106.171 159.741 106.171C157.401 106.171 156.201 107.521 156.201 110.326C156.201 113.131 157.401 114.481 159.741 114.481Z" fill="#257EE4"/>
<path d="M204.096 115.661H202.96V104.941H210.992V105.981H204.096V110.077H210.752V111.101H204.096V115.661ZM213.995 106.749H212.859V104.941H213.995V106.749ZM213.995 115.661H212.859V107.757H213.995V115.661ZM217.394 115.661H216.258V107.757H217.282V110.237H217.362C217.634 108.893 218.754 107.597 220.722 107.597C222.946 107.597 224.05 109.181 224.05 111.053V115.661H222.914V111.213C222.914 109.581 222.13 108.637 220.322 108.637C218.402 108.637 217.394 109.805 217.394 111.837V115.661ZM228.442 115.821C226.89 115.821 225.834 115.085 225.834 113.805C225.834 112.509 226.906 111.949 228.378 111.789L232.138 111.373V110.765C232.138 109.229 231.466 108.621 229.738 108.621C228.042 108.621 227.146 109.229 227.146 110.621V110.685H226.01V110.621C226.01 108.957 227.386 107.597 229.818 107.597C232.218 107.597 233.242 108.973 233.242 110.717V115.661H232.218V113.533H232.138C231.674 114.989 230.282 115.821 228.442 115.821ZM226.97 113.725C226.97 114.525 227.498 114.941 228.698 114.941C230.618 114.941 232.138 114.093 232.138 112.189V112.125L228.73 112.509C227.546 112.621 226.97 112.909 226.97 113.725ZM236.598 115.661H235.462V104.941H236.598V115.661ZM246.918 115.661H245.782V105.981H241.366V104.941H251.318V105.981H246.918V115.661ZM256.559 115.821C254.015 115.821 252.399 114.221 252.399 111.709C252.399 109.309 253.999 107.597 256.543 107.597C258.863 107.597 260.511 108.941 260.511 111.293C260.511 111.581 260.479 111.821 260.431 112.029H253.471C253.535 113.805 254.447 114.877 256.543 114.877C258.399 114.877 259.263 114.189 259.263 113.037V112.925H260.399V113.037C260.399 114.685 258.767 115.821 256.559 115.821ZM256.527 108.541C254.479 108.541 253.551 109.597 253.471 111.325H259.439C259.439 111.245 259.439 111.165 259.439 111.085C259.439 109.421 258.383 108.541 256.527 108.541ZM265.842 115.821C263.41 115.821 262.002 114.845 262.002 113.021V112.989H263.138V113.085C263.138 114.413 263.922 114.877 265.858 114.877C267.634 114.877 268.242 114.461 268.242 113.549C268.242 112.717 267.746 112.445 266.434 112.237L264.322 111.933C262.882 111.741 261.97 111.181 261.97 109.869C261.97 108.477 263.298 107.597 265.474 107.597C267.746 107.597 269.218 108.557 269.218 110.413V110.445H268.082V110.365C268.082 109.181 267.458 108.541 265.442 108.541C263.778 108.541 263.09 108.941 263.09 109.885C263.09 110.701 263.506 110.989 264.818 111.181L266.754 111.453C268.45 111.693 269.362 112.269 269.362 113.549C269.362 115.037 267.89 115.821 265.842 115.821ZM276.054 115.661H274.342C272.774 115.661 271.766 115.005 271.766 113.149V108.733H270.358V107.757H271.766V105.869H272.918V107.757H276.054V108.733H272.918V113.213C272.918 114.317 273.462 114.621 274.614 114.621H276.054V115.661ZM278.788 106.749H277.652V104.941H278.788V106.749ZM278.788 115.661H277.652V107.757H278.788V115.661ZM282.187 115.661H281.051V107.757H282.075V110.237H282.155C282.427 108.893 283.547 107.597 285.515 107.597C287.739 107.597 288.843 109.181 288.843 111.053V115.661H287.707V111.213C287.707 109.581 286.923 108.637 285.115 108.637C283.195 108.637 282.187 109.805 282.187 111.837V115.661ZM294.435 115.021C292.083 115.021 290.643 113.469 290.643 111.309C290.643 109.149 292.131 107.597 294.563 107.597C296.227 107.597 297.539 108.381 297.859 109.789H297.939V107.757H298.963V114.909C298.963 117.517 297.315 118.541 294.931 118.541C292.787 118.541 291.155 117.469 291.155 115.629H292.291C292.291 117.021 293.219 117.565 294.979 117.565C297.027 117.565 297.827 116.941 297.827 114.973V112.909H297.747C297.427 114.125 296.259 115.021 294.435 115.021ZM291.779 111.309C291.779 113.325 293.027 114.013 294.739 114.013C296.691 114.013 297.827 113.037 297.827 111.357V111.085C297.827 109.533 296.643 108.605 294.819 108.605C293.043 108.605 291.779 109.293 291.779 111.309Z" fill="#EEEEEE"/>
<path d="M124.703 152.5H116.738V151.765C116.738 149.83 117.443 148.885 119.468 148.15L121.718 147.355C123.173 146.815 123.653 146.32 123.653 145.255C123.653 143.935 122.738 143.305 120.833 143.305C118.658 143.305 117.758 144.145 117.758 145.645V145.825H116.693V145.69C116.693 143.905 117.923 142.3 120.863 142.3C123.563 142.3 124.733 143.635 124.733 145.255C124.733 146.8 123.773 147.67 122.003 148.27L119.948 148.96C118.298 149.545 117.833 150.205 117.833 151.615L120.083 151.525H124.703V152.5ZM130.782 152.65C127.917 152.65 126.117 150.715 126.117 147.475C126.117 144.25 127.917 142.3 130.782 142.3C133.632 142.3 135.432 144.25 135.432 147.475C135.432 150.715 133.632 152.65 130.782 152.65ZM130.782 151.63C133.107 151.63 134.307 150.28 134.307 147.475C134.307 144.67 133.107 143.32 130.782 143.32C128.442 143.32 127.242 144.67 127.242 147.475C127.242 150.28 128.442 151.63 130.782 151.63ZM138.063 147.175H136.743V145.09H138.063V147.175ZM138.063 152.5H136.743V150.415H138.063V152.5ZM144.04 152.65C141.175 152.65 139.375 150.715 139.375 147.475C139.375 144.25 141.175 142.3 144.04 142.3C146.89 142.3 148.69 144.25 148.69 147.475C148.69 150.715 146.89 152.65 144.04 152.65ZM144.04 151.63C146.365 151.63 147.565 150.28 147.565 147.475C147.565 144.67 146.365 143.32 144.04 143.32C141.7 143.32 140.5 144.67 140.5 147.475C140.5 150.28 141.7 151.63 144.04 151.63ZM154.741 152.65C151.876 152.65 150.076 150.715 150.076 147.475C150.076 144.25 151.876 142.3 154.741 142.3C157.591 142.3 159.391 144.25 159.391 147.475C159.391 150.715 157.591 152.65 154.741 152.65ZM154.741 151.63C157.066 151.63 158.266 150.28 158.266 147.475C158.266 144.67 157.066 143.32 154.741 143.32C152.401 143.32 151.201 144.67 151.201 147.475C151.201 150.28 152.401 151.63 154.741 151.63Z" fill="#FF595A"/>
<path d="M204.096 151.972H202.96V141.252H210.992V142.292H204.096V146.388H210.752V147.412H204.096V151.972ZM213.995 143.06H212.859V141.252H213.995V143.06ZM213.995 151.972H212.859V144.068H213.995V151.972ZM217.394 151.972H216.258V144.068H217.282V146.548H217.362C217.634 145.204 218.754 143.908 220.722 143.908C222.946 143.908 224.05 145.492 224.05 147.364V151.972H222.914V147.524C222.914 145.892 222.13 144.948 220.322 144.948C218.402 144.948 217.394 146.116 217.394 148.148V151.972ZM228.442 152.132C226.89 152.132 225.834 151.396 225.834 150.116C225.834 148.82 226.906 148.26 228.378 148.1L232.138 147.684V147.076C232.138 145.54 231.466 144.932 229.738 144.932C228.042 144.932 227.146 145.54 227.146 146.932V146.996H226.01V146.932C226.01 145.268 227.386 143.908 229.818 143.908C232.218 143.908 233.242 145.284 233.242 147.028V151.972H232.218V149.844H232.138C231.674 151.3 230.282 152.132 228.442 152.132ZM226.97 150.036C226.97 150.836 227.498 151.252 228.698 151.252C230.618 151.252 232.138 150.404 232.138 148.5V148.436L228.73 148.82C227.546 148.932 226.97 149.22 226.97 150.036ZM236.598 151.972H235.462V141.252H236.598V151.972ZM246.838 151.972H242.182V141.252H246.838C250.054 141.252 252.102 143.332 252.102 146.612C252.102 149.892 250.054 151.972 246.838 151.972ZM246.838 142.292H243.334V150.932H246.838C249.558 150.932 250.902 149.524 250.902 146.612C250.902 143.7 249.558 142.292 246.838 142.292ZM257.731 152.132C255.187 152.132 253.571 150.532 253.571 148.02C253.571 145.62 255.171 143.908 257.715 143.908C260.035 143.908 261.683 145.252 261.683 147.604C261.683 147.892 261.651 148.132 261.603 148.34H254.643C254.707 150.116 255.619 151.188 257.715 151.188C259.571 151.188 260.435 150.5 260.435 149.348V149.236H261.571V149.348C261.571 150.996 259.939 152.132 257.731 152.132ZM257.699 144.852C255.651 144.852 254.723 145.908 254.643 147.636H260.611C260.611 147.556 260.611 147.476 260.611 147.396C260.611 145.732 259.555 144.852 257.699 144.852ZM265.734 152.132C264.182 152.132 263.126 151.396 263.126 150.116C263.126 148.82 264.198 148.26 265.67 148.1L269.43 147.684V147.076C269.43 145.54 268.758 144.932 267.03 144.932C265.334 144.932 264.438 145.54 264.438 146.932V146.996H263.302V146.932C263.302 145.268 264.678 143.908 267.11 143.908C269.51 143.908 270.534 145.284 270.534 147.028V151.972H269.51V149.844H269.43C268.966 151.3 267.574 152.132 265.734 152.132ZM264.262 150.036C264.262 150.836 264.79 151.252 265.99 151.252C267.91 151.252 269.43 150.404 269.43 148.5V148.436L266.022 148.82C264.838 148.932 264.262 149.22 264.262 150.036ZM276.161 152.132C273.633 152.132 272.225 150.42 272.225 148.02C272.225 145.62 273.633 143.908 276.065 143.908C277.937 143.908 279.105 144.916 279.457 146.276H279.537V141.252H280.673V151.972H279.633V149.636H279.569C279.185 151.22 277.905 152.132 276.161 152.132ZM273.377 148.02C273.377 150.308 274.593 151.092 276.449 151.092C278.305 151.092 279.537 150.02 279.537 148.148V148.004C279.537 146.052 278.369 144.964 276.417 144.964C274.609 144.964 273.377 145.732 273.377 148.02ZM284.069 151.972H282.933V141.252H284.069V151.972ZM287.468 143.06H286.332V141.252H287.468V143.06ZM287.468 151.972H286.332V144.068H287.468V151.972ZM290.867 151.972H289.731V144.068H290.755V146.548H290.835C291.107 145.204 292.227 143.908 294.195 143.908C296.419 143.908 297.523 145.492 297.523 147.364V151.972H296.387V147.524C296.387 145.892 295.603 144.948 293.795 144.948C291.875 144.948 290.867 146.116 290.867 148.148V151.972ZM303.483 152.132C300.939 152.132 299.323 150.532 299.323 148.02C299.323 145.62 300.923 143.908 303.467 143.908C305.787 143.908 307.435 145.252 307.435 147.604C307.435 147.892 307.403 148.132 307.355 148.34H300.395C300.459 150.116 301.371 151.188 303.467 151.188C305.323 151.188 306.187 150.5 306.187 149.348V149.236H307.323V149.348C307.323 150.996 305.691 152.132 303.483 152.132ZM303.451 144.852C301.403 144.852 300.475 145.908 300.395 147.636H306.363C306.363 147.556 306.363 147.476 306.363 147.396C306.363 145.732 305.307 144.852 303.451 144.852Z" fill="#EEEEEE"/>
<rect x="278.251" y="178.263" width="81.4982" height="18.4982" fill="url(#paint1_linear_52_614)"/>
<rect x="278.251" y="178.263" width="81.4982" height="18.4982" stroke="#FF595A" stroke-width="0.501776" stroke-dasharray="1 1"/>
<path d="M289.532 191.012H283.1V182.972H289.532V184.136H284.396V186.392H289.352V187.544H284.396V189.848H289.532V191.012ZM292.101 191.012H290.805V185.048H291.993V186.896H292.077C292.257 185.888 293.049 184.928 294.561 184.928C296.217 184.928 297.033 186.044 297.033 187.424V191.012H295.737V187.772C295.737 186.656 295.233 186.092 293.997 186.092C292.689 186.092 292.101 186.764 292.101 188.06V191.012ZM301.08 191.132C299.196 191.132 298.152 189.872 298.152 188.036C298.152 186.176 299.184 184.928 300.996 184.928C302.412 184.928 303.216 185.66 303.456 186.668H303.528V182.972H304.824V191.012H303.636V189.296H303.552C303.3 190.484 302.424 191.132 301.08 191.132ZM299.46 188.036C299.46 189.464 300.192 189.944 301.476 189.944C302.748 189.944 303.528 189.344 303.528 188.096V188C303.528 186.728 302.784 186.104 301.452 186.104C300.204 186.104 299.46 186.596 299.46 188.036ZM309.897 191.012H308.601V182.972H312.537C314.325 182.972 315.549 183.992 315.549 185.78C315.549 187.556 314.325 188.588 312.537 188.588H309.897V191.012ZM312.417 184.136H309.897V187.424H312.417C313.629 187.424 314.253 186.968 314.253 185.78C314.253 184.592 313.629 184.136 312.417 184.136ZM317.884 191.012H316.588V182.972H317.884V186.872H317.956C318.16 185.864 318.892 184.928 320.416 184.928C322.06 184.928 322.864 186.008 322.864 187.46V191.012H321.58V187.772C321.58 186.572 321.04 186.092 319.804 186.092C318.388 186.092 317.884 186.86 317.884 188.12V191.012ZM326.045 191.132C324.809 191.132 324.029 190.556 324.029 189.572C324.029 188.648 324.773 188.168 325.949 188.036L328.661 187.748V187.4C328.661 186.416 328.229 186.068 327.089 186.068C325.985 186.068 325.445 186.428 325.445 187.304V187.352H324.161V187.304C324.161 185.948 325.289 184.928 327.185 184.928C329.081 184.928 329.933 185.96 329.933 187.388V191.012H328.745V189.524H328.661C328.349 190.532 327.401 191.132 326.045 191.132ZM325.325 189.488C325.325 189.968 325.649 190.196 326.393 190.196C327.749 190.196 328.661 189.692 328.661 188.516L326.321 188.78C325.649 188.864 325.325 189.02 325.325 189.488ZM334.174 191.132C332.254 191.132 331.162 190.376 331.162 188.996V188.96H332.458V189.056C332.458 189.836 332.926 190.088 334.174 190.088C335.338 190.088 335.686 189.848 335.686 189.32C335.686 188.828 335.398 188.672 334.546 188.552L332.914 188.336C331.786 188.192 331.102 187.712 331.102 186.716C331.102 185.672 332.05 184.928 333.886 184.928C335.71 184.928 336.814 185.66 336.814 187.076V187.112H335.53V187.04C335.53 186.332 335.17 185.96 333.85 185.96C332.758 185.96 332.374 186.2 332.374 186.764C332.374 187.232 332.614 187.4 333.514 187.52L334.894 187.712C336.31 187.892 336.958 188.372 336.958 189.356C336.958 190.472 335.854 191.132 334.174 191.132ZM341.157 191.132C339.201 191.132 337.917 190.028 337.917 188.036C337.917 186.176 339.189 184.928 341.133 184.928C342.981 184.928 344.241 185.948 344.241 187.76C344.241 187.976 344.229 188.144 344.193 188.324H339.129C339.177 189.476 339.741 190.088 341.121 190.088C342.369 190.088 342.885 189.68 342.885 188.972V188.876H344.181V188.984C344.181 190.256 342.933 191.132 341.157 191.132ZM341.109 185.948C339.789 185.948 339.213 186.536 339.141 187.604H343.017V187.58C343.017 186.476 342.381 185.948 341.109 185.948ZM354.331 191.012H347.599V190.16C347.599 188.672 348.187 187.928 349.843 187.364L351.763 186.704C352.723 186.356 353.059 186.032 353.059 185.324C353.059 184.472 352.507 184.04 351.067 184.04C349.459 184.04 348.859 184.604 348.859 185.66V185.804H347.587V185.684C347.587 184.196 348.607 182.852 351.115 182.852C353.395 182.852 354.355 183.932 354.355 185.348C354.355 186.668 353.503 187.364 352.087 187.796L350.395 188.312C349.315 188.684 348.943 189.068 348.943 189.98L350.887 189.848H354.331V191.012Z" fill="white"/>
<path d="M359 177.012H360.806V178.818H359V177.012Z" fill="#FF595A"/>
<path d="M359.193 196.004H361V197.81H359.193V196.004Z" fill="#FF595A"/>
<rect x="277.096" y="195.977" width="1.80639" height="1.80639" fill="#FF595A"/>
<rect x="277.096" y="177.109" width="1.80639" height="1.80639" fill="#FF595A"/>
<path d="M272.075 171.596C272.04 171.431 272.211 171.298 272.363 171.373L278.653 174.474C278.835 174.563 278.788 174.833 278.588 174.857L275.272 175.248C275.197 175.257 275.133 175.306 275.106 175.377L273.904 178.491C273.831 178.68 273.557 178.657 273.516 178.46L272.075 171.596Z" fill="#FF595A"/>
<path d="M183.75 188.5L182.557 191H185.443L184.25 188.5H183.75ZM184.25 17.5L185.443 15H182.557L183.75 17.5H184.25ZM184 188.75H184.25L184.25 17.25H184H183.75L183.75 188.75H184Z" fill="#257EE4"/>
<rect x="181" y="70" width="6" height="6" fill="#257EE4"/>
<rect x="181" y="108" width="6" height="6" fill="#257EE4"/>
<rect x="181" y="145" width="6" height="6" fill="#FF595A"/>
<defs>
<linearGradient id="paint0_linear_52_614" x1="189" y1="0" x2="189" y2="142" gradientUnits="userSpaceOnUse">
<stop stop-color="white" stop-opacity="0"/>
<stop offset="1" stop-color="#257EE4" stop-opacity="0.08"/>
</linearGradient>
<linearGradient id="paint1_linear_52_614" x1="319" y1="178.012" x2="319" y2="197.012" gradientUnits="userSpaceOnUse">
<stop stop-color="white" stop-opacity="0"/>
<stop offset="1" stop-color="#F93D3E" stop-opacity="0.08"/>
</linearGradient>
</defs>
</svg>
