<svg width="319" height="191" viewBox="0 0 319 191" fill="none" xmlns="http://www.w3.org/2000/svg">
<g clip-path="url(#clip0_913_2569)">
<rect y="64" width="62.4674" height="62.4674" fill="#8931ED"/>
<path d="M12.377 76.377L0 64H62.4674L50.3088 76.377H12.377Z" fill="#BC81FF"/>
<path d="M50.0903 76.3765L62.4673 63.9995V126.467L50.0903 114.308V76.3765Z" fill="#6A16C9"/>
<path d="M50.0903 76.3765L62.4673 63.9995V126.467L50.0903 114.308V76.3765Z" fill="black" fill-opacity="0.1"/>
<path d="M50.0903 114.09L62.4673 126.467H-7.62939e-05L12.1585 114.09H50.0903Z" fill="#6A16C9"/>
<path d="M50.0903 114.09L62.4673 126.467H-7.62939e-05L12.1585 114.09H50.0903Z" fill="black" fill-opacity="0.25"/>
<path d="M12.377 114.09L0 126.467V63.9999L12.377 76.1585V114.09Z" fill="#6A16C9"/>
<path d="M12.377 114.09L0 126.467V63.9999L12.377 76.1585V114.09Z" fill="black" fill-opacity="0.1"/>
<path d="M62.4674 126.467L0 64" stroke="#7433BF" stroke-width="0.6"/>
<path d="M62.4674 64L0 126.467" stroke="#7433BF" stroke-width="0.6"/>
<rect x="9.46187" y="73.4616" width="43.3049" height="43.3049" rx="1.60891" fill="#8931ED" stroke="#7433BF" stroke-width="0.6"/>
<path d="M31.4485 107.36C24.1405 107.36 20.0365 104.48 20.0365 98.864V98.648H25.4365V99.296C25.4365 101.528 26.5525 102.428 31.4485 102.428C35.7685 102.428 36.7765 101.78 36.7765 100.16C36.7765 98.684 35.9485 98.144 33.4645 97.712L26.6965 96.74C22.3765 96.056 19.8205 93.896 19.8205 89.972C19.8205 86.336 22.7725 82.52 30.8725 82.52C38.2885 82.52 41.7445 85.94 41.7445 91.016V91.232H36.3085V90.728C36.3085 88.424 35.1205 87.452 30.3325 87.452C26.4445 87.452 25.2565 88.208 25.2565 89.756C25.2565 91.16 26.0485 91.664 28.0645 92.024L34.8325 93.104C40.2325 93.968 42.1765 96.596 42.1765 99.908C42.1765 103.832 39.1165 107.36 31.4485 107.36Z" fill="#0C0F18"/>
</g>
<g clip-path="url(#clip1_913_2569)">
<rect x="64.1331" y="64.0002" width="62.4674" height="62.4674" fill="#8931ED"/>
<path d="M76.51 76.377L64.1331 64H126.6L114.442 76.377H76.51Z" fill="#BC81FF"/>
<path d="M114.223 76.377L126.6 64V126.467L114.223 114.309V76.377Z" fill="#6A16C9"/>
<path d="M114.223 76.377L126.6 64V126.467L114.223 114.309V76.377Z" fill="black" fill-opacity="0.1"/>
<path d="M114.223 114.091L126.6 126.468H64.133L76.2915 114.091H114.223Z" fill="#6A16C9"/>
<path d="M114.223 114.091L126.6 126.468H64.133L76.2915 114.091H114.223Z" fill="black" fill-opacity="0.25"/>
<path d="M76.51 114.091L64.1331 126.468V64.0004L76.51 76.159V114.091Z" fill="#6A16C9"/>
<path d="M76.51 114.091L64.1331 126.468V64.0004L76.51 76.159V114.091Z" fill="black" fill-opacity="0.1"/>
<path d="M126.6 126.467L64.1331 64" stroke="#7433BF" stroke-width="0.6"/>
<path d="M126.6 64L64.1331 126.467" stroke="#7433BF" stroke-width="0.6"/>
<rect x="73.5949" y="73.4621" width="43.3049" height="43.3049" rx="1.60891" fill="#8931ED" stroke="#7433BF" stroke-width="0.6"/>
<path d="M98.2039 107H92.8039V87.74H83.8399V82.88H107.168V87.74H98.2039V107Z" fill="#0C0F18"/>
</g>
<g clip-path="url(#clip2_913_2569)">
<rect x="128.266" y="64.0002" width="62.4674" height="62.4674" fill="#8931ED"/>
<path d="M140.643 76.377L128.266 64H190.734L178.575 76.377H140.643Z" fill="#BC81FF"/>
<path d="M178.357 76.377L190.734 64V126.467L178.357 114.309V76.377Z" fill="#6A16C9"/>
<path d="M178.357 76.377L190.734 64V126.467L178.357 114.309V76.377Z" fill="black" fill-opacity="0.1"/>
<path d="M178.357 114.091L190.734 126.468H128.267L140.425 114.091H178.357Z" fill="#6A16C9"/>
<path d="M178.357 114.091L190.734 126.468H128.267L140.425 114.091H178.357Z" fill="black" fill-opacity="0.25"/>
<path d="M140.643 114.091L128.266 126.468V64.0004L140.643 76.159V114.091Z" fill="#6A16C9"/>
<path d="M140.643 114.091L128.266 126.468V64.0004L140.643 76.159V114.091Z" fill="black" fill-opacity="0.1"/>
<path d="M190.734 126.467L128.266 64" stroke="#7433BF" stroke-width="0.6"/>
<path d="M190.734 64L128.266 126.467" stroke="#7433BF" stroke-width="0.6"/>
<rect x="137.728" y="73.4621" width="43.3049" height="43.3049" rx="1.60891" fill="#8931ED" stroke="#7433BF" stroke-width="0.6"/>
<path d="M151.112 107H145.064L155.612 82.88H163.316L173.936 107H167.744L165.476 101.672H153.416L151.112 107ZM157.772 91.556L155.504 96.812H163.388L161.12 91.556L159.644 87.812H159.248L157.772 91.556Z" fill="#0C0F18"/>
</g>
<g clip-path="url(#clip3_913_2569)">
<rect x="192.399" y="64.0002" width="62.4674" height="62.4674" fill="#8931ED"/>
<path d="M204.776 76.377L192.399 64H254.867L242.708 76.377H204.776Z" fill="#BC81FF"/>
<path d="M242.49 76.377L254.867 64V126.467L242.49 114.309V76.377Z" fill="#6A16C9"/>
<path d="M242.49 76.377L254.867 64V126.467L242.49 114.309V76.377Z" fill="black" fill-opacity="0.1"/>
<path d="M242.49 114.091L254.867 126.468H192.399L204.558 114.091H242.49Z" fill="#6A16C9"/>
<path d="M242.49 114.091L254.867 126.468H192.399L204.558 114.091H242.49Z" fill="black" fill-opacity="0.25"/>
<path d="M204.776 114.091L192.399 126.468V64.0004L204.776 76.159V114.091Z" fill="#6A16C9"/>
<path d="M204.776 114.091L192.399 126.468V64.0004L204.776 76.159V114.091Z" fill="black" fill-opacity="0.1"/>
<path d="M254.867 126.467L192.399 64" stroke="#7433BF" stroke-width="0.6"/>
<path d="M254.867 64L192.399 126.467" stroke="#7433BF" stroke-width="0.6"/>
<rect x="201.861" y="73.4621" width="43.3049" height="43.3049" rx="1.60891" fill="#8931ED" stroke="#7433BF" stroke-width="0.6"/>
<path d="M217.877 107H212.477V82.88H225.797C231.737 82.88 235.121 85.508 235.121 90.116C235.121 94.04 232.853 96.38 228.317 96.812V97.1C230.477 97.676 231.305 98.828 232.205 100.52L235.697 107H229.433L226.121 100.736C225.149 98.864 224.249 98.252 221.441 98.252H217.877V107ZM217.877 87.74V94.184H225.761C228.317 94.184 229.469 93.464 229.469 90.944C229.469 88.568 228.317 87.74 225.761 87.74H217.877Z" fill="#0C0F18"/>
</g>
<g clip-path="url(#clip4_913_2569)">
<rect x="192.399" y="128" width="62.4674" height="62.4674" fill="#8931ED"/>
<path d="M204.776 140.377L192.399 128H254.867L242.708 140.377H204.776Z" fill="#BC81FF"/>
<path d="M242.49 140.377L254.867 128V190.467L242.49 178.309V140.377Z" fill="#6A16C9"/>
<path d="M242.49 140.377L254.867 128V190.467L242.49 178.309V140.377Z" fill="black" fill-opacity="0.1"/>
<path d="M242.49 178.091L254.867 190.468H192.399L204.558 178.091H242.49Z" fill="#6A16C9"/>
<path d="M242.49 178.091L254.867 190.468H192.399L204.558 178.091H242.49Z" fill="black" fill-opacity="0.25"/>
<path d="M204.776 178.091L192.399 190.468V128L204.776 140.159V178.091Z" fill="#6A16C9"/>
<path d="M204.776 178.091L192.399 190.468V128L204.776 140.159V178.091Z" fill="black" fill-opacity="0.1"/>
<path d="M254.867 190.467L192.399 128" stroke="#7433BF" stroke-width="0.6"/>
<path d="M254.867 128L192.399 190.467" stroke="#7433BF" stroke-width="0.6"/>
<rect x="201.861" y="137.462" width="43.3049" height="43.3049" rx="1.60891" fill="#8931ED" stroke="#7433BF" stroke-width="0.6"/>
</g>
<g clip-path="url(#clip5_913_2569)">
<rect x="192.399" y="0.000244141" width="62.4674" height="62.4674" fill="#8931ED"/>
<path d="M204.776 12.377L192.399 0H254.867L242.708 12.377H204.776Z" fill="#BC81FF"/>
<path d="M242.49 12.377L254.867 0V62.4674L242.49 50.3088V12.377Z" fill="#6A16C9"/>
<path d="M242.49 12.377L254.867 0V62.4674L242.49 50.3088V12.377Z" fill="black" fill-opacity="0.1"/>
<path d="M242.49 50.0908L254.867 62.4678H192.399L204.558 50.0908H242.49Z" fill="#6A16C9"/>
<path d="M242.49 50.0908L254.867 62.4678H192.399L204.558 50.0908H242.49Z" fill="black" fill-opacity="0.25"/>
<path d="M204.776 50.0908L192.399 62.4678V0.000411987L204.776 12.159V50.0908Z" fill="#6A16C9"/>
<path d="M204.776 50.0908L192.399 62.4678V0.000411987L204.776 12.159V50.0908Z" fill="black" fill-opacity="0.1"/>
<path d="M254.867 62.4674L192.399 0" stroke="#7433BF" stroke-width="0.6"/>
<path d="M254.867 0L192.399 62.4674" stroke="#7433BF" stroke-width="0.6"/>
<rect x="201.861" y="9.46211" width="43.3049" height="43.3049" rx="1.60891" fill="#8931ED" stroke="#7433BF" stroke-width="0.6"/>
</g>
<g clip-path="url(#clip6_913_2569)">
<rect x="256.533" y="64.0002" width="62.4674" height="62.4674" fill="#8931ED"/>
<path d="M268.91 76.377L256.533 64H319L306.842 76.377H268.91Z" fill="#BC81FF"/>
<path d="M306.623 76.377L319 64V126.467L306.623 114.309V76.377Z" fill="#6A16C9"/>
<path d="M306.623 76.377L319 64V126.467L306.623 114.309V76.377Z" fill="black" fill-opacity="0.1"/>
<path d="M306.623 114.091L319 126.468H256.533L268.691 114.091H306.623Z" fill="#6A16C9"/>
<path d="M306.623 114.091L319 126.468H256.533L268.691 114.091H306.623Z" fill="black" fill-opacity="0.25"/>
<path d="M268.91 114.091L256.533 126.468V64.0004L268.91 76.159V114.091Z" fill="#6A16C9"/>
<path d="M268.91 114.091L256.533 126.468V64.0004L268.91 76.159V114.091Z" fill="black" fill-opacity="0.1"/>
<path d="M319 126.467L256.533 64" stroke="#7433BF" stroke-width="0.6"/>
<path d="M319 64L256.533 126.467" stroke="#7433BF" stroke-width="0.6"/>
<rect x="265.995" y="73.4621" width="43.3049" height="43.3049" rx="1.60891" fill="#8931ED" stroke="#7433BF" stroke-width="0.6"/>
<path d="M290.204 107H284.804V87.74H275.84V82.88H299.168V87.74H290.204V107Z" fill="#0C0F18"/>
</g>
<defs>
<clipPath id="clip0_913_2569">
<rect y="64" width="62.4674" height="62.4674" rx="2.91223" fill="white"/>
</clipPath>
<clipPath id="clip1_913_2569">
<rect x="64.1331" y="64" width="62.4674" height="62.4674" rx="2.91223" fill="white"/>
</clipPath>
<clipPath id="clip2_913_2569">
<rect x="128.266" y="64" width="62.4674" height="62.4674" rx="2.91223" fill="white"/>
</clipPath>
<clipPath id="clip3_913_2569">
<rect x="192.399" y="64" width="62.4674" height="62.4674" rx="2.91223" fill="white"/>
</clipPath>
<clipPath id="clip4_913_2569">
<rect x="192.399" y="128" width="62.4674" height="62.4674" rx="2.91223" fill="white"/>
</clipPath>
<clipPath id="clip5_913_2569">
<rect x="192.399" width="62.4674" height="62.4674" rx="2.91223" fill="white"/>
</clipPath>
<clipPath id="clip6_913_2569">
<rect x="256.533" y="64" width="62.4674" height="62.4674" rx="2.91223" fill="white"/>
</clipPath>
</defs>
</svg>
