<svg width="153" height="299" viewBox="0 0 153 299" fill="none" xmlns="http://www.w3.org/2000/svg">
<path d="M85.4026 76.5281C85.2684 76.6623 85.2684 76.8799 85.4026 77.0141L87.5895 79.201C87.7237 79.3352 87.9413 79.3352 88.0755 79.201C88.2097 79.0668 88.2097 78.8493 88.0755 78.7151L86.1316 76.7711L88.0755 74.8272C88.2097 74.693 88.2097 74.4754 88.0755 74.3412C87.9413 74.207 87.7237 74.207 87.5895 74.3412L85.4026 76.5281ZM92.6202 84.1977C92.7544 84.3319 92.972 84.3319 93.1062 84.1977L95.2932 82.0108C95.4274 81.8766 95.4274 81.659 95.2932 81.5248C95.159 81.3906 94.9414 81.3906 94.8072 81.5248L92.8632 83.4688L90.9193 81.5248C90.7851 81.3906 90.5675 81.3906 90.4333 81.5248C90.2991 81.659 90.2991 81.8766 90.4333 82.0108L92.6202 84.1977ZM85.6456 76.7711V77.1148H89.9898V76.7711V76.4275H85.6456V76.7711ZM92.8632 79.6446H92.5196V83.9547H92.8632H93.2069V79.6446H92.8632ZM89.9898 76.7711V77.1148C91.387 77.1148 92.5196 78.2474 92.5196 79.6446H92.8632H93.2069C93.2069 77.8678 91.7665 76.4275 89.9898 76.4275V76.7711Z" fill="#8931ED"/>
<path d="M43.6162 98.6316L40.1797 96.9912V100.959L43.6162 99.3189V98.6316ZM85.9106 99.3189L89.3471 100.959V96.9912L85.9106 98.6316V99.3189ZM43.2725 98.9752V99.3189H86.2543V98.9752V98.6316H43.2725V98.9752Z" fill="#8931ED"/>
<path d="M11.1023 134.925H142.745" stroke="#F3C01D" stroke-width="0.687285"/>
<mask id="path-4-outside-1_2025_25" maskUnits="userSpaceOnUse" x="10" y="2.75525" width="113" height="135" fill="black">
<rect fill="white" x="10" y="2.75525" width="113" height="135"/>
<path d="M28.7593 18.7552H26.4754V4.5866H28.7593V18.7552ZM37.7681 18.7552H35.3574C33.0946 18.7552 31.6989 17.7613 31.6989 15.2025V10.1483H29.9225V8.24507H31.6989V5.94002H33.9616V8.24507H37.7681V10.1483H33.9616V15.0756C33.9616 16.3656 34.5538 16.704 35.8649 16.704H37.7681V18.7552ZM40.5079 9.958H39.1756L38.6681 7.23001V4.5866H41.0154V7.23001L40.5079 9.958ZM47.5739 18.9667C44.1903 18.9667 42.2659 17.6344 42.2659 15.2025V15.1391H44.5498V15.3082C44.5498 16.6828 45.3745 17.1269 47.5739 17.1269C49.6251 17.1269 50.2384 16.704 50.2384 15.7735C50.2384 14.9065 49.7309 14.6315 48.2294 14.4201L45.3534 14.0394C43.3656 13.7856 42.1602 12.9398 42.1602 11.1845C42.1602 9.34473 43.8308 8.0336 47.0663 8.0336C50.2807 8.0336 52.2262 9.32358 52.2262 11.819V11.8824H49.9635V11.7555C49.9635 10.5078 49.3291 9.85226 47.0029 9.85226C45.0785 9.85226 44.4018 10.2752 44.4018 11.2691C44.4018 12.0939 44.8247 12.3899 46.4108 12.6014L48.8427 12.9398C51.3381 13.257 52.48 14.1029 52.48 15.8369C52.48 17.8036 50.5345 18.9667 47.5739 18.9667ZM59.2286 56.7552H56.9659V44.6379H51.383V42.5866H64.7903V44.6379H59.2286V56.7552ZM71.4978 56.9667C68.0085 56.9667 65.6612 54.7463 65.6612 51.5107C65.6612 48.2329 68.0085 46.0336 71.4978 46.0336C75.0083 46.0336 77.3556 48.2329 77.3556 51.5107C77.3556 54.7463 75.0083 56.9667 71.4978 56.9667ZM71.4978 54.9366C74.0566 54.9366 75.114 53.7312 75.114 51.5107C75.114 49.2691 74.0566 48.0426 71.4978 48.0426C68.9602 48.0426 67.9028 49.2691 67.9028 51.5107C67.9028 53.7312 68.9602 54.9366 71.4978 54.9366ZM49.021 94.7552H40.7948V80.5866H48.725C51.4318 80.5866 53.0602 81.8343 53.0602 84.0759C53.0602 85.7465 52.1297 86.9942 49.9727 87.248V87.396C52.3834 87.6709 53.5677 88.9821 53.5677 90.843C53.5677 93.2749 51.9394 94.7552 49.021 94.7552ZM43.0575 82.6379V86.529H48.4078C49.9938 86.529 50.7974 85.9157 50.7974 84.5834C50.7974 83.2512 50.0572 82.6379 48.4712 82.6379H43.0575ZM43.0575 88.4111V92.704H48.7673C50.459 92.704 51.2838 92.0695 51.2838 90.5258C51.2838 89.0455 50.4379 88.4111 48.7673 88.4111H43.0575ZM59.4243 94.9667C56.4637 94.9667 55.0257 93 55.0257 90.5681V84.2451H57.2884V89.9548C57.2884 91.9215 58.1978 92.9154 60.4182 92.9154C62.7444 92.9154 63.8229 91.7312 63.8229 89.4473V84.2451H66.0857V94.7552H63.9921V91.4986H63.8652C63.5269 93.2749 62.1312 94.9667 59.4243 94.9667ZM70.4445 83.0185H68.1606V80.5866H70.4445V83.0185ZM70.4445 94.7552H68.1606V84.2451H70.4445V94.7552ZM74.8433 94.7552H72.5594V80.5866H74.8433V94.7552ZM81.5894 94.9667C78.2693 94.9667 76.4295 92.7463 76.4295 89.5107C76.4295 86.2329 78.2482 84.0336 81.4414 84.0336C83.9368 84.0336 85.3536 85.3236 85.7766 87.0999H85.9035V80.5866H88.1874V94.7552H86.0938V91.7312H85.9458C85.5017 93.8248 83.9579 94.9667 81.5894 94.9667ZM78.7345 89.5107C78.7345 92.0273 80.0245 92.8731 82.2873 92.8731C84.5289 92.8731 85.9035 91.8158 85.9035 89.6165V89.4473C85.9035 87.2057 84.5923 86.106 82.245 86.106C80.0457 86.106 78.7345 86.9731 78.7345 89.5107ZM17.5589 132.967C13.3295 132.967 11.1724 131.106 11.1724 128.124V127.997H13.4563V128.335C13.4563 130.027 14.4503 130.873 17.5589 130.873C20.2657 130.873 21.2174 130.281 21.2174 128.949C21.2174 127.722 20.4984 127.257 18.7009 126.919L15.2327 126.348C12.8431 125.925 11.1513 124.825 11.1513 122.499C11.1513 120.448 12.8431 118.375 17.2417 118.375C21.3866 118.375 23.2687 120.448 23.2687 123.218V123.345H21.0059V123.07C21.0059 121.336 19.9697 120.469 17.0302 120.469C14.4503 120.469 13.4352 121.103 13.4352 122.372C13.4352 123.598 14.1542 124 15.8248 124.36L19.2718 124.952C22.1056 125.459 23.5013 126.749 23.5013 128.822C23.5013 130.979 21.7461 132.967 17.5589 132.967ZM30.4941 132.967C27.0048 132.967 24.6574 130.746 24.6574 127.511C24.6574 124.233 27.0048 122.034 30.4941 122.034C34.0045 122.034 36.3519 124.233 36.3519 127.511C36.3519 130.746 34.0045 132.967 30.4941 132.967ZM30.4941 130.937C33.0529 130.937 34.1102 129.731 34.1102 127.511C34.1102 125.269 33.0529 124.043 30.4941 124.043C27.9564 124.043 26.899 125.269 26.899 127.511C26.899 129.731 27.9564 130.937 30.4941 130.937ZM40.2932 132.755H38.0093V122.245H40.1028V125.417H40.2297C40.5046 123.662 41.6466 122.034 44.2689 122.034C46.6585 122.034 47.9485 123.493 48.2445 125.502H48.3714C48.6463 123.704 49.8306 122.034 52.4951 122.034C55.2231 122.034 56.5977 123.895 56.5977 126.432V132.755H54.3349V127.045C54.3349 124.973 53.5102 124.085 51.4801 124.085C49.2385 124.085 48.4349 125.227 48.4349 127.553V132.755H46.1721V127.045C46.1721 124.973 45.3685 124.085 43.3384 124.085C41.0756 124.085 40.2932 125.227 40.2932 127.553V132.755ZM63.927 132.967C60.48 132.967 58.2173 131.021 58.2173 127.511C58.2173 124.233 60.4589 122.034 63.8847 122.034C67.1414 122.034 69.3619 123.831 69.3619 127.024C69.3619 127.405 69.3407 127.701 69.2773 128.018H60.3531C60.4377 130.048 61.4316 131.127 63.8636 131.127C66.0629 131.127 66.9722 130.408 66.9722 129.16V128.991H69.2561V129.181C69.2561 131.423 67.0568 132.967 63.927 132.967ZM63.8424 123.831C61.5162 123.831 60.5012 124.867 60.3743 126.749H67.2048V126.707C67.2048 124.762 66.084 123.831 63.8424 123.831ZM77.9665 132.755H75.5557C73.2929 132.755 71.8972 131.761 71.8972 129.203V124.148H70.1209V122.245H71.8972V119.94H74.16V122.245H77.9665V124.148H74.16V129.076C74.16 130.366 74.7521 130.704 76.0632 130.704H77.9665V132.755ZM81.679 132.755H79.3951V118.587H81.679V125.459H81.8059C82.1654 123.683 83.4553 122.034 86.141 122.034C89.0382 122.034 90.4551 123.937 90.4551 126.496V132.755H88.1923V127.045C88.1923 124.931 87.2407 124.085 85.0625 124.085C82.5672 124.085 81.679 125.438 81.679 127.659V132.755ZM94.7927 121.019H92.5088V118.587H94.7927V121.019ZM94.7927 132.755H92.5088V122.245H94.7927V132.755ZM99.1915 132.755H96.9076V122.245H99.0012V125.502H99.1492C99.4664 123.725 100.862 122.034 103.527 122.034C106.445 122.034 107.883 124 107.883 126.432V132.755H105.599V127.045C105.599 125.079 104.711 124.085 102.533 124.085C100.228 124.085 99.1915 125.269 99.1915 127.553V132.755ZM114.486 131.804C111.356 131.804 109.495 129.837 109.495 126.919C109.495 124 111.441 122.034 114.634 122.034C116.833 122.034 118.483 123.028 118.863 124.867H118.99V122.245H121.084V131.529C121.084 135.06 118.885 136.562 115.438 136.562C112.329 136.562 110.172 135.103 110.172 132.565H112.435C112.435 134.088 113.323 134.659 115.564 134.659C117.954 134.659 118.821 134.003 118.821 131.656V129.076H118.673C118.292 130.662 116.876 131.804 114.486 131.804ZM111.8 126.919C111.8 129.076 113.069 129.837 115.226 129.837C117.552 129.837 118.821 128.864 118.821 127.003V126.707C118.821 124.931 117.51 124.021 115.29 124.021C113.09 124.021 111.8 124.762 111.8 126.919Z"/>
</mask>
<path d="M28.7593 18.7552H26.4754V4.5866H28.7593V18.7552ZM37.7681 18.7552H35.3574C33.0946 18.7552 31.6989 17.7613 31.6989 15.2025V10.1483H29.9225V8.24507H31.6989V5.94002H33.9616V8.24507H37.7681V10.1483H33.9616V15.0756C33.9616 16.3656 34.5538 16.704 35.8649 16.704H37.7681V18.7552ZM40.5079 9.958H39.1756L38.6681 7.23001V4.5866H41.0154V7.23001L40.5079 9.958ZM47.5739 18.9667C44.1903 18.9667 42.2659 17.6344 42.2659 15.2025V15.1391H44.5498V15.3082C44.5498 16.6828 45.3745 17.1269 47.5739 17.1269C49.6251 17.1269 50.2384 16.704 50.2384 15.7735C50.2384 14.9065 49.7309 14.6315 48.2294 14.4201L45.3534 14.0394C43.3656 13.7856 42.1602 12.9398 42.1602 11.1845C42.1602 9.34473 43.8308 8.0336 47.0663 8.0336C50.2807 8.0336 52.2262 9.32358 52.2262 11.819V11.8824H49.9635V11.7555C49.9635 10.5078 49.3291 9.85226 47.0029 9.85226C45.0785 9.85226 44.4018 10.2752 44.4018 11.2691C44.4018 12.0939 44.8247 12.3899 46.4108 12.6014L48.8427 12.9398C51.3381 13.257 52.48 14.1029 52.48 15.8369C52.48 17.8036 50.5345 18.9667 47.5739 18.9667ZM59.2286 56.7552H56.9659V44.6379H51.383V42.5866H64.7903V44.6379H59.2286V56.7552ZM71.4978 56.9667C68.0085 56.9667 65.6612 54.7463 65.6612 51.5107C65.6612 48.2329 68.0085 46.0336 71.4978 46.0336C75.0083 46.0336 77.3556 48.2329 77.3556 51.5107C77.3556 54.7463 75.0083 56.9667 71.4978 56.9667ZM71.4978 54.9366C74.0566 54.9366 75.114 53.7312 75.114 51.5107C75.114 49.2691 74.0566 48.0426 71.4978 48.0426C68.9602 48.0426 67.9028 49.2691 67.9028 51.5107C67.9028 53.7312 68.9602 54.9366 71.4978 54.9366ZM49.021 94.7552H40.7948V80.5866H48.725C51.4318 80.5866 53.0602 81.8343 53.0602 84.0759C53.0602 85.7465 52.1297 86.9942 49.9727 87.248V87.396C52.3834 87.6709 53.5677 88.9821 53.5677 90.843C53.5677 93.2749 51.9394 94.7552 49.021 94.7552ZM43.0575 82.6379V86.529H48.4078C49.9938 86.529 50.7974 85.9157 50.7974 84.5834C50.7974 83.2512 50.0572 82.6379 48.4712 82.6379H43.0575ZM43.0575 88.4111V92.704H48.7673C50.459 92.704 51.2838 92.0695 51.2838 90.5258C51.2838 89.0455 50.4379 88.4111 48.7673 88.4111H43.0575ZM59.4243 94.9667C56.4637 94.9667 55.0257 93 55.0257 90.5681V84.2451H57.2884V89.9548C57.2884 91.9215 58.1978 92.9154 60.4182 92.9154C62.7444 92.9154 63.8229 91.7312 63.8229 89.4473V84.2451H66.0857V94.7552H63.9921V91.4986H63.8652C63.5269 93.2749 62.1312 94.9667 59.4243 94.9667ZM70.4445 83.0185H68.1606V80.5866H70.4445V83.0185ZM70.4445 94.7552H68.1606V84.2451H70.4445V94.7552ZM74.8433 94.7552H72.5594V80.5866H74.8433V94.7552ZM81.5894 94.9667C78.2693 94.9667 76.4295 92.7463 76.4295 89.5107C76.4295 86.2329 78.2482 84.0336 81.4414 84.0336C83.9368 84.0336 85.3536 85.3236 85.7766 87.0999H85.9035V80.5866H88.1874V94.7552H86.0938V91.7312H85.9458C85.5017 93.8248 83.9579 94.9667 81.5894 94.9667ZM78.7345 89.5107C78.7345 92.0273 80.0245 92.8731 82.2873 92.8731C84.5289 92.8731 85.9035 91.8158 85.9035 89.6165V89.4473C85.9035 87.2057 84.5923 86.106 82.245 86.106C80.0457 86.106 78.7345 86.9731 78.7345 89.5107ZM17.5589 132.967C13.3295 132.967 11.1724 131.106 11.1724 128.124V127.997H13.4563V128.335C13.4563 130.027 14.4503 130.873 17.5589 130.873C20.2657 130.873 21.2174 130.281 21.2174 128.949C21.2174 127.722 20.4984 127.257 18.7009 126.919L15.2327 126.348C12.8431 125.925 11.1513 124.825 11.1513 122.499C11.1513 120.448 12.8431 118.375 17.2417 118.375C21.3866 118.375 23.2687 120.448 23.2687 123.218V123.345H21.0059V123.07C21.0059 121.336 19.9697 120.469 17.0302 120.469C14.4503 120.469 13.4352 121.103 13.4352 122.372C13.4352 123.598 14.1542 124 15.8248 124.36L19.2718 124.952C22.1056 125.459 23.5013 126.749 23.5013 128.822C23.5013 130.979 21.7461 132.967 17.5589 132.967ZM30.4941 132.967C27.0048 132.967 24.6574 130.746 24.6574 127.511C24.6574 124.233 27.0048 122.034 30.4941 122.034C34.0045 122.034 36.3519 124.233 36.3519 127.511C36.3519 130.746 34.0045 132.967 30.4941 132.967ZM30.4941 130.937C33.0529 130.937 34.1102 129.731 34.1102 127.511C34.1102 125.269 33.0529 124.043 30.4941 124.043C27.9564 124.043 26.899 125.269 26.899 127.511C26.899 129.731 27.9564 130.937 30.4941 130.937ZM40.2932 132.755H38.0093V122.245H40.1028V125.417H40.2297C40.5046 123.662 41.6466 122.034 44.2689 122.034C46.6585 122.034 47.9485 123.493 48.2445 125.502H48.3714C48.6463 123.704 49.8306 122.034 52.4951 122.034C55.2231 122.034 56.5977 123.895 56.5977 126.432V132.755H54.3349V127.045C54.3349 124.973 53.5102 124.085 51.4801 124.085C49.2385 124.085 48.4349 125.227 48.4349 127.553V132.755H46.1721V127.045C46.1721 124.973 45.3685 124.085 43.3384 124.085C41.0756 124.085 40.2932 125.227 40.2932 127.553V132.755ZM63.927 132.967C60.48 132.967 58.2173 131.021 58.2173 127.511C58.2173 124.233 60.4589 122.034 63.8847 122.034C67.1414 122.034 69.3619 123.831 69.3619 127.024C69.3619 127.405 69.3407 127.701 69.2773 128.018H60.3531C60.4377 130.048 61.4316 131.127 63.8636 131.127C66.0629 131.127 66.9722 130.408 66.9722 129.16V128.991H69.2561V129.181C69.2561 131.423 67.0568 132.967 63.927 132.967ZM63.8424 123.831C61.5162 123.831 60.5012 124.867 60.3743 126.749H67.2048V126.707C67.2048 124.762 66.084 123.831 63.8424 123.831ZM77.9665 132.755H75.5557C73.2929 132.755 71.8972 131.761 71.8972 129.203V124.148H70.1209V122.245H71.8972V119.94H74.16V122.245H77.9665V124.148H74.16V129.076C74.16 130.366 74.7521 130.704 76.0632 130.704H77.9665V132.755ZM81.679 132.755H79.3951V118.587H81.679V125.459H81.8059C82.1654 123.683 83.4553 122.034 86.141 122.034C89.0382 122.034 90.4551 123.937 90.4551 126.496V132.755H88.1923V127.045C88.1923 124.931 87.2407 124.085 85.0625 124.085C82.5672 124.085 81.679 125.438 81.679 127.659V132.755ZM94.7927 121.019H92.5088V118.587H94.7927V121.019ZM94.7927 132.755H92.5088V122.245H94.7927V132.755ZM99.1915 132.755H96.9076V122.245H99.0012V125.502H99.1492C99.4664 123.725 100.862 122.034 103.527 122.034C106.445 122.034 107.883 124 107.883 126.432V132.755H105.599V127.045C105.599 125.079 104.711 124.085 102.533 124.085C100.228 124.085 99.1915 125.269 99.1915 127.553V132.755ZM114.486 131.804C111.356 131.804 109.495 129.837 109.495 126.919C109.495 124 111.441 122.034 114.634 122.034C116.833 122.034 118.483 123.028 118.863 124.867H118.99V122.245H121.084V131.529C121.084 135.06 118.885 136.562 115.438 136.562C112.329 136.562 110.172 135.103 110.172 132.565H112.435C112.435 134.088 113.323 134.659 115.564 134.659C117.954 134.659 118.821 134.003 118.821 131.656V129.076H118.673C118.292 130.662 116.876 131.804 114.486 131.804ZM111.8 126.919C111.8 129.076 113.069 129.837 115.226 129.837C117.552 129.837 118.821 128.864 118.821 127.003V126.707C118.821 124.931 117.51 124.021 115.29 124.021C113.09 124.021 111.8 124.762 111.8 126.919Z" fill="white"/>
<path d="M28.7593 18.7552V19.8805H29.8845V18.7552H28.7593ZM26.4754 18.7552H25.3501V19.8805H26.4754V18.7552ZM26.4754 4.5866V3.46131H25.3501V4.5866H26.4754ZM28.7593 4.5866H29.8845V3.46131H28.7593V4.5866ZM28.7593 18.7552V17.63H26.4754V18.7552V19.8805H28.7593V18.7552ZM26.4754 18.7552H27.6006V4.5866H26.4754H25.3501V18.7552H26.4754ZM26.4754 4.5866V5.71189H28.7593V4.5866V3.46131H26.4754V4.5866ZM28.7593 4.5866H27.634V18.7552H28.7593H29.8845V4.5866H28.7593ZM37.7681 18.7552V19.8805H38.8934V18.7552H37.7681ZM31.6989 10.1483H32.8242V9.02304H31.6989V10.1483ZM29.9225 10.1483H28.7972V11.2736H29.9225V10.1483ZM29.9225 8.24507V7.11978H28.7972V8.24507H29.9225ZM31.6989 8.24507V9.37036H32.8242V8.24507H31.6989ZM31.6989 5.94002V4.81474H30.5736V5.94002H31.6989ZM33.9616 5.94002H35.0869V4.81474H33.9616V5.94002ZM33.9616 8.24507H32.8364V9.37036H33.9616V8.24507ZM37.7681 8.24507H38.8934V7.11978H37.7681V8.24507ZM37.7681 10.1483V11.2736H38.8934V10.1483H37.7681ZM33.9616 10.1483V9.02304H32.8364V10.1483H33.9616ZM37.7681 16.704H38.8934V15.5787H37.7681V16.704ZM37.7681 18.7552V17.63H35.3574V18.7552V19.8805H37.7681V18.7552ZM35.3574 18.7552V17.63C34.3659 17.63 33.7737 17.4091 33.4322 17.1018C33.1137 16.8154 32.8242 16.2819 32.8242 15.2025H31.6989H30.5736C30.5736 16.6819 30.9819 17.9248 31.927 18.775C32.849 19.6045 34.0861 19.8805 35.3574 19.8805V18.7552ZM31.6989 15.2025H32.8242V10.1483H31.6989H30.5736V15.2025H31.6989ZM31.6989 10.1483V9.02304H29.9225V10.1483V11.2736H31.6989V10.1483ZM29.9225 10.1483H31.0478V8.24507H29.9225H28.7972V10.1483H29.9225ZM29.9225 8.24507V9.37036H31.6989V8.24507V7.11978H29.9225V8.24507ZM31.6989 8.24507H32.8242V5.94002H31.6989H30.5736V8.24507H31.6989ZM31.6989 5.94002V7.06531H33.9616V5.94002V4.81474H31.6989V5.94002ZM33.9616 5.94002H32.8364V8.24507H33.9616H35.0869V5.94002H33.9616ZM33.9616 8.24507V9.37036H37.7681V8.24507V7.11978H33.9616V8.24507ZM37.7681 8.24507H36.6429V10.1483H37.7681H38.8934V8.24507H37.7681ZM37.7681 10.1483V9.02304H33.9616V10.1483V11.2736H37.7681V10.1483ZM33.9616 10.1483H32.8364V15.0756H33.9616H35.0869V10.1483H33.9616ZM33.9616 15.0756H32.8364C32.8364 15.8633 33.0158 16.6984 33.725 17.2573C34.3595 17.7574 35.1813 17.8293 35.8649 17.8293V16.704V15.5787C35.5776 15.5787 35.383 15.5594 35.2522 15.5311C35.1253 15.5036 35.1019 15.4769 35.1181 15.4897C35.2035 15.5571 35.0869 15.578 35.0869 15.0756H33.9616ZM35.8649 16.704V17.8293H37.7681V16.704V15.5787H35.8649V16.704ZM37.7681 16.704H36.6429V18.7552H37.7681H38.8934V16.704H37.7681ZM40.5079 9.958V11.0833H41.4431L41.6142 10.1638L40.5079 9.958ZM39.1756 9.958L38.0693 10.1638L38.2403 11.0833H39.1756V9.958ZM38.6681 7.23001H37.5428V7.33379L37.5617 7.43583L38.6681 7.23001ZM38.6681 4.5866V3.46131H37.5428V4.5866H38.6681ZM41.0154 4.5866H42.1407V3.46131H41.0154V4.5866ZM41.0154 7.23001L42.1217 7.43583L42.1407 7.33379V7.23001H41.0154ZM40.5079 9.958V8.83271H39.1756V9.958V11.0833H40.5079V9.958ZM39.1756 9.958L40.2819 9.75217L39.7744 7.02418L38.6681 7.23001L37.5617 7.43583L38.0693 10.1638L39.1756 9.958ZM38.6681 7.23001H39.7933V4.5866H38.6681H37.5428V7.23001H38.6681ZM38.6681 4.5866V5.71189H41.0154V4.5866V3.46131H38.6681V4.5866ZM41.0154 4.5866H39.8901V7.23001H41.0154H42.1407V4.5866H41.0154ZM41.0154 7.23001L39.9091 7.02418L39.4016 9.75217L40.5079 9.958L41.6142 10.1638L42.1217 7.43583L41.0154 7.23001ZM42.2659 15.1391V14.0138H41.1406V15.1391H42.2659ZM44.5498 15.1391H45.6751V14.0138H44.5498V15.1391ZM48.2294 14.4201L48.3864 13.3057L48.3771 13.3045L48.2294 14.4201ZM45.3534 14.0394L45.501 12.9238L45.4959 12.9232L45.3534 14.0394ZM52.2262 11.8824V13.0077H53.3515V11.8824H52.2262ZM49.9635 11.8824H48.8382V13.0077H49.9635V11.8824ZM46.4108 12.6014L46.5658 11.4868L46.5595 11.486L46.4108 12.6014ZM48.8427 12.9398L48.6876 14.0544L48.7008 14.0561L48.8427 12.9398ZM47.5739 18.9667V17.8414C46.0041 17.8414 44.94 17.5283 44.2992 17.0767C43.7149 16.665 43.3912 16.0784 43.3912 15.2025H42.2659H41.1406C41.1406 16.7585 41.7791 18.0541 43.0028 18.9164C44.1702 19.739 45.7601 20.092 47.5739 20.092V18.9667ZM42.2659 15.2025H43.3912V15.1391H42.2659H41.1406V15.2025H42.2659ZM42.2659 15.1391V16.2644H44.5498V15.1391V14.0138H42.2659V15.1391ZM44.5498 15.1391H43.4245V15.3082H44.5498H45.6751V15.1391H44.5498ZM44.5498 15.3082H43.4245C43.4245 15.7572 43.4908 16.2222 43.6967 16.6554C43.9115 17.1072 44.2456 17.4555 44.6668 17.7031C45.4332 18.1537 46.4658 18.2522 47.5739 18.2522V17.1269V16.0016C46.4826 16.0016 46.0031 15.8781 45.8074 15.763C45.7475 15.7278 45.7379 15.7073 45.7293 15.6892C45.7119 15.6526 45.6751 15.5466 45.6751 15.3082H44.5498ZM47.5739 17.1269V18.2522C48.6167 18.2522 49.534 18.1556 50.2115 17.7885C50.5855 17.5858 50.9001 17.2943 51.1068 16.9007C51.3064 16.5207 51.3637 16.1248 51.3637 15.7735H50.2384H49.1131C49.1131 15.8874 49.0938 15.8933 49.1143 15.8543C49.1419 15.8017 49.1749 15.7904 49.1392 15.8098C48.9972 15.8867 48.5822 16.0016 47.5739 16.0016V17.1269ZM50.2384 15.7735H51.3637C51.3637 15.4527 51.3176 15.095 51.1539 14.7469C50.9828 14.3833 50.72 14.1079 50.4083 13.9062C49.8594 13.5511 49.1209 13.4092 48.3864 13.3058L48.2294 14.4201L48.0725 15.5344C48.4292 15.5846 48.6914 15.634 48.8865 15.686C49.0854 15.7391 49.1652 15.7825 49.1856 15.7957C49.1885 15.7975 49.1464 15.7666 49.1174 15.705C49.0957 15.6589 49.1131 15.6607 49.1131 15.7735H50.2384ZM48.2294 14.4201L48.3771 13.3045L45.501 12.9239L45.3534 14.0394L45.2057 15.155L48.0818 15.5356L48.2294 14.4201ZM45.3534 14.0394L45.4959 12.9232C44.6042 12.8094 44.0509 12.579 43.7358 12.314C43.4699 12.0902 43.2854 11.7711 43.2854 11.1845H42.1602H41.0349C41.0349 12.3532 41.4531 13.3346 42.2869 14.0361C43.0715 14.6962 44.1148 15.0157 45.2109 15.1556L45.3534 14.0394ZM42.1602 11.1845H43.2854C43.2854 10.6545 43.5041 10.2083 44.0317 9.85034C44.6024 9.46315 45.5798 9.15889 47.0663 9.15889V8.0336V6.90831C45.3173 6.90831 43.8417 7.25961 42.7681 7.98794C41.6516 8.74549 41.0349 9.8748 41.0349 11.1845H42.1602ZM47.0663 8.0336V9.15889C48.5483 9.15889 49.5732 9.46022 50.1976 9.9062C50.7668 10.3128 51.101 10.9051 51.101 11.819H52.2262H53.3515C53.3515 10.2374 52.7129 8.9371 51.5057 8.07483C50.3537 7.25197 48.7987 6.90831 47.0663 6.90831V8.0336ZM52.2262 11.819H51.101V11.8824H52.2262H53.3515V11.819H52.2262ZM52.2262 11.8824V10.7571H49.9635V11.8824V13.0077H52.2262V11.8824ZM49.9635 11.8824H51.0888V11.7555H49.9635H48.8382V11.8824H49.9635ZM49.9635 11.7555H51.0888C51.0888 10.9361 50.8688 10.0319 50.008 9.41923C49.2576 8.88506 48.2121 8.72697 47.0029 8.72697V9.85226V10.9776C48.1199 10.9776 48.5547 11.1472 48.703 11.2528C48.7409 11.2798 48.8382 11.3273 48.8382 11.7555H49.9635ZM47.0029 9.85226V8.72697C46.0154 8.72697 45.1102 8.82483 44.4299 9.20669C44.0577 9.41561 43.746 9.71257 43.5397 10.1084C43.3396 10.4923 43.2765 10.8966 43.2765 11.2691H44.4018H45.5271C45.5271 11.1447 45.5485 11.1234 45.5355 11.1485C45.5162 11.1855 45.4939 11.1903 45.5315 11.1693C45.6706 11.0912 46.066 10.9776 47.0029 10.9776V9.85226ZM44.4018 11.2691H43.2765C43.2765 11.563 43.3127 11.9065 43.462 12.2471C43.6202 12.6082 43.8719 12.8904 44.1854 13.1003C44.7326 13.4666 45.4823 13.6129 46.262 13.7168L46.4108 12.6014L46.5595 11.486C46.1845 11.436 45.9146 11.3855 45.719 11.333C45.5193 11.2795 45.4478 11.2371 45.4376 11.2302C45.4365 11.2295 45.452 11.2399 45.473 11.2643C45.4947 11.2896 45.512 11.3179 45.5233 11.3439C45.5437 11.3904 45.5271 11.3876 45.5271 11.2691H44.4018ZM46.4108 12.6014L46.2557 13.716L48.6876 14.0543L48.8427 12.9398L48.9978 11.8252L46.5658 11.4869L46.4108 12.6014ZM48.8427 12.9398L48.7008 14.0561C49.8823 14.2063 50.5467 14.4637 50.9033 14.7429C51.1847 14.9634 51.3547 15.2564 51.3547 15.8369H52.48H53.6053C53.6053 14.6834 53.2043 13.6864 52.291 12.9711C51.4527 12.3146 50.2985 11.9905 48.9846 11.8235L48.8427 12.9398ZM52.48 15.8369H51.3547C51.3547 16.3832 51.1121 16.8271 50.5397 17.1858C49.9232 17.572 48.9286 17.8414 47.5739 17.8414V18.9667V20.092C49.1797 20.092 50.6381 19.7799 51.7346 19.0929C52.8752 18.3783 53.6053 17.2574 53.6053 15.8369H52.48ZM59.2286 56.7552V57.8805H60.3539V56.7552H59.2286ZM56.9659 56.7552H55.8406V57.8805H56.9659V56.7552ZM56.9659 44.6379H58.0912V43.5126H56.9659V44.6379ZM51.383 44.6379H50.2577V45.7632H51.383V44.6379ZM51.383 42.5866V41.4613H50.2577V42.5866H51.383ZM64.7903 42.5866H65.9156V41.4613H64.7903V42.5866ZM64.7903 44.6379V45.7632H65.9156V44.6379H64.7903ZM59.2286 44.6379V43.5126H58.1033V44.6379H59.2286ZM59.2286 56.7552V55.63H56.9659V56.7552V57.8805H59.2286V56.7552ZM56.9659 56.7552H58.0912V44.6379H56.9659H55.8406V56.7552H56.9659ZM56.9659 44.6379V43.5126H51.383V44.6379V45.7632H56.9659V44.6379ZM51.383 44.6379H52.5083V42.5866H51.383H50.2577V44.6379H51.383ZM51.383 42.5866V43.7119H64.7903V42.5866V41.4613H51.383V42.5866ZM64.7903 42.5866H63.6651V44.6379H64.7903H65.9156V42.5866H64.7903ZM64.7903 44.6379V43.5126H59.2286V44.6379V45.7632H64.7903V44.6379ZM59.2286 44.6379H58.1033V56.7552H59.2286H60.3539V44.6379H59.2286ZM71.4978 56.9667V55.8414C69.9931 55.8414 68.8239 55.3658 68.0409 54.6313C67.2635 53.9022 66.7865 52.8444 66.7865 51.5107H65.6612H64.5359C64.5359 53.4126 65.2325 55.0828 66.5012 56.2728C67.7641 57.4574 69.5133 58.092 71.4978 58.092V56.9667ZM65.6612 51.5107H66.7865C66.7865 50.1523 67.2659 49.0906 68.0409 48.3637C68.8221 47.6309 69.9902 47.1589 71.4978 47.1589V46.0336V44.9083C69.5161 44.9083 67.7659 45.5359 66.5012 46.7222C65.2301 47.9145 64.5359 49.5913 64.5359 51.5107H65.6612ZM71.4978 46.0336V47.1589C73.0177 47.1589 74.1911 47.6319 74.9743 48.3647C75.751 49.0913 76.2303 50.1524 76.2303 51.5107H77.3556H78.4809C78.4809 49.5912 77.7866 47.9138 76.5119 46.7213C75.2439 45.5349 73.4884 44.9083 71.4978 44.9083V46.0336ZM77.3556 51.5107H76.2303C76.2303 52.8443 75.7534 53.9015 74.9743 54.6303C74.1893 55.3648 73.0148 55.8414 71.4978 55.8414V56.9667V58.092C73.4913 58.092 75.2457 57.4584 76.5119 56.2738C77.7841 55.0835 78.4809 53.4127 78.4809 51.5107H77.3556ZM71.4978 54.9366V56.0619C72.9334 56.0619 74.1803 55.7249 75.0575 54.8556C75.9373 53.9838 76.2393 52.7811 76.2393 51.5107H75.114H73.9887C73.9887 52.4609 73.762 52.971 73.4734 53.257C73.1822 53.5456 72.621 53.8113 71.4978 53.8113V54.9366ZM75.114 51.5107H76.2393C76.2393 50.2324 75.9387 49.0218 75.063 48.1422C74.1867 47.262 72.9382 46.9173 71.4978 46.9173V48.0426V49.1679C72.6162 49.1679 73.1758 49.4365 73.468 49.73C73.7607 50.024 73.9887 50.5475 73.9887 51.5107H75.114ZM71.4978 48.0426V46.9173C70.0656 46.9173 68.8223 47.2632 67.9494 48.144C67.0781 49.0232 66.7775 50.2324 66.7775 51.5107H67.9028H69.0281C69.0281 50.5474 69.2562 50.0226 69.548 49.7281C69.8382 49.4353 70.3923 49.1679 71.4978 49.1679V48.0426ZM67.9028 51.5107H66.7775C66.7775 52.781 67.0794 53.9825 67.9548 54.8538C68.8287 55.7238 70.0705 56.0619 71.4978 56.0619V54.9366V53.8113C70.3875 53.8113 69.8318 53.5467 69.5426 53.2588C69.2548 52.9724 69.0281 52.4609 69.0281 51.5107H67.9028ZM40.7948 94.7552H39.6695V95.8805H40.7948V94.7552ZM40.7948 80.5866V79.4613H39.6695V80.5866H40.7948ZM49.9727 87.248L49.8412 86.1304L48.8474 86.2473V87.248H49.9727ZM49.9727 87.396H48.8474V88.4003L49.8452 88.5141L49.9727 87.396ZM43.0575 82.6379V81.5126H41.9322V82.6379H43.0575ZM43.0575 86.529H41.9322V87.6543H43.0575V86.529ZM43.0575 88.4111V87.2858H41.9322V88.4111H43.0575ZM43.0575 92.704H41.9322V93.8293H43.0575V92.704ZM49.021 94.7552V93.63H40.7948V94.7552V95.8805H49.021V94.7552ZM40.7948 94.7552H41.92V80.5866H40.7948H39.6695V94.7552H40.7948ZM40.7948 80.5866V81.7119H48.725V80.5866V79.4613H40.7948V80.5866ZM48.725 80.5866V81.7119C49.924 81.7119 50.7274 81.9903 51.2077 82.3718C51.6514 82.7242 51.9349 83.2538 51.9349 84.0759H53.0602H54.1854C54.1854 82.6564 53.6548 81.4413 52.6075 80.6095C51.5969 79.8068 50.2328 79.4613 48.725 79.4613V80.5866ZM53.0602 84.0759H51.9349C51.9349 84.7013 51.7643 85.1375 51.4926 85.4363C51.2193 85.737 50.7274 86.0261 49.8412 86.1304L49.9727 87.248L50.1041 88.3656C51.3749 88.2161 52.4268 87.7545 53.1579 86.9502C53.8908 86.1441 54.1854 85.1211 54.1854 84.0759H53.0602ZM49.9727 87.248H48.8474V87.396H49.9727H51.0979V87.248H49.9727ZM49.9727 87.396L49.8452 88.5141C50.879 88.6319 51.5125 88.9561 51.8803 89.3222C52.2338 89.6741 52.4424 90.1637 52.4424 90.843H53.5677H54.693C54.693 89.6613 54.3095 88.5649 53.4682 87.7273C52.6411 86.9039 51.4771 86.435 50.1002 86.278L49.9727 87.396ZM53.5677 90.843H52.4424C52.4424 91.7946 52.1336 92.44 51.6485 92.8635C51.1429 93.3051 50.302 93.63 49.021 93.63V94.7552V95.8805C50.6584 95.8805 52.0908 95.4652 53.1289 94.5587C54.1876 93.6341 54.693 92.3233 54.693 90.843H53.5677ZM43.0575 82.6379H41.9322V86.529H43.0575H44.1828V82.6379H43.0575ZM43.0575 86.529V87.6543H48.4078V86.529V85.4037H43.0575V86.529ZM48.4078 86.529V87.6543C49.3129 87.6543 50.2133 87.485 50.901 86.9339C51.6391 86.3425 51.9227 85.4861 51.9227 84.5834H50.7974H49.6721C49.6721 85.0131 49.5539 85.1294 49.4937 85.1777C49.3831 85.2663 49.0887 85.4037 48.4078 85.4037V86.529ZM50.7974 84.5834H51.9227C51.9227 83.7091 51.6724 82.8499 50.95 82.2471C50.2716 81.6809 49.3743 81.5126 48.4712 81.5126V82.6379V83.7632C49.1542 83.7632 49.4199 83.9015 49.5081 83.975C49.5523 84.0119 49.6721 84.1255 49.6721 84.5834H50.7974ZM48.4712 82.6379V81.5126H43.0575V82.6379V83.7632H48.4712V82.6379ZM43.0575 88.4111H41.9322V92.704H43.0575H44.1828V88.4111H43.0575ZM43.0575 92.704V93.8293H48.7673V92.704V91.5787H43.0575V92.704ZM48.7673 92.704V93.8293C49.7158 93.8293 50.6673 93.6585 51.3846 93.0547C52.1452 92.4144 52.4091 91.4925 52.4091 90.5258H51.2838H50.1585C50.1585 91.1028 50.01 91.27 49.9353 91.3329C49.8173 91.4322 49.5105 91.5787 48.7673 91.5787V92.704ZM51.2838 90.5258H52.4091C52.4091 89.568 52.1266 88.6654 51.3643 88.0422C50.6502 87.4583 49.7096 87.2858 48.7673 87.2858V88.4111V89.5364C49.4956 89.5364 49.8132 89.6811 49.9397 89.7845C50.0181 89.8485 50.1585 90.0033 50.1585 90.5258H51.2838ZM48.7673 88.4111V87.2858H43.0575V88.4111V89.5364H48.7673V88.4111ZM55.0257 84.2451V83.1198H53.9004V84.2451H55.0257ZM57.2884 84.2451H58.4137V83.1198H57.2884V84.2451ZM63.8229 84.2451V83.1198H62.6977V84.2451H63.8229ZM66.0857 84.2451H67.211V83.1198H66.0857V84.2451ZM66.0857 94.7552V95.8805H67.211V94.7552H66.0857ZM63.9921 94.7552H62.8668V95.8805H63.9921V94.7552ZM63.9921 91.4986H65.1174V90.3733H63.9921V91.4986ZM63.8652 91.4986V90.3733H62.9341L62.7598 91.288L63.8652 91.4986ZM59.4243 94.9667V93.8414C58.2071 93.8414 57.4276 93.4461 56.9442 92.9189C56.4459 92.3755 56.151 91.5697 56.151 90.5681H55.0257H53.9004C53.9004 91.9985 54.3245 93.392 55.2854 94.4399C56.2611 95.504 57.681 96.092 59.4243 96.092V94.9667ZM55.0257 90.5681H56.151V84.2451H55.0257H53.9004V90.5681H55.0257ZM55.0257 84.2451V85.3704H57.2884V84.2451V83.1198H55.0257V84.2451ZM57.2884 84.2451H56.1632V89.9548H57.2884H58.4137V84.2451H57.2884ZM57.2884 89.9548H56.1632C56.1632 91.09 56.4242 92.1845 57.2334 92.9767C58.0369 93.7634 59.1661 94.0407 60.4182 94.0407V92.9154V91.7902C59.45 91.7902 59.0142 91.5706 58.8079 91.3686C58.6073 91.1722 58.4137 90.7864 58.4137 89.9548H57.2884ZM60.4182 92.9154V94.0407C61.76 94.0407 62.9563 93.6975 63.8032 92.8187C64.6425 91.9477 64.9482 90.747 64.9482 89.4473H63.8229H62.6977C62.6977 90.4315 62.4642 90.9648 62.1826 91.257C61.9087 91.5412 61.4027 91.7902 60.4182 91.7902V92.9154ZM63.8229 89.4473H64.9482V84.2451H63.8229H62.6977V89.4473H63.8229ZM63.8229 84.2451V85.3704H66.0857V84.2451V83.1198H63.8229V84.2451ZM66.0857 84.2451H64.9604V94.7552H66.0857H67.211V84.2451H66.0857ZM66.0857 94.7552V93.63H63.9921V94.7552V95.8805H66.0857V94.7552ZM63.9921 94.7552H65.1174V91.4986H63.9921H62.8668V94.7552H63.9921ZM63.9921 91.4986V90.3733H63.8652V91.4986V92.6239H63.9921V91.4986ZM63.8652 91.4986L62.7598 91.288C62.6305 91.9668 62.3051 92.5983 61.7876 93.0557C61.2824 93.5023 60.5292 93.8414 59.4243 93.8414V94.9667V96.092C61.0263 96.092 62.3243 95.5852 63.2783 94.7419C64.22 93.9093 64.7616 92.8068 64.9706 91.7091L63.8652 91.4986ZM70.4445 83.0185V84.1438H71.5698V83.0185H70.4445ZM68.1606 83.0185H67.0353V84.1438H68.1606V83.0185ZM68.1606 80.5866V79.4613H67.0353V80.5866H68.1606ZM70.4445 80.5866H71.5698V79.4613H70.4445V80.5866ZM70.4445 94.7552V95.8805H71.5698V94.7552H70.4445ZM68.1606 94.7552H67.0353V95.8805H68.1606V94.7552ZM68.1606 84.2451V83.1198H67.0353V84.2451H68.1606ZM70.4445 84.2451H71.5698V83.1198H70.4445V84.2451ZM70.4445 83.0185V81.8932H68.1606V83.0185V84.1438H70.4445V83.0185ZM68.1606 83.0185H69.2859V80.5866H68.1606H67.0353V83.0185H68.1606ZM68.1606 80.5866V81.7119H70.4445V80.5866V79.4613H68.1606V80.5866ZM70.4445 80.5866H69.3192V83.0185H70.4445H71.5698V80.5866H70.4445ZM70.4445 94.7552V93.63H68.1606V94.7552V95.8805H70.4445V94.7552ZM68.1606 94.7552H69.2859V84.2451H68.1606H67.0353V94.7552H68.1606ZM68.1606 84.2451V85.3704H70.4445V84.2451V83.1198H68.1606V84.2451ZM70.4445 84.2451H69.3192V94.7552H70.4445H71.5698V84.2451H70.4445ZM74.8433 94.7552V95.8805H75.9686V94.7552H74.8433ZM72.5594 94.7552H71.4341V95.8805H72.5594V94.7552ZM72.5594 80.5866V79.4613H71.4341V80.5866H72.5594ZM74.8433 80.5866H75.9686V79.4613H74.8433V80.5866ZM74.8433 94.7552V93.63H72.5594V94.7552V95.8805H74.8433V94.7552ZM72.5594 94.7552H73.6847V80.5866H72.5594H71.4341V94.7552H72.5594ZM72.5594 80.5866V81.7119H74.8433V80.5866V79.4613H72.5594V80.5866ZM74.8433 80.5866H73.718V94.7552H74.8433H75.9686V80.5866H74.8433ZM85.7766 87.1L84.6819 87.3606L84.8878 88.2252H85.7766V87.1ZM85.9035 87.1V88.2252H87.0287V87.1H85.9035ZM85.9035 80.5866V79.4613H84.7782V80.5866H85.9035ZM88.1874 80.5866H89.3127V79.4613H88.1874V80.5866ZM88.1874 94.7552V95.8805H89.3127V94.7552H88.1874ZM86.0938 94.7552H84.9685V95.8805H86.0938V94.7552ZM86.0938 91.7312H87.2191V90.6059H86.0938V91.7312ZM85.9458 91.7312V90.6059H85.0341L84.845 91.4977L85.9458 91.7312ZM81.5894 94.9667V93.8414C80.1928 93.8414 79.2244 93.3831 78.5959 92.6938C77.9544 91.9903 77.5548 90.9218 77.5548 89.5107H76.4295H75.3042C75.3042 91.3352 75.8245 92.9947 76.9329 94.2103C78.0544 95.4401 79.6659 96.092 81.5894 96.092V94.9667ZM76.4295 89.5107H77.5548C77.5548 88.072 77.9529 86.9943 78.5787 86.291C79.1892 85.6048 80.1184 85.1589 81.4414 85.1589V84.0336V82.9083C79.5711 82.9083 77.9944 83.562 76.8973 84.795C75.8155 86.0108 75.3042 87.6716 75.3042 89.5107H76.4295ZM81.4414 84.0336V85.1589C82.4928 85.1589 83.2191 85.4283 83.7068 85.7977C84.1926 86.1656 84.5231 86.6938 84.6819 87.3606L85.7766 87.1L86.8713 86.8393C86.6071 85.7297 86.0177 84.7247 85.0655 84.0036C84.1152 83.2839 82.8853 82.9083 81.4414 82.9083V84.0336ZM85.7766 87.1V88.2252H85.9035V87.1V85.9747H85.7766V87.1ZM85.9035 87.1H87.0287V80.5866H85.9035H84.7782V87.1H85.9035ZM85.9035 80.5866V81.7119H88.1874V80.5866V79.4613H85.9035V80.5866ZM88.1874 80.5866H87.0621V94.7552H88.1874H89.3127V80.5866H88.1874ZM88.1874 94.7552V93.63H86.0938V94.7552V95.8805H88.1874V94.7552ZM86.0938 94.7552H87.2191V91.7312H86.0938H84.9685V94.7552H86.0938ZM86.0938 91.7312V90.6059H85.9458V91.7312V92.8565H86.0938V91.7312ZM85.9458 91.7312L84.845 91.4977C84.6715 92.3154 84.3056 92.8691 83.8187 93.2303C83.3211 93.5996 82.5964 93.8414 81.5894 93.8414V94.9667V96.092C82.9509 96.092 84.1824 95.7629 85.1597 95.0378C86.1479 94.3046 86.7759 93.2405 87.0466 91.9647L85.9458 91.7312ZM78.7346 89.5107H77.6093C77.6093 90.9487 77.9808 92.1651 78.9243 92.985C79.8334 93.7751 81.0537 93.9984 82.2873 93.9984V92.8731V91.7479C81.2581 91.7479 80.702 91.5482 80.4005 91.2862C80.1333 91.054 79.8598 90.5893 79.8598 89.5107H78.7346ZM82.2873 92.8731V93.9984C83.5664 93.9984 84.7724 93.6984 85.6719 92.9209C86.599 92.1194 87.0287 90.9608 87.0287 89.6165H85.9035H84.7782C84.7782 90.4715 84.5206 90.9412 84.2001 91.2182C83.8519 91.5192 83.2498 91.7479 82.2873 91.7479V92.8731ZM85.9035 89.6165H87.0287V89.4473H85.9035H84.7782V89.6165H85.9035ZM85.9035 89.4473H87.0287C87.0287 88.1044 86.629 86.9233 85.7043 86.097C84.802 85.2907 83.5751 84.9807 82.245 84.9807V86.106V87.2313C83.2622 87.2313 83.8645 87.4712 84.2047 87.7751C84.5223 88.059 84.7782 88.5486 84.7782 89.4473H85.9035ZM82.245 86.106V84.9807C81.0311 84.9807 79.8221 85.2142 78.9188 86.0145C77.9871 86.8399 77.6093 88.0596 77.6093 89.5107H78.7346H79.8598C79.8598 88.4242 80.1375 87.9416 80.4112 87.699C80.7133 87.4314 81.2596 87.2313 82.245 87.2313V86.106ZM11.1724 127.997V126.872H10.0471V127.997H11.1724ZM13.4563 127.997H14.5816V126.872H13.4563V127.997ZM18.7009 126.919L18.909 125.813L18.8964 125.81L18.8837 125.808L18.7009 126.919ZM15.2327 126.348L15.0366 127.456L15.0499 127.458L15.2327 126.348ZM23.2687 123.345V124.47H24.3939V123.345H23.2687ZM21.0059 123.345H19.8806V124.47H21.0059V123.345ZM15.8248 124.36L15.5881 125.46L15.6111 125.465L15.6343 125.469L15.8248 124.36ZM19.2718 124.952L19.4702 123.844L19.4623 123.843L19.2718 124.952ZM17.5589 132.967V131.841C15.5887 131.841 14.2735 131.405 13.4743 130.778C12.7143 130.182 12.2977 129.318 12.2977 128.124H11.1724H10.0471C10.0471 129.912 10.7091 131.469 12.085 132.549C13.4216 133.598 15.2997 134.092 17.5589 134.092V132.967ZM11.1724 128.124H12.2977V127.997H11.1724H10.0471V128.124H11.1724ZM11.1724 127.997V129.122H13.4563V127.997V126.872H11.1724V127.997ZM13.4563 127.997H12.331V128.335H13.4563H14.5816V127.997H13.4563ZM13.4563 128.335H12.331C12.331 129.427 12.673 130.481 13.7195 131.176C14.6465 131.792 15.9578 131.998 17.5589 131.998V130.873V129.748C16.0514 129.748 15.3114 129.532 14.9643 129.301C14.7366 129.15 14.5816 128.935 14.5816 128.335H13.4563ZM17.5589 130.873V131.998C18.9395 131.998 20.1012 131.857 20.9424 131.398C21.3936 131.152 21.7671 130.807 22.0159 130.347C22.2597 129.897 22.3427 129.413 22.3427 128.949H21.2174H20.0921C20.0921 129.15 20.0561 129.24 20.0369 129.276C20.0227 129.302 19.9891 129.355 19.864 129.423C19.5527 129.593 18.8851 129.748 17.5589 129.748V130.873ZM21.2174 128.949H22.3427C22.3427 128.074 22.0635 127.283 21.3204 126.71C20.6866 126.221 19.8212 125.984 18.909 125.813L18.7009 126.919L18.4927 128.024C19.378 128.191 19.7709 128.357 19.946 128.492C20.0085 128.54 20.0294 128.574 20.0437 128.607C20.0625 128.651 20.0921 128.749 20.0921 128.949H21.2174ZM18.7009 126.919L18.8837 125.808L15.4155 125.237L15.2327 126.348L15.0499 127.458L18.5181 128.029L18.7009 126.919ZM15.2327 126.348L15.4288 125.24C14.3311 125.045 13.5344 124.716 13.0282 124.283C12.5677 123.888 12.2766 123.349 12.2766 122.499H11.1513H10.026C10.026 123.975 10.5808 125.149 11.5636 125.991C12.5007 126.795 13.7447 127.227 15.0366 127.456L15.2327 126.348ZM11.1513 122.499H12.2766C12.2766 121.801 12.555 121.1 13.2479 120.548C13.9608 119.98 15.2068 119.5 17.2417 119.5V118.375V117.25C14.878 117.25 13.0787 117.806 11.8461 118.787C10.5934 119.785 10.026 121.146 10.026 122.499H11.1513ZM17.2417 118.375V119.5C19.1381 119.5 20.3478 119.974 21.0688 120.605C21.772 121.22 22.1434 122.099 22.1434 123.218H23.2687H24.3939C24.3939 121.567 23.8243 120.024 22.5502 118.91C21.294 117.812 19.4902 117.25 17.2417 117.25V118.375ZM23.2687 123.218H22.1434V123.345H23.2687H24.3939V123.218H23.2687ZM23.2687 123.345V122.219H21.0059V123.345V124.47H23.2687V123.345ZM21.0059 123.345H22.1312V123.07H21.0059H19.8806V123.345H21.0059ZM21.0059 123.07H22.1312C22.1312 121.956 21.7796 120.899 20.7607 120.194C19.8435 119.559 18.5601 119.343 17.0302 119.343V120.469V121.594C18.4398 121.594 19.1443 121.812 19.48 122.044C19.7141 122.206 19.8806 122.449 19.8806 123.07H21.0059ZM17.0302 120.469V119.343C15.6938 119.343 14.5568 119.5 13.7226 119.959C13.2819 120.201 12.9098 120.537 12.6562 120.982C12.4046 121.424 12.3099 121.903 12.3099 122.372H13.4352H14.5605C14.5605 122.206 14.5926 122.13 14.612 122.096C14.6293 122.066 14.6723 122.005 14.8079 121.93C15.1262 121.755 15.7866 121.594 17.0302 121.594V120.469ZM13.4352 122.372H12.3099C12.3099 123.249 12.5906 124.024 13.3177 124.583C13.9281 125.052 14.7566 125.281 15.5881 125.46L15.8248 124.36L16.0616 123.26C15.2224 123.079 14.8561 122.927 14.6893 122.799C14.6333 122.756 14.6174 122.728 14.6061 122.702C14.5901 122.665 14.5605 122.572 14.5605 122.372H13.4352ZM15.8248 124.36L15.6343 125.469L19.0813 126.061L19.2718 124.952L19.4623 123.843L16.0153 123.251L15.8248 124.36ZM19.2718 124.952L19.0734 126.06C20.3789 126.293 21.203 126.684 21.6885 127.129C22.1363 127.54 22.376 128.068 22.376 128.822H23.5013H24.6266C24.6266 127.503 24.1683 126.35 23.2099 125.471C22.2891 124.626 20.9984 124.118 19.4702 123.844L19.2718 124.952ZM23.5013 128.822H22.376C22.376 129.575 22.0804 130.28 21.3991 130.823C20.6961 131.383 19.4868 131.841 17.5589 131.841V132.967V134.092C19.8182 134.092 21.58 133.556 22.8015 132.583C24.0445 131.593 24.6266 130.226 24.6266 128.822H23.5013ZM30.4941 132.967V131.841C28.9893 131.841 27.8202 131.366 27.0371 130.631C26.2598 129.902 25.7827 128.844 25.7827 127.511H24.6574H23.5321C23.5321 129.413 24.2288 131.083 25.4974 132.273C26.7604 133.457 28.5095 134.092 30.4941 134.092V132.967ZM24.6574 127.511H25.7827C25.7827 126.152 26.2622 125.091 27.0371 124.364C27.8184 123.631 28.9865 123.159 30.4941 123.159V122.034V120.908C28.5124 120.908 26.7621 121.536 25.4974 122.722C24.2264 123.914 23.5321 125.591 23.5321 127.511H24.6574ZM30.4941 122.034V123.159C32.0139 123.159 33.1873 123.632 33.9706 124.365C34.7472 125.091 35.2266 126.152 35.2266 127.511H36.3519H37.4771C37.4771 125.591 36.7828 123.914 35.5082 122.721C34.2401 121.535 32.4847 120.908 30.4941 120.908V122.034ZM36.3519 127.511H35.2266C35.2266 128.844 34.7496 129.901 33.9706 130.63C33.1856 131.365 32.0111 131.841 30.4941 131.841V132.967V134.092C32.4875 134.092 34.2419 133.458 35.5082 132.274C36.7804 131.084 37.4771 129.413 37.4771 127.511H36.3519ZM30.4941 130.937V132.062C31.9297 132.062 33.1766 131.725 34.0538 130.856C34.9336 129.984 35.2355 128.781 35.2355 127.511H34.1102H32.985C32.985 128.461 32.7583 128.971 32.4696 129.257C32.1785 129.546 31.6173 129.811 30.4941 129.811V130.937ZM34.1102 127.511H35.2355C35.2355 126.232 34.9349 125.022 34.0592 124.142C33.183 123.262 31.9345 122.917 30.4941 122.917V124.043V125.168C31.6125 125.168 32.1721 125.436 32.4642 125.73C32.7569 126.024 32.985 126.547 32.985 127.511H34.1102ZM30.4941 124.043V122.917C29.0619 122.917 27.8185 123.263 26.9456 124.144C26.0743 125.023 25.7738 126.232 25.7738 127.511H26.899H28.0243C28.0243 126.547 28.2524 126.023 28.5442 125.728C28.8344 125.435 29.3886 125.168 30.4941 125.168V124.043ZM26.899 127.511H25.7738C25.7738 128.781 26.0757 129.982 26.951 130.854C27.8249 131.724 29.0667 132.062 30.4941 132.062V130.937V129.811C29.3838 129.811 28.828 129.547 28.5388 129.259C28.2511 128.972 28.0243 128.461 28.0243 127.511H26.899ZM40.2932 132.755V133.881H41.4185V132.755H40.2932ZM38.0093 132.755H36.884V133.881H38.0093V132.755ZM38.0093 122.245V121.12H36.884V122.245H38.0093ZM40.1028 122.245H41.2281V121.12H40.1028V122.245ZM40.1028 125.417H38.9776V126.542H40.1028V125.417ZM40.2297 125.417V126.542H41.1925L41.3415 125.591L40.2297 125.417ZM48.2445 125.502L47.1313 125.666L47.2729 126.627H48.2445V125.502ZM48.3714 125.502V126.627H49.3377L49.4838 125.672L48.3714 125.502ZM56.5977 132.755V133.881H57.723V132.755H56.5977ZM54.3349 132.755H53.2096V133.881H54.3349V132.755ZM48.4349 132.755V133.881H49.5601V132.755H48.4349ZM46.1721 132.755H45.0468V133.881H46.1721V132.755ZM40.2932 132.755V131.63H38.0093V132.755V133.881H40.2932V132.755ZM38.0093 132.755H39.1346V122.245H38.0093H36.884V132.755H38.0093ZM38.0093 122.245V123.37H40.1028V122.245V121.12H38.0093V122.245ZM40.1028 122.245H38.9776V125.417H40.1028H41.2281V122.245H40.1028ZM40.1028 125.417V126.542H40.2297V125.417V124.292H40.1028V125.417ZM40.2297 125.417L41.3415 125.591C41.4519 124.887 41.7239 124.29 42.1514 123.876C42.5604 123.48 43.207 123.159 44.2689 123.159V122.034V120.908C42.7084 120.908 41.4729 121.401 40.5867 122.258C39.7189 123.098 39.2825 124.193 39.118 125.243L40.2297 125.417ZM44.2689 122.034V123.159C45.2227 123.159 45.8536 123.444 46.2729 123.836C46.704 124.239 47.0112 124.851 47.1313 125.666L48.2445 125.502L49.3578 125.338C49.1818 124.144 48.696 123.021 47.8106 122.193C46.9136 121.353 45.7047 120.908 44.2689 120.908V122.034ZM48.2445 125.502V126.627H48.3714V125.502V124.376H48.2445V125.502ZM48.3714 125.502L49.4838 125.672C49.5941 124.951 49.8754 124.332 50.3199 123.902C50.7462 123.489 51.4148 123.159 52.4951 123.159V122.034V120.908C50.9109 120.908 49.6551 121.413 48.7544 122.285C47.872 123.139 47.4237 124.255 47.2591 125.332L48.3714 125.502ZM52.4951 122.034V123.159C53.5861 123.159 54.2833 123.52 54.7225 124.022C55.181 124.546 55.4724 125.356 55.4724 126.432H56.5977H57.723C57.723 124.971 57.3271 123.581 56.4163 122.54C55.4863 121.477 54.1322 120.908 52.4951 120.908V122.034ZM56.5977 126.432H55.4724V132.755H56.5977H57.723V126.432H56.5977ZM56.5977 132.755V131.63H54.3349V132.755V133.881H56.5977V132.755ZM54.3349 132.755H55.4602V127.045H54.3349H53.2096V132.755H54.3349ZM54.3349 127.045H55.4602C55.4602 125.898 55.2385 124.801 54.4822 124.01C53.7146 123.207 52.6296 122.96 51.4801 122.96V124.085V125.21C52.3606 125.21 52.7031 125.406 52.8554 125.566C53.019 125.737 53.2096 126.121 53.2096 127.045H54.3349ZM51.4801 124.085V122.96C50.1804 122.96 49.0305 123.294 48.253 124.225C47.5158 125.109 47.3096 126.305 47.3096 127.553H48.4349H49.5601C49.5601 126.474 49.7557 125.937 49.9807 125.668C50.1655 125.446 50.5381 125.21 51.4801 125.21V124.085ZM48.4349 127.553H47.3096V132.755H48.4349H49.5601V127.553H48.4349ZM48.4349 132.755V131.63H46.1721V132.755V133.881H48.4349V132.755ZM46.1721 132.755H47.2974V127.045H46.1721H45.0468V132.755H46.1721ZM46.1721 127.045H47.2974C47.2974 125.904 47.0835 124.808 46.3344 124.015C45.571 123.207 44.4876 122.96 43.3384 122.96V124.085V125.21C44.2193 125.21 44.5527 125.406 44.6987 125.561C44.8589 125.73 45.0468 126.115 45.0468 127.045H46.1721ZM43.3384 124.085V122.96C42.0314 122.96 40.8779 123.293 40.1015 124.228C39.3668 125.113 39.1679 126.311 39.1679 127.553H40.2932H41.4185C41.4185 126.469 41.6107 125.933 41.833 125.665C42.0135 125.448 42.3826 125.21 43.3384 125.21V124.085ZM40.2932 127.553H39.1679V132.755H40.2932H41.4185V127.553H40.2932ZM69.2773 128.018V129.144H70.1998L70.3807 128.239L69.2773 128.018ZM60.3531 128.018V126.893H59.18L59.2288 128.065L60.3531 128.018ZM66.9722 128.991V127.866H65.8469V128.991H66.9722ZM69.2561 128.991H70.3814V127.866H69.2561V128.991ZM60.3743 126.749L59.2515 126.674L59.1706 127.875H60.3743V126.749ZM67.2048 126.749V127.875H68.3301V126.749H67.2048ZM63.927 132.967V131.841C62.4091 131.841 61.2824 131.415 60.5451 130.73C59.8198 130.057 59.3426 129.015 59.3426 127.511H58.2173H57.092C57.092 129.517 57.7461 131.203 59.0139 132.38C60.2697 133.546 61.998 134.092 63.927 134.092V132.967ZM58.2173 127.511H59.3426C59.3426 126.136 59.8067 125.072 60.55 124.35C61.2961 123.626 62.4157 123.159 63.8847 123.159V122.034V120.908C61.9279 120.908 60.2138 121.541 58.9826 122.735C57.7486 123.933 57.092 125.607 57.092 127.511H58.2173ZM63.8847 122.034V123.159C65.3146 123.159 66.394 123.553 67.1003 124.175C67.7881 124.782 68.2366 125.705 68.2366 127.024H69.3619H70.4872C70.4872 125.15 69.8254 123.578 68.5888 122.488C67.3707 121.413 65.7115 120.908 63.8847 120.908V122.034ZM69.3619 127.024H68.2366C68.2366 127.359 68.2182 127.576 68.1738 127.798L69.2773 128.018L70.3807 128.239C70.4633 127.826 70.4872 127.451 70.4872 127.024H69.3619ZM69.2773 128.018V126.893H60.3531V128.018V129.144H69.2773V128.018ZM60.3531 128.018L59.2288 128.065C59.2778 129.239 59.5987 130.356 60.462 131.158C61.317 131.953 62.5035 132.252 63.8636 132.252V131.127V130.002C62.7918 130.002 62.2653 129.762 61.9943 129.51C61.7315 129.265 61.5131 128.827 61.4775 127.971L60.3531 128.018ZM63.8636 131.127V132.252C65.0484 132.252 66.0923 132.065 66.868 131.547C67.728 130.972 68.0975 130.102 68.0975 129.16H66.9722H65.8469C65.8469 129.466 65.7617 129.579 65.6173 129.676C65.3885 129.829 64.8781 130.002 63.8636 130.002V131.127ZM66.9722 129.16H68.0975V128.991H66.9722H65.8469V129.16H66.9722ZM66.9722 128.991V130.116H69.2561V128.991V127.866H66.9722V128.991ZM69.2561 128.991H68.1308V129.181H69.2561H70.3814V128.991H69.2561ZM69.2561 129.181H68.1308C68.1308 129.89 67.7992 130.512 67.1151 130.996C66.4086 131.496 65.3202 131.841 63.927 131.841V132.967V134.092C65.6637 134.092 67.2398 133.665 68.4154 132.833C69.6134 131.985 70.3814 130.715 70.3814 129.181H69.2561ZM63.8424 123.831V122.706C62.5307 122.706 61.383 122.996 60.5392 123.741C59.6824 124.496 59.3271 125.552 59.2515 126.674L60.3743 126.749L61.497 126.825C61.5483 126.064 61.764 125.661 62.028 125.428C62.305 125.184 62.828 124.956 63.8424 124.956V123.831ZM60.3743 126.749V127.875H67.2048V126.749V125.624H60.3743V126.749ZM67.2048 126.749H68.3301V126.707H67.2048H66.0796V126.749H67.2048ZM67.2048 126.707H68.3301C68.3301 125.515 67.9788 124.434 67.0926 123.682C66.2429 122.96 65.0902 122.706 63.8424 122.706V123.831V124.956C64.8363 124.956 65.3648 125.167 65.6359 125.397C65.8705 125.597 66.0796 125.953 66.0796 126.707H67.2048ZM77.9665 132.755V133.881H79.0918V132.755H77.9665ZM71.8972 124.148H73.0225V123.023H71.8972V124.148ZM70.1208 124.148H68.9956V125.274H70.1208V124.148ZM70.1208 122.245V121.12H68.9956V122.245H70.1208ZM71.8972 122.245V123.37H73.0225V122.245H71.8972ZM71.8972 119.94V118.815H70.7719V119.94H71.8972ZM74.16 119.94H75.2853V118.815H74.16V119.94ZM74.16 122.245H73.0347V123.37H74.16V122.245ZM77.9665 122.245H79.0918V121.12H77.9665V122.245ZM77.9665 124.148V125.274H79.0918V124.148H77.9665ZM74.16 124.148V123.023H73.0347V124.148H74.16ZM77.9665 130.704H79.0918V129.579H77.9665V130.704ZM77.9665 132.755V131.63H75.5557V132.755V133.881H77.9665V132.755ZM75.5557 132.755V131.63C74.5642 131.63 73.972 131.409 73.6305 131.102C73.312 130.815 73.0225 130.282 73.0225 129.203H71.8972H70.7719C70.7719 130.682 71.1802 131.925 72.1253 132.775C73.0473 133.604 74.2844 133.881 75.5557 133.881V132.755ZM71.8972 129.203H73.0225V124.148H71.8972H70.7719V129.203H71.8972ZM71.8972 124.148V123.023H70.1208V124.148V125.274H71.8972V124.148ZM70.1208 124.148H71.2461V122.245H70.1208H68.9956V124.148H70.1208ZM70.1208 122.245V123.37H71.8972V122.245V121.12H70.1208V122.245ZM71.8972 122.245H73.0225V119.94H71.8972H70.7719V122.245H71.8972ZM71.8972 119.94V121.065H74.16V119.94V118.815H71.8972V119.94ZM74.16 119.94H73.0347V122.245H74.16H75.2853V119.94H74.16ZM74.16 122.245V123.37H77.9665V122.245V121.12H74.16V122.245ZM77.9665 122.245H76.8412V124.148H77.9665H79.0918V122.245H77.9665ZM77.9665 124.148V123.023H74.16V124.148V125.274H77.9665V124.148ZM74.16 124.148H73.0347V129.076H74.16H75.2853V124.148H74.16ZM74.16 129.076H73.0347C73.0347 129.863 73.2141 130.698 73.9234 131.257C74.5578 131.757 75.3796 131.829 76.0632 131.829V130.704V129.579C75.7759 129.579 75.5813 129.559 75.4506 129.531C75.3237 129.504 75.3002 129.477 75.3165 129.49C75.4019 129.557 75.2853 129.578 75.2853 129.076H74.16ZM76.0632 130.704V131.829H77.9665V130.704V129.579H76.0632V130.704ZM77.9665 130.704H76.8412V132.755H77.9665H79.0918V130.704H77.9665ZM81.679 132.755V133.881H82.8043V132.755H81.679ZM79.3951 132.755H78.2698V133.881H79.3951V132.755ZM79.3951 118.587V117.461H78.2698V118.587H79.3951ZM81.679 118.587H82.8043V117.461H81.679V118.587ZM81.679 125.459H80.5537V126.585H81.679V125.459ZM81.8059 125.459V126.585H82.7262L82.9088 125.683L81.8059 125.459ZM90.4551 132.755V133.881H91.5804V132.755H90.4551ZM88.1923 132.755H87.067V133.881H88.1923V132.755ZM81.679 132.755V131.63H79.3951V132.755V133.881H81.679V132.755ZM79.3951 132.755H80.5204V118.587H79.3951H78.2698V132.755H79.3951ZM79.3951 118.587V119.712H81.679V118.587V117.461H79.3951V118.587ZM81.679 118.587H80.5537V125.459H81.679H82.8043V118.587H81.679ZM81.679 125.459V126.585H81.8059V125.459V124.334H81.679V125.459ZM81.8059 125.459L82.9088 125.683C83.0514 124.978 83.3671 124.356 83.8549 123.916C84.3281 123.489 85.0438 123.159 86.141 123.159V122.034V120.908C84.5526 120.908 83.2804 121.403 82.3473 122.245C81.4289 123.074 80.9198 124.165 80.7029 125.236L81.8059 125.459ZM86.141 122.034V123.159C87.3299 123.159 88.0819 123.54 88.5482 124.058C89.0311 124.594 89.3298 125.414 89.3298 126.496H90.4551H91.5804C91.5804 125.018 91.1706 123.607 90.2208 122.552C89.2544 121.479 87.8493 120.908 86.141 120.908V122.034ZM90.4551 126.496H89.3298V132.755H90.4551H91.5804V126.496H90.4551ZM90.4551 132.755V131.63H88.1923V132.755V133.881H90.4551V132.755ZM88.1923 132.755H89.3176V127.045H88.1923H87.067V132.755H88.1923ZM88.1923 127.045H89.3176C89.3176 125.846 89.0502 124.731 88.2117 123.949C87.3917 123.184 86.258 122.96 85.0625 122.96V124.085V125.21C86.0452 125.21 86.4764 125.408 86.6767 125.595C86.8586 125.765 87.067 126.13 87.067 127.045H88.1923ZM85.0625 124.085V122.96C83.6166 122.96 82.404 123.357 81.5847 124.302C80.794 125.214 80.5537 126.43 80.5537 127.659H81.679H82.8043C82.8043 126.667 83.008 126.096 83.2852 125.776C83.5339 125.489 84.0131 125.21 85.0625 125.21V124.085ZM81.679 127.659H80.5537V132.755H81.679H82.8043V127.659H81.679ZM94.7927 121.019V122.144H95.918V121.019H94.7927ZM92.5088 121.019H91.3835V122.144H92.5088V121.019ZM92.5088 118.587V117.461H91.3835V118.587H92.5088ZM94.7927 118.587H95.918V117.461H94.7927V118.587ZM94.7927 132.755V133.881H95.918V132.755H94.7927ZM92.5088 132.755H91.3835V133.881H92.5088V132.755ZM92.5088 122.245V121.12H91.3835V122.245H92.5088ZM94.7927 122.245H95.918V121.12H94.7927V122.245ZM94.7927 121.019V119.893H92.5088V121.019V122.144H94.7927V121.019ZM92.5088 121.019H93.6341V118.587H92.5088H91.3835V121.019H92.5088ZM92.5088 118.587V119.712H94.7927V118.587V117.461H92.5088V118.587ZM94.7927 118.587H93.6674V121.019H94.7927H95.918V118.587H94.7927ZM94.7927 132.755V131.63H92.5088V132.755V133.881H94.7927V132.755ZM92.5088 132.755H93.6341V122.245H92.5088H91.3835V132.755H92.5088ZM92.5088 122.245V123.37H94.7927V122.245V121.12H92.5088V122.245ZM94.7927 122.245H93.6674V132.755H94.7927H95.918V122.245H94.7927ZM99.1915 132.755V133.881H100.317V132.755H99.1915ZM96.9076 132.755H95.7823V133.881H96.9076V132.755ZM96.9076 122.245V121.12H95.7823V122.245H96.9076ZM99.0012 122.245H100.126V121.12H99.0012V122.245ZM99.0012 125.502H97.8759V126.627H99.0012V125.502ZM99.1492 125.502V126.627H100.091L100.257 125.7L99.1492 125.502ZM107.883 132.755V133.881H109.008V132.755H107.883ZM105.599 132.755H104.474V133.881H105.599V132.755ZM99.1915 132.755V131.63H96.9076V132.755V133.881H99.1915V132.755ZM96.9076 132.755H98.0329V122.245H96.9076H95.7823V132.755H96.9076ZM96.9076 122.245V123.37H99.0012V122.245V121.12H96.9076V122.245ZM99.0012 122.245H97.8759V125.502H99.0012H100.126V122.245H99.0012ZM99.0012 125.502V126.627H99.1492V125.502V124.376H99.0012V125.502ZM99.1492 125.502L100.257 125.7C100.377 125.026 100.697 124.397 101.208 123.941C101.706 123.495 102.447 123.159 103.527 123.159V122.034V120.908C101.942 120.908 100.653 121.418 99.7078 122.263C98.775 123.096 98.2384 124.201 98.0415 125.304L99.1492 125.502ZM103.527 122.034V123.159C104.718 123.159 105.487 123.551 105.967 124.078C106.463 124.623 106.758 125.43 106.758 126.432H107.883H109.008C109.008 125.002 108.584 123.61 107.631 122.563C106.663 121.5 105.254 120.908 103.527 120.908V122.034ZM107.883 126.432H106.758V132.755H107.883H109.008V126.432H107.883ZM107.883 132.755V131.63H105.599V132.755V133.881H107.883V132.755ZM105.599 132.755H106.724V127.045H105.599H104.474V132.755H105.599ZM105.599 127.045H106.724C106.724 125.917 106.472 124.825 105.678 124.032C104.886 123.239 103.769 122.96 102.533 122.96V124.085V125.21C103.475 125.21 103.891 125.427 104.087 125.623C104.282 125.819 104.474 126.208 104.474 127.045H105.599ZM102.533 124.085V122.96C101.199 122.96 100.013 123.305 99.1782 124.191C98.3564 125.065 98.0662 126.264 98.0662 127.553H99.1915H100.317C100.317 126.558 100.545 126.023 100.817 125.734C101.077 125.457 101.562 125.21 102.533 125.21V124.085ZM99.1915 127.553H98.0662V132.755H99.1915H100.317V127.553H99.1915ZM118.863 124.867L117.761 125.095L117.947 125.993H118.863V124.867ZM118.99 124.867V125.993H120.116V124.867H118.99ZM118.99 122.245V121.12H117.865V122.245H118.99ZM121.084 122.245H122.209V121.12H121.084V122.245ZM110.172 132.565V131.44H109.047V132.565H110.172ZM112.435 132.565H113.56V131.44H112.435V132.565ZM118.821 129.076H119.946V127.95H118.821V129.076ZM118.673 129.076V127.95H117.786L117.579 128.813L118.673 129.076ZM114.486 131.804V130.678C113.161 130.678 112.22 130.267 111.613 129.66C111.004 129.051 110.62 128.136 110.62 126.919H109.495H108.37C108.37 128.62 108.917 130.147 110.021 131.251C111.127 132.357 112.681 132.929 114.486 132.929V131.804ZM109.495 126.919H110.62C110.62 125.716 111.016 124.804 111.649 124.191C112.286 123.575 113.27 123.159 114.634 123.159V122.034V120.908C112.805 120.908 111.219 121.476 110.085 122.573C108.948 123.673 108.37 125.203 108.37 126.919H109.495ZM114.634 122.034V123.159C116.518 123.159 117.528 123.966 117.761 125.095L118.863 124.867L119.965 124.639C119.438 122.089 117.148 120.908 114.634 120.908V122.034ZM118.863 124.867V125.993H118.99V124.867V123.742H118.863V124.867ZM118.99 124.867H120.116V122.245H118.99H117.865V124.867H118.99ZM118.99 122.245V123.37H121.084V122.245V121.12H118.99V122.245ZM121.084 122.245H119.959V131.529H121.084H122.209V122.245H121.084ZM121.084 131.529H119.959C119.959 133.049 119.496 133.953 118.833 134.505C118.133 135.088 117.022 135.436 115.438 135.436V136.562V137.687C117.3 137.687 119.012 137.285 120.274 136.234C121.572 135.153 122.209 133.54 122.209 131.529H121.084ZM115.438 136.562V135.436C114.042 135.436 112.984 135.107 112.305 134.608C111.664 134.137 111.297 133.473 111.297 132.565H110.172H109.047C109.047 134.194 109.758 135.529 110.973 136.422C112.15 137.287 113.724 137.687 115.438 137.687V136.562ZM110.172 132.565V133.69H112.435V132.565V131.44H110.172V132.565ZM112.435 132.565H111.309C111.309 133.564 111.62 134.512 112.537 135.12C113.333 135.649 114.407 135.784 115.564 135.784V134.658V133.533C114.48 133.533 113.989 133.383 113.781 133.245C113.694 133.187 113.56 133.088 113.56 132.565H112.435ZM115.564 134.658V135.784C116.787 135.784 117.984 135.635 118.836 134.879C119.727 134.088 119.946 132.91 119.946 131.656H118.821H117.696C117.696 132.748 117.482 133.072 117.342 133.196C117.163 133.354 116.732 133.533 115.564 133.533V134.658ZM118.821 131.656H119.946V129.076H118.821H117.696V131.656H118.821ZM118.821 129.076V127.95H118.673V129.076V130.201H118.821V129.076ZM118.673 129.076L117.579 128.813C117.451 129.345 117.159 129.787 116.693 130.108C116.219 130.436 115.504 130.678 114.486 130.678V131.804V132.929C115.857 132.929 117.045 132.6 117.972 131.96C118.908 131.314 119.514 130.392 119.767 129.338L118.673 129.076ZM111.8 126.919H110.675C110.675 128.225 111.07 129.336 112.01 130.072C112.891 130.763 114.054 130.962 115.226 130.962V129.837V128.712C114.241 128.712 113.691 128.53 113.398 128.301C113.165 128.118 112.926 127.769 112.926 126.919H111.8ZM115.226 129.837V130.962C116.521 130.962 117.706 130.695 118.589 130.004C119.519 129.277 119.946 128.212 119.946 127.003H118.821H117.696C117.696 127.655 117.489 128.008 117.202 128.232C116.87 128.492 116.258 128.712 115.226 128.712V129.837ZM118.821 127.003H119.946V126.707H118.821H117.696V127.003H118.821ZM118.821 126.707H119.946C119.946 125.508 119.485 124.482 118.559 123.795C117.685 123.146 116.528 122.896 115.29 122.896V124.021V125.147C116.271 125.147 116.88 125.352 117.217 125.602C117.502 125.813 117.696 126.13 117.696 126.707H118.821ZM115.29 124.021V122.896C114.105 122.896 112.93 123.087 112.039 123.766C111.08 124.495 110.675 125.605 110.675 126.919H111.8H112.926C112.926 126.075 113.165 125.737 113.402 125.557C113.705 125.326 114.275 125.147 115.29 125.147V124.021Z" fill="#0C0F18" mask="url(#path-4-outside-1_2025_25)"/>
<rect width="151.359" height="26.9627" transform="translate(1.58606 156.601)" fill="#257EE4"/>
<path d="M11.8052 176.803C7.07526 176.803 4.89219 174.519 4.89219 170.921V163.058H8.69235V170.618C8.69235 172.538 9.23812 173.124 11.8052 173.124C14.3724 173.124 14.9181 172.538 14.9181 170.618V163.058H18.7183V170.921C18.7183 174.519 16.5352 176.803 11.8052 176.803ZM23.657 176.601H19.8569V166.413H23.4145V169.506H23.6166C23.839 167.808 24.9507 166.211 27.6796 166.211C30.4286 166.211 31.7223 167.869 31.7223 170.072V176.601H27.9221V171.467C27.9221 170.052 27.3966 169.607 25.739 169.607C24.0613 169.607 23.657 170.032 23.657 171.345V176.601ZM37.515 176.601H33.7149V169.526H32.3404V166.413H33.7957C34.2 164.493 36.0799 163.058 39.4151 163.058H40.2237V165.766H38.8087C37.7576 165.766 37.2523 165.868 37.2725 166.413H40.2237V169.526H37.515V176.601ZM46.6773 176.803C43.14 176.803 40.7345 174.802 40.7345 171.507C40.7345 168.192 43.14 166.211 46.6773 166.211C50.2147 166.211 52.6201 168.192 52.6201 171.507C52.6201 174.802 50.2147 176.803 46.6773 176.803ZM46.6773 173.448C48.3955 173.448 48.8604 172.983 48.8604 171.507C48.8604 170.032 48.3955 169.546 46.6773 169.546C44.9592 169.546 44.4943 170.032 44.4943 171.507C44.4943 172.983 44.9592 173.448 46.6773 173.448ZM57.3332 176.601H53.5331V166.413H57.0907V169.081H57.2928C57.5758 167.404 58.6269 166.211 60.6483 166.211C62.892 166.211 63.7814 167.687 63.7814 169.728V171.75H59.9812V170.557C59.9812 169.708 59.6578 169.405 58.6673 169.405C57.6364 169.405 57.3332 169.708 57.3332 170.517V176.601ZM69.1152 175.469C66.0832 175.469 64.3852 173.731 64.3852 170.82C64.3852 167.95 66.2045 166.211 69.2163 166.211C71.2781 166.211 72.6526 167.04 72.9356 168.799H73.1377V166.413H76.6953V174.883C76.6953 178.521 74.5325 180.239 70.611 180.239C67.0534 180.239 64.9916 178.744 64.9916 176.075H68.7918C68.7918 176.904 68.8929 177.106 70.8738 177.106C72.5111 177.106 72.8952 176.864 72.8952 175.146V173.003H72.693C72.4303 174.479 71.3589 175.469 69.1152 175.469ZM68.2258 170.82C68.2258 171.831 68.711 172.215 70.4897 172.215C72.1877 172.215 72.8952 172.012 72.8952 170.941V170.8C72.8952 169.708 72.1877 169.486 70.4897 169.486C68.711 169.486 68.2258 169.829 68.2258 170.82ZM83.5918 176.803C80.1353 176.803 77.7096 175.327 77.7096 171.507C77.7096 168.192 80.115 166.211 83.5109 166.211C87.0281 166.211 89.2718 167.97 89.2718 171.244C89.2718 171.588 89.2516 171.851 89.2112 172.215H81.2268C81.2874 173.448 81.8332 173.791 83.4503 173.791C84.9865 173.791 85.3908 173.528 85.3908 172.922V172.7H89.191V172.942C89.191 175.206 87.0281 176.803 83.5918 176.803ZM83.4301 169.122C82.0353 169.122 81.4491 169.425 81.2874 170.294H85.5929C85.4514 169.425 84.845 169.122 83.4301 169.122ZM97.9092 176.601H95.241C92.6941 176.601 91.178 175.368 91.178 172.72V169.526H89.6822V166.413H91.178V164.655H94.9782V166.413H97.9092V169.526H94.9782V172.174C94.9782 172.983 95.2208 173.185 96.09 173.185H97.9092V176.601ZM106.437 176.601H103.769C101.222 176.601 99.7057 175.368 99.7057 172.72V169.526H98.2099V166.413H99.7057V164.655H103.506V166.413H106.437V169.526H103.506V172.174C103.506 172.983 103.748 173.185 104.618 173.185H106.437V176.601ZM110.639 176.803C108.334 176.803 107.041 175.752 107.041 174.014C107.041 172.578 108.031 171.548 110.335 171.325L114.479 170.921V170.719C114.479 169.688 114.035 169.526 112.68 169.526C111.427 169.526 111.043 169.769 111.043 170.618V170.699H107.243V170.658C107.243 167.95 109.507 166.211 112.963 166.211C116.521 166.211 118.239 167.95 118.239 170.8V176.601H114.681V174.458H114.479C114.095 175.893 112.842 176.803 110.639 176.803ZM110.861 173.771C110.861 174.094 111.184 174.155 111.771 174.155C113.61 174.155 114.358 173.933 114.459 173.023L111.346 173.387C111.003 173.427 110.861 173.549 110.861 173.771ZM122.923 176.601H119.365V163.058H123.166V169.041H123.368C123.671 167.343 124.803 166.211 127.208 166.211C130.2 166.211 131.878 168.192 131.878 171.507C131.878 174.802 130.16 176.803 127.047 176.803C124.661 176.803 123.449 175.873 123.125 173.852H122.923V176.601ZM123.166 171.527C123.166 173.003 123.974 173.326 125.672 173.326C127.431 173.326 128.037 172.861 128.037 171.507C128.037 170.153 127.431 169.668 125.672 169.668C123.974 169.668 123.166 169.951 123.166 171.386V171.527ZM136.687 176.601H132.887V163.058H136.687V176.601ZM143.581 176.803C140.125 176.803 137.699 175.327 137.699 171.507C137.699 168.192 140.104 166.211 143.5 166.211C147.017 166.211 149.261 167.97 149.261 171.244C149.261 171.588 149.241 171.851 149.201 172.215H141.216C141.277 173.448 141.823 173.791 143.44 173.791C144.976 173.791 145.38 173.528 145.38 172.922V172.7H149.18V172.942C149.18 175.206 147.017 176.803 143.581 176.803ZM143.419 169.122C142.025 169.122 141.439 169.425 141.277 170.294H145.582C145.441 169.425 144.834 169.122 143.419 169.122Z" fill="white"/>
<rect x="57.9508" y="1.49396" width="47.9893" height="24.1987" fill="url(#paint0_linear_2025_25)"/>
<rect x="57.9508" y="1.49396" width="47.9893" height="24.1987" stroke="#D2583B" stroke-width="0.649301"/>
<path d="M66.426 19.1688H64.4251V8.45379H59.4883V6.6399H71.344V8.45379H66.426V19.1688ZM74.5451 8.79039H72.5255V6.6399H74.5451V8.79039ZM74.5451 19.1688H72.5255V9.87498H74.5451V19.1688ZM78.4348 19.1688H76.4152V9.87498H78.2665V12.68H78.3787C78.6218 11.1279 79.6316 9.68798 81.9504 9.68798C84.0635 9.68798 85.2042 10.9783 85.466 12.7548H85.5782C85.8213 11.1653 86.8684 9.68798 89.2246 9.68798C91.6369 9.68798 92.8524 11.3336 92.8524 13.5776V19.1688H90.8515V14.1199C90.8515 12.2873 90.1222 11.5019 88.327 11.5019C86.3449 11.5019 85.6343 12.5117 85.6343 14.5687V19.1688H83.6334V14.1199C83.6334 12.2873 82.9228 11.5019 81.1276 11.5019C79.1267 11.5019 78.4348 12.5117 78.4348 14.5687V19.1688ZM99.3335 19.3558C96.2854 19.3558 94.2846 17.6354 94.2846 14.5313C94.2846 11.6328 96.2667 9.68798 99.2961 9.68798C102.176 9.68798 104.139 11.2775 104.139 14.1012C104.139 14.4378 104.121 14.6996 104.065 14.98H96.1732C96.248 16.7752 97.1269 17.7289 99.2774 17.7289C101.222 17.7289 102.026 17.0931 102.026 15.9898V15.8402H104.046V16.0085C104.046 17.9907 102.101 19.3558 99.3335 19.3558ZM99.2587 11.2775C97.2017 11.2775 96.3041 12.1938 96.1919 13.8581H102.232V13.8207C102.232 12.1003 101.241 11.2775 99.2587 11.2775Z" fill="white"/>
<rect x="104.679" y="0.11145" width="2.33749" height="2.33749" fill="#D2583B"/>
<rect x="104.679" y="24.4308" width="2.33749" height="2.33749" fill="#D2583B"/>
<rect x="56.4573" y="25.0375" width="2.33749" height="2.33749" fill="#D2583B"/>
<rect x="56.4573" width="2.33749" height="2.33749" fill="#D2583B"/>
<path d="M100.456 137.916C100.369 137.8 100.453 137.635 100.597 137.638L106.592 137.748C106.765 137.751 106.827 137.977 106.68 138.068L104.258 139.578C104.203 139.612 104.172 139.673 104.177 139.737L104.38 142.584C104.392 142.756 104.172 142.839 104.068 142.701L100.456 137.916Z" fill="#F3C01D"/>
<path d="M105.629 140.305H140.7C141.85 140.305 142.782 141.237 142.782 142.386V147.119C142.782 148.269 141.85 149.201 140.7 149.201H107.711C106.561 149.201 105.629 148.269 105.629 147.119V140.305Z" fill="#F3C01D"/>
<path d="M109.488 145.753H108.222V142.972H109.488C110.351 142.972 110.895 143.503 110.895 144.362C110.895 145.221 110.351 145.753 109.488 145.753ZM109.488 143.375H108.666V145.35H109.488C110.131 145.35 110.422 145.076 110.422 144.362C110.422 143.649 110.131 143.375 109.488 143.375ZM112.266 145.794C111.59 145.794 111.146 145.412 111.146 144.723C111.146 144.08 111.586 143.649 112.258 143.649C112.897 143.649 113.333 144.001 113.333 144.628C113.333 144.703 113.328 144.761 113.316 144.823H111.565C111.581 145.221 111.776 145.433 112.254 145.433C112.685 145.433 112.864 145.292 112.864 145.047V145.014H113.312V145.051C113.312 145.491 112.88 145.794 112.266 145.794ZM112.249 144.001C111.793 144.001 111.594 144.205 111.569 144.574H112.909V144.566C112.909 144.184 112.689 144.001 112.249 144.001ZM114.643 145.794C113.979 145.794 113.602 145.533 113.602 145.055V145.043H114.05V145.076C114.05 145.346 114.212 145.433 114.643 145.433C115.046 145.433 115.166 145.35 115.166 145.167C115.166 144.997 115.067 144.943 114.772 144.902L114.208 144.827C113.818 144.777 113.581 144.611 113.581 144.267C113.581 143.906 113.909 143.649 114.544 143.649C115.174 143.649 115.556 143.902 115.556 144.391V144.404H115.112V144.379C115.112 144.134 114.988 144.006 114.531 144.006C114.154 144.006 114.021 144.089 114.021 144.284C114.021 144.445 114.104 144.504 114.415 144.545L114.892 144.611C115.382 144.674 115.606 144.84 115.606 145.18C115.606 145.566 115.224 145.794 114.643 145.794ZM116.378 143.45H115.929V142.972H116.378V143.45ZM116.378 145.753H115.929V143.69H116.378V145.753ZM117.689 145.566C117.075 145.566 116.71 145.18 116.71 144.607C116.71 144.035 117.091 143.649 117.718 143.649C118.149 143.649 118.473 143.844 118.548 144.205H118.573V143.69H118.983V145.512C118.983 146.205 118.552 146.499 117.876 146.499C117.266 146.499 116.842 146.213 116.842 145.715H117.286C117.286 146.014 117.461 146.126 117.9 146.126C118.369 146.126 118.539 145.997 118.539 145.537V145.031H118.51C118.436 145.342 118.158 145.566 117.689 145.566ZM117.162 144.607C117.162 145.031 117.411 145.18 117.834 145.18C118.291 145.18 118.539 144.989 118.539 144.624V144.566C118.539 144.217 118.282 144.039 117.847 144.039C117.415 144.039 117.162 144.184 117.162 144.607ZM119.846 145.753H119.398V143.69H119.809V144.329H119.838C119.9 143.981 120.174 143.649 120.697 143.649C121.27 143.649 121.552 144.035 121.552 144.512V145.753H121.104V144.632C121.104 144.246 120.929 144.051 120.502 144.051C120.05 144.051 119.846 144.284 119.846 144.732V145.753ZM123.142 145.753H122.577V145.109H123.142V145.753ZM125.474 145.753H124.209V142.972H125.474C126.338 142.972 126.881 143.503 126.881 144.362C126.881 145.221 126.338 145.753 125.474 145.753ZM125.474 143.375H124.653V145.35H125.474C126.118 145.35 126.408 145.076 126.408 144.362C126.408 143.649 126.118 143.375 125.474 143.375ZM128.253 145.794C127.576 145.794 127.132 145.412 127.132 144.723C127.132 144.08 127.572 143.649 128.244 143.649C128.883 143.649 129.319 144.001 129.319 144.628C129.319 144.703 129.315 144.761 129.302 144.823H127.551C127.568 145.221 127.763 145.433 128.24 145.433C128.672 145.433 128.85 145.292 128.85 145.047V145.014H129.298V145.051C129.298 145.491 128.867 145.794 128.253 145.794ZM128.236 144.001C127.779 144.001 127.58 144.205 127.555 144.574H128.896V144.566C128.896 144.184 128.676 144.001 128.236 144.001ZM130.978 145.753H130.431L129.468 143.69H129.962L130.696 145.317H130.729L131.464 143.69H131.949L130.978 145.753ZM133.217 145.794C132.54 145.794 132.096 145.412 132.096 144.723C132.096 144.08 132.536 143.649 133.208 143.649C133.847 143.649 134.283 144.001 134.283 144.628C134.283 144.703 134.279 144.761 134.266 144.823H132.515C132.532 145.221 132.727 145.433 133.204 145.433C133.636 145.433 133.814 145.292 133.814 145.047V145.014H134.262V145.051C134.262 145.491 133.831 145.794 133.217 145.794ZM133.2 144.001C132.744 144.001 132.544 144.205 132.519 144.574H133.86V144.566C133.86 144.184 133.64 144.001 133.2 144.001ZM135.067 145.753H134.619V142.972H135.067V145.753ZM136.536 145.794C135.851 145.794 135.391 145.358 135.391 144.723C135.391 144.08 135.851 143.649 136.536 143.649C137.225 143.649 137.685 144.08 137.685 144.723C137.685 145.358 137.225 145.794 136.536 145.794ZM136.536 145.396C137.038 145.396 137.245 145.159 137.245 144.723C137.245 144.284 137.038 144.043 136.536 144.043C136.038 144.043 135.83 144.284 135.83 144.723C135.83 145.159 136.038 145.396 136.536 145.396ZM138.459 146.458H138.011V143.69H138.421V144.263H138.459C138.542 143.881 138.832 143.649 139.318 143.649C139.957 143.649 140.318 144.084 140.318 144.723C140.318 145.363 139.965 145.794 139.322 145.794C138.857 145.794 138.558 145.549 138.475 145.172H138.459V146.458ZM138.459 144.757C138.459 145.18 138.728 145.387 139.168 145.387C139.612 145.387 139.87 145.217 139.87 144.723C139.87 144.226 139.608 144.06 139.177 144.06C138.716 144.06 138.459 144.275 138.459 144.719V144.757Z" fill="#01070B"/>
<path d="M44.4979 27.7676C44.5797 27.6591 44.5007 27.5041 44.3649 27.5065L38.7365 27.6096C38.5743 27.6126 38.5157 27.825 38.6534 27.9108L40.928 29.3277C40.9792 29.3597 41.0086 29.4173 41.0043 29.4776L40.8137 32.1506C40.8022 32.3125 41.0085 32.3899 41.1062 32.2604L44.4979 27.7676Z" fill="#3BBE27"/>
<path d="M39.6403 30.0104H6.71118C5.6316 30.0104 4.75642 30.8856 4.75642 31.9651V36.4085C4.75642 37.4881 5.63159 38.3633 6.71118 38.3633H37.6855C38.7651 38.3633 39.6403 37.4881 39.6403 36.4085V30.0104Z" fill="#3BBE27"/>
<path d="M8.37976 35.6869H7.19143V33.0765H8.37976C9.19016 33.0765 9.70056 33.5752 9.70056 34.3817C9.70056 35.1882 9.19016 35.6869 8.37976 35.6869ZM8.37976 33.4544H7.60832V35.309H8.37976C8.98366 35.309 9.2564 35.0518 9.2564 34.3817C9.2564 33.7115 8.98366 33.4544 8.37976 33.4544ZM10.9881 35.7259C10.353 35.7259 9.93616 35.3674 9.93616 34.7206C9.93616 34.1167 10.3492 33.7115 10.9803 33.7115C11.5803 33.7115 11.9894 34.0427 11.9894 34.631C11.9894 34.7012 11.9855 34.7557 11.9739 34.8141H10.3297C10.3453 35.1882 10.5284 35.3869 10.9764 35.3869C11.3816 35.3869 11.5492 35.2544 11.5492 35.0245V34.9934H11.97V35.0284C11.97 35.4414 11.5648 35.7259 10.9881 35.7259ZM10.9725 34.0427C10.544 34.0427 10.3569 34.2336 10.3336 34.5804H11.592V34.5726C11.592 34.2141 11.3855 34.0427 10.9725 34.0427ZM13.2202 35.7259C12.5968 35.7259 12.2423 35.4804 12.2423 35.0323V35.0206H12.663V35.0518C12.663 35.3051 12.815 35.3869 13.2202 35.3869C13.5981 35.3869 13.7111 35.309 13.7111 35.1375C13.7111 34.9778 13.6176 34.9271 13.341 34.8882L12.8111 34.818C12.4449 34.7713 12.2228 34.6154 12.2228 34.2921C12.2228 33.9531 12.5306 33.7115 13.1267 33.7115C13.7189 33.7115 14.0774 33.9492 14.0774 34.4089V34.4206H13.6605V34.3973C13.6605 34.1674 13.5436 34.0466 13.115 34.0466C12.7605 34.0466 12.6358 34.1245 12.6358 34.3076C12.6358 34.4596 12.7137 34.5141 13.0059 34.5531L13.454 34.6154C13.9137 34.6739 14.1241 34.8297 14.1241 35.1492C14.1241 35.5116 13.7657 35.7259 13.2202 35.7259ZM14.8485 33.5245H14.4277V33.0765H14.8485V33.5245ZM14.8485 35.6869H14.4277V33.7505H14.8485V35.6869ZM16.0797 35.5116C15.5031 35.5116 15.1602 35.1492 15.1602 34.6115C15.1602 34.0739 15.5187 33.7115 16.107 33.7115C16.5122 33.7115 16.8161 33.8947 16.8862 34.2336H16.9096V33.7505H17.2953V35.4609C17.2953 36.1116 16.8901 36.3882 16.255 36.3882C15.6823 36.3882 15.2849 36.1194 15.2849 35.6518H15.7018C15.7018 35.9323 15.8654 36.0375 16.2784 36.0375C16.7187 36.0375 16.8784 35.9168 16.8784 35.4843V35.009H16.8512C16.781 35.3012 16.52 35.5116 16.0797 35.5116ZM15.5849 34.6115C15.5849 35.009 15.8187 35.1492 16.2161 35.1492C16.6447 35.1492 16.8784 34.97 16.8784 34.6271V34.5726C16.8784 34.2453 16.6369 34.0778 16.2278 34.0778C15.8226 34.0778 15.5849 34.2141 15.5849 34.6115ZM18.1055 35.6869H17.6847V33.7505H18.0704V34.3505H18.0977C18.1561 34.0232 18.4132 33.7115 18.9042 33.7115C19.4418 33.7115 19.7068 34.0739 19.7068 34.5219V35.6869H19.286V34.6349C19.286 34.2726 19.1224 34.0895 18.721 34.0895C18.2964 34.0895 18.1055 34.3076 18.1055 34.7284V35.6869ZM21.1995 35.6869H20.6697V35.083H21.1995V35.6869ZM23.3899 35.6869H22.2016V33.0765H23.3899C24.2003 33.0765 24.7107 33.5752 24.7107 34.3817C24.7107 35.1882 24.2003 35.6869 23.3899 35.6869ZM23.3899 33.4544H22.6185V35.309H23.3899C23.9938 35.309 24.2665 35.0518 24.2665 34.3817C24.2665 33.7115 23.9938 33.4544 23.3899 33.4544ZM25.9983 35.7259C25.3632 35.7259 24.9463 35.3674 24.9463 34.7206C24.9463 34.1167 25.3593 33.7115 25.9905 33.7115C26.5905 33.7115 26.9996 34.0427 26.9996 34.631C26.9996 34.7012 26.9957 34.7557 26.984 34.8141H25.3398C25.3554 35.1882 25.5385 35.3869 25.9866 35.3869C26.3918 35.3869 26.5593 35.2544 26.5593 35.0245V34.9934H26.9801V35.0284C26.9801 35.4414 26.5749 35.7259 25.9983 35.7259ZM25.9827 34.0427C25.5541 34.0427 25.3671 34.2336 25.3437 34.5804H26.6022V34.5726C26.6022 34.2141 26.3957 34.0427 25.9827 34.0427ZM28.5576 35.6869H28.0433L27.1394 33.7505H27.6031L28.2927 35.2778H28.3239L29.0135 33.7505H29.4693L28.5576 35.6869ZM30.6592 35.7259C30.0241 35.7259 29.6073 35.3674 29.6073 34.7206C29.6073 34.1167 30.0202 33.7115 30.6514 33.7115C31.2514 33.7115 31.6605 34.0427 31.6605 34.631C31.6605 34.7012 31.6566 34.7557 31.645 34.8141H30.0008C30.0164 35.1882 30.1995 35.3869 30.6475 35.3869C31.0527 35.3869 31.2203 35.2544 31.2203 35.0245V34.9934H31.6411V35.0284C31.6411 35.4414 31.2359 35.7259 30.6592 35.7259ZM30.6436 34.0427C30.2151 34.0427 30.028 34.2336 30.0047 34.5804H31.2631V34.5726C31.2631 34.2141 31.0566 34.0427 30.6436 34.0427ZM32.3965 35.6869H31.9757V33.0765H32.3965V35.6869ZM33.7758 35.7259C33.1329 35.7259 32.7004 35.3168 32.7004 34.7206C32.7004 34.1167 33.1329 33.7115 33.7758 33.7115C34.4225 33.7115 34.855 34.1167 34.855 34.7206C34.855 35.3168 34.4225 35.7259 33.7758 35.7259ZM33.7758 35.3518C34.2472 35.3518 34.442 35.1297 34.442 34.7206C34.442 34.3076 34.2472 34.0817 33.7758 34.0817C33.3082 34.0817 33.1134 34.3076 33.1134 34.7206C33.1134 35.1297 33.3082 35.3518 33.7758 35.3518ZM35.5811 36.3492H35.1604V33.7505H35.5461V34.2882H35.5811C35.6591 33.9297 35.9318 33.7115 36.3877 33.7115C36.9877 33.7115 37.3266 34.1206 37.3266 34.7206C37.3266 35.3206 36.9955 35.7259 36.3916 35.7259C35.9552 35.7259 35.6747 35.496 35.5967 35.1414H35.5811V36.3492ZM35.5811 34.7518C35.5811 35.1492 35.8344 35.344 36.2474 35.344C36.6643 35.344 36.9058 35.1843 36.9058 34.7206C36.9058 34.2531 36.6604 34.0973 36.2552 34.0973C35.8227 34.0973 35.5811 34.2999 35.5811 34.7167V34.7518Z" fill="#01070B"/>
<defs>
<linearGradient id="paint0_linear_2025_25" x1="81.9455" y1="1.16931" x2="81.9455" y2="26.0173" gradientUnits="userSpaceOnUse">
<stop stop-color="white" stop-opacity="0"/>
<stop offset="1" stop-color="#D2583B" stop-opacity="0.2"/>
</linearGradient>
</defs>
</svg>
